<svg width="397" height="330" viewBox="0 0 397 330" fill="none" xmlns="http://www.w3.org/2000/svg">
<g clip-path="url(#clip0_1082_55933)">
<path d="M361.884 0.21582H264.511C254.223 2.4205 246.138 9.70821 243.382 13.0765L179.078 84.7287L112.019 86.5659C79.8676 87.4846 82.9296 126.373 89.0538 138.009L100.077 152.706L57.8218 155.462C24.0167 152.523 17.4026 174.447 18.3212 185.777C19.0561 214.438 44.9612 217.316 57.8218 215.173L146.009 222.521V289.581L84.4617 287.743C76.5003 287.743 60.3937 291.969 59.6589 308.872C58.924 325.774 70.9885 330 77.1126 330H243.382C255.876 326.325 258.386 314.383 258.08 308.872C258.815 292.704 243.076 288.05 235.115 287.743C228.991 288.968 216.742 287.927 216.742 273.964C216.742 260.001 224.091 257.123 227.766 257.429H359.128C387.054 255.959 392.811 230.483 392.198 217.928C392.198 184.123 367.702 175.059 355.454 174.753H292.069L222.254 169.242V138.009H348.105C361.333 137.274 362.803 124.229 361.884 117.799C361.884 104.571 352.698 101.264 348.105 101.264H327.895C323.915 101.876 315.953 99.794 315.953 86.5659C315.953 73.3378 323.915 70.0308 327.895 70.0308H361.884C386.87 67.8261 392.505 47.6778 392.198 37.8792C392.198 12.1579 371.989 2.05306 361.884 0.21582Z" fill="#FFF2C8"/>
<path d="M158.867 218.847C158.867 177.245 192.592 143.521 234.194 143.521C275.796 143.521 309.521 177.245 309.521 218.847V240.894H158.867V218.847Z" fill="#2E7F4C"/>
<path d="M253.241 127.5C253.241 117.283 244.958 109 234.741 109C224.524 109 216.241 117.283 216.241 127.5V150.5C216.241 160.717 224.524 169 234.741 169C244.958 169 253.241 160.717 253.241 150.5V127.5Z" fill="#E9B306"/>
<path d="M157.542 139.846H62.8198C60.0584 139.846 57.8198 142.084 57.8198 144.846V257.941C57.8198 260.702 60.0584 262.941 62.8198 262.941H157.542C160.303 262.941 162.542 260.702 162.542 257.941V144.846C162.542 142.084 160.303 139.846 157.542 139.846Z" fill="#2E7F4C"/>
<path d="M223.683 185.775H127.123C124.362 185.775 122.123 188.014 122.123 190.775V305.707C122.123 308.469 124.362 310.707 127.123 310.707H223.683C226.444 310.707 228.683 308.469 228.683 305.707V190.775C228.683 188.014 226.444 185.775 223.683 185.775Z" fill="#2C8C51"/>
<path d="M201.125 200.474H131.31V207.823H201.125V200.474Z" fill="#67C48B"/>
<path d="M191.939 213.334H131.31V220.683H191.939V213.334Z" fill="#67C48B"/>
<path d="M173.566 273.963H131.31V281.312H173.566V273.963Z" fill="#67C48B"/>
<path d="M188.264 286.823H131.31V294.172H188.264V286.823Z" fill="#67C48B"/>
<path d="M201.125 226.195H131.31V266.615H201.125V226.195Z" fill="#FFC400"/>
<path d="M322.382 264.778H307.684V294.174H322.382V264.778Z" fill="#309B54"/>
<path d="M315.952 270.29C335.738 270.29 351.778 254.25 351.778 234.464C351.778 214.678 335.738 198.638 315.952 198.638C296.166 198.638 280.126 214.678 280.126 234.464C280.126 254.25 296.166 270.29 315.952 270.29Z" fill="#2E8A4D"/>
<path d="M315.952 259.267C329.65 259.267 340.755 248.162 340.755 234.464C340.755 220.766 329.65 209.661 315.952 209.661C302.254 209.661 291.149 220.766 291.149 234.464C291.149 248.162 302.254 259.267 315.952 259.267Z" fill="#FFC400"/>
<path d="M305.847 288.662H324.22V324.081C324.22 326.843 321.981 329.081 319.22 329.081H310.847C308.086 329.081 305.847 326.843 305.847 324.081V288.662Z" fill="#2E8A4D"/>
<path d="M289.312 66.3564C289.312 35.916 264.635 11.2393 234.195 11.2393C203.755 11.2393 179.078 35.916 179.078 66.3564V81.0542C179.078 111.494 203.755 136.171 234.195 136.171C264.635 136.171 289.312 111.494 289.312 81.0542V66.3564Z" fill="#FFD032"/>
<path d="M117.241 27C122.764 27 127.241 22.5228 127.241 17C127.241 11.4772 122.764 7 117.241 7C111.718 7 107.241 11.4772 107.241 17C107.241 22.5228 111.718 27 117.241 27Z" stroke="#2E7F4C" stroke-width="4"/>
<path d="M14.9114 285.744C21.7758 285.744 27.3404 280.179 27.3404 273.315C27.3404 266.45 21.7758 260.886 14.9114 260.886C8.04708 260.886 2.48242 266.45 2.48242 273.315C2.48242 280.179 8.04708 285.744 14.9114 285.744Z" stroke="#2E7F4C" stroke-width="4"/>
<path d="M384.741 158C389.988 158 394.241 153.747 394.241 148.5C394.241 143.253 389.988 139 384.741 139C379.495 139 375.241 143.253 375.241 148.5C375.241 153.747 379.495 158 384.741 158Z" stroke="#2E7F4C" stroke-width="4"/>
<path d="M39.2014 63.7602V46.2402H42.5614V63.7602H39.2014ZM31.9214 56.6002V53.4402H49.8414V56.6002H31.9214Z" fill="#FFD032"/>
<path d="M270.347 284.401V266.881H273.707V284.401H270.347ZM263.067 277.241V274.081H280.987V277.241H263.067Z" fill="#FFD032"/>
<path d="M379.412 90.7602V73.2402H382.772V90.7602H379.412ZM372.132 83.6002V80.4402H390.052V83.6002H372.132Z" fill="#FFD032"/>
</g>
<defs>
<clipPath id="clip0_1082_55933">
<rect width="396" height="330" fill="white" transform="translate(0.241211)"/>
</clipPath>
</defs>
</svg>