<svg width="213" height="160" viewBox="0 0 213 160" fill="none" xmlns="http://www.w3.org/2000/svg">
<g opacity="0.2">
<path opacity="0.64" fill-rule="evenodd" clip-rule="evenodd" d="M0.5 88.347C0.5 106.772 7.10088 123.562 17.9631 136.252C30.4244 150.814 48.4947 159.969 68.6371 160C77.4401 160.013 85.8574 158.272 93.5891 155.095C97.5867 153.451 102.061 153.64 105.933 155.587C110.475 157.868 115.56 159.147 120.931 159.147C123.149 159.147 125.322 158.928 127.423 158.51C133.421 157.323 138.88 154.515 143.363 150.537C146.18 148.036 149.788 146.779 153.476 146.783H153.538C165.723 146.783 177.042 142.902 186.439 136.252C194.84 130.314 201.7 122.165 206.271 112.596C210.257 104.258 212.5 94.8391 212.5 84.8701C212.5 50.6788 186.1 22.9571 153.538 22.9571C150.219 22.9571 146.967 23.2515 143.794 23.8008C135.393 9.52003 120.349 0 103.187 0C95.9412 0 89.072 1.69675 82.9232 4.73832C77.0757 7.62148 71.8767 11.7183 67.6238 16.7111C53.1826 16.9529 39.8295 21.9066 28.9005 30.174C11.6969 43.1801 0.5 64.3922 0.5 88.347Z" fill="url(#paint0_linear_455_16897)"/>
</g>
<path opacity="0.05" d="M129.911 91.6415C128.918 92.8294 127.846 92.8095 127.207 92.642L127.23 92.0268C127.23 92.0268 129.871 90.8123 129.804 91.0674C129.779 91.1631 129.829 91.393 129.911 91.6415Z" fill="#FF5630"/>
<path opacity="0.05" d="M137.149 92.9856C135.462 93.9662 134.473 92.8169 134.243 92.4913C134.385 92.1179 134.597 91.512 134.554 91.3393C134.49 91.0828 137.127 92.2973 137.127 92.2973L137.149 92.9856Z" fill="#FF5630"/>
<path opacity="0.05" d="M135.342 83.2019C135.342 83.2019 136.946 82.2717 137.296 82.6903C137.646 83.1088 135.342 83.2019 135.342 83.2019Z" fill="#FF5630"/>
<path opacity="0.05" d="M136.311 83.7139C136.311 83.7139 136.047 83.8467 136.629 84.0168C137.212 84.1869 136.311 83.7139 136.311 83.7139Z" fill="#FF5630"/>
<path opacity="0.05" d="M126.61 81.1552C126.556 81.1712 127.945 82.0986 129.199 81.3306C129.194 81.3306 126.923 81.0595 126.61 81.1552Z" fill="#FF5630"/>
<path opacity="0.05" d="M129.131 82.9297C129.131 82.9297 128.75 83.6818 127.971 83.7934C127.192 83.905 129.131 82.9297 129.131 82.9297Z" fill="#FF5630"/>
<path opacity="0.05" d="M134.23 84.5615C134.23 84.5615 136.058 87.4848 135.708 88.1744C135.358 88.8641 134.23 84.5615 134.23 84.5615Z" fill="#FF5630"/>
<path opacity="0.05" d="M130.624 96.185C130.624 96.3484 130.624 96.5012 130.608 96.6275C130.561 97.2188 129.115 96.9955 129.115 96.9955C127.794 97.1802 127.319 96.5424 127.162 95.9325C127.113 95.7344 127.088 95.5308 127.089 95.3266C127.088 95.2048 127.096 95.0831 127.113 94.9625V94.8416C127.398 94.7552 127.706 94.8186 127.934 95.0103C128.522 95.49 129.301 95.122 129.301 95.122C129.301 95.122 129.873 95.1698 130.093 95.3611C130.217 95.4688 130.422 95.2097 130.578 94.9625C130.587 95.122 130.602 95.4103 130.611 95.7186C130.622 95.8767 130.624 96.0362 130.624 96.185Z" fill="#FF5630"/>
<path opacity="0.05" d="M128.305 96.1505C128.305 96.1505 127.909 96.5412 127.162 95.9379C127.113 95.7398 127.088 95.5363 127.089 95.332C127.471 95.6244 128.179 96.1505 128.305 96.1505Z" fill="#FF5630"/>
<path opacity="0.05" d="M130.624 96.1855C130.559 96.2361 130.476 96.2573 130.394 96.2442C130.313 96.2312 130.241 96.1849 130.195 96.1164C130.349 95.9984 130.49 95.8649 130.617 95.7178C130.621 95.8772 130.624 96.0367 130.624 96.1855Z" fill="#FF5630"/>
<path opacity="0.05" d="M133.723 96.4595C133.723 96.6242 133.723 96.777 133.738 96.902C133.785 97.4946 135.231 97.27 135.231 97.27C136.552 97.456 137.027 96.8182 137.184 96.207C137.262 95.8898 137.279 95.5605 137.233 95.237V95.1161C136.948 95.0312 136.64 95.0945 136.41 95.2848C135.823 95.7645 135.045 95.3965 135.045 95.3965C135.045 95.3965 134.473 95.4456 134.253 95.637C134.129 95.7446 133.924 95.4855 133.769 95.2383C133.76 95.3978 133.744 95.6861 133.735 95.9944C133.725 96.1499 133.722 96.3093 133.723 96.4595Z" fill="#FF5630"/>
<path opacity="0.05" d="M136.042 96.4217C136.042 96.4217 136.438 96.8123 137.184 96.2091C137.234 96.0115 137.259 95.8083 137.258 95.6045C136.875 95.8955 136.168 96.4217 136.042 96.4217Z" fill="#FF5630"/>
<path opacity="0.05" d="M133.723 96.4589C133.788 96.5094 133.871 96.5307 133.952 96.5176C134.033 96.5045 134.105 96.4583 134.151 96.3898C133.997 96.2721 133.855 96.1385 133.729 95.9912C133.725 96.1493 133.722 96.3088 133.723 96.4589Z" fill="#FF5630"/>
<g opacity="0.05">
<path d="M141.663 47.2311C141.691 47.17 141.717 47.1088 141.742 47.0491C141.768 46.9893 141.777 46.956 141.791 46.9082C141.743 47.0134 141.7 47.1212 141.663 47.2311Z" fill="#FF5630"/>
</g>
<path fill-rule="evenodd" clip-rule="evenodd" d="M70.1033 124.205C69.7833 123.817 69.6366 123.314 69.6979 122.814L75.5264 74.8228L76.0097 70.8365C76.1217 69.9192 76.8924 69.2278 77.8108 69.2207L94.8831 69.1064C95.3742 69.1034 95.8433 68.9015 96.1847 68.5462C96.5261 68.1909 96.7109 67.7123 96.6974 67.2183L96.6908 67.0362C96.674 66.538 96.8589 66.0542 97.2031 65.6958C97.5474 65.3373 98.0216 65.1348 98.517 65.1348H116.457C117.464 65.1348 118.281 65.9551 118.283 66.9685C118.283 67.0511 118.278 67.1336 118.267 67.2156C118.198 67.7328 118.351 68.2551 118.688 68.6521C119.024 69.0491 119.513 69.2833 120.031 69.2965L137.261 69.7389C137.791 69.7521 138.289 69.9966 138.626 70.4088C138.962 70.8211 139.104 71.3603 139.014 71.8862L130.401 122.512L130.238 123.469C130.198 123.713 130.108 123.947 129.974 124.155L70.1033 124.205Z" fill="#005249"/>
<rect width="10.1089" height="34.3868" transform="matrix(0.821068 0.570831 -0.566006 0.824401 122.097 54.9678)" fill="white"/>
<rect width="7.1368" height="7.15241" transform="matrix(0.819427 0.573184 -0.568359 0.822781 122.695 56.3105)" fill="#FFAB00"/>
<rect opacity="0.5" width="7.14633" height="7.1622" transform="matrix(0.821068 0.570831 -0.566006 0.824401 118.114 63.4023)" fill="#FFAB00"/>
<rect opacity="0.3" width="7.14633" height="7.1622" transform="matrix(0.821068 0.570831 -0.566006 0.824401 113.219 70.5312)" fill="#FFAB00"/>
<rect width="10.0933" height="34.3092" transform="matrix(0.959378 0.282123 -0.278883 0.960325 110.371 53.1924)" fill="white"/>
<rect width="7.13535" height="7.17314" transform="matrix(0.959378 0.282123 -0.278883 0.960325 111.642 54.1426)" fill="#FF5630"/>
<rect opacity="0.5" width="7.13535" height="7.17314" transform="matrix(0.959378 0.282123 -0.278883 0.960325 109.226 62.459)" fill="#FF5630"/>
<rect opacity="0.3" width="7.13535" height="7.17315" transform="matrix(0.959378 0.282124 -0.278883 0.960325 106.811 70.7744)" fill="#FF5630"/>
<rect width="10.0887" height="34.3246" transform="matrix(0.996738 0.0807 -0.0797009 0.996819 103.511 53.7119)" fill="white"/>
<rect width="7.1321" height="7.17638" transform="matrix(0.996738 0.0807 -0.0797009 0.996819 104.943 54.3848)" fill="#00B8D9"/>
<rect opacity="0.5" width="7.1321" height="7.17638" transform="matrix(0.996738 0.0807001 -0.0797008 0.996819 104.251 63.0186)" fill="#00B8D9"/>
<rect opacity="0.3" width="7.1321" height="7.17637" transform="matrix(0.996738 0.0807 -0.0797009 0.996819 103.561 71.6562)" fill="#00B8D9"/>
<rect width="10.0885" height="34.3256" transform="matrix(0.99895 -0.0458231 0.0452533 0.998976 98.9874 55.0869)" fill="white"/>
<rect width="7.1319" height="7.17657" transform="matrix(0.99895 -0.0458232 0.0452533 0.998976 100.49 55.5723)" fill="#00A94F"/>
<rect opacity="0.5" width="7.14083" height="7.18552" transform="matrix(0.998737 -0.0502509 0.0496263 0.998768 101.161 63.9521)" fill="#00A94F"/>
<rect opacity="0.3" width="7.1319" height="7.17657" transform="matrix(0.99895 -0.0458232 0.0452533 0.998976 101.273 72.8828)" fill="#00A94F"/>
<path d="M103.267 100.323L94.3034 103.813L81.2031 108.909C80.708 107.978 79.9791 106.721 79.0772 105.221C75.9741 100.047 70.8401 91.9987 66.2687 84.9256C61.1189 76.953 56.6861 70.2255 56.6861 70.2255L59.8948 69.2954L86.106 61.6377L103.267 100.323Z" fill="#F4F6F8"/>
<path opacity="0.1" d="M103.267 100.323L94.3032 103.813C89.2961 104.862 84.1865 105.335 79.073 105.221C75.97 100.047 70.836 91.9987 66.2646 84.9256L59.896 69.2901L86.1058 61.6377L103.267 100.323Z" fill="black"/>
<path d="M109.935 98.1524C109.935 98.1524 96.0106 106.441 75.2213 104.566L58.6482 63.9061L66.5908 62.5321L94.0484 57.7871L109.63 97.3617L109.935 98.1524Z" fill="#00A94F"/>
<path opacity="0.1" d="M109.625 97.3666C106.346 97.5287 102.552 97.5128 98.7362 97.0544C94.6058 96.5654 90.4516 95.5582 86.8903 93.7112C83.9127 92.1685 81.3668 90.4903 79.1471 88.4772C73.3727 83.2511 69.7996 75.7755 66.5909 62.537L94.0485 57.792L109.625 97.3666Z" fill="#FF5630"/>
<path d="M119.84 95.0929C119.84 95.0929 109.576 97.1153 99.1282 95.8702C94.9978 95.3813 90.8436 94.3741 87.2824 92.5271C84.3047 90.9844 81.7602 89.3061 79.5392 87.2931C72.3928 80.8233 68.619 70.9081 64.7276 50.8849C64.7276 50.8849 81.7906 55.0293 98.6634 45.9512C98.6581 45.9578 104.345 81.6724 119.84 95.0929Z" fill="white"/>
<g opacity="0.3">
<path d="M73.5536 58.2355C73.5536 58.2355 87.429 57.4462 91.3032 54.4365L91.8908 56.3367C91.8908 56.3367 82.7229 60.4067 73.5536 60.4558V58.2355Z" fill="#00A94F"/>
<path d="M73.5536 67.6165C73.5536 67.6165 86.988 66.8764 97.1383 61.9427L97.4817 62.732C97.4817 62.732 89.4268 67.4637 73.5536 68.7021V67.6165Z" fill="#00A94F"/>
<path d="M74.6353 71.272C74.6353 71.272 88.0697 70.5319 98.2188 65.5982L98.5621 66.3875C98.5621 66.3875 90.5073 71.1179 74.6353 72.3576V71.272Z" fill="#00A94F"/>
<path d="M75.7153 74.9327C75.7153 74.9327 89.1497 74.1926 99.3001 69.2589L99.6421 70.0482C99.6421 70.0482 91.5873 74.7799 75.7153 76.0183V74.9327Z" fill="#00A94F"/>
<path d="M76.7966 78.5935C76.7966 78.5935 90.231 77.8534 100.38 72.9197L100.723 73.709C100.723 73.709 92.6686 78.4407 76.7966 79.6791V78.5935Z" fill="#00A94F"/>
<path d="M77.8767 82.2555C77.8767 82.2555 91.311 81.5154 101.461 76.5817L101.803 77.371C101.803 77.371 93.7486 82.1014 77.8767 83.3411V82.2555Z" fill="#00A94F"/>
</g>
<path d="M172.339 127.709C172.339 127.709 166.756 127.37 167.413 131.307C167.413 131.307 167.281 132.002 167.91 132.318C167.91 132.318 167.919 132.026 168.482 132.126C168.682 132.16 168.886 132.169 169.089 132.155C169.363 132.136 169.623 132.028 169.83 131.847C169.83 131.847 171.4 131.194 172.01 128.614C172.01 128.614 172.461 128.05 172.443 127.905L171.501 128.304C171.501 128.304 171.824 128.988 171.57 129.556C171.57 129.556 171.54 128.329 171.359 128.36C171.322 128.36 170.869 128.596 170.869 128.596C170.869 128.596 171.422 129.792 171.001 130.653C171.001 130.653 171.159 129.185 170.692 128.683L170.032 129.072C170.032 129.072 170.679 130.303 170.24 131.307C170.24 131.307 170.353 129.767 169.892 129.166L169.291 129.638C169.291 129.638 169.9 130.851 169.529 131.684C169.529 131.684 169.48 129.891 169.16 129.755C169.16 129.755 168.632 130.221 168.556 130.419C168.556 130.419 168.971 131.299 168.713 131.764C168.713 131.764 168.554 130.568 168.425 130.568C168.425 130.568 167.897 131.366 167.846 131.897C167.846 131.897 167.869 131.089 168.298 130.487C167.996 130.545 167.717 130.691 167.495 130.906C167.495 130.906 167.577 130.345 168.427 130.297C168.427 130.297 168.861 129.697 168.975 129.659C168.975 129.659 168.13 129.589 167.618 129.818C167.618 129.818 168.07 129.286 169.131 129.529L169.724 129.043C169.724 129.043 168.611 128.889 168.14 129.059C168.14 129.059 168.682 128.591 169.884 128.926L170.53 128.538C170.53 128.538 169.582 128.332 169.016 128.405C169.016 128.405 169.612 128.081 170.72 128.432L171.181 128.223C171.181 128.223 170.486 128.09 170.283 128.064C170.079 128.037 170.067 127.987 170.067 127.987C170.508 127.912 170.96 127.962 171.373 128.133C171.373 128.133 172.354 127.771 172.339 127.709Z" fill="#00A94F"/>
<path d="M174.939 114.712C174.939 114.712 171.792 114.521 172.166 116.741C172.126 116.972 172.239 117.202 172.444 117.311C172.444 117.311 172.451 117.146 172.768 117.202C172.881 117.221 172.996 117.226 173.11 117.218C173.264 117.208 173.411 117.147 173.527 117.045C173.527 117.045 174.412 116.677 174.757 115.222C174.757 115.222 175.011 114.905 175.001 114.824L174.473 115.051C174.473 115.051 174.654 115.438 174.511 115.758C174.511 115.758 174.494 115.066 174.392 115.082C174.371 115.082 174.116 115.214 174.116 115.214C174.116 115.214 174.428 115.879 174.193 116.374C174.193 116.374 174.283 115.547 174.018 115.262L173.645 115.483C173.645 115.483 174.009 116.176 173.762 116.742C173.762 116.742 173.826 115.873 173.566 115.536L173.227 115.802C173.227 115.802 173.569 116.486 173.36 116.955C173.36 116.955 173.332 115.944 173.152 115.868C173.024 115.978 172.909 116.102 172.81 116.239C172.81 116.239 173.045 116.736 172.9 116.998C172.9 116.998 172.81 116.324 172.738 116.321C172.738 116.321 172.442 116.766 172.411 117.072C172.426 116.788 172.514 116.514 172.666 116.275C172.495 116.307 172.338 116.389 172.213 116.511C172.213 116.511 172.26 116.195 172.742 116.168C172.742 116.168 172.986 115.83 173.051 115.808C173.051 115.808 172.574 115.769 172.285 115.897C172.285 115.897 172.54 115.6 173.138 115.735L173.473 115.46C173.473 115.46 172.845 115.374 172.579 115.47C172.579 115.47 172.885 115.204 173.563 115.398L173.927 115.179C173.647 115.117 173.36 115.092 173.073 115.105C173.073 115.105 173.41 114.922 174.033 115.12L174.297 115.003C174.297 115.003 173.901 114.925 173.79 114.913C173.679 114.901 173.669 114.869 173.669 114.869C173.917 114.827 174.172 114.856 174.405 114.951C174.405 114.951 174.949 114.747 174.939 114.712Z" fill="#00A94F"/>
<path d="M156.362 116.639C156.362 116.639 152.562 116.408 153.011 119.088C152.963 119.366 153.099 119.644 153.348 119.776C153.348 119.776 153.348 119.577 153.744 119.643C153.88 119.666 154.019 119.673 154.157 119.663C154.344 119.651 154.521 119.577 154.662 119.453C154.662 119.453 155.73 119.009 156.146 117.253C156.146 117.253 156.454 116.87 156.44 116.77L155.792 117.047C155.792 117.047 156.011 117.512 155.838 117.898C155.838 117.898 155.817 117.064 155.694 117.083C155.669 117.083 155.362 117.245 155.362 117.245C155.362 117.245 155.738 118.055 155.454 118.645C155.454 118.645 155.562 117.646 155.244 117.303L154.792 117.569C154.792 117.569 155.232 118.407 154.934 119.09C154.934 119.09 155.01 118.042 154.697 117.629L154.288 117.95C154.288 117.95 154.703 118.775 154.449 119.343C154.449 119.343 154.417 118.122 154.2 118.03C154.2 118.03 153.842 118.348 153.788 118.478C153.788 118.478 154.07 119.077 153.894 119.393C153.894 119.393 153.786 118.58 153.698 118.576C153.698 118.576 153.343 119.116 153.302 119.484C153.319 119.142 153.425 118.812 153.609 118.524C153.404 118.564 153.214 118.663 153.064 118.81C153.064 118.81 153.119 118.429 153.698 118.395C153.698 118.395 153.992 117.986 154.071 117.962C154.071 117.962 153.496 117.913 153.147 118.069C153.147 118.069 153.453 117.71 154.176 117.873L154.58 117.541C154.58 117.541 153.823 117.437 153.501 117.552C153.501 117.552 153.871 117.234 154.689 117.467L155.129 117.201C155.129 117.201 154.483 117.061 154.098 117.112C154.098 117.112 154.505 116.891 155.257 117.13L155.571 116.988C155.571 116.988 155.099 116.895 154.96 116.881C154.821 116.866 154.815 116.827 154.815 116.827C155.114 116.776 155.422 116.81 155.704 116.926C155.704 116.926 156.374 116.68 156.362 116.639Z" fill="#00A94F"/>
<rect width="22.6645" height="40.3538" rx="5" transform="matrix(0.307434 -0.951569 0.950429 0.31094 123.342 55.5625)" fill="white"/>
<g opacity="0.24">
<path d="M138.737 46.0029C138.737 48.3043 136.883 50.17 134.596 50.17C132.309 50.17 130.455 48.3043 130.455 46.0029C130.455 43.7016 132.309 41.8359 134.596 41.8359C136.883 41.8359 138.737 43.7016 138.737 46.0029Z" fill="#00A94F"/>
<path d="M144.504 45.2528L144.854 44.1673L162.012 49.7805L161.661 50.866L144.504 45.2528Z" fill="#00A94F"/>
<path d="M143.609 48.0203L143.96 46.9348L152.7 49.7942L152.349 50.8796L143.609 48.0203Z" fill="#00A94F"/>
<path d="M142.713 50.7895L143.064 49.7041L157.2 54.3288L156.85 55.4143L142.713 50.7895Z" fill="#00A94F"/>
<path d="M141.82 53.5577L142.17 52.4722L159.328 58.0854L158.977 59.1709L141.82 53.5577Z" fill="#00A94F"/>
</g>
<rect opacity="0.5" width="2.20576" height="4.99566" transform="matrix(0.307433 -0.95157 0.950429 0.310941 152.611 62.6289)" fill="#00A94F"/>
<rect width="22.3149" height="34.6483" rx="4" transform="matrix(0.53836 -0.842715 0.839631 0.543157 119.823 94.9434)" fill="white"/>
<path d="M137.903 100.965L145.305 89.2402L146.45 89.972L139.047 101.697L137.903 100.965Z" fill="#F4F6F8"/>
<path d="M140.348 102.527L147.751 90.8023L148.895 91.5341L141.493 103.259L140.348 102.527Z" fill="#F4F6F8"/>
<path d="M124.134 93.6314L127.505 88.2928L128.753 89.0909L125.382 94.4295L124.134 93.6314Z" fill="#DFE3E8"/>
<path d="M128.124 94.7129L135.526 82.9883L136.671 83.7201L129.268 95.4447L128.124 94.7129Z" fill="#DFE3E8"/>
<path d="M130.569 96.2747L137.971 84.5501L139.116 85.2819L131.713 97.0065L130.569 96.2747Z" fill="#DFE3E8"/>
<path d="M133.013 97.8392L140.416 86.1146L141.561 86.8464L134.158 98.571L133.013 97.8392Z" fill="#DFE3E8"/>
<path d="M135.543 100.106L142.997 88.4374L144.136 89.1743L136.682 100.843L135.543 100.106Z" fill="#DFE3E8"/>
<path d="M150.613 95.8665L152.53 92.8305L155.547 94.7594L153.63 97.7955L150.613 95.8665Z" fill="#DFE3E8"/>
<path d="M119.43 75.005L99.2167 75.2242C98.4601 75.2322 97.8507 75.8513 97.85 76.6128V78.2936C97.8496 79.0475 97.252 79.6635 96.5032 79.6822L81.9174 80.0343C81.2813 80.0504 80.7167 79.6267 80.5507 79.0085L79.8654 76.4746C79.701 75.8633 79.1464 75.4413 78.5172 75.4488L59.0338 75.66C58.6298 75.664 58.2478 75.846 57.9887 76.1579C57.7295 76.4698 57.6192 76.8803 57.6869 77.2811L65.5252 123.703C65.6375 124.369 66.2097 124.857 66.8813 124.86L128.433 125.126C128.846 125.127 129.237 124.943 129.501 124.624C129.764 124.305 129.872 123.883 129.795 123.476L120.8 76.1331C120.674 75.4732 120.098 74.9982 119.43 75.005Z" fill="url(#paint1_linear_455_16897)"/>
<g opacity="0.2">
<path d="M172.444 132.661C172.444 133.033 170.675 133.334 168.493 133.334C166.311 133.334 164.543 133.033 164.543 132.661C164.543 132.29 166.311 131.989 168.493 131.989C170.675 131.989 172.444 132.29 172.444 132.661Z" fill="#00A94F"/>
<path d="M175.001 117.504C175.001 117.713 174.003 117.883 172.773 117.883C171.543 117.883 170.546 117.713 170.546 117.504C170.546 117.295 171.543 117.126 172.773 117.126C174.003 117.126 175.001 117.295 175.001 117.504Z" fill="#00A94F"/>
<path d="M156.435 120.01C156.435 120.263 155.231 120.467 153.746 120.467C152.26 120.467 151.056 120.263 151.056 120.01C151.056 119.758 152.26 119.553 153.746 119.553C155.231 119.553 156.435 119.758 156.435 120.01Z" fill="#00A94F"/>
<path d="M55.4609 114.962C55.4609 115.126 54.5026 115.259 53.3204 115.259C52.1383 115.259 51.18 115.126 51.18 114.962C51.18 114.799 52.1383 114.666 53.3204 114.666C54.5026 114.666 55.4609 114.799 55.4609 114.962Z" fill="#00A94F"/>
<path d="M47.262 115.798C47.262 115.962 46.3037 116.094 45.1216 116.094C43.9394 116.094 42.9811 115.962 42.9811 115.798C42.9811 115.635 43.9394 115.502 45.1216 115.502C46.3037 115.502 47.262 115.635 47.262 115.798Z" fill="#00A94F"/>
<path d="M49.9243 118.181C49.9243 118.297 49.2432 118.391 48.4031 118.391C47.563 118.391 46.8819 118.297 46.8819 118.181C46.8819 118.065 47.563 117.971 48.4031 117.971C49.2432 117.971 49.9243 118.065 49.9243 118.181Z" fill="#00A94F"/>
<path d="M41.4148 117.971C41.4148 118.087 40.7338 118.181 39.8937 118.181C39.0535 118.181 38.3725 118.087 38.3725 117.971C38.3725 117.855 39.0535 117.761 39.8937 117.761C40.7338 117.761 41.4148 117.855 41.4148 117.971Z" fill="#00A94F"/>
</g>
<path d="M39.0553 117.492C38.9596 117.414 38.8901 117.307 38.8559 117.188C38.8222 117.064 38.8811 116.934 38.9959 116.878C39.1279 116.829 39.26 116.918 39.3656 117.011C39.4713 117.104 39.5914 117.203 39.7235 117.18C39.5809 117.05 39.5167 116.854 39.5544 116.664C39.5599 116.626 39.5759 116.589 39.6007 116.559C39.672 116.482 39.8014 116.516 39.8872 116.577C40.1513 116.768 40.2345 117.139 40.2358 117.474C40.249 117.351 40.249 117.227 40.2358 117.104C40.2287 116.979 40.2841 116.858 40.3837 116.781C40.448 116.746 40.5204 116.729 40.5936 116.731C40.7164 116.713 40.8407 116.749 40.9356 116.829C41.0281 116.956 41.0227 117.13 40.9224 117.25C40.8213 117.365 40.7016 117.461 40.5686 117.535C40.4676 117.596 40.3814 117.679 40.3164 117.778C40.3084 117.791 40.3022 117.805 40.2979 117.82H39.5294C39.3573 117.733 39.1979 117.623 39.0553 117.492Z" fill="#00A94F"/>
<path d="M52.4513 114.593C52.3554 114.515 52.2857 114.409 52.2519 114.29C52.218 114.167 52.2762 114.036 52.3905 113.98C52.5226 113.931 52.6546 114.02 52.7602 114.113C52.8659 114.206 52.9847 114.307 53.1207 114.287C52.9781 114.158 52.9135 113.963 52.9504 113.773C52.9562 113.734 52.9727 113.698 52.9979 113.668C53.0692 113.591 53.1986 113.624 53.2845 113.684C53.5552 113.877 53.6317 114.247 53.6331 114.582C53.6463 114.459 53.6463 114.335 53.6331 114.211C53.6211 114.087 53.6704 113.965 53.7651 113.885C53.8297 113.85 53.902 113.833 53.9751 113.835C54.0975 113.818 54.2216 113.853 54.3171 113.932C54.4099 114.06 54.4039 114.234 54.3025 114.355C54.2021 114.469 54.0829 114.566 53.95 114.639C53.849 114.7 53.7628 114.783 53.6978 114.881C53.69 114.895 53.6838 114.91 53.6793 114.925H52.9279C52.7546 114.837 52.5942 114.725 52.4513 114.593Z" fill="#00A94F"/>
<path d="M47.987 117.492C47.8914 117.413 47.8215 117.307 47.7863 117.188C47.7526 117.064 47.8115 116.934 47.9263 116.878C48.0583 116.829 48.1904 116.918 48.296 117.011C48.4016 117.104 48.5192 117.205 48.6565 117.187C48.5141 117.056 48.4496 116.861 48.4861 116.671C48.492 116.632 48.5085 116.596 48.5337 116.566C48.605 116.489 48.7344 116.522 48.8202 116.583C49.0909 116.775 49.1662 117.145 49.1688 117.48C49.182 117.357 49.182 117.234 49.1688 117.111C49.1584 116.985 49.2104 116.863 49.3075 116.784C49.3717 116.748 49.4442 116.731 49.5174 116.733C49.6401 116.716 49.7644 116.752 49.8594 116.832C49.952 116.959 49.946 117.133 49.8449 117.253C49.7442 117.367 49.625 117.463 49.4923 117.537C49.3913 117.599 49.3052 117.682 49.2401 117.781C49.2321 117.794 49.2259 117.808 49.2216 117.823H48.4558C48.2856 117.734 48.1279 117.623 47.987 117.492Z" fill="#00A94F"/>
<g opacity="0.08">
<path d="M40.6623 38.6684C40.6623 40.2557 39.3836 41.5425 37.8062 41.5425C36.2288 41.5425 34.95 40.2557 34.95 38.6684C34.95 37.0811 36.2288 35.7943 37.8062 35.7943C39.3836 35.7943 40.6623 37.0811 40.6623 38.6684Z" fill="#00A94F"/>
<path d="M178.002 61.6361C178.002 63.2234 176.723 64.5102 175.146 64.5102C173.569 64.5102 172.29 63.2234 172.29 61.6361C172.29 60.0487 173.569 58.7619 175.146 58.7619C176.723 58.7619 178.002 60.0487 178.002 61.6361Z" fill="#00A94F"/>
<path d="M126.66 29.5411C126.66 31.1284 125.381 32.4152 123.804 32.4152C122.227 32.4152 120.948 31.1284 120.948 29.5411C120.948 27.9538 122.227 26.667 123.804 26.667C125.381 26.667 126.66 27.9538 126.66 29.5411Z" fill="#00A94F"/>
<path d="M48.3051 54.5246C48.3051 57.1848 46.1621 59.3413 43.5185 59.3413C40.8748 59.3413 38.7318 57.1848 38.7318 54.5246C38.7318 51.8643 40.8748 49.7078 43.5185 49.7078C46.1621 49.7078 48.3051 51.8643 48.3051 54.5246Z" fill="#00A94F"/>
</g>
<path fill-rule="evenodd" clip-rule="evenodd" d="M91.4963 93.2939C87.9739 93.2939 85.1184 96.1674 85.1184 99.7119C85.1184 103.256 87.9739 106.13 91.4963 106.13C95.0186 106.13 97.8741 103.256 97.8741 99.7119C97.8741 96.1674 95.0186 93.2939 91.4963 93.2939V93.2939Z" fill="#007B55"/>
<path opacity="0.72" fill-rule="evenodd" clip-rule="evenodd" d="M91.4962 94.04C94.6089 94.04 97.1322 96.5792 97.1322 99.7114C97.1322 102.844 94.6089 105.383 91.4962 105.383C88.3836 105.383 85.8603 102.844 85.8603 99.7114C85.863 96.5803 88.3847 94.0428 91.4962 94.04Z" fill="#00A94F"/>
<path fill-rule="evenodd" clip-rule="evenodd" d="M88.8589 100.181L88.5505 99.8781C88.4838 99.8168 88.446 99.7311 88.446 99.6415C88.446 99.5518 88.4838 99.4661 88.5505 99.4048L91.2564 96.7452C91.3188 96.6797 91.4061 96.6426 91.4974 96.6426C91.5887 96.6426 91.6759 96.6797 91.7383 96.7452L94.4442 99.4025C94.5096 99.4644 94.5465 99.5499 94.5465 99.6391C94.5465 99.7283 94.5096 99.8137 94.4442 99.8757L94.1358 100.179C94.0727 100.243 93.9857 100.279 93.8949 100.279C93.804 100.279 93.717 100.243 93.6539 100.179L92.054 98.5222V102.453C92.0546 102.54 92.0199 102.623 91.9574 102.685C91.895 102.747 91.8101 102.781 91.7215 102.781H91.2757C91.0907 102.781 90.9408 102.634 90.9408 102.453V98.527L89.3408 100.183C89.2774 100.247 89.1902 100.283 89.0994 100.283C89.0085 100.282 88.9217 100.245 88.8589 100.181Z" fill="#007B55"/>
<path d="M45.0751 115.733C45.0751 115.733 48.0765 105.831 44.605 101.865C42.0077 98.8976 39.0591 99.2524 37.7386 99.6191C37.0476 99.8049 36.4723 100.286 36.1647 100.936C35.7025 101.938 35.7857 103.564 39.0446 105.463C44.4994 108.641 44.8388 113.001 44.8388 113.001L45.0751 115.733Z" fill="#00A94F"/>
<path d="M45.1971 115.811C45.1971 115.811 41.6807 108.615 40.7154 108.769C40.2572 108.845 40.0459 109.3 39.9496 109.755C39.831 110.344 39.898 110.957 40.141 111.506C40.6402 112.662 41.9804 114.848 45.1971 115.811Z" fill="#00A94F"/>
<path d="M45.0924 115.811C45.0924 115.811 48.6074 108.615 49.5727 108.769C50.0322 108.845 50.2435 109.3 50.3386 109.755C50.4571 110.344 50.3902 110.957 50.1471 111.506C49.648 112.662 48.3064 114.848 45.0924 115.811Z" fill="#00A94F"/>
<path fill-rule="evenodd" clip-rule="evenodd" d="M38.105 100.99C38.1232 100.931 38.1852 100.899 38.2434 100.917L38.2103 101.023C38.2434 100.917 38.2434 100.917 38.2434 100.917L38.244 100.917L38.2455 100.918L38.2508 100.92L38.2709 100.926C38.2883 100.932 38.3138 100.941 38.3467 100.953C38.4126 100.977 38.5083 101.013 38.629 101.064C38.8705 101.165 39.2122 101.322 39.6155 101.548C40.422 102.001 41.4763 102.729 42.4682 103.834C44.4557 106.047 46.1814 109.759 45.1856 115.751C45.1756 115.812 45.1187 115.852 45.0585 115.842C44.9984 115.832 44.9578 115.775 44.9678 115.714C45.9528 109.787 44.2453 106.144 42.3044 103.983C41.3321 102.9 40.2984 102.186 39.508 101.743C39.1129 101.521 38.7789 101.367 38.5442 101.269C38.4269 101.22 38.3345 101.185 38.2717 101.162C38.2404 101.151 38.2164 101.142 38.2005 101.137L38.1827 101.131L38.1784 101.13L38.1775 101.129C38.1193 101.111 38.0867 101.049 38.105 100.99Z" fill="#007B55"/>
<path fill-rule="evenodd" clip-rule="evenodd" d="M43.4702 101.959C43.5043 102.01 43.4909 102.079 43.4404 102.113L43.4401 102.114L43.4381 102.115L43.4293 102.121C43.4213 102.127 43.4094 102.136 43.394 102.147C43.3634 102.171 43.3195 102.206 43.2677 102.253C43.1639 102.346 43.0298 102.482 42.9077 102.654C42.6638 102.999 42.4732 103.48 42.6534 104.057C42.6717 104.115 42.6394 104.178 42.5812 104.196C42.523 104.214 42.461 104.182 42.4427 104.123C42.2348 103.458 42.4595 102.904 42.7278 102.525C42.862 102.336 43.0083 102.188 43.1209 102.087C43.1773 102.036 43.2255 101.997 43.26 101.971C43.2773 101.958 43.2911 101.947 43.3008 101.94L43.3122 101.932L43.3154 101.93L43.3164 101.929L43.3169 101.929C43.3169 101.929 43.3169 101.929 43.3765 102.018L43.3169 101.929C43.3674 101.895 43.4361 101.908 43.4702 101.959Z" fill="#007B55"/>
<path fill-rule="evenodd" clip-rule="evenodd" d="M39.1763 102.835L39.1774 102.834L39.1826 102.829C39.1875 102.824 39.195 102.817 39.2052 102.808C39.2254 102.79 39.2559 102.763 39.2954 102.733C39.3745 102.672 39.4888 102.594 39.6293 102.53C39.9095 102.401 40.2875 102.324 40.7032 102.517C40.7586 102.542 40.8242 102.518 40.8497 102.462C40.8753 102.407 40.8511 102.341 40.7957 102.315C40.3042 102.087 39.8563 102.181 39.5374 102.328C39.3782 102.401 39.2497 102.488 39.1608 102.557C39.1163 102.591 39.0815 102.621 39.0575 102.643C39.0455 102.654 39.0362 102.662 39.0297 102.669L39.0221 102.676L39.0199 102.678L39.0192 102.679L39.0189 102.679C39.0189 102.679 39.0188 102.679 39.0976 102.757L39.0189 102.679C38.9761 102.723 38.9767 102.794 39.0202 102.837C39.0637 102.88 39.1336 102.879 39.1763 102.835Z" fill="#007B55"/>
<path fill-rule="evenodd" clip-rule="evenodd" d="M42.6453 106.691L42.6457 106.691L42.6481 106.69L42.658 106.685C42.667 106.681 42.6804 106.674 42.6978 106.667C42.7326 106.651 42.7831 106.629 42.8447 106.605C42.9687 106.557 43.1353 106.503 43.3102 106.474C43.4865 106.444 43.662 106.442 43.8086 106.489C43.95 106.534 44.0686 106.627 44.1399 106.803C44.163 106.86 44.2274 106.887 44.2839 106.864C44.3403 106.841 44.3674 106.776 44.3444 106.719C44.2466 106.478 44.0749 106.341 43.8759 106.277C43.6821 106.215 43.467 106.222 43.2739 106.255C43.0794 106.287 42.8978 106.347 42.7658 106.398C42.6995 106.423 42.6451 106.447 42.607 106.464C42.588 106.473 42.573 106.48 42.5626 106.485L42.5505 106.491L42.5472 106.492L42.5463 106.493L42.5459 106.493C42.5459 106.493 42.5458 106.493 42.5955 106.592L42.5459 106.493C42.4914 106.521 42.4695 106.587 42.4969 106.642C42.5244 106.697 42.5908 106.719 42.6453 106.691Z" fill="#007B55"/>
<path fill-rule="evenodd" clip-rule="evenodd" d="M40.6791 110.046C40.7293 110.011 40.798 110.024 40.8326 110.074L40.7417 110.137L40.6508 110.2C40.6162 110.15 40.6289 110.081 40.6791 110.046ZM40.7417 110.137C40.6508 110.2 40.6508 110.2 40.6508 110.2L40.6926 110.261C40.7198 110.301 40.7599 110.359 40.8111 110.433C40.9135 110.58 41.0605 110.792 41.2392 111.046C41.5965 111.555 42.0804 112.236 42.5868 112.925C43.0929 113.613 43.6225 114.311 44.0707 114.851C44.2946 115.121 44.4997 115.354 44.6723 115.527C44.7585 115.614 44.8381 115.687 44.9089 115.743C44.9777 115.798 45.0462 115.842 45.1096 115.863C45.1675 115.883 45.2299 115.851 45.249 115.793C45.2681 115.734 45.2366 115.672 45.1787 115.652C45.153 115.644 45.1091 115.619 45.0455 115.569C44.984 115.52 44.9112 115.453 44.8283 115.37C44.6626 115.203 44.4624 114.977 44.2402 114.709C43.7961 114.173 43.2696 113.48 42.7643 112.793C42.2592 112.106 41.7763 111.426 41.4195 110.918C41.2412 110.664 41.0944 110.453 40.9922 110.306C40.9412 110.232 40.9012 110.174 40.8741 110.135L40.8326 110.074C40.8326 110.074 40.8326 110.074 40.7417 110.137Z" fill="#007B55"/>
<path fill-rule="evenodd" clip-rule="evenodd" d="M40.2919 110.978C40.2919 110.917 40.3413 110.867 40.4023 110.867H41.2632C41.3242 110.867 41.3736 110.917 41.3736 110.978C41.3736 111.04 41.3242 111.089 41.2632 111.089H40.4023C40.3413 111.089 40.2919 111.04 40.2919 110.978Z" fill="#007B55"/>
<path fill-rule="evenodd" clip-rule="evenodd" d="M41.3232 112.943C41.3259 112.882 41.3774 112.834 41.4383 112.837L42.7891 112.895C42.8501 112.898 42.8973 112.95 42.8947 113.011C42.8921 113.072 42.8406 113.12 42.7796 113.117L41.4288 113.059C41.3679 113.056 41.3206 113.004 41.3232 112.943Z" fill="#007B55"/>
<path fill-rule="evenodd" clip-rule="evenodd" d="M42.2785 111.263C42.3382 111.275 42.3765 111.334 42.3641 111.394L42.2175 112.103C42.2051 112.163 42.1466 112.201 42.0869 112.189C42.0272 112.176 41.9889 112.117 42.0013 112.057L42.1479 111.349C42.1603 111.289 42.2188 111.25 42.2785 111.263Z" fill="#007B55"/>
<path fill-rule="evenodd" clip-rule="evenodd" d="M43.6959 113.415C43.7569 113.417 43.8042 113.469 43.8017 113.53L43.7753 114.173C43.7728 114.235 43.7213 114.282 43.6604 114.28C43.5995 114.277 43.5521 114.225 43.5546 114.164L43.581 113.521C43.5836 113.46 43.635 113.412 43.6959 113.415Z" fill="#007B55"/>
<path fill-rule="evenodd" clip-rule="evenodd" d="M49.4571 110.074C49.4917 110.024 49.5605 110.011 49.6107 110.046C49.6608 110.081 49.6734 110.15 49.6387 110.2L49.5479 110.137L49.4571 110.074ZM49.4571 110.074C49.4571 110.074 49.4571 110.074 49.5479 110.137C49.6387 110.2 49.6387 110.2 49.6387 110.2L49.5969 110.261C49.5696 110.301 49.5295 110.359 49.4782 110.433C49.3756 110.581 49.2283 110.792 49.0493 111.046C48.6914 111.555 48.2066 112.236 47.6997 112.925C47.193 113.613 46.6631 114.311 46.2151 114.851C45.9912 115.121 45.7864 115.354 45.6143 115.527C45.5283 115.614 45.449 115.687 45.3785 115.743C45.3101 115.797 45.242 115.842 45.179 115.863C45.1212 115.883 45.0586 115.851 45.0394 115.793C45.0201 115.735 45.0514 115.672 45.1093 115.653C45.1347 115.644 45.1782 115.619 45.2416 115.569C45.3028 115.52 45.3754 115.453 45.4581 115.37C45.6234 115.204 45.8234 114.977 46.0455 114.709C46.4894 114.173 47.0163 113.48 47.5222 112.793C48.0279 112.106 48.5117 111.426 48.869 110.918C49.0477 110.664 49.1948 110.453 49.2971 110.305C49.3483 110.232 49.3883 110.174 49.4155 110.134L49.4571 110.074Z" fill="#007B55"/>
<path fill-rule="evenodd" clip-rule="evenodd" d="M48.9156 110.978C48.9156 110.917 48.965 110.867 49.026 110.867H49.8869C49.9479 110.867 49.9974 110.917 49.9974 110.978C49.9974 111.04 49.9479 111.089 49.8869 111.089H49.026C48.965 111.089 48.9156 111.04 48.9156 110.978Z" fill="#007B55"/>
<path fill-rule="evenodd" clip-rule="evenodd" d="M48.9659 112.943C48.9685 113.004 48.9213 113.056 48.8603 113.059L47.5095 113.117C47.4486 113.12 47.3971 113.072 47.3944 113.011C47.3918 112.95 47.4391 112.898 47.5 112.895L48.8508 112.837C48.9118 112.834 48.9633 112.882 48.9659 112.943Z" fill="#007B55"/>
<path fill-rule="evenodd" clip-rule="evenodd" d="M48.0106 111.263C48.0703 111.25 48.1288 111.289 48.1412 111.349L48.2878 112.057C48.3002 112.117 48.2619 112.176 48.2022 112.189C48.1425 112.201 48.084 112.163 48.0716 112.103L47.925 111.394C47.9126 111.334 47.9509 111.275 48.0106 111.263Z" fill="#007B55"/>
<path fill-rule="evenodd" clip-rule="evenodd" d="M46.5933 113.415C46.6543 113.412 46.7057 113.46 46.7082 113.521L46.7346 114.164C46.7371 114.225 46.6898 114.277 46.6289 114.28C46.5679 114.282 46.5165 114.235 46.514 114.173L46.4876 113.53C46.4851 113.469 46.5324 113.417 46.5933 113.415Z" fill="#007B55"/>
<defs>
<linearGradient id="paint0_linear_455_16897" x1="145.724" y1="188.459" x2="224.536" y2="11.9432" gradientUnits="userSpaceOnUse">
<stop stop-color="#00A94F"/>
<stop offset="1" stop-color="#00A94F" stop-opacity="0.01"/>
</linearGradient>
<linearGradient id="paint1_linear_455_16897" x1="79.3941" y1="60.9957" x2="57.7592" y2="124.48" gradientUnits="userSpaceOnUse">
<stop stop-color="#00A94F"/>
<stop offset="1" stop-color="#007B55"/>
</linearGradient>
</defs>
</svg>
