<?xml version="1.0" encoding="utf-8"?>
<!-- Generator: Adobe Illustrator 27.4.0, SVG Export Plug-In . SVG Version: 6.00 Build 0)  -->
<svg version="1.1" id="Layer_1" xmlns="http://www.w3.org/2000/svg" xmlns:xlink="http://www.w3.org/1999/xlink" x="0px" y="0px"
	 width="504px" height="504px" viewBox="0 0 504 504" style="enable-background:new 0 0 504 504;" xml:space="preserve">
<style type="text/css">
	.st0{fill:#355E4F;}
	.st1{fill:#7BB094;}
	.st2{fill:#F1E6C4;}
	.st3{clip-path:url(#SVGID_00000175295389259934006890000006657387807517290143_);}
	.st4{clip-path:url(#SVGID_00000096041612888819278410000000270770154837175681_);}
	.st5{clip-path:url(#SVGID_00000088116951911413920870000002882933355307648140_);}
	.st6{clip-path:url(#SVGID_00000095335537575893056110000008624050178773864333_);}
	.st7{fill:none;stroke:#16301F;stroke-width:4;stroke-linecap:round;stroke-linejoin:round;stroke-miterlimit:10;}
	.st8{fill:none;stroke:#16301F;stroke-width:3;stroke-linecap:round;stroke-linejoin:round;stroke-miterlimit:10;}
	.st9{fill:#16301F;}
	.st10{fill:#16301F;stroke:#16301F;stroke-miterlimit:10;}
	.st11{fill:none;stroke:#43766C;stroke-width:4;stroke-linecap:round;stroke-linejoin:round;stroke-miterlimit:10;}
	.st12{fill:#43766C;}
	.st13{font-family:'SegoeUI';}
	.st14{font-size:46.2906px;}
	.st15{fill:#2E7553;}
	.st16{fill:none;stroke:#2E7553;stroke-width:4;stroke-linecap:round;stroke-linejoin:round;stroke-miterlimit:10;}
</style>
<g>
	<text transform="matrix(1 0 0 1 208.0915 439.2373)"><tspan x="0" y="0" class="st1 st13 st14">AI</tspan><tspan x="40.3" y="0" class="st15 st13 st14">EP</tspan></text>
	<g>
		<path class="st15" d="M310.5,138.1c-0.6-0.4-1.3-0.5-2-0.2l-32.6,13.1c-15.8,6.3-26,21.4-26,38.4v8.5c-4.4-9-12-16.2-21.8-20.1
			l-32.6-13.1c-0.7-0.3-1.4-0.2-2,0.2c-0.6,0.4-0.9,1.1-0.9,1.8v36.6c0,15.9,8.9,30.1,23.1,37.1l34.2,16.8v17c0,1.2,1,2.1,2.1,2.1
			s2.1-1,2.1-2.1v-25v-18.9l34.2-16.8c14.2-7,23.1-21.2,23.1-37.1v-36.6C311.4,139.1,311,138.5,310.5,138.1z"/>
		<g>
			<g>
				<path class="st16" d="M372,317c26.2-28.8,42.2-67.1,42.2-109.1c0-89.5-72.6-162.1-162.1-162.1c-30.1,0-58.2,8.2-82.3,22.4"/>
				<path class="st16" d="M132.9,97.8c-26.7,28.9-43.1,67.6-43.1,110.1C89.9,297.4,162.5,370,252,370c29,0,56.2-7.6,79.7-20.9"/>
				<circle class="st16" cx="139.9" cy="90.9" r="9.8"/>
				<circle class="st16" cx="366.3" cy="324.7" r="9.8"/>
			</g>
			<g>
				<path class="st16" d="M343.1,107.7c-24-21.9-56-35.2-91.1-35.2c-74.8,0-135.4,60.6-135.4,135.4c0,25.1,6.8,48.6,18.7,68.7"/>
				<path class="st16" d="M160.1,307.3c24.1,22.3,56.4,36,91.9,36c74.8,0,135.4-60.6,135.4-135.4c0-24.2-6.3-46.9-17.5-66.5"/>
				<circle class="st16" cx="154.3" cy="301.5" r="8.2"/>
				<circle class="st16" cx="349.6" cy="112.4" r="8.2"/>
			</g>
		</g>
	</g>
</g>
</svg>
