<svg width="20" height="20" viewBox="0 0 20 20" fill="none" xmlns="http://www.w3.org/2000/svg">
<g id="delete_FILL0_wght300_GRAD0_opsz24 1">
<path id="Vector" d="M6.08975 17.0833C5.67415 17.0833 5.31919 16.9361 5.02485 16.6418C4.73051 16.3474 4.58333 15.9925 4.58333 15.5769V4.99996H3.75V3.74998H7.49998V3.01282H12.5V3.74998H16.25V4.99996H15.4166V15.5769C15.4166 15.9978 15.2708 16.3541 14.9791 16.6458C14.6875 16.9374 14.3312 17.0833 13.9102 17.0833H6.08975ZM14.1666 4.99996H5.83331V15.5769C5.83331 15.6517 5.85735 15.7131 5.90544 15.7612C5.95352 15.8093 6.01496 15.8333 6.08975 15.8333H13.9102C13.9743 15.8333 14.0331 15.8066 14.0865 15.7532C14.1399 15.6997 14.1666 15.641 14.1666 15.5769V4.99996ZM7.83654 14.1666H9.08652V6.66663H7.83654V14.1666ZM10.9134 14.1666H12.1634V6.66663H10.9134V14.1666Z" fill="#424242"/>
</g>
</svg>
