<svg width="103" height="114" viewBox="0 0 103 114" fill="none" xmlns="http://www.w3.org/2000/svg">
<path d="M52.1587 114C73.2332 114 90.3175 110.992 90.3175 107.28C90.3175 103.569 73.2332 100.561 52.1587 100.561C31.0842 100.561 14 103.569 14 107.28C14 110.992 31.0842 114 52.1587 114Z" fill="#3F3D56"/>
<path d="M20.2427 43.9857C20.2427 34.1959 34.6603 26.2598 52.4453 26.2598C70.2303 26.2598 84.6479 34.1959 84.6479 43.9857" stroke="#3F3D56" stroke-width="2" stroke-miterlimit="10"/>
<path d="M62.5711 33.0846H36.3726C31.1909 24.3897 31.1909 15.6949 36.3726 7H62.5711C55.3259 15.6949 55.3259 24.3897 62.5711 33.0846Z" fill="#E6E6E6"/>
<path d="M54.8779 10.1055H40.1152V11.9687H54.8779V10.1055Z" fill="#00BFA6"/>
<path d="M54.8779 16.2129H35.333V16.834H54.8779V16.2129Z" fill="white"/>
<path d="M54.8779 19.4219H35.333V20.0429H54.8779V19.4219Z" fill="white"/>
<path d="M54.8779 22.6289H35.333V23.25H54.8779V22.6289Z" fill="white"/>
<path d="M73.0308 90.8242C73.0308 99.0968 78.2432 105.791 84.6849 105.791L73.0308 90.8242Z" fill="#3F3D56"/>
<path d="M84.6846 105.791C84.6846 97.4256 90.5014 90.6562 97.6899 90.6562L84.6846 105.791Z" fill="#00BFA6"/>
<path d="M77.2529 91.5742C77.2529 99.4323 80.5768 105.791 84.6845 105.791L77.2529 91.5742Z" fill="#00BFA6"/>
<path d="M84.6846 105.79C84.6846 95.1008 91.4079 86.4512 99.7167 86.4512L84.6846 105.79Z" fill="#3F3D56"/>
<path d="M82.2329 105.897C82.2329 105.897 83.8857 105.846 84.3837 105.493C84.8818 105.14 86.9261 104.718 87.0496 105.285C87.1732 105.851 89.5334 108.102 87.6675 108.117C85.8015 108.132 83.3319 107.827 82.8347 107.526C82.3376 107.224 82.2329 105.897 82.2329 105.897Z" fill="#A8A8A8"/>
<path opacity="0.2" d="M87.7008 107.919C85.8348 107.934 83.3652 107.63 82.868 107.328C82.4894 107.099 82.3386 106.275 82.2881 105.895C82.2531 105.896 82.2329 105.897 82.2329 105.897C82.2329 105.897 82.3376 107.224 82.8347 107.525C83.3319 107.827 85.8015 108.131 87.6675 108.116C88.2061 108.112 88.3921 107.921 88.3819 107.639C88.3071 107.809 88.1017 107.916 87.7008 107.919Z" fill="black"/>
<path d="M43.3696 23.1562L42.5344 25.3476C42.5344 25.3476 41.7026 36.5091 41.7026 37.3389C41.7026 38.1688 42.3088 48.8058 42.5361 49.2584C42.5361 49.2584 43.5211 47.8251 44.8092 48.0514C46.0973 48.2777 45.5669 44.2794 45.5669 44.2794L46.7792 34.3968L46.5519 29.4178L43.3696 23.1562Z" fill="#00BFA6"/>
<path d="M48.522 11.0853C48.522 11.0853 51.0224 17.4222 49.5827 18.6293C48.1431 19.8363 57.6143 16.5924 57.6143 16.5924L57.387 15.7626C57.387 15.7626 54.2804 14.5555 55.7958 11.0853C57.3112 7.61506 48.522 11.0853 48.522 11.0853Z" fill="#A0616A"/>
<path d="M48.8081 10.9048C48.9902 10.988 49.2093 10.864 49.3167 10.6956C49.7255 10.0543 48.9728 9.22731 49.1358 8.48523C49.2664 7.89072 49.9449 7.53786 50.0836 6.94518C50.2184 6.3693 49.803 5.72019 50.0838 5.1991C50.3037 4.79087 50.8531 4.68344 51.3128 4.75496C51.7725 4.82647 52.2089 5.02768 52.6733 5.05587C53.2922 5.09344 53.8821 4.8222 54.4872 4.6878C55.0924 4.55341 55.8305 4.60603 56.1865 5.11144C56.6436 5.7604 56.1799 6.66405 56.339 7.44068C56.4654 8.05737 56.9839 8.56801 56.9951 9.19732C56.999 9.42099 56.4085 9.2408 56.4399 9.46232C56.4713 9.68383 56.1921 9.48879 56.4153 9.46247C56.5064 9.44025 56.588 9.38974 56.6484 9.31825C56.7087 9.24677 56.7447 9.158 56.751 9.06482C56.7776 8.88032 57.1258 8.81882 57.1218 8.63248C57.1124 8.19577 57.9054 8.49022 58.036 8.07322C58.3363 7.1011 58.2747 6.05377 57.8624 5.12322C57.6845 4.72595 57.4423 4.34997 57.3565 3.9235C57.24 3.34446 57.4233 2.72286 57.2312 2.16417C56.9723 1.41125 56.1155 1.02743 55.32 0.949479C54.5245 0.871524 53.7162 1.01106 52.9252 0.896118C52.2167 0.793142 51.5308 0.487402 50.8161 0.5317C49.9586 0.584854 49.2124 1.13497 48.6179 1.75264C48.0235 2.37032 47.5192 3.08074 46.8441 3.60988C46.6375 3.75149 46.4468 3.91494 46.2754 4.09738C45.9315 4.51458 45.8967 5.10891 45.9923 5.64012C46.088 6.17134 46.2961 6.67806 46.384 7.21061C46.4666 7.71108 46.4411 8.22238 46.4767 8.72832C46.5122 9.23426 46.6177 9.75554 46.9238 10.161C47.0463 10.3266 47.2052 10.4622 47.3883 10.5574C47.5714 10.6527 47.774 10.7051 47.9805 10.7106C48.1236 10.7139 48.2444 10.5859 48.3888 10.6193C48.5694 10.661 48.6479 10.8317 48.8081 10.9048Z" fill="#2F2E41"/>
<path d="M42.6875 47.6741L43.2178 50.918L44.2787 49.4846L43.6725 47.2969L42.6875 47.6741Z" fill="#A0616A"/>
<path opacity="0.1" d="M43.3696 23.1562L42.5344 25.3476C42.5344 25.3476 41.7026 36.5091 41.7026 37.3389C41.7026 38.1688 42.3088 48.8058 42.5361 49.2584C42.5361 49.2584 43.5211 47.8251 44.8092 48.0514C46.0973 48.2777 45.5669 44.2794 45.5669 44.2794L46.7792 34.3968L46.5519 29.4178L43.3696 23.1562Z" fill="#00BFA6"/>
<path opacity="0.1" d="M48.522 11.0853C48.522 11.0853 51.0224 17.4222 49.5827 18.6293C48.1431 19.8363 57.6143 16.5924 57.6143 16.5924L57.387 15.7626C57.387 15.7626 54.2804 14.5555 55.7958 11.0853C57.3112 7.61506 48.522 11.0853 48.522 11.0853Z" fill="black"/>
<path d="M44.5817 95.7276C44.5817 95.7276 43.5209 95.4258 42.9148 96.1802C42.3086 96.9346 40.0355 98.8206 40.0355 98.8206C40.0355 98.8206 35.6409 98.368 35.0347 100.556C34.4286 102.743 41.9298 102.743 43.7482 102.215C45.5667 101.687 45.9455 102.215 45.9455 102.215C45.9455 102.215 51.5525 102.668 51.5525 101.763C51.5525 100.857 51.0221 97.7644 51.0221 97.7644L44.5817 95.7276Z" fill="#575A89"/>
<path d="M62.3873 100.783L61.4023 103.8C61.4023 103.8 58.4473 107.874 60.1142 108.704C61.7812 109.534 67.6912 110.363 67.6912 108.176V104.026C67.6912 104.026 67.085 101.084 66.4789 100.783C65.8727 100.481 62.3873 100.783 62.3873 100.783Z" fill="#575A89"/>
<path d="M45.6548 46.5697C45.6548 46.5697 42.4602 49.3333 42.536 49.7105C42.6118 50.0877 44.1271 74.3039 44.1271 74.3039L44.9606 89.9953C44.9606 89.9953 43.8998 93.6919 44.4302 94.5217C44.9606 95.3516 43.6725 95.5779 43.6725 95.5779C43.6725 95.5779 49.1279 100.481 51.401 98.3692L53.5226 70.9845L59.3568 90.9006C59.3568 90.9006 60.3418 101.462 61.4783 101.462C62.6149 101.462 67.2368 101.689 67.1611 101.085C67.0853 100.481 67.3884 95.8797 66.858 93.1638C66.3276 90.448 62.7664 68.9476 62.7664 68.9476C62.7664 68.9476 62.4603 50.5158 63.2574 48.7929C64.0545 47.0701 62.8422 45.2595 62.8422 45.2595L57.5383 43.2227L51.1737 43.9771L45.6548 46.5697Z" fill="#2F2E41"/>
<path d="M52.0827 13.6495C55.0119 13.6495 57.3865 11.2852 57.3865 8.36868C57.3865 5.45218 55.0119 3.08789 52.0827 3.08789C49.1534 3.08789 46.7788 5.45218 46.7788 8.36868C46.7788 11.2852 49.1534 13.6495 52.0827 13.6495Z" fill="#A0616A"/>
<path d="M64.9639 19.7608C64.7019 19.0227 64.2602 18.3607 63.6784 17.8341C63.0967 17.3075 62.3929 16.9327 61.63 16.7432C60.1017 16.3604 58.6067 15.8558 57.1596 15.2344C57.1596 15.2344 51.78 17.7993 50.7192 17.7993C49.6584 17.7993 49.6584 17.1204 49.6584 17.1204C49.6584 17.1204 46.9307 19.9871 45.4911 20.2888C44.0515 20.5906 41.93 24.1363 42.6877 26.0977C43.2023 27.3552 43.9474 28.5064 44.885 29.4925C44.885 29.4925 44.5819 40.0541 45.5669 42.0155C45.5669 42.0155 43.1423 46.6173 45.4154 46.9191C47.6884 47.2208 56.4019 46.1647 57.9173 47.2208C59.4327 48.277 62.2362 46.9945 62.615 48.4279C62.9939 49.8612 63.8273 50.163 63.8273 50.163C63.8273 50.163 65.1154 48.1261 64.3577 46.9191C63.6 45.7121 64.9639 19.7608 64.9639 19.7608Z" fill="#00BFA6"/>
<path d="M59.3568 48.127L58.1445 48.8813C58.1445 48.8813 59.4326 53.3323 59.963 53.4832C60.4934 53.6341 61.7418 49.6774 61.7418 49.6774L59.3568 48.127Z" fill="#A0616A"/>
<path d="M47.8984 10.3775C48.0805 10.4606 48.2996 10.3367 48.407 10.1683C48.8158 9.52693 48.0631 8.69996 48.2261 7.95789C48.3567 7.36338 49.0352 7.01052 49.1739 6.41784C49.3087 5.84195 48.8934 5.19284 49.1741 4.67176C49.3941 4.26352 49.9435 4.15609 50.4032 4.22761C50.8629 4.29913 51.2992 4.50034 51.7636 4.52853C52.3825 4.56609 52.9724 4.29485 53.5776 4.16046C54.1827 4.02607 54.9208 4.07869 55.2768 4.5841C55.7339 5.23305 55.2702 6.1367 55.4294 6.91333C55.5558 7.53003 56.9957 7.96289 57.1263 7.54588C57.4266 6.57376 57.365 5.52643 56.9527 4.59587C56.7749 4.19861 56.5327 3.82263 56.4469 3.39615C56.3304 2.81712 56.5137 2.19552 56.3215 1.63683C56.0626 0.883908 55.2058 0.500091 54.4103 0.422136C53.6149 0.344181 52.8065 0.48372 52.0156 0.368775C51.307 0.265798 50.6211 -0.0399419 49.9064 0.00435627C49.0489 0.0575103 48.3027 0.607626 47.7083 1.2253C47.1138 1.84297 46.6096 2.55339 45.9345 3.08254C45.7278 3.22415 45.5371 3.3876 45.3657 3.57004C45.0219 3.98724 44.987 4.58157 45.0827 5.11278C45.1783 5.644 45.3865 6.15072 45.4743 6.68327C45.5569 7.18373 45.5314 7.69504 45.567 8.20098C45.6026 8.70691 45.7081 9.2282 46.0141 9.63362C46.1366 9.79924 46.2955 9.93484 46.4786 10.0301C46.6618 10.1253 46.8643 10.1777 47.0708 10.1833C47.2139 10.1866 47.3348 10.0586 47.4792 10.0919C47.6597 10.1337 47.7382 10.3044 47.8984 10.3775Z" fill="#2F2E41"/>
<path opacity="0.1" d="M61.9708 21.08L64.4333 19.7598C64.4333 19.7598 70.419 33.9425 68.9794 37.8653C67.5398 41.7882 62.0086 49.8603 62.0086 49.8603C62.0086 49.8603 57.614 48.955 58.0686 48.0497C58.5232 47.1444 61.4782 41.3356 61.7056 40.5812C61.9329 39.8268 63.4483 34.9232 62.7663 34.3951C62.0844 33.867 60.7584 21.608 60.7584 21.608L61.9708 21.08Z" fill="black"/>
<path d="M61.9328 18.9316L64.9635 19.7615C64.9635 19.7615 70.9493 33.9442 69.5097 37.867C68.0701 41.7899 62.5389 49.862 62.5389 49.862C62.5389 49.862 58.1443 48.9567 58.5989 48.0514C59.0535 47.1461 62.0085 41.3373 62.2358 40.5829C62.4631 39.8285 63.9785 34.9249 63.2966 34.3968C62.6147 33.8687 59.3566 20.8176 59.3566 20.8176L61.9328 18.9316Z" fill="#00BFA6"/>
<path d="M84.6479 43.9844C84.6479 54.2482 70.2303 62.5687 52.4453 62.5687C34.6603 62.5687 20.2427 54.2482 20.2427 43.9844" stroke="#3F3D56" stroke-width="2" stroke-miterlimit="10"/>
<path d="M78.7904 62.834C71.5923 66.6993 62.2001 69.0383 51.9259 69.0383C42.0752 69.0383 33.0351 66.8881 25.9624 63.304" stroke="#3F3D56" stroke-width="2" stroke-miterlimit="10"/>
<path d="M68.5273 21.4609C82.2261 25.0458 91.9823 32.9313 92.8895 42.2187" stroke="#3F3D56" stroke-width="2" stroke-miterlimit="10"/>
<path d="M12.8706 36.1815C15.1788 31.9576 19.3954 28.2405 24.92 25.3848" stroke="#3F3D56" stroke-width="2" stroke-miterlimit="10"/>
<path d="M41.1904 81.3971H67.389C72.5706 72.7022 72.5706 64.0074 67.389 55.3125H41.1904C48.4356 64.0074 48.4356 72.7022 41.1904 81.3971Z" fill="#F2F2F2"/>
<path d="M64.6216 60.2812H49.8589V62.1444H64.6216V60.2812Z" fill="#00BFA6"/>
<path d="M68.2603 65.8691H48.7153V66.4902H68.2603V65.8691Z" fill="white"/>
<path d="M68.2603 69.0781H48.7153V69.6992H68.2603V69.0781Z" fill="white"/>
<path d="M30.0848 63.692H3.88627C-1.29542 54.9971 -1.29542 46.3023 3.88627 37.6074H30.0848C22.8396 46.3023 22.8396 54.9971 30.0848 63.692Z" fill="#F2F2F2"/>
<path d="M21.56 40.7129H6.79736V42.5761H21.56V40.7129Z" fill="#00BFA6"/>
<path d="M23.1192 45.8887H3.57422V46.5097H23.1192V45.8887Z" fill="white"/>
<path d="M23.1192 49.0957H3.57422V49.7168H23.1192V49.0957Z" fill="white"/>
<path d="M23.1192 52.3047H3.57422V52.9257H23.1192V52.3047Z" fill="white"/>
<path d="M23.1192 55.5137H3.57422V56.1347H23.1192V55.5137Z" fill="white"/>
<path d="M72.915 51.6764H99.1136C104.295 42.9815 104.295 34.2867 99.1136 25.5918H72.915C80.1603 34.2867 80.1603 42.9815 72.915 51.6764Z" fill="#F2F2F2"/>
<path d="M96.0346 28.1797H81.272V30.0429H96.0346V28.1797Z" fill="#00BFA6"/>
<path d="M99.2573 33.3555H79.7124V33.9765H99.2573V33.3555Z" fill="white"/>
</svg>
