<svg width="90" height="90" viewBox="0 0 90 90" fill="none" xmlns="http://www.w3.org/2000/svg">
<path d="M80.2533 44.4319L82.5441 36.3262C82.7873 35.4389 82.6087 34.5122 82.0533 33.7739C81.4978 33.03 80.64 32.6137 79.7231 32.6137H67.1611V16.657C67.1611 13.9655 64.98 11.7844 62.2884 11.7844H31.1372C28.4555 11.7844 26.2645 13.9655 26.2645 16.657V37.2052C26.2645 39.8827 28.4555 42.0778 31.1372 42.0778H42.2466V44.4319H20.4891V33.2381C20.4891 32.7023 20.0531 32.2664 19.5173 32.2664H19.1208C19.1503 28.2305 22.8741 26.7342 23.0372 26.6695C23.4394 26.5205 23.6911 26.1239 23.6672 25.6978C23.6377 25.2717 23.3395 24.9145 22.9233 24.8105C22.725 24.7655 18.6455 23.8036 15.6361 25.3266C15.2648 23.4028 14.6995 21.1472 13.867 18.5105C13.7377 18.1041 13.3369 17.827 12.915 17.827C12.4889 17.827 12.112 18.1041 11.9827 18.5105C11.1994 20.9798 10.6144 23.2692 10.208 25.3659C7.00031 23.8092 2.20641 24.7612 1.98422 24.8062C1.54828 24.8948 1.23047 25.2675 1.21078 25.7091C1.18547 26.1506 1.46391 26.557 1.88438 26.6906C2.08828 26.7553 6.61922 28.267 6.72328 32.2678H5.61656C5.07656 32.2678 4.64484 32.7037 4.64484 33.2395V44.4333H0V46.3809H4.42125V82.748H6.37031V46.3809H54.1097L53.1028 50.2819H42.6923C39.465 50.2819 36.8423 52.9045 36.8423 56.1319V59.1652H36.0788C33.8386 59.1652 32.0034 60.9947 32.0034 63.2348V64.9505C32.0034 65.4905 32.4394 65.9264 32.9794 65.9264H51.4547V72.9703C51.4547 73.5103 51.8864 73.9462 52.4264 73.9462H54.8648V78.6164H46.71C46.1742 78.6164 45.7383 79.0523 45.7383 79.5923V83.2908H47.6859V80.5697H54.8634V83.2908H56.8111V80.5697H63.99V83.2908H65.9377V79.5923C65.9377 79.0523 65.5017 78.6164 64.9659 78.6164H56.8111V73.9462H59.2495C59.7895 73.9462 60.2213 73.5103 60.2213 72.9703V65.9264H71.7075C73.0069 65.9264 74.1867 65.1684 74.7211 63.9886C74.7408 63.9492 74.7605 63.9 74.7703 63.8494L79.6978 46.3795H81.4177V82.7466H83.3653V46.3809H89.3039V44.4333H80.2533V44.4319ZM19.8436 26.4178C18.4458 27.6722 17.1914 29.6156 17.1759 32.2678H16.1747C16.3139 31.2609 16.3041 29.6508 15.9862 27.3952C17.0677 26.6062 18.5456 26.3981 19.8436 26.4178ZM11.8673 27.1462C12.1008 25.6387 12.458 23.9991 12.9234 22.2384C14.6194 28.6087 14.317 31.5675 14.2031 32.2664H11.6452C11.5608 31.8066 11.3822 30.2794 11.8673 27.1462ZM5.48297 26.422C7.05516 26.3967 8.75531 26.6358 9.86484 27.4092C9.59203 29.3977 9.53297 31.1316 9.68203 32.2678H8.66531C8.61047 29.6156 7.13391 27.6764 5.48297 26.422ZM18.54 43.868H6.59391V34.2155H18.5414V43.868H18.54ZM28.2122 16.657C28.2122 15.0412 29.5312 13.732 31.1372 13.732H62.2884C63.9042 13.732 65.2134 15.0412 65.2134 16.657V32.6152H59.9386C58.6055 32.6152 57.4355 33.5222 57.1036 34.8061L56.8898 35.6442H28.2122V16.657ZM31.1372 40.1287C29.6648 40.1287 28.4259 39.0136 28.2417 37.5905H56.3794L55.7297 40.1287H31.1372ZM49.2314 44.4319H44.1998V42.0778H49.2314V44.4319ZM51.1791 44.4319V42.0778H55.2192L54.6145 44.4319H51.1791ZM38.7914 56.1319C38.7914 53.9803 40.5408 52.2309 42.6923 52.2309H52.5966L50.8064 59.1666H38.79V56.1319H38.7914ZM58.2778 72H53.4052V65.9278H58.2778V72ZM72.9225 63.2447C72.6891 63.6961 72.2278 63.9787 71.7131 63.9787H33.9525V63.2348C33.9525 62.0648 34.9088 61.1128 36.0788 61.1128H51.5658C52.0073 61.1128 52.3941 60.8203 52.5122 60.3787L56.1262 46.3795H56.1712V46.2108L57.2372 42.0764L57.4903 41.0892L57.7477 40.1273L58.3973 37.5891L58.9078 35.6414L58.9922 35.2898C59.1019 34.8637 59.4928 34.5614 59.9386 34.5614H79.7231C80.0255 34.5614 80.3081 34.7048 80.4966 34.9523C80.6794 35.1956 80.7497 35.5078 80.6597 35.8003L72.9225 63.2447ZM81.5231 16.3577V11.3416H80.5472V16.8442C80.5472 17.117 80.7652 17.335 81.0323 17.335H83.932V16.3591L81.5231 16.3577ZM81.5231 16.3577V11.3416H80.5472V16.8442C80.5472 17.117 80.7652 17.335 81.0323 17.335H83.932V16.3591L81.5231 16.3577ZM81.225 6.70781C76.3819 6.70781 72.4458 10.6439 72.4458 15.487C72.4458 20.3259 76.3819 24.262 81.225 24.262C86.0639 24.262 90 20.3259 90 15.487C90 10.6439 86.0639 6.70781 81.225 6.70781ZM81.225 22.313C77.4577 22.313 74.3934 19.2487 74.3934 15.487C74.3934 11.7197 77.4577 8.65547 81.225 8.65547C84.9881 8.65547 88.0509 11.7197 88.0509 15.487C88.0523 19.2487 84.9881 22.313 81.225 22.313ZM81.5231 11.3416H80.5472V16.8442C80.5472 17.117 80.7652 17.335 81.0323 17.335H83.932V16.3591L81.5231 16.3577V11.3416ZM81.5231 16.3577V11.3416H80.5472V16.8442C80.5472 17.117 80.7652 17.335 81.0323 17.335H83.932V16.3591L81.5231 16.3577ZM81.5231 16.3577V11.3416H80.5472V16.8442C80.5472 17.117 80.7652 17.335 81.0323 17.335H83.932V16.3591L81.5231 16.3577Z" fill="#836400"/>
<path d="M65.2134 16.657V32.6152H59.9386C58.6054 32.6152 57.4354 33.5222 57.1036 34.8061L56.8898 35.6442H28.2122V16.657C28.2122 15.0412 29.5312 13.732 31.1372 13.732H62.2884C63.9042 13.732 65.2134 15.0398 65.2134 16.657Z" fill="#E7B100"/>
<path d="M33.6149 13.732H31.1357C29.5298 13.732 28.2107 15.0412 28.2107 16.657V35.6442H30.6899V16.657C30.6913 15.0398 32.009 13.732 33.6149 13.732Z" fill="#C09507"/>
<path d="M80.661 35.8017L72.9224 63.2461C72.689 63.6975 72.2277 63.9802 71.713 63.9802H33.9524V63.2362C33.9524 62.0662 34.9086 61.1142 36.0786 61.1142H51.5657C52.0072 61.1142 52.394 60.8217 52.5121 60.3801L56.1261 46.3809H56.1711V46.2122L57.2371 42.0778L57.4902 41.0906L57.7475 40.1287L58.3972 37.5905L58.9077 35.6428L58.9921 35.2912C59.1018 34.8652 59.4927 34.5628 59.9385 34.5628H79.723C80.0254 34.5628 80.308 34.7062 80.4965 34.9537C80.6807 35.197 80.7496 35.5092 80.661 35.8017Z" fill="#E7B100"/>
</svg>
