<svg width="103" height="102" viewBox="0 0 103 102" fill="none" xmlns="http://www.w3.org/2000/svg">
<circle cx="51.5" cy="51" r="51" fill="#F9EABC"/>
<circle cx="52" cy="51" r="44" fill="#C09507"/>
<path d="M63.25 39.75H54.25V44.25H63.25C66.9625 44.25 70 47.2875 70 51C70 54.7125 66.9625 57.75 63.25 57.75H54.25V62.25H63.25C69.46 62.25 74.5 57.21 74.5 51C74.5 44.79 69.46 39.75 63.25 39.75ZM49.75 57.75H40.75C37.0375 57.75 34 54.7125 34 51C34 47.2875 37.0375 44.25 40.75 44.25H49.75V39.75H40.75C34.54 39.75 29.5 44.79 29.5 51C29.5 57.21 34.54 62.25 40.75 62.25H49.75V57.75ZM43 48.75H61V53.25H43V48.75Z" fill="white"/>
</svg>
