<svg width="50" height="48" viewBox="0 0 50 48" fill="none" xmlns="http://www.w3.org/2000/svg">
<rect x="0.511719" width="49.3858" height="48" rx="10" fill="#E9FEF5"/>
<path fill-rule="evenodd" clip-rule="evenodd" d="M32.1062 23.0128C30.9975 22.5559 29.8064 22.333 28.6075 22.358C27.4086 22.333 26.2175 22.5559 25.1089 23.0128C24.296 23.3826 23.7934 23.8655 23.7934 24.3734C23.7934 24.8814 24.296 25.3645 25.1089 25.7343C26.2175 26.1912 27.4086 26.4141 28.6075 26.3891C29.8064 26.4141 30.9975 26.1912 32.1062 25.7343C32.9188 25.3645 33.4216 24.8816 33.4216 24.3734C33.4216 23.8652 32.9188 23.3826 32.1062 23.0128ZM23.7927 31.395V32.9827C23.7927 33.4909 24.2952 33.9735 25.1081 34.3436C26.2168 34.8004 27.4079 35.0232 28.6067 34.9981C29.8056 35.0231 30.9967 34.8003 32.1054 34.3436C32.918 33.9735 33.4208 33.4909 33.4208 32.9827V31.395C33.108 31.6688 32.7549 31.8928 32.3738 32.059C31.1811 32.5549 29.8987 32.7983 28.6073 32.774C27.3158 32.7983 26.0334 32.5548 24.8407 32.059C24.4597 31.8927 24.1065 31.6688 23.7937 31.395H23.7927ZM23.7927 28.5256C24.1055 28.7994 24.4586 29.0233 24.8397 29.1896C26.0324 29.6853 27.3148 29.9287 28.6062 29.9046C29.8976 29.9288 31.1801 29.6853 32.3728 29.1896C32.7538 29.0234 33.107 28.7994 33.4198 28.5256V30.1135C33.4198 30.6215 32.917 31.1044 32.1044 31.4744C30.9956 31.9311 29.8046 32.1539 28.6057 32.1289C27.4069 32.1539 26.2158 31.9311 25.1071 31.4744C24.2942 31.1044 23.7916 30.6215 23.7916 30.1135V28.5256H23.7927ZM23.7927 25.6549C24.1054 25.9288 24.4586 26.1527 24.8397 26.3189C26.0324 26.8146 27.3148 27.0581 28.6062 27.0339C29.8976 27.0581 31.1801 26.8146 32.3728 26.3189C32.7539 26.1528 33.1071 25.9288 33.4198 25.6549V27.2441C33.4198 27.7523 32.917 28.235 32.1044 28.605C30.9961 29.0616 29.8054 29.2846 28.607 29.2598C27.4082 29.2849 26.217 29.0621 25.1083 28.6053C24.2955 28.2352 23.7929 27.7526 23.7929 27.2444L23.7927 25.6549ZM28.7847 27.8192C28.7444 27.822 28.7148 27.8238 28.6966 27.8246C28.6877 27.8246 28.6581 27.8246 28.607 27.8246C28.5559 27.8246 28.5266 27.8246 28.5176 27.8246C28.4995 27.8246 28.4699 27.822 28.4295 27.8192C28.3441 27.8136 28.26 27.8422 28.1957 27.8986C28.1314 27.955 28.0921 28.0347 28.0865 28.12C28.081 28.2054 28.1095 28.2895 28.1659 28.3538C28.2223 28.4182 28.302 28.4574 28.3874 28.463C28.4129 28.4648 28.4497 28.4663 28.4982 28.4681C28.5554 28.4702 28.5922 28.4712 28.6078 28.4712C28.6233 28.4712 28.6604 28.4712 28.7176 28.4681C28.7661 28.4663 28.8029 28.4648 28.8284 28.463C28.9138 28.4573 28.9934 28.418 29.0497 28.3536C29.1061 28.2892 29.1346 28.205 29.1289 28.1197C29.1232 28.0343 29.0838 27.9547 29.0194 27.8983C28.955 27.842 28.8709 27.8135 28.7855 27.8192H28.7847ZM28.7847 30.6886C28.7444 30.6914 28.7148 30.6932 28.6966 30.6937C28.6877 30.6937 28.6581 30.6937 28.607 30.6937C28.5559 30.6937 28.5266 30.6937 28.5176 30.6937C28.4995 30.6937 28.4699 30.6914 28.4295 30.6886C28.3867 30.6849 28.3436 30.6897 28.3027 30.7029C28.2618 30.716 28.224 30.7372 28.1914 30.7651C28.1588 30.7931 28.1321 30.8273 28.1129 30.8657C28.0937 30.9041 28.0824 30.946 28.0796 30.9889C28.0767 31.0317 28.0825 31.0747 28.0966 31.1153C28.1106 31.1559 28.1326 31.1933 28.1613 31.2253C28.1899 31.2572 28.2247 31.2832 28.2635 31.3015C28.3024 31.3199 28.3445 31.3303 28.3874 31.3322C28.4129 31.334 28.4497 31.3357 28.4982 31.3373C28.5554 31.3393 28.5922 31.3403 28.6078 31.3403C28.6233 31.3403 28.6604 31.3403 28.7176 31.3373C28.7661 31.3357 28.8029 31.334 28.8284 31.3322C28.8712 31.3301 28.9132 31.3195 28.9518 31.301C28.9905 31.2826 29.0251 31.2566 29.0536 31.2246C29.0821 31.1926 29.1039 31.1552 29.1178 31.1147C29.1317 31.0742 29.1374 31.0313 29.1346 30.9886C29.1317 30.9458 29.1204 30.9041 29.1012 30.8657C29.082 30.8274 29.0554 30.7933 29.0229 30.7654C28.9904 30.7375 28.9527 30.7163 28.9119 30.7031C28.8712 30.6899 28.8282 30.685 28.7855 30.6886H28.7847ZM28.7847 33.558C28.8274 33.5544 28.8704 33.5593 28.9112 33.5725C28.9519 33.5857 28.9897 33.6069 29.0222 33.6348C29.0547 33.6627 29.0813 33.6968 29.1004 33.7351C29.1196 33.7735 29.1309 33.8152 29.1338 33.858C29.1366 33.9007 29.1309 33.9436 29.117 33.9841C29.1031 34.0246 29.0813 34.062 29.0528 34.094C29.0243 34.126 28.9897 34.152 28.951 34.1704C28.9124 34.1889 28.8704 34.1995 28.8276 34.2016C28.8021 34.2034 28.7653 34.2052 28.7168 34.2067C28.6596 34.2087 28.6228 34.2097 28.607 34.2097C28.5912 34.2097 28.5559 34.2097 28.4974 34.2067C28.4489 34.2052 28.4121 34.2034 28.3866 34.2016C28.3024 34.1944 28.2243 34.1545 28.1692 34.0904C28.1141 34.0263 28.0864 33.9431 28.092 33.8587C28.0976 33.7744 28.1361 33.6956 28.1993 33.6394C28.2624 33.5831 28.3451 33.5539 28.4295 33.558C28.4699 33.5608 28.4995 33.5626 28.5176 33.5631C28.5266 33.5631 28.5562 33.5631 28.607 33.5631C28.6578 33.5631 28.6877 33.5631 28.6966 33.5631C28.7148 33.5631 28.7444 33.5608 28.7847 33.558ZM28.0212 17.5822H14.4219C14.3101 17.5827 14.2031 17.6273 14.1241 17.7063C14.0451 17.7853 14.0005 17.8923 14 18.0041V20.3175C14.0005 20.4293 14.0451 20.5363 14.1241 20.6154C14.2031 20.6944 14.3101 20.7391 14.4219 20.7397H28.0212C28.1329 20.7391 28.2399 20.6944 28.3189 20.6154C28.3979 20.5363 28.4425 20.4293 28.443 20.3175V18.0041C28.4426 17.8923 28.398 17.7853 28.319 17.7063C28.2399 17.6273 28.1329 17.5827 28.0212 17.5822ZM21.4667 18.9025H26.8899V19.5486H21.4667V18.9025ZM15.508 18.9025H15.984V19.5486H15.5088V18.9025H15.508ZM16.8211 18.9025H17.2972V19.5486H16.8219V18.9025H16.8211ZM18.1345 18.9025H18.6106V19.5486H18.1353V18.9025H18.1345ZM21.4667 24.8512H23.1458V24.3734C23.149 24.0724 23.2414 23.7791 23.4114 23.5307H14.4219C14.3101 23.5313 14.2031 23.576 14.1241 23.655C14.0451 23.7341 14.0005 23.8411 14 23.9528V26.2663C14.0003 26.3781 14.0448 26.4853 14.1238 26.5644C14.2029 26.6435 14.3101 26.6881 14.4219 26.6884H23.1465V25.4973H21.4667V24.8512ZM15.508 24.8512H15.984V25.4973H15.5088V24.8512H15.508ZM16.8211 24.8512H17.2972V25.4973H16.8219V24.8512H16.8211ZM18.1345 24.8512H18.6106V25.4973H18.1353V24.8512H18.1345ZM21.4667 30.8H23.1458V29.4794H14.4219C14.3101 29.4799 14.2031 29.5245 14.1241 29.6035C14.0451 29.6825 14.0005 29.7896 14 29.9013V32.215C14.0003 32.3268 14.0448 32.434 14.1239 32.513C14.2029 32.5921 14.3101 32.6366 14.4219 32.6369H23.1465V31.4461H21.4667V30.8ZM15.508 30.8H15.984V31.4461H15.5088V30.8H15.508ZM16.8211 30.8H17.2972V31.4461H16.8219V30.8H16.8211ZM18.1345 30.8H18.6106V31.4461H18.1353V30.8H18.1345ZM15.356 27.3345V28.8333H23.145V27.3345H15.356ZM27.0855 21.8135C26.3115 21.9096 25.5552 22.116 24.8397 22.4264C24.5601 22.5515 24.2941 22.705 24.046 22.8846H15.3568V21.3858H27.0862V21.8135H27.0855ZM32.2872 13V17.2589C32.2872 17.3013 32.2789 17.3433 32.2626 17.3825C32.2464 17.4217 32.2226 17.4573 32.1926 17.4873C32.1626 17.5173 32.127 17.5411 32.0878 17.5574C32.0486 17.5736 32.0066 17.582 31.9642 17.582H30.8436L33.7447 21.315L36.6457 17.582H35.5251C35.4827 17.582 35.4407 17.5736 35.4015 17.5574C35.3623 17.5411 35.3267 17.5173 35.2967 17.4873C35.2667 17.4573 35.2429 17.4217 35.2267 17.3825C35.2104 17.3433 35.2021 17.3013 35.2021 17.2589V13H32.2872Z" fill="#00AB55"/>
</svg>
