<svg width="102" height="102" viewBox="0 0 102 102" fill="none" xmlns="http://www.w3.org/2000/svg">
<circle cx="51" cy="51" r="51" fill="#F9EABC"/>
<circle cx="51" cy="51" r="44" fill="#C09507"/>
<path d="M57.75 30.75H37.5C35.6325 30.75 34.035 31.875 33.36 33.495L26.565 49.3575C26.3625 49.875 26.25 50.415 26.25 51V55.5C26.25 57.975 28.275 60 30.75 60H44.9475L42.81 70.2825L42.7425 71.0025C42.7425 71.925 43.125 72.78 43.7325 73.3875L46.1175 75.75L60.9225 60.9225C61.755 60.1125 62.25 58.9875 62.25 57.75V35.25C62.25 32.775 60.225 30.75 57.75 30.75ZM57.75 57.75L47.985 67.515L50.4825 55.5H30.75V51L37.5 35.25H57.75V57.75ZM66.75 30.75H75.75V57.75H66.75V30.75Z" fill="white"/>
</svg>
