<svg width="103" height="102" viewBox="0 0 103 102" fill="none" xmlns="http://www.w3.org/2000/svg">
<circle cx="51.5" cy="51" r="51" fill="#F9EABC"/>
<circle cx="52" cy="51" r="44" fill="#C09507"/>
<path d="M56.8775 48.7486L60.5 52.3711V48.7486H56.8775ZM62.75 39.7486H53.75V44.0236H62.75C66.5975 44.0236 69.725 47.1511 69.725 50.9986C69.725 53.8561 67.9925 56.3311 65.5175 57.3886L68.6675 60.5386C71.8625 58.5586 74 55.0261 74 50.9986C74 44.7886 68.96 39.7486 62.75 39.7486ZM29 33.6061L35.9975 40.6036C31.9025 42.2686 29 46.2961 29 50.9986C29 57.2086 34.04 62.2486 40.25 62.2486H49.25V57.9736H40.25C36.4025 57.9736 33.275 54.8461 33.275 50.9986C33.275 47.4211 35.9975 44.4736 39.485 44.0911L44.1425 48.7486H42.5V53.2486H48.6425L53.75 58.3561V62.2486H57.6425L66.665 71.2711L69.8375 68.0986L32.1725 30.4336L29 33.6061Z" fill="white"/>
</svg>
