<svg width="253" height="70" viewBox="0 0 253 70" fill="none" xmlns="http://www.w3.org/2000/svg">
<g clip-path="url(#clip0_1492_1679)">
<path d="M87.7282 15.9336L97.4069 40.1939L107.182 15.9336H112.932L97.2153 53.5225L81.8823 15.9336H87.7282Z" fill="#06038D"/>
<path d="M148.486 32.6183L144.27 34.8237C143.599 33.4812 142.736 32.81 141.778 32.81C141.299 32.81 140.915 33.0017 140.532 33.2894C140.245 33.5771 140.053 33.9607 140.053 34.4402C140.053 35.3032 141.011 36.1662 143.024 36.9333C145.707 38.084 147.528 39.1388 148.486 40.1936C149.445 41.1525 149.924 42.495 149.924 44.1251C149.924 46.2347 149.157 48.0566 147.528 49.495C145.995 50.8375 144.174 51.5086 141.97 51.5086C138.232 51.5086 135.645 49.6868 134.111 46.1388L138.424 44.1251C138.999 45.1799 139.478 45.8511 139.765 46.1388C140.34 46.7142 141.107 47.0018 141.97 47.0018C143.695 47.0018 144.557 46.2347 144.557 44.6046C144.557 43.7416 143.886 42.8785 142.545 42.1114C142.065 41.8238 141.49 41.632 141.011 41.3443C140.532 41.0566 139.957 40.8648 139.478 40.5771C138.041 39.81 136.986 39.1388 136.315 38.3717C135.549 37.4128 135.166 36.262 135.166 34.8237C135.166 32.9058 135.836 31.3716 137.178 30.0291C138.52 28.7826 140.149 28.1113 142.065 28.1113C145.036 28.2072 147.145 29.6457 148.486 32.6183Z" fill="#06038D"/>
<path d="M163.436 33.5778V50.8381H158.357V33.5778H156.153V28.7833H158.357V20.7285H163.436V28.7833H167.365V33.5778H163.436Z" fill="#06038D"/>
<path d="M191.228 28.8779H196.307V50.9327H191.228V48.6312C189.119 50.549 186.915 51.6038 184.424 51.6038C181.357 51.6038 178.865 50.5491 176.853 48.3436C174.84 46.1382 173.882 43.2614 173.882 39.9053C173.882 36.645 174.84 33.8642 176.853 31.6587C178.865 29.4532 181.261 28.3984 184.232 28.3984C186.819 28.3984 189.119 29.4532 191.132 31.5628V28.8779H191.228ZM179.153 39.8094C179.153 41.919 179.728 43.645 180.878 44.9875C182.028 46.3299 183.465 47.0012 185.286 47.0012C187.203 47.0012 188.736 46.3299 189.886 45.0834C191.036 43.7409 191.611 42.0148 191.611 40.0011C191.611 37.8915 191.036 36.2615 189.886 34.919C188.736 33.5765 187.203 32.9052 185.382 32.9052C183.657 32.9052 182.123 33.5765 180.973 34.919C179.728 36.1656 179.153 37.7957 179.153 39.8094Z" fill="#06038D"/>
<path d="M222.661 28.8779H227.74V50.9327H222.661V48.6312C220.553 50.549 218.349 51.6038 215.857 51.6038C212.79 51.6038 210.299 50.5491 208.286 48.3436C206.274 46.1382 205.315 43.2614 205.315 39.9053C205.315 36.645 206.274 33.8642 208.286 31.6587C210.299 29.4532 212.695 28.3984 215.665 28.3984C218.253 28.3984 220.553 29.4532 222.565 31.5628V28.8779H222.661ZM210.586 39.8094C210.586 41.919 211.161 43.645 212.311 44.9875C213.461 46.3299 214.899 47.0012 216.72 47.0012C218.636 47.0012 220.17 46.3299 221.32 45.0834C222.47 43.7409 223.045 42.0148 223.045 40.0011C223.045 37.8915 222.47 36.2615 221.32 34.919C220.17 33.5765 218.636 32.9052 216.815 32.9052C215.09 32.9052 213.557 33.5765 212.407 34.919C211.161 36.1656 210.586 37.7957 210.586 39.8094Z" fill="#06038D"/>
<path d="M237.898 28.8781H242.978V30.8917C243.936 29.9328 244.703 29.2616 245.469 28.8781C246.236 28.4945 247.098 28.3027 248.057 28.3027C249.398 28.3027 250.836 28.7822 252.273 29.6452L249.973 34.3437C249.015 33.6725 248.057 33.2889 247.098 33.2889C244.319 33.2889 242.978 35.3985 242.978 39.6177V51.0287H237.898V28.8781Z" fill="#06038D"/>
<path d="M125.294 28.7832H120.311V50.9339H125.294V28.7832Z" fill="#06038D"/>
<path d="M122.803 23.3161C124.709 23.3161 126.253 21.7707 126.253 19.8641C126.253 17.9576 124.709 16.4121 122.803 16.4121C120.897 16.4121 119.353 17.9576 119.353 19.8641C119.353 21.7707 120.897 23.3161 122.803 23.3161Z" fill="#FF671F"/>
<mask id="mask0_1492_1679" style="mask-type:luminance" maskUnits="userSpaceOnUse" x="54" y="8" width="16" height="33">
<path d="M69.3279 20.5353C68.3695 24.0833 67.6028 28.0147 65.782 30.9873C63.2903 34.8229 59.8403 38.1791 55.9112 40.5763C55.6237 40.7681 54.857 40.3846 54.5695 40.5763C52.7487 29.0695 55.5278 17.4668 62.332 8.45312C65.3987 12.097 67.6987 16.2203 69.3279 20.5353Z" fill="white"/>
</mask>
<g mask="url(#mask0_1492_1679)">
<path d="M50.9277 39.9055L65.6861 42.6863L71.0527 10.0836L56.2944 7.30273L50.9277 39.9055Z" fill="url(#paint0_linear_1492_1679)"/>
</g>
<mask id="mask1_1492_1679" style="mask-type:luminance" maskUnits="userSpaceOnUse" x="34" y="20" width="38" height="50">
<path d="M54.4736 40.5779C61.6611 36.2629 67.0278 29.0712 69.3278 20.6328C72.6819 29.8383 72.4903 40.0985 68.3694 49.2081C62.3319 62.5368 49.0111 70.4958 34.7319 69.441C35.0194 57.6465 41.4403 47.2903 51.5986 42.2082C52.5569 41.6328 53.5153 41.1533 54.4736 40.5779Z" fill="white"/>
</mask>
<g mask="url(#mask1_1492_1679)">
<path d="M33.0068 69.0578L66.5485 75.3866L75.4611 21.688L41.9193 15.4551L33.0068 69.0578Z" fill="url(#paint1_linear_1492_1679)"/>
</g>
<path fill-rule="evenodd" clip-rule="evenodd" d="M62.6194 47.2903C68.9444 40.1944 71.4361 30.126 69.3278 20.6328C72.6819 29.8383 72.4903 40.0985 68.3694 49.2081C62.3319 62.5368 49.0111 70.4958 34.7319 69.441C34.8278 64.6465 35.9778 60.0437 37.9903 55.9204C46.9986 57.6464 56.2944 54.3861 62.6194 47.2903Z" fill="#ACE046"/>
<mask id="mask2_1492_1679" style="mask-type:luminance" maskUnits="userSpaceOnUse" x="2" y="8" width="16" height="33">
<path d="M2.34082 20.5353C3.29915 24.0833 4.0658 28.0147 5.88663 30.9873C8.3783 34.8229 11.8283 38.1791 15.7575 40.5763C16.045 40.7681 16.8117 40.3846 17.0992 40.5763C18.92 29.0695 16.1408 17.4668 9.33664 8.45312C6.36581 12.097 3.96999 16.2203 2.34082 20.5353Z" fill="white"/>
</mask>
<g mask="url(#mask2_1492_1679)">
<path d="M6.07824 42.6863L20.8365 39.9055L15.3741 7.30273L0.615723 10.0836L6.07824 42.6863Z" fill="url(#paint2_linear_1492_1679)"/>
</g>
<mask id="mask3_1492_1679" style="mask-type:luminance" maskUnits="userSpaceOnUse" x="0" y="20" width="37" height="50">
<path d="M17.1947 40.5779C10.0072 36.2629 4.64057 29.0712 2.34057 20.6328C-1.0136 29.8383 -0.821933 40.0985 3.2989 49.2081C9.3364 62.5368 22.6572 70.4958 36.9364 69.441C36.6489 57.6465 30.228 47.2903 20.0697 42.2082C19.1114 41.6328 18.153 41.1533 17.1947 40.5779Z" fill="white"/>
</mask>
<g mask="url(#mask3_1492_1679)">
<path d="M5.11951 75.3866L38.6612 69.0578L29.7487 15.4551L-3.79297 21.688L5.11951 75.3866Z" fill="url(#paint3_linear_1492_1679)"/>
</g>
<path fill-rule="evenodd" clip-rule="evenodd" d="M9.0489 47.2903C2.7239 40.1944 0.232234 30.126 2.34057 20.6328C-1.0136 29.8383 -0.821933 40.0985 3.2989 49.2081C9.3364 62.5368 22.6572 70.4958 36.9364 69.441C36.8405 64.6465 35.6905 60.0437 33.678 55.9204C24.6697 57.6464 15.4697 54.3861 9.0489 47.2903Z" fill="#ACE046"/>
<path d="M35.4027 35.782C37.7315 35.782 39.6194 33.8932 39.6194 31.5629C39.6194 29.2328 37.7315 27.3438 35.4027 27.3438C33.074 27.3438 31.186 29.2328 31.186 31.5629C31.186 33.8932 33.074 35.782 35.4027 35.782Z" fill="url(#paint4_linear_1492_1679)"/>
<path d="M17.8657 9.79661C17.8657 9.79661 34.3492 -6.02526 54.3783 10.1802" stroke="url(#paint5_linear_1492_1679)" stroke-width="6" stroke-miterlimit="10" stroke-linecap="round"/>
<path d="M24.5737 21.0153C24.5737 21.0153 35.0196 9.2207 47.5737 21.3029" stroke="url(#paint6_linear_1492_1679)" stroke-width="6" stroke-miterlimit="10" stroke-linecap="round"/>
</g>
<defs>
<linearGradient id="paint0_linear_1492_1679" x1="67.5043" y1="25.6329" x2="28.5602" y2="21.6098" gradientUnits="userSpaceOnUse">
<stop stop-color="#0F856D"/>
<stop offset="1" stop-color="#53C506"/>
</linearGradient>
<linearGradient id="paint1_linear_1492_1679" x1="77.3138" y1="44.6324" x2="35.4329" y2="45.9301" gradientUnits="userSpaceOnUse">
<stop stop-color="#16A085"/>
<stop offset="1" stop-color="#98DB04"/>
</linearGradient>
<linearGradient id="paint2_linear_1492_1679" x1="4.13972" y1="25.6695" x2="43.0838" y2="21.6463" gradientUnits="userSpaceOnUse">
<stop stop-color="#0F856D"/>
<stop offset="1" stop-color="#53C506"/>
</linearGradient>
<linearGradient id="paint3_linear_1492_1679" x1="-5.66793" y1="44.6688" x2="36.213" y2="45.9664" gradientUnits="userSpaceOnUse">
<stop stop-color="#16A085"/>
<stop offset="1" stop-color="#98DB04"/>
</linearGradient>
<linearGradient id="paint4_linear_1492_1679" x1="31.1324" y1="31.5409" x2="39.6352" y2="31.5409" gradientUnits="userSpaceOnUse">
<stop offset="0.000302667" stop-color="#0C1D5F"/>
<stop offset="1" stop-color="#0B5DDB"/>
</linearGradient>
<linearGradient id="paint5_linear_1492_1679" x1="36.1158" y1="13.0599" x2="36.1158" y2="0.0128524" gradientUnits="userSpaceOnUse">
<stop offset="0.000302667" stop-color="#0C1D5F"/>
<stop offset="1" stop-color="#0B5DDB"/>
</linearGradient>
<linearGradient id="paint6_linear_1492_1679" x1="36.1154" y1="24.1335" x2="36.1154" y2="12.9514" gradientUnits="userSpaceOnUse">
<stop offset="0.000302667" stop-color="#0C1D5F"/>
<stop offset="1" stop-color="#0B5DDB"/>
</linearGradient>
<clipPath id="clip0_1492_1679">
<rect width="253" height="70" fill="white"/>
</clipPath>
</defs>
</svg>
