<svg width="30" height="30" viewBox="0 0 30 30" fill="none" xmlns="http://www.w3.org/2000/svg">
<path d="M21.0066 8.97934C19.3491 7.32184 17.1816 6.486 14.9999 6.486V14.986L8.99325 20.9927C12.3083 24.3077 17.6916 24.3077 21.0208 20.9927C24.3358 17.6777 24.3358 12.2943 21.0066 8.97934ZM14.9999 0.819336C7.17992 0.819336 0.833252 7.166 0.833252 14.986C0.833252 22.806 7.17992 29.1527 14.9999 29.1527C22.8199 29.1527 29.1666 22.806 29.1666 14.986C29.1666 7.166 22.8199 0.819336 14.9999 0.819336ZM14.9999 26.3193C8.73825 26.3193 3.66659 21.2477 3.66659 14.986C3.66659 8.72434 8.73825 3.65267 14.9999 3.65267C21.2616 3.65267 26.3333 8.72434 26.3333 14.986C26.3333 21.2477 21.2616 26.3193 14.9999 26.3193Z" fill="#3D4A52"/>
</svg>
