<svg width="18" height="18" viewBox="0 0 18 18" fill="none" xmlns="http://www.w3.org/2000/svg">
<g clip-path="url(#clip0_455_16308)">
<path d="M9 9C8.175 9 7.5 8.325 7.5 7.5C7.5 6.675 8.175 6 9 6C9.825 6 10.5 6.675 10.5 7.5C10.5 8.325 9.825 9 9 9ZM13.5 7.65C13.5 4.9275 11.5125 3 9 3C6.4875 3 4.5 4.9275 4.5 7.65C4.5 9.405 5.9625 11.73 9 14.505C12.0375 11.73 13.5 9.405 13.5 7.65ZM9 1.5C12.15 1.5 15 3.915 15 7.65C15 10.14 12.9975 13.0875 9 16.5C5.0025 13.0875 3 10.14 3 7.65C3 3.915 5.85 1.5 9 1.5Z" fill="black"/>
</g>
<defs>
<clipPath id="clip0_455_16308">
<rect width="18" height="18" fill="white"/>
</clipPath>
</defs>
</svg>
