<svg width="62" height="62" viewBox="0 0 62 62" fill="none" xmlns="http://www.w3.org/2000/svg">
<path d="M48.619 15.2857H53.3809" stroke="#836400" stroke-miterlimit="10" stroke-linecap="round" stroke-linejoin="round"/>
<path d="M55.2856 15.2857H56.238" stroke="#836400" stroke-miterlimit="10" stroke-linecap="round" stroke-linejoin="round"/>
<path d="M13.3809 15.2857H8.61902" stroke="#836400" stroke-miterlimit="10" stroke-linecap="round" stroke-linejoin="round"/>
<path d="M6.71422 15.2857H5.76184" stroke="#836400" stroke-miterlimit="10" stroke-linecap="round" stroke-linejoin="round"/>
<path d="M31 16.2381C35.2079 16.2381 38.6191 12.8269 38.6191 8.61905C38.6191 4.41116 35.2079 1 31 1C26.7921 1 23.381 4.41116 23.381 8.61905C23.381 12.8269 26.7921 16.2381 31 16.2381Z" stroke="#836400" stroke-miterlimit="10" stroke-linecap="round" stroke-linejoin="round"/>
<path d="M36.2381 4.2381L36.8096 3.7619C35.381 2.04762 33.2857 1 31 1C26.8096 1 23.381 4.42857 23.381 8.61905H24.1429C28.5238 8.61905 32.9048 7.09524 36.2381 4.2381Z" fill="#E7B100" stroke="#836400" stroke-miterlimit="10" stroke-linecap="round" stroke-linejoin="round"/>
<path d="M31.0001 16.2381C29.9525 16.2381 29.0001 16.0476 28.1429 15.6667V17.1905L31.0001 21.4762L33.8572 17.1905V15.6667C33.0001 16.0476 32.0477 16.2381 31.0001 16.2381Z" stroke="#836400" stroke-miterlimit="10" stroke-linecap="round" stroke-linejoin="round"/>
<path d="M37.6666 26.7143V33.381" stroke="#836400" stroke-miterlimit="10" stroke-linecap="round" stroke-linejoin="round"/>
<path d="M24.3334 26.7143V33.381" stroke="#836400" stroke-miterlimit="10" stroke-linecap="round" stroke-linejoin="round"/>
<path d="M33.3809 32.9048L31 35.2857L28.619 32.9048L30.0476 21.4762H31.9524L33.3809 32.9048Z" fill="#C09507" stroke="#836400" stroke-miterlimit="10" stroke-linecap="round" stroke-linejoin="round"/>
<path d="M28.1429 17.1905L27.6667 21.4762H34.3334L33.8572 17.1905L31.0001 21.4762L28.1429 17.1905Z" stroke="#836400" stroke-miterlimit="10" stroke-linecap="round" stroke-linejoin="round"/>
<path d="M42.4286 28.0476V24.0476C42.4286 22.1429 41.2857 20.4286 39.5714 19.6667L33.8571 17.0953L31 21.4762L28.1428 17.1905L22.4286 19.7619C20.7143 20.5238 19.5714 22.2381 19.5714 24.1429V28.0476" stroke="#836400" stroke-miterlimit="10" stroke-linecap="round" stroke-linejoin="round"/>
<path d="M12.4286 41.9524C16.6365 41.9524 20.0477 38.5412 20.0477 34.3333C20.0477 30.1255 16.6365 26.7143 12.4286 26.7143C8.22073 26.7143 4.80957 30.1255 4.80957 34.3333C4.80957 38.5412 8.22073 41.9524 12.4286 41.9524Z" stroke="#836400" stroke-miterlimit="10" stroke-linecap="round" stroke-linejoin="round"/>
<path d="M17.6667 29.9524L18.2381 29.4762C16.8096 27.7619 14.7143 26.7143 12.4286 26.7143C8.23814 26.7143 4.80957 30.1429 4.80957 34.3333H5.57148C9.95243 34.3333 14.3334 32.8095 17.6667 29.9524Z" fill="#E7B100" stroke="#836400" stroke-miterlimit="10" stroke-linecap="round" stroke-linejoin="round"/>
<path d="M12.4286 41.9524C11.3809 41.9524 10.4286 41.7619 9.57141 41.381V42.9048L12.4286 47.1905L15.2857 42.9048V41.381C14.4286 41.7619 13.4762 41.9524 12.4286 41.9524Z" stroke="#836400" stroke-miterlimit="10" stroke-linecap="round" stroke-linejoin="round"/>
<path d="M19.0953 52.4286V59.0952" stroke="#836400" stroke-miterlimit="10" stroke-linecap="round" stroke-linejoin="round"/>
<path d="M5.76184 52.4286V59.0952" stroke="#836400" stroke-miterlimit="10" stroke-linecap="round" stroke-linejoin="round"/>
<path d="M14.8095 58.619L12.4286 61L10.0476 58.619L11.4762 47.1905H13.3809L14.8095 58.619Z" fill="#C09507" stroke="#836400" stroke-miterlimit="10" stroke-linecap="round" stroke-linejoin="round"/>
<path d="M9.57128 42.9048L9.09509 47.1905H15.7618L15.2856 42.9048L12.4284 47.1905L9.57128 42.9048Z" stroke="#836400" stroke-miterlimit="10" stroke-linecap="round" stroke-linejoin="round"/>
<path d="M23.8571 59.0953V49.7619C23.8571 47.8572 22.7143 46.1429 21 45.381L15.2857 42.8096L12.4286 47.0953L9.57143 42.8096L3.85714 45.381C2.14286 46.1429 1 47.8572 1 49.7619V59.0953" stroke="#836400" stroke-miterlimit="10" stroke-linecap="round" stroke-linejoin="round"/>
<path d="M49.5713 41.9524C53.7792 41.9524 57.1904 38.5412 57.1904 34.3333C57.1904 30.1255 53.7792 26.7143 49.5713 26.7143C45.3634 26.7143 41.9523 30.1255 41.9523 34.3333C41.9523 38.5412 45.3634 41.9524 49.5713 41.9524Z" stroke="#836400" stroke-miterlimit="10" stroke-linecap="round" stroke-linejoin="round"/>
<path d="M54.8094 29.9524L55.3808 29.4762C53.9523 27.7619 51.857 26.7143 49.5713 26.7143C45.3808 26.7143 41.9523 30.1429 41.9523 34.3333H42.7142C47.0951 34.3333 51.4761 32.8095 54.8094 29.9524Z" fill="#E7B100" stroke="#836400" stroke-miterlimit="10" stroke-linecap="round" stroke-linejoin="round"/>
<path d="M49.5714 41.9524C48.5238 41.9524 47.5714 41.7619 46.7142 41.381V42.9048L49.5714 47.1905L52.4285 42.9048V41.381C51.5714 41.7619 50.619 41.9524 49.5714 41.9524Z" stroke="#836400" stroke-miterlimit="10" stroke-linecap="round" stroke-linejoin="round"/>
<path d="M56.2382 52.4286V59.0952" stroke="#836400" stroke-miterlimit="10" stroke-linecap="round" stroke-linejoin="round"/>
<path d="M42.9047 52.4286V59.0952" stroke="#836400" stroke-miterlimit="10" stroke-linecap="round" stroke-linejoin="round"/>
<path d="M51.9525 58.619L49.5715 61L47.1906 58.619L48.6191 47.1905H50.5239L51.9525 58.619Z" fill="#C09507" stroke="#836400" stroke-miterlimit="10" stroke-linecap="round" stroke-linejoin="round"/>
<path d="M46.7142 42.9048L46.238 47.1905H52.9047L52.4285 42.9048L49.5714 47.1905L46.7142 42.9048Z" stroke="#836400" stroke-miterlimit="10" stroke-linecap="round" stroke-linejoin="round"/>
<path d="M61 59.0953V49.7619C61 47.8572 59.8571 46.1429 58.1428 45.381L52.4285 42.8096L49.5714 47.0953L46.7143 42.8096L41 45.381C39.2857 46.1429 38.1428 47.8572 38.1428 49.7619V59.0953" stroke="#836400" stroke-miterlimit="10" stroke-linecap="round" stroke-linejoin="round"/>
<path d="M31 37.6667V43.381" stroke="#836400" stroke-miterlimit="10" stroke-linecap="round" stroke-linejoin="round"/>
<path d="M25.6667 46.8095L31.0001 43.381L36.3334 46.8095" stroke="#836400" stroke-miterlimit="10" stroke-linecap="round" stroke-linejoin="round"/>
</svg>
