<svg width="60" height="60" viewBox="0 0 60 60" fill="none" xmlns="http://www.w3.org/2000/svg">
<rect width="60" height="60" fill="white"/>
<path d="M29.6614 30L20.5193 25L20.1807 36L29.6614 41.3333V30Z" fill="#E7B100"/>
<path d="M39.4806 24.6667L30.3385 30V40.6667L40.1578 35.3333L39.4806 24.6667Z" fill="#E7B100"/>
<path d="M30 19L21.535 24V24.3333L30 29.3333L38.4649 24L30 19Z" fill="#E7B100"/>
<path d="M30.001 48.2841C29.6463 48.2841 29.2954 48.2742 28.9468 48.2545L29.0544 46.3777C29.6558 46.411 30.2719 46.4119 30.8771 46.381L30.979 48.2578C30.6552 48.2747 30.3296 48.2836 30.001 48.2841ZM33.0008 48.0389L32.6851 46.1855C33.2827 46.0866 33.8798 45.9539 34.4597 45.7899L34.9863 47.596C34.3369 47.7802 33.6688 47.9288 33.0008 48.0389ZM26.9236 48.0258C26.2575 47.9133 25.5899 47.7619 24.94 47.5749L25.4738 45.7706C26.0551 45.937 26.6522 46.073 27.2479 46.1738L26.9236 48.0258ZM36.909 46.9355L36.1781 45.1992C36.7348 44.9724 37.2861 44.7103 37.8166 44.422L38.7403 46.0664C38.147 46.3894 37.5309 46.6814 36.909 46.9355ZM23.0206 46.9064C22.3983 46.6495 21.7826 46.3547 21.1908 46.0299L22.1212 44.3883C22.6507 44.6794 23.2016 44.9438 23.7582 45.173L23.0206 46.9064ZM40.4626 45.0019L39.3588 43.4686C39.8521 43.1245 40.3321 42.7486 40.7849 42.352L42.0539 43.756C41.5482 44.1989 41.013 44.618 40.4626 45.0019ZM19.4728 44.9574C18.9248 44.5711 18.3915 44.1502 17.8872 43.7053L19.1609 42.3061C19.6128 42.7045 20.0913 43.0824 20.5832 43.4288L19.4728 44.9574ZM43.4966 42.346L42.0786 41.0869C42.4848 40.6444 42.87 40.1742 43.2247 39.6905L44.7732 40.7897C44.378 41.3292 43.948 41.8528 43.4966 42.346ZM16.4507 42.2897C15.9998 41.7928 15.5726 41.2683 15.1808 40.7288L16.734 39.6356C17.0854 40.1199 17.4687 40.591 17.8739 41.0363L16.4507 42.2897ZM45.8712 39.1064L44.2104 38.1792C44.5094 37.6599 44.7827 37.1185 45.0217 36.5714L46.7754 37.3144C46.5083 37.9242 46.2045 38.527 45.8712 39.1064ZM14.0909 39.0413C13.7604 38.4614 13.459 37.8581 13.1943 37.2464L14.9508 36.5105C15.1884 37.0594 15.4588 37.6013 15.7555 38.1216L14.0909 39.0413ZM47.4749 35.4361L45.6498 34.8853C45.8269 34.3153 45.975 33.7289 46.0883 33.1425L47.9639 33.495C47.8372 34.1485 47.6725 34.8014 47.4749 35.4361ZM12.5015 35.3658C12.3067 34.7316 12.1448 34.0781 12.021 33.4228L13.8975 33.0778C14.0094 33.6661 14.1547 34.253 14.3294 34.822L12.5015 35.3658ZM48.2362 31.5141L46.3335 31.3636C46.3707 30.9108 46.3892 30.4519 46.3892 30C46.3888 29.8566 46.3868 29.7103 46.3835 29.565L48.2915 29.5195C48.2957 29.6784 48.2976 29.8374 48.2981 29.9972C48.2981 30.502 48.2772 31.0111 48.2362 31.5141ZM11.7572 31.4409C11.7201 30.9642 11.701 30.4791 11.701 30C11.701 29.8139 11.7039 29.6288 11.7096 29.4436L13.618 29.5003C13.6128 29.6663 13.6104 29.8327 13.6104 30C13.6104 30.4317 13.6276 30.8681 13.6604 31.2975L11.7572 31.4409ZM46.2397 27.7758C46.1592 27.1814 46.045 26.5875 45.9007 26.0105L47.7553 25.5624C47.9153 26.2045 48.0424 26.8655 48.1319 27.5259L46.2397 27.7758ZM13.7685 27.7092L11.8772 27.4533C11.9691 26.7942 12.0986 26.1338 12.262 25.4902L14.1142 25.9458C13.9675 26.5233 13.8514 27.1167 13.7685 27.7092ZM45.3703 24.2939C45.1617 23.7328 44.9203 23.1774 44.6522 22.643L46.364 21.8105C46.6625 22.4053 46.9311 23.0236 47.1639 23.6484L45.3703 24.2939ZM14.6522 24.2302L12.8614 23.5786C13.0957 22.9547 13.3676 22.3369 13.6695 21.742L15.3769 22.582C15.1065 23.1155 14.8622 23.6705 14.6522 24.2302ZM43.7571 21.0806C43.4318 20.5791 43.0738 20.0888 42.6938 19.6228L44.1818 18.4449C44.606 18.9638 45.0046 19.5099 45.3665 20.0691L43.7571 21.0806ZM16.2802 21.022L14.6751 20.0039C15.0413 19.4452 15.4422 18.9 15.8674 18.3839L17.3501 19.5675C16.9687 20.0311 16.6083 20.5205 16.2802 21.022ZM41.4749 18.2878C41.0473 17.8674 40.5897 17.4652 40.1159 17.093L41.3073 15.6249C41.8353 16.0402 42.3457 16.4888 42.8238 16.958L41.4749 18.2878ZM18.5753 18.2381L17.233 16.9017C17.7144 16.433 18.2262 15.9867 18.7552 15.5752L19.9394 17.0489C19.4657 17.4178 19.0067 17.8177 18.5753 18.2381ZM38.6318 16.0524C38.1189 15.7336 37.5833 15.4411 37.04 15.1819L37.8723 13.4906C38.4789 13.7803 39.0774 14.107 39.6502 14.4633L38.6318 16.0524ZM21.4279 16.0149L20.4161 14.4211C20.9898 14.0686 21.5888 13.7438 22.1978 13.4559L23.0235 15.1509C22.4778 15.4083 21.9412 15.6989 21.4279 16.0149ZM35.3596 14.4924C34.7887 14.295 34.2002 14.1272 33.6112 13.9945L34.0364 12.1622C34.6964 12.3108 35.3544 12.4978 35.9924 12.7191L35.3596 14.4924ZM24.7057 14.4699L24.0801 12.6942C24.7186 12.4763 25.3771 12.2916 26.0375 12.1458L26.4556 13.98C25.8652 14.1103 25.2762 14.2753 24.7057 14.4699ZM31.8171 13.6955C30.641 13.5652 29.4263 13.5633 28.2502 13.6875L28.0459 11.8191C29.3601 11.6799 30.7152 11.6822 32.0294 11.8275L31.8171 13.6955Z" fill="#E7B100"/>
<path d="M29.9082 30.8944C29.7425 30.8944 29.5773 30.8513 29.4287 30.7674L19.4419 25.0585C19.1486 24.8911 18.9676 24.5822 18.9667 24.248C18.9662 23.9142 19.1452 23.6044 19.4381 23.4356L29.4896 17.6316C29.7858 17.46 30.1539 17.4591 30.4519 17.6297L40.4412 23.3391C40.7345 23.5064 40.9154 23.8158 40.9164 24.1495C40.9173 24.4838 40.7373 24.7936 40.445 24.9619L30.3905 30.765C30.242 30.8508 30.0748 30.8944 29.9082 30.8944ZM21.815 24.2419L29.9058 28.8661L38.068 24.1547L29.9758 19.5295L21.815 24.2419Z" fill="#836400"/>
<path d="M30.0248 42.4969C29.8629 42.4969 29.7005 42.4561 29.5548 42.3745C29.2582 42.2095 29.0739 41.9016 29.0705 41.5659L28.9534 29.9634C28.9501 29.6264 29.1301 29.3138 29.4253 29.1431L39.4792 23.34C39.773 23.1703 40.1363 23.1675 40.4325 23.333C40.7287 23.498 40.9134 23.8064 40.9167 24.1416L41.0329 35.7422C41.0363 36.0792 40.8563 36.3919 40.5611 36.5625L30.5076 42.368C30.3585 42.4538 30.1919 42.4969 30.0248 42.4969ZM30.8675 30.4898L30.9628 39.9263L39.1174 35.2172L39.0236 25.7822L30.8675 30.4898Z" fill="#836400"/>
<path d="M30.0343 42.4969C30.031 42.4969 30.0281 42.4969 30.0248 42.4969C29.8591 42.4969 29.6938 42.4547 29.5453 42.3699L19.5566 36.66C19.2651 36.4936 19.0847 36.1885 19.0814 35.8566L18.9666 24.255C18.9633 23.9175 19.1442 23.6035 19.4408 23.4338C19.7375 23.2636 20.1037 23.2636 20.4008 23.4333L30.3876 29.1413C30.6785 29.3077 30.859 29.6129 30.8623 29.9443L30.978 41.4141C30.9852 41.4605 30.9885 41.5079 30.9885 41.5566C30.9885 42.0764 30.5619 42.4969 30.0343 42.4969ZM20.985 35.303L29.0534 39.9155L28.9587 30.4983L20.8922 25.8877L20.985 35.303Z" fill="#836400"/>
<path d="M34.2063 6.52125L30.36 2.67797L26.515 6.52125L25.1547 5.20266L30.36 0L35.5662 5.20219L34.2063 6.52125Z" fill="#836400"/>
<path d="M31.3151 2.23405H29.4058V9.89061H31.3151V2.23405Z" fill="#836400"/>
<path d="M10.9405 15.8761L9.03113 15.8756L9.03399 8.5383L16.3872 8.53548L16.3877 10.4152L10.9429 10.417L10.9405 15.8761Z" fill="#836400"/>
<path d="M16.7149 14.8634L11.3016 9.4515L9.94155 10.77L15.3548 16.1818L16.7149 14.8634Z" fill="#836400"/>
<path d="M5.18101 34.8239L0 29.6386L5.18101 24.4537L6.54186 25.7714L2.67788 29.6386L6.54186 33.5058L5.18101 34.8239Z" fill="#836400"/>
<path d="M9.89066 28.6983H2.23413V30.5775H9.89066V28.6983Z" fill="#836400"/>
<path d="M15.8758 50.9531L8.52301 50.9494L8.52063 43.6135L10.43 43.6125L10.4314 49.0716L15.8767 49.0739L15.8758 50.9531Z" fill="#836400"/>
<path d="M16.2046 44.619L14.8438 43.3013L9.43225 48.7176L10.7931 50.0353L16.2046 44.619Z" fill="#836400"/>
<path d="M43.6123 51.4636L43.6113 49.5839L49.0561 49.5816L49.058 44.1235L50.9674 44.1244L50.9646 51.4603L43.6123 51.4636Z" fill="#836400"/>
<path d="M50.0612 49.2296L44.6464 43.8185L43.2865 45.1373L48.7013 50.5484L50.0612 49.2296Z" fill="#836400"/>
<path d="M54.818 35.5453L53.4572 34.2281L57.3221 30.3614L53.4572 26.4937L54.818 25.1756L60 30.3614L54.818 35.5453Z" fill="#836400"/>
<path d="M57.7649 29.4225H50.1079V31.3022H57.7649V29.4225Z" fill="#836400"/>
<path d="M29.6385 60L24.4323 54.7978L25.7921 53.4792L29.6385 57.322L33.4849 53.4792L34.8448 54.7978L29.6385 60Z" fill="#836400"/>
<path d="M30.5924 50.1094H28.6835V57.7669H30.5924V50.1094Z" fill="#836400"/>
<path d="M49.5689 16.387L49.567 10.9284L44.1217 10.9256L44.1227 9.04639L51.4749 9.04967L51.4773 16.3865L49.5689 16.387Z" fill="#836400"/>
<path d="M50.5684 11.2823L49.2079 9.96399L43.7947 15.3781L45.1552 16.6963L50.5684 11.2823Z" fill="#836400"/>
</svg>
