<svg width="56" height="56" viewBox="0 0 56 56" fill="none" xmlns="http://www.w3.org/2000/svg">
<g clip-path="url(#clip0_644_27119)">
<path d="M29.1933 16.2137C28.2954 15.4079 26.937 15.4079 26.0391 16.2137C21.5265 20.2658 20.7207 25.5151 20.7207 28.1858C20.7207 30.8335 21.5265 36.1058 26.0621 40.1579C26.96 40.9637 28.3184 40.9637 29.2163 40.1579C33.7288 36.1058 34.5347 30.8565 34.5347 28.1858C34.5347 25.5382 33.7288 20.2658 29.1933 16.2137Z" fill="#00A94F"/>
<path d="M17.2674 28.1866C17.2674 25.9533 17.7969 18.6089 24.2434 13.2215C22.4476 12.5078 20.4906 12.0703 18.4185 12.0703C9.53155 12.0703 2.30225 19.2996 2.30225 28.1866C2.30225 37.0736 9.53155 44.3029 18.4185 44.3029C20.4906 44.3029 22.4476 43.8654 24.2434 43.1517C17.7969 37.7643 17.2674 30.4198 17.2674 28.1866Z" fill="#00A94F"/>
<path d="M36.8371 12.0703C34.765 12.0703 32.808 12.5078 31.0122 13.2215C37.4587 18.6089 37.9883 25.9533 37.9883 28.1866C37.9883 30.4198 37.4587 37.7643 31.0122 43.1517C32.808 43.8654 34.765 44.3029 36.8371 44.3029C45.7241 44.3029 52.9534 37.0736 52.9534 28.1866C52.9534 19.2996 45.7241 12.0703 36.8371 12.0703Z" fill="#00A94F"/>
</g>
<defs>
<clipPath id="clip0_644_27119">
<rect width="55.2558" height="55.2558" fill="white" transform="translate(0 0.558594)"/>
</clipPath>
</defs>
</svg>
