<svg width="88" height="88" viewBox="0 0 88 88" fill="none" xmlns="http://www.w3.org/2000/svg">
<g clip-path="url(#clip0_6196_29636)">
<path d="M41.5067 63.0646C42.9367 64.3479 45.1 64.3479 46.53 63.0646C53.7167 56.6113 55 48.2513 55 43.9979C55 39.7813 53.7167 31.3846 46.4933 24.9313C45.0633 23.6479 42.9 23.6479 41.47 24.9313C34.2833 31.3846 33 39.7446 33 43.9979C33 48.2146 34.2833 56.6113 41.5067 63.0646Z" fill="#F8DC80"/>
<path d="M60.5006 43.9987C60.5006 47.5554 59.6573 59.252 49.3906 67.832C52.2506 68.9687 55.3673 69.6654 58.6673 69.6654C72.8206 69.6654 84.334 58.152 84.334 43.9987C84.334 29.8454 72.8206 18.332 58.6673 18.332C55.3673 18.332 52.2506 19.0287 49.3906 20.1654C59.6573 28.7454 60.5006 40.442 60.5006 43.9987Z" fill="#C09507"/>
<path d="M29.3337 69.6654C32.6337 69.6654 35.7503 68.9687 38.6103 67.832C36.3737 65.962 34.577 63.9087 33.147 61.8554C31.937 62.1487 30.6537 62.332 29.3337 62.332C19.2137 62.332 11.0003 54.1187 11.0003 43.9987C11.0003 33.8787 19.2137 25.6654 29.3337 25.6654C30.6537 25.6654 31.937 25.8487 33.147 26.142C34.577 24.0887 36.3737 22.0354 38.6103 20.1654C35.7503 19.0287 32.6337 18.332 29.3337 18.332C15.1803 18.332 3.66699 29.8454 3.66699 43.9987C3.66699 58.152 15.1803 69.6654 29.3337 69.6654Z" fill="#C09507"/>
</g>
<defs>
<clipPath id="clip0_6196_29636">
<rect width="88" height="88" fill="white"/>
</clipPath>
</defs>
</svg>
