<svg width="56" height="56" viewBox="0 0 56 56" fill="none" xmlns="http://www.w3.org/2000/svg">
<g clip-path="url(#clip0_644_27107)">
<path d="M29.5653 16.2137C28.6674 15.4079 27.3091 15.4079 26.4111 16.2137C21.8986 20.2658 21.0928 25.5151 21.0928 28.1858C21.0928 30.8335 21.8986 36.1058 26.4342 40.1579C27.3321 40.9637 28.6904 40.9637 29.5884 40.1579C34.1009 36.1058 34.9067 30.8565 34.9067 28.1858C34.9067 25.5382 34.1009 20.2658 29.5653 16.2137Z" fill="#00A94F"/>
<path d="M21.185 39.3989C20.4252 39.5831 19.6194 39.6982 18.7906 39.6982C12.4362 39.6982 7.27897 34.541 7.27897 28.1866C7.27897 21.8322 12.4362 16.675 18.7906 16.675C19.6194 16.675 20.4252 16.7901 21.185 16.9743C22.0829 15.685 23.2111 14.3957 24.6155 13.2215C22.8197 12.5078 20.8627 12.0703 18.7906 12.0703C9.90362 12.0703 2.67432 19.2996 2.67432 28.1866C2.67432 37.0736 9.90362 44.3029 18.7906 44.3029C20.8627 44.3029 22.8197 43.8654 24.6155 43.1517C23.2111 41.9775 22.0829 40.6882 21.185 39.3989Z" fill="#D8FBDE"/>
<path d="M37.2092 12.0703C35.1371 12.0703 33.1801 12.5078 31.3843 13.2215C32.7887 14.3957 33.9168 15.685 34.8147 16.9743C35.5745 16.7901 36.3803 16.675 37.2092 16.675C43.5636 16.675 48.7208 21.8322 48.7208 28.1866C48.7208 34.541 43.5636 39.6982 37.2092 39.6982C36.3803 39.6982 35.5745 39.5831 34.8147 39.3989C33.9168 40.6882 32.7887 41.9775 31.3843 43.1517C33.1801 43.8654 35.1371 44.3029 37.2092 44.3029C46.0961 44.3029 53.3254 37.0736 53.3254 28.1866C53.3254 19.2996 46.0961 12.0703 37.2092 12.0703Z" fill="#D8FBDE"/>
</g>
<defs>
<clipPath id="clip0_644_27107">
<rect width="55.2558" height="55.2558" fill="white" transform="translate(0.37207 0.558594)"/>
</clipPath>
</defs>
</svg>
