<svg width="88" height="88" viewBox="0 0 88 88" fill="none" xmlns="http://www.w3.org/2000/svg">
<g clip-path="url(#clip0_6196_29617)">
<path d="M46.4933 63.0646C45.0633 64.3479 42.9 64.3479 41.47 63.0646C34.2833 56.6113 33 48.2513 33 43.9979C33 39.7813 34.2833 31.3846 41.5067 24.9313C42.9367 23.6479 45.1 23.6479 46.53 24.9313C53.7167 31.3846 55 39.7446 55 43.9979C55 48.2146 53.7167 56.6113 46.4933 63.0646Z" fill="#F8DC80"/>
<path d="M27.4994 43.9987C27.4994 47.5554 28.3427 59.252 38.6094 67.832C35.7494 68.9687 32.6327 69.6654 29.3327 69.6654C15.1794 69.6654 3.66604 58.152 3.66604 43.9987C3.66604 29.8454 15.1794 18.332 29.3327 18.332C32.6327 18.332 35.7494 19.0287 38.6094 20.1654C28.3427 28.7454 27.4994 40.442 27.4994 43.9987Z" fill="#C09507"/>
<path d="M58.6663 69.6654C55.3663 69.6654 52.2497 68.9687 49.3897 67.832C51.6263 65.962 53.423 63.9087 54.853 61.8554C56.063 62.1487 57.3463 62.332 58.6663 62.332C68.7863 62.332 76.9997 54.1187 76.9997 43.9987C76.9997 33.8787 68.7863 25.6654 58.6663 25.6654C57.3463 25.6654 56.063 25.8487 54.853 26.142C53.423 24.0887 51.6263 22.0354 49.3897 20.1654C52.2497 19.0287 55.3663 18.332 58.6663 18.332C72.8197 18.332 84.333 29.8454 84.333 43.9987C84.333 58.152 72.8197 69.6654 58.6663 69.6654Z" fill="#C09507"/>
</g>
<defs>
<clipPath id="clip0_6196_29617">
<rect width="88" height="88" fill="white" transform="matrix(-1 0 0 1 88 0)"/>
</clipPath>
</defs>
</svg>
