<svg width="145" height="52" viewBox="0 0 145 52" fill="none" xmlns="http://www.w3.org/2000/svg">
<path d="M4 16.5V6.324H0.064V5.3H9.12V6.324H5.184V16.5H4ZM17.2405 12.292C17.2405 12.388 17.2245 12.516 17.2245 12.644H10.1845C10.3125 14.404 11.6565 15.572 13.4965 15.572C14.5205 15.572 15.4325 15.204 16.0725 14.468L16.7125 15.204C15.9605 16.1 14.7925 16.58 13.4645 16.58C10.8405 16.58 9.0485 14.788 9.0485 12.292C9.0485 9.796 10.7925 8.02 13.1605 8.02C15.5285 8.02 17.2405 9.764 17.2405 12.292ZM13.1605 8.996C11.5285 8.996 10.3285 10.148 10.1845 11.796H16.1525C16.0085 10.148 14.8085 8.996 13.1605 8.996ZM23.0408 16.58C20.5288 16.58 18.7048 14.804 18.7048 12.292C18.7048 9.78 20.5288 8.02 23.0408 8.02C24.4648 8.02 25.6648 8.58 26.3368 9.684L25.4888 10.26C24.9128 9.412 24.0168 9.012 23.0408 9.012C21.2008 9.012 19.8568 10.324 19.8568 12.292C19.8568 14.276 21.2008 15.572 23.0408 15.572C24.0168 15.572 24.9128 15.188 25.4888 14.34L26.3368 14.916C25.6648 16.004 24.4648 16.58 23.0408 16.58ZM32.7314 8.02C34.7794 8.02 36.1874 9.204 36.1874 11.62V16.5H35.0514V11.732C35.0514 9.956 34.1234 9.044 32.5234 9.044C30.7154 9.044 29.5794 10.164 29.5794 12.084V16.5H28.4434V4.628H29.5794V9.556C30.2034 8.58 31.3074 8.02 32.7314 8.02ZM43.5595 8.02C45.6075 8.02 47.0155 9.204 47.0155 11.62V16.5H45.8795V11.732C45.8795 9.956 44.9515 9.044 43.3515 9.044C41.5435 9.044 40.4075 10.164 40.4075 12.084V16.5H39.2715V8.084H40.3595V9.636C40.9675 8.612 42.1035 8.02 43.5595 8.02ZM50.6756 6.244C50.2116 6.244 49.8436 5.876 49.8436 5.428C49.8436 4.996 50.2116 4.628 50.6756 4.628C51.1396 4.628 51.5076 4.98 51.5076 5.412C51.5076 5.876 51.1556 6.244 50.6756 6.244ZM50.0996 16.5V8.084H51.2356V16.5H50.0996ZM57.8845 16.58C55.3725 16.58 53.5485 14.804 53.5485 12.292C53.5485 9.78 55.3725 8.02 57.8845 8.02C59.3085 8.02 60.5085 8.58 61.1805 9.684L60.3325 10.26C59.7565 9.412 58.8605 9.012 57.8845 9.012C56.0445 9.012 54.7005 10.324 54.7005 12.292C54.7005 14.276 56.0445 15.572 57.8845 15.572C58.8605 15.572 59.7565 15.188 60.3325 14.34L61.1805 14.916C60.5085 16.004 59.3085 16.58 57.8845 16.58ZM66.3561 8.02C68.5321 8.02 69.7641 9.108 69.7641 11.284V16.5H68.6761V15.188C68.1641 16.052 67.1721 16.58 65.7801 16.58C63.8761 16.58 62.7081 15.588 62.7081 14.132C62.7081 12.836 63.5401 11.748 65.9561 11.748H68.6281V11.236C68.6281 9.796 67.8121 9.012 66.2441 9.012C65.1561 9.012 64.1321 9.396 63.4441 10.004L62.9321 9.156C63.7801 8.436 65.0281 8.02 66.3561 8.02ZM65.9561 15.684C67.2361 15.684 68.1801 15.076 68.6281 13.972V12.596H65.9881C64.3561 12.596 63.8281 13.236 63.8281 14.1C63.8281 15.076 64.6121 15.684 65.9561 15.684ZM72.8496 16.5V4.628H73.9856V16.5H72.8496ZM85.67 8.02C88.07 8.02 89.862 9.748 89.862 12.292C89.862 14.852 88.07 16.58 85.67 16.58C84.326 16.58 83.174 16.004 82.47 14.916V19.604H81.334V8.084H82.422V9.748C83.11 8.628 84.278 8.02 85.67 8.02ZM85.59 15.572C87.366 15.572 88.726 14.26 88.726 12.292C88.726 10.34 87.366 9.012 85.59 9.012C83.798 9.012 82.454 10.34 82.454 12.292C82.454 14.26 83.798 15.572 85.59 15.572ZM95.0749 8.02C97.2509 8.02 98.4829 9.108 98.4829 11.284V16.5H97.3949V15.188C96.8829 16.052 95.8909 16.58 94.4989 16.58C92.5949 16.58 91.4269 15.588 91.4269 14.132C91.4269 12.836 92.2589 11.748 94.6749 11.748H97.3469V11.236C97.3469 9.796 96.5309 9.012 94.9629 9.012C93.8749 9.012 92.8509 9.396 92.1629 10.004L91.6509 9.156C92.4989 8.436 93.7469 8.02 95.0749 8.02ZM94.6749 15.684C95.9549 15.684 96.8989 15.076 97.3469 13.972V12.596H94.7069C93.0749 12.596 92.5469 13.236 92.5469 14.1C92.5469 15.076 93.3309 15.684 94.6749 15.684ZM102.656 9.732C103.184 8.612 104.256 8.02 105.808 8.02V9.124C105.712 9.124 105.616 9.108 105.536 9.108C103.776 9.108 102.704 10.228 102.704 12.212V16.5H101.568V8.084H102.656V9.732ZM112.257 15.172L112.657 15.988C112.209 16.388 111.537 16.58 110.881 16.58C109.297 16.58 108.417 15.684 108.417 14.132V9.044H106.913V8.084H108.417V6.244H109.553V8.084H112.113V9.044H109.553V14.068C109.553 15.06 110.065 15.604 111.009 15.604C111.473 15.604 111.937 15.46 112.257 15.172ZM119.013 8.02C121.061 8.02 122.469 9.204 122.469 11.62V16.5H121.333V11.732C121.333 9.956 120.405 9.044 118.805 9.044C116.997 9.044 115.861 10.164 115.861 12.084V16.5H114.725V8.084H115.813V9.636C116.421 8.612 117.557 8.02 119.013 8.02ZM132.928 12.292C132.928 12.388 132.912 12.516 132.912 12.644H125.872C126 14.404 127.344 15.572 129.184 15.572C130.208 15.572 131.12 15.204 131.76 14.468L132.4 15.204C131.648 16.1 130.48 16.58 129.152 16.58C126.528 16.58 124.736 14.788 124.736 12.292C124.736 9.796 126.48 8.02 128.848 8.02C131.216 8.02 132.928 9.764 132.928 12.292ZM128.848 8.996C127.216 8.996 126.016 10.148 125.872 11.796H131.84C131.696 10.148 130.496 8.996 128.848 8.996ZM136.328 9.732C136.856 8.612 137.928 8.02 139.48 8.02V9.124C139.384 9.124 139.288 9.108 139.208 9.108C137.448 9.108 136.376 10.228 136.376 12.212V16.5H135.24V8.084H136.328V9.732Z" fill="black"/>
<g clip-path="url(#clip0_736_7243)">
<path d="M91.6122 44.3512V40.5608H88.0173V38.9166H93.3467V44.3512H91.6122ZM86.9346 47.8494C81.9139 47.8529 78.8105 44.143 78.8105 39.5183V39.4729C78.8105 35.0266 82.0277 31.0911 86.8208 31.0911C89.514 31.0911 91.1795 31.8782 92.7777 33.2442L91.6122 34.6331C90.3795 33.5451 89.0105 32.7737 86.7519 32.7737C83.2157 32.7737 80.6899 35.8155 80.6899 39.4204V39.4676C80.6899 43.3332 83.1311 46.2035 87.0105 46.2035H89.8967V47.8249L86.9346 47.8494Z" fill="#1CA069"/>
<path d="M97.5656 35.6057H99.3242V38.7314C100.192 36.7409 101.897 35.3048 104.138 35.3976V37.3216H104C101.414 37.3216 99.3226 39.1967 99.3226 42.8086V47.575H97.564L97.5656 35.6057Z" fill="#1CA069"/>
<path d="M115.405 40.932C115.224 38.7543 113.992 36.8566 111.641 36.8566C109.586 36.8566 108.035 38.5934 107.807 40.932H115.405ZM106.035 41.6247V41.5792C106.035 38.1299 108.431 35.3523 111.693 35.3523C115.185 35.3523 117.193 38.1754 117.193 41.6719C117.197 41.8652 117.19 42.0585 117.171 42.2508H107.807C108.059 44.843 109.861 46.3018 111.961 46.3018C113.581 46.3018 114.719 45.6302 115.679 44.6122L116.776 45.6074C115.59 46.9508 114.152 47.8533 111.916 47.8533C108.674 47.8533 106.035 45.3293 106.035 41.6247Z" fill="#1CA069"/>
<path d="M129.37 40.9321C129.188 38.7544 127.957 36.8566 125.605 36.8566C123.552 36.8566 122 38.5935 121.771 40.9321H129.37ZM119.991 41.6317V41.5863C119.991 38.137 122.388 35.3594 125.65 35.3594C129.143 35.3594 131.15 38.1825 131.15 41.679C131.154 41.8722 131.147 42.0656 131.128 42.2579H121.771C122.022 44.8501 123.826 46.3089 125.926 46.3089C127.545 46.3089 128.684 45.6372 129.645 44.6192L130.739 45.6145C129.553 46.9578 128.115 47.8604 125.879 47.8604C122.638 47.8534 120 45.3294 120 41.6247" fill="#1CA069"/>
<path d="M134.686 35.6059H136.443V37.6909C137.219 36.393 138.452 35.3523 140.483 35.3523C143.334 35.3523 145 37.2956 145 40.1449V47.5752H143.243V40.5787C143.243 38.3555 142.057 36.9667 139.979 36.9667C137.95 36.9667 136.443 38.4727 136.443 40.7169V47.5752H134.686V35.6059Z" fill="#1CA069"/>
<path d="M20.2293 31.0244H18.2207V32.9904H20.2293V31.0244ZM20.0913 35.6089H18.3345V47.5746H20.0913V35.6089Z" fill="#1CA069"/>
<path d="M29.4933 35.3501C26.6848 35.3501 23.9468 37.5033 23.9468 40.9998V41.047C23.9468 44.4963 26.6622 46.6442 29.4933 46.6442C31.6605 46.6442 33.0984 45.509 34.126 44.1202V45.5423C34.126 48.3409 32.4364 49.8013 29.8347 49.8013C28.1977 49.8067 26.6039 49.2699 25.295 48.2726L24.495 49.6614C26.069 50.7673 27.9426 51.3498 29.857 51.3284C31.7294 51.3284 33.3053 50.8036 34.3536 49.7314C35.3123 48.759 35.8588 47.3474 35.8588 45.495V35.6055H34.1037V37.7587C33.1433 36.4625 31.7071 35.3501 29.4933 35.3501ZM29.8381 45.0752C27.6468 45.0752 25.7536 43.4083 25.7536 40.9998V40.9543C25.7536 38.5055 27.6019 36.9313 29.8381 36.9313C32.0744 36.9313 34.1744 38.5283 34.1744 40.9823V41.0295C34.1744 43.4363 32.0744 45.0805 29.8381 45.0805" fill="#1CA069"/>
<path d="M42.2932 31.0244H40.2847V32.9904H42.2932V31.0244ZM42.1553 35.6089H40.3985V47.5746H42.1553V35.6089Z" fill="#1CA069"/>
<path d="M49.0688 31.9954H47.312V35.6056H45.6689V37.1798H47.312V44.4037C47.312 46.8349 48.7499 47.7847 50.6447 47.7847C51.3803 47.7955 52.1067 47.62 52.7585 47.274V45.747C52.2299 46.0236 51.643 46.1664 51.0481 46.1633C49.8603 46.1633 49.0621 45.6385 49.0621 44.1728V37.1763H52.8051V35.6021H49.0688V31.9954Z" fill="#1CA069"/>
<path d="M60.8207 35.4446C59.3342 35.442 57.8668 35.7848 56.5311 36.4469L57.0482 37.9056C58.1431 37.3967 59.2397 37.0311 60.631 37.0311C62.8448 37.0311 64.1449 38.1418 64.1449 40.295V40.7112C62.9673 40.3582 61.7451 40.1826 60.5172 40.19C57.5293 40.19 55.4741 41.5333 55.4741 44.0556V44.1028C55.4741 46.5516 57.6897 47.8302 59.8793 47.8302C61.9569 47.8302 63.3275 46.8577 64.1466 45.7697V47.5748H65.8363V40.26C65.8363 38.7312 65.4242 37.5751 64.6293 36.7617C63.7673 35.8871 62.4845 35.4429 60.8189 35.4429L60.8207 35.4446ZM60.2276 46.4169C58.6294 46.4169 57.2604 45.5423 57.2604 44.0311V43.9856C57.2604 42.4796 58.4931 41.5088 60.7087 41.5088C61.8825 41.5093 63.0501 41.6807 64.1759 42.0178V43.174C64.1759 45.0736 62.3965 46.4169 60.2293 46.4169" fill="#1CA069"/>
<path d="M71.9551 30.6748H70.1982V47.5749H71.9551V30.6748Z" fill="#1CA069"/>
<path d="M5.71719 31.3748H3.62064V33.0662H5.71719C9.75685 33.0662 12.3344 35.8893 12.3344 39.4785V39.5239C12.3344 43.1131 9.74822 45.8908 5.71719 45.8908H1.97409V34.873H0.172363V47.5751H5.71719C10.7379 47.5751 14.2068 44.0332 14.2068 39.4732V39.4207C14.2068 34.873 10.7379 31.3748 5.71719 31.3748Z" fill="#1CA069"/>
</g>
<defs>
<clipPath id="clip0_736_7243">
<rect width="145" height="21" fill="white" transform="translate(0 30.5)"/>
</clipPath>
</defs>
</svg>
