<svg width="18" height="18" viewBox="0 0 18 18" fill="none" xmlns="http://www.w3.org/2000/svg">
<g clip-path="url(#clip0_663_28181)">
<path d="M9 1.5C4.86 1.5 1.5 4.86 1.5 9C1.5 13.14 4.86 16.5 9 16.5C13.14 16.5 16.5 13.14 16.5 9C16.5 4.86 13.14 1.5 9 1.5ZM8.25 14.9475C5.2875 14.58 3 12.06 3 9C3 8.535 3.06 8.0925 3.1575 7.6575L6.75 11.25V12C6.75 12.825 7.425 13.5 8.25 13.5V14.9475ZM13.425 13.0425C13.23 12.435 12.675 12 12 12H11.25V9.75C11.25 9.3375 10.9125 9 10.5 9H6V7.5H7.5C7.9125 7.5 8.25 7.1625 8.25 6.75V5.25H9.75C10.575 5.25 11.25 4.575 11.25 3.75V3.4425C13.4475 4.335 15 6.4875 15 9C15 10.56 14.4 11.9775 13.425 13.0425Z" fill="#9BA0A7"/>
</g>
<defs>
<clipPath id="clip0_663_28181">
<rect width="18" height="18" fill="white"/>
</clipPath>
</defs>
</svg>
