<svg width="102" height="92" viewBox="0 0 102 92" fill="none" xmlns="http://www.w3.org/2000/svg">
<path d="M81.6016 76H89.6617" stroke="#836400" stroke-miterlimit="10" stroke-linecap="round" stroke-linejoin="round"/>
<path d="M92.8857 76H94.4978" stroke="#836400" stroke-miterlimit="10" stroke-linecap="round" stroke-linejoin="round"/>
<path d="M13.8961 47.6667H5.83594" stroke="#836400" stroke-miterlimit="10" stroke-linecap="round" stroke-linejoin="round"/>
<path d="M2.61203 47.6667H1" stroke="#836400" stroke-miterlimit="10" stroke-linecap="round" stroke-linejoin="round"/>
<path d="M57.3723 44.0723V48.2337C57.3723 51.6608 59.0131 54.996 61.1013 54.996" stroke="#836400" stroke-miterlimit="10" stroke-linecap="round" stroke-linejoin="round"/>
<path d="M73.5317 41.502V45.6634C73.5317 49.0904 71.2695 53.0683 69.1812 53.0683" stroke="#836400" stroke-miterlimit="10" stroke-linecap="round" stroke-linejoin="round"/>
<path d="M17.1204 91V74.3333" stroke="#836400" stroke-miterlimit="10" stroke-linecap="round" stroke-linejoin="round"/>
<path d="M49.3608 91.0001V73.5001" stroke="#836400" stroke-miterlimit="10" stroke-linecap="round" stroke-linejoin="round"/>
<path d="M33.2405 91V61" stroke="#37474F" stroke-miterlimit="10" stroke-linecap="round" stroke-linejoin="round"/>
<path d="M59.033 65.1667V55.0964H71.9292V70.8334C71.9292 76.8334 65.9647 80.8334 60.645 78.5L49.3608 73.5" stroke="#836400" stroke-miterlimit="10" stroke-linecap="round" stroke-linejoin="round"/>
<path d="M59.0328 59.5L39.6885 51L33.2404 61L26.7923 51L11.478 57.8334C6.96433 59.8334 4.22388 64.3334 4.22388 69.3334V91" stroke="#836400" stroke-miterlimit="10" stroke-linecap="round" stroke-linejoin="round"/>
<path d="M37.2706 86.1667L33.2405 91L29.2104 86.1667L31.6285 61H34.8525L37.2706 86.1667Z" fill="#C09507" stroke="#836400" stroke-miterlimit="10" stroke-linecap="round" stroke-linejoin="round"/>
<path d="M23.4073 61L30.0166 56L26.7925 51L22.7625 52.8334L23.4073 61Z" stroke="#836400" stroke-miterlimit="10" stroke-linecap="round" stroke-linejoin="round"/>
<path d="M43.0738 61L36.4645 56L39.6885 51L43.7186 52.8334L43.0738 61Z" stroke="#836400" stroke-miterlimit="10" stroke-linecap="round" stroke-linejoin="round"/>
<path d="M34.8526 61H31.6285C30.6613 61 30.0165 60.3334 30.0165 59.3334V57.6667C30.0165 56.6667 30.6613 56 31.6285 56H34.8526C35.8198 56 36.4646 56.6667 36.4646 57.6667V59.3334C36.4646 60.3334 35.8198 61 34.8526 61Z" fill="#C09507" stroke="#836400" stroke-miterlimit="10" stroke-linecap="round" stroke-linejoin="round"/>
<path d="M33.2405 49.3333C30.9836 49.3333 28.7268 48.8333 26.7924 48V51L30.3388 56.6667C30.6612 56.3333 30.9836 56 31.6284 56H34.8525C35.3361 56 35.8197 56.1667 36.1421 56.6667L39.6886 51V48C37.7542 48.8333 35.4973 49.3333 33.2405 49.3333Z" stroke="#836400" stroke-miterlimit="10" stroke-linecap="round" stroke-linejoin="round"/>
<path d="M69.8025 54.996C71.667 54.996 74.4638 52.189 74.7745 49.2128" stroke="#836400" stroke-miterlimit="10" stroke-linecap="round" stroke-linejoin="round"/>
<path d="M51.1572 29.2932C49.2927 19.6546 42.7514 13.8333 35.8197 12.8333C26.3087 11.3333 17.9261 17.8333 15.8305 26.8333C15.6693 26.8333 15.5081 26.8333 15.3469 26.8333C13.2513 26.8333 11.478 28.6667 11.478 31C11.478 33.3333 13.2513 35.1667 15.5081 35.1667C15.6693 35.1667 15.8305 35.1667 15.9917 35.1667C17.7649 43.3333 24.8579 49.3333 33.2404 49.3333C37.4317 49.3333 41.3006 47.8333 44.2022 45.3333" stroke="#836400" stroke-miterlimit="10" stroke-linecap="round" stroke-linejoin="round"/>
<path d="M42.1067 28.5C42.997 28.5 43.7187 27.7538 43.7187 26.8334C43.7187 25.9129 42.997 25.1667 42.1067 25.1667C41.2164 25.1667 40.4946 25.9129 40.4946 26.8334C40.4946 27.7538 41.2164 28.5 42.1067 28.5Z" fill="#836400"/>
<path d="M30.8225 28.5C31.7128 28.5 32.4345 27.7538 32.4345 26.8334C32.4345 25.9129 31.7128 25.1667 30.8225 25.1667C29.9322 25.1667 29.2104 25.9129 29.2104 26.8334C29.2104 27.7538 29.9322 28.5 30.8225 28.5Z" fill="#836400"/>
<path d="M17.1202 29.3333H16.3142V18.5H21.1503V25.1667C21.1503 27.5 19.3771 29.3333 17.1202 29.3333Z" fill="#E7B100" stroke="#836400" stroke-miterlimit="10" stroke-linecap="round" stroke-linejoin="round"/>
<path d="M44.5247 18.5H16.3142C16.3142 11.6667 21.7951 6 28.4044 6H38.0766C42.9127 6 47.5876 4.5 51.4564 1.83333L52.5848 1V10.1667C52.5848 14.8333 49.0384 18.5 44.5247 18.5Z" fill="#E7B100" stroke="#836400" stroke-miterlimit="10" stroke-linecap="round" stroke-linejoin="round"/>
<path d="M38.9505 43.1184C41.1762 43.1184 42.9806 41.253 42.9806 38.9518C42.9806 36.6506 41.1762 34.7851 38.9505 34.7851C36.7247 34.7851 34.9204 36.6506 34.9204 38.9518C34.9204 41.253 36.7247 43.1184 38.9505 43.1184Z" fill="#E7B100" stroke="#836400" stroke-miterlimit="10" stroke-linecap="round" stroke-linejoin="round"/>
<path d="M87.5961 22.5781L96.4644 18.5848" stroke="#E7B100" stroke-miterlimit="10" stroke-linecap="round" stroke-linejoin="round"/>
<path d="M88.8929 31.0868L96.5308 34.185" stroke="#E7B100" stroke-miterlimit="10" stroke-linecap="round" stroke-linejoin="round"/>
<path d="M82.4529 15.803L85.5271 8.05913" stroke="#E7B100" stroke-miterlimit="10" stroke-linecap="round" stroke-linejoin="round"/>
<path d="M47.7152 46.899L43.2166 36.2113C42.8311 35.2952 43.1655 34.418 44.0527 34.0181L58.8396 27.3543C59.2832 27.1544 59.6626 26.8018 60.0419 26.4492L72.6825 13.8502C73.5891 13.0783 74.8812 13.2226 75.3311 14.2914L85.035 37.3463C85.4849 38.415 84.7711 39.6449 83.5432 39.6533L66.0185 40.6485C65.5107 40.6958 65.0028 40.743 64.5592 40.9429L49.7722 47.6068C48.9493 48.1593 48.1008 47.8151 47.7152 46.899Z" fill="#FFDB64" stroke="#836400" stroke-miterlimit="10" stroke-linecap="round" stroke-linejoin="round"/>
<path d="M80.3678 39.5743L70.7526 15.9834" stroke="#836400" stroke-miterlimit="10" stroke-linecap="round" stroke-linejoin="round"/>
<path d="M58.8356 27.3482L64.2953 40.3089" stroke="#836400" stroke-miterlimit="10" stroke-linecap="round" stroke-linejoin="round"/>
</svg>
