<svg width="123" height="113" viewBox="0 0 123 113" fill="none" xmlns="http://www.w3.org/2000/svg">
<circle cx="58" cy="62" r="51" fill="#F9EABC"/>
<circle cx="58" cy="62" r="44" fill="#C09507"/>
<path d="M51.2501 71.3825L41.8676 62L38.6726 65.1725L51.2501 77.75L78.2501 50.75L75.0776 47.5775L51.2501 71.3825Z" fill="white"/>
<path d="M9.773 33.85L10.3972 32.5043L4.20834 29.6335L3.58413 30.9792L9.773 33.85ZM6.2305 35.2813L9.2796 28.7079L7.83471 28.0377L4.7856 34.611L6.2305 35.2813Z" fill="#C09507"/>
<path d="M94.773 14.85L95.3972 13.5043L89.2083 10.6335L88.5841 11.9792L94.773 14.85ZM91.2305 16.2813L94.2796 9.70792L92.8347 9.03769L89.7856 15.611L91.2305 16.2813Z" fill="#C09507"/>
<path d="M118.773 80.85L119.397 79.5043L113.208 76.6335L112.584 77.9792L118.773 80.85ZM115.23 82.2813L118.28 75.7079L116.835 75.0377L113.786 81.611L115.23 82.2813Z" fill="#C09507"/>
<circle r="2" transform="matrix(1 0 0 -1 2 94)" fill="#C09507"/>
<circle r="2" transform="matrix(1 0 0 -1 111 43)" fill="#C09507"/>
<circle r="3.5" transform="matrix(1 0 0 -1 47.5 3.5)" fill="#C09507"/>
</svg>
