<svg width="56" height="56" viewBox="0 0 56 56" fill="none" xmlns="http://www.w3.org/2000/svg">
<g clip-path="url(#clip0_644_27170)">
<path d="M29.1933 15.6551C28.2954 14.8493 26.937 14.8493 26.0391 15.6551C21.5265 19.7072 20.7207 24.9565 20.7207 27.6272C20.7207 30.2749 21.5265 35.5472 26.0621 39.5993C26.96 40.4051 28.3184 40.4051 29.2163 39.5993C33.7288 35.5472 34.5347 30.2979 34.5347 27.6272C34.5347 24.9796 33.7288 19.7072 29.1933 15.6551Z" fill="#9AA1A9"/>
<path d="M17.2674 27.628C17.2674 25.3947 17.7969 18.0503 24.2434 12.6629C22.4476 11.9492 20.4906 11.5117 18.4185 11.5117C9.53155 11.5117 2.30225 18.741 2.30225 27.628C2.30225 36.515 9.53155 43.7443 18.4185 43.7443C20.4906 43.7443 22.4476 43.3068 24.2434 42.5931C17.7969 37.2057 17.2674 29.8613 17.2674 27.628Z" fill="#9AA1A9"/>
<path d="M36.8371 11.5117C34.765 11.5117 32.808 11.9492 31.0122 12.6629C37.4587 18.0503 37.9883 25.3947 37.9883 27.628C37.9883 29.8613 37.4587 37.2057 31.0122 42.5931C32.808 43.3068 34.765 43.7443 36.8371 43.7443C45.7241 43.7443 52.9534 36.515 52.9534 27.628C52.9534 18.741 45.7241 11.5117 36.8371 11.5117Z" fill="#9AA1A9"/>
</g>
<defs>
<clipPath id="clip0_644_27170">
<rect width="55.2558" height="55.2558" fill="white"/>
</clipPath>
</defs>
</svg>
