<svg width="56" height="56" viewBox="0 0 56 56" fill="none" xmlns="http://www.w3.org/2000/svg">
<g clip-path="url(#clip0_592_27345)">
<path d="M29.5656 40.1579C28.6677 40.9637 27.3093 40.9637 26.4114 40.1579C21.8988 36.1058 21.093 30.8565 21.093 28.1858C21.093 25.5382 21.8988 20.2658 26.4344 16.2137C27.3323 15.4079 28.6907 15.4079 29.5886 16.2137C34.1012 20.2658 34.907 25.5151 34.907 28.1858C34.907 30.8335 34.1012 36.1058 29.5656 40.1579Z" fill="#D8FBDE"/>
<path d="M17.6397 28.1866C17.6397 30.4198 18.1692 37.7643 24.6157 43.1517C22.8199 43.8654 20.8629 44.3029 18.7908 44.3029C9.90386 44.3029 2.67456 37.0736 2.67456 28.1866C2.67456 19.2996 9.90386 12.0703 18.7908 12.0703C20.8629 12.0703 22.8199 12.5078 24.6157 13.2215C18.1692 18.6089 17.6397 25.9533 17.6397 28.1866Z" fill="#00A94F"/>
<path d="M37.2094 44.3029C35.1373 44.3029 33.1803 43.8654 31.3845 43.1517C32.7889 41.9775 33.9171 40.6882 34.815 39.3989C35.5748 39.5831 36.3806 39.6982 37.2094 39.6982C43.5638 39.6982 48.721 34.541 48.721 28.1866C48.721 21.8322 43.5638 16.675 37.2094 16.675C36.3806 16.675 35.5748 16.7901 34.815 16.9743C33.9171 15.685 32.7889 14.3957 31.3845 13.2215C33.1803 12.5078 35.1373 12.0703 37.2094 12.0703C46.0964 12.0703 53.3257 19.2996 53.3257 28.1866C53.3257 37.0736 46.0964 44.3029 37.2094 44.3029Z" fill="#00A94F"/>
</g>
<defs>
<clipPath id="clip0_592_27345">
<rect width="55.2558" height="55.2558" fill="white" transform="matrix(-1 0 0 1 55.6279 0.558594)"/>
</clipPath>
</defs>
</svg>
