<svg width="24" height="24" viewBox="0 0 24 24" fill="none" xmlns="http://www.w3.org/2000/svg">
<g clip-path="url(#clip0_90_2055)">
<path d="M12 17.7398C13.6569 17.7398 15 15.1699 15 11.9998C15 8.82965 13.6569 6.25977 12 6.25977C10.3431 6.25977 9 8.82965 9 11.9998C9 15.1699 10.3431 17.7398 12 17.7398Z" fill="white"/>
<path d="M9.04 16.87C8.71 16.95 8.36 17 8 17C5.24 17 3 14.76 3 12C3 9.24 5.24 7 8 7C8.36 7 8.71 7.05 9.04 7.13C9.43 6.57 9.92 6.01 10.53 5.5C9.75 5.19 8.9 5 8 5C4.14 5 1 8.14 1 12C1 15.86 4.14 19 8 19C8.9 19 9.75 18.81 10.53 18.5C9.92 17.99 9.43 17.43 9.04 16.87Z" fill="white"/>
<path d="M16.0002 5C15.1002 5 14.2502 5.19 13.4702 5.5C14.0802 6.01 14.5702 6.57 14.9602 7.13C15.2902 7.05 15.6402 7 16.0002 7C18.7602 7 21.0002 9.24 21.0002 12C21.0002 14.76 18.7602 17 16.0002 17C15.6402 17 15.2902 16.95 14.9602 16.87C14.5702 17.43 14.0802 17.99 13.4702 18.5C14.2502 18.81 15.1002 19 16.0002 19C19.8602 19 23.0002 15.86 23.0002 12C23.0002 8.14 19.8602 5 16.0002 5Z" fill="white"/>
</g>
<defs>
<clipPath id="clip0_90_2055">
<rect width="24" height="24" fill="white"/>
</clipPath>
</defs>
</svg>
