<svg width="16" height="16" viewBox="0 0 16 16" fill="none" xmlns="http://www.w3.org/2000/svg">
<path d="M7.53493 1.25391C4.06888 1.25391 1.25586 4.06693 1.25586 7.53298C1.25586 10.999 4.06888 13.812 7.53493 13.812C11.001 13.812 13.814 10.999 13.814 7.53298C13.814 4.06693 11.001 1.25391 7.53493 1.25391ZM7.53493 12.5562C4.76586 12.5562 2.51167 10.302 2.51167 7.53298C2.51167 4.76391 4.76586 2.50972 7.53493 2.50972C10.304 2.50972 12.5582 4.76391 12.5582 7.53298C12.5582 10.302 10.304 12.5562 7.53493 12.5562ZM9.97121 5.20344L6.27912 8.89553L5.09865 7.71507C4.85377 7.47019 4.45818 7.47019 4.2133 7.71507C3.96842 7.95995 3.96842 8.35553 4.2133 8.60042L5.83958 10.2267C6.08446 10.4716 6.48005 10.4716 6.72493 10.2267L10.8628 6.08879C11.1077 5.84391 11.1077 5.44832 10.8628 5.20344C10.618 4.95856 10.2161 4.95856 9.97121 5.20344Z" fill="#00A94F"/>
</svg>
