<svg width="90" height="90" viewBox="0 0 90 90" fill="none" xmlns="http://www.w3.org/2000/svg">
<path d="M35.8594 19.6875H42.8906" stroke="#836400" stroke-miterlimit="10" stroke-linecap="round" stroke-linejoin="round"/>
<path d="M45.7031 19.6875H47.1094" stroke="#836400" stroke-miterlimit="10" stroke-linecap="round" stroke-linejoin="round"/>
<path d="M26.0156 8.4375H18.9844" stroke="#836400" stroke-miterlimit="10" stroke-linecap="round" stroke-linejoin="round"/>
<path d="M16.1719 8.4375H14.7656" stroke="#836400" stroke-miterlimit="10" stroke-linecap="round" stroke-linejoin="round"/>
<path d="M20.3906 54.8438C28.1571 54.8438 34.4531 48.5478 34.4531 40.7812C34.4531 33.0147 28.1571 26.7188 20.3906 26.7188C12.6241 26.7188 6.32812 33.0147 6.32812 40.7812C6.32812 48.5478 12.6241 54.8438 20.3906 54.8438Z" stroke="#836400" stroke-miterlimit="10" stroke-linecap="round" stroke-linejoin="round"/>
<path d="M30.0938 32.625L31.0781 31.7813C28.5469 28.6875 24.6094 26.7188 20.25 26.7188C12.5156 26.7188 6.1875 33.0469 6.1875 40.7812H7.45313C15.8906 40.7812 23.7656 37.9688 30.0938 32.625Z" fill="#E7B100" stroke="#836400" stroke-miterlimit="10" stroke-linecap="round" stroke-linejoin="round"/>
<path d="M20.3906 54.8438C18.9844 54.8438 17.4375 54.5625 16.1719 54.1406V56.25L20.3906 62.5781L24.6094 56.25V54.1406C23.2031 54.5625 21.7969 54.8438 20.3906 54.8438Z" stroke="#836400" stroke-miterlimit="10" stroke-linecap="round" stroke-linejoin="round"/>
<path d="M40.0781 87.1875V69.3281C40.0781 64.8281 37.2656 60.8906 33.1875 59.4844L24.6094 56.25L20.3906 62.5781L16.1719 56.25L7.59375 59.3438C3.375 60.8906 0.703125 64.8281 0.703125 69.1875V87.1875" stroke="#836400" stroke-miterlimit="10" stroke-linecap="round" stroke-linejoin="round"/>
<path d="M31.6406 67.5V87.1875" stroke="#836400" stroke-miterlimit="10" stroke-linecap="round" stroke-linejoin="round"/>
<path d="M9.14062 67.5V87.1875" stroke="#836400" stroke-miterlimit="10" stroke-linecap="round" stroke-linejoin="round"/>
<path d="M23.9062 84.375L20.3906 87.1875L16.875 84.375L18.2812 63.9844L20.3906 62.5781L22.5 63.9844L23.9062 84.375Z" fill="#C09507" stroke="#836400" stroke-miterlimit="10" stroke-linecap="round" stroke-linejoin="round"/>
<path d="M18.2812 63.9844L14.7656 64.6875L16.1719 56.25L20.3906 62.5781L18.2812 63.9844Z" stroke="#836400" stroke-miterlimit="10" stroke-linecap="round" stroke-linejoin="round"/>
<path d="M22.5 63.9844L26.0156 64.6875L24.6094 56.25L20.3906 62.5781L22.5 63.9844Z" stroke="#836400" stroke-miterlimit="10" stroke-linecap="round" stroke-linejoin="round"/>
<path d="M49.9219 54.8438C56.1351 54.8438 61.1719 49.807 61.1719 43.5938C61.1719 37.3805 56.1351 32.3438 49.9219 32.3438C43.7087 32.3438 38.6719 37.3805 38.6719 43.5938C38.6719 49.807 43.7087 54.8438 49.9219 54.8438Z" stroke="#836400" stroke-miterlimit="10" stroke-linecap="round" stroke-linejoin="round"/>
<path d="M57.6562 37.125L58.5 36.4219C56.5312 33.8906 53.4375 32.3438 49.9219 32.3438C43.7344 32.3438 38.6719 37.4062 38.6719 43.5938H39.7969C46.2656 43.5938 52.7344 41.3437 57.6562 37.125Z" fill="#E7B100" stroke="#836400" stroke-miterlimit="10" stroke-linecap="round" stroke-linejoin="round"/>
<path d="M49.9219 54.8437C48.375 54.8437 46.9687 54.5625 45.7031 54V56.25L49.9219 62.5781L54.1406 56.25V54C52.875 54.5625 51.4688 54.8437 49.9219 54.8437Z" stroke="#836400" stroke-miterlimit="10" stroke-linecap="round" stroke-linejoin="round"/>
<path d="M66.7969 87.1875V66.375C66.7969 63.5625 65.1094 61.0312 62.5781 59.9062L54.1406 56.1094L49.9219 62.4375L45.7031 56.1094L38.5312 59.3437" stroke="#836400" stroke-miterlimit="10" stroke-linecap="round" stroke-linejoin="round"/>
<path d="M59.7656 67.5V87.1875" stroke="#836400" stroke-miterlimit="10" stroke-linecap="round" stroke-linejoin="round"/>
<path d="M53.4375 83.6719L49.9219 87.1875L46.4062 83.6719L48.5156 62.5781H51.3281L53.4375 83.6719Z" fill="#C09507" stroke="#836400" stroke-miterlimit="10" stroke-linecap="round" stroke-linejoin="round"/>
<path d="M45.7031 56.25L45 62.5781H54.8438L54.1406 56.25L49.9219 62.5781L45.7031 56.25Z" stroke="#836400" stroke-miterlimit="10" stroke-linecap="round" stroke-linejoin="round"/>
<path d="M73.8281 54.8438C78.488 54.8438 82.2656 51.0662 82.2656 46.4062C82.2656 41.7463 78.488 37.9688 73.8281 37.9688C69.1682 37.9688 65.3906 41.7463 65.3906 46.4062C65.3906 51.0662 69.1682 54.8438 73.8281 54.8438Z" stroke="#836400" stroke-miterlimit="10" stroke-linecap="round" stroke-linejoin="round"/>
<path d="M79.7344 41.4844L80.2969 40.9219C78.75 39.0938 76.5 37.9688 73.8281 37.9688C69.1875 37.9688 65.3906 41.7656 65.3906 46.4062H66.2344C71.1562 46.4062 75.9375 44.7188 79.7344 41.4844Z" fill="#E7B100" stroke="#836400" stroke-miterlimit="10" stroke-linecap="round" stroke-linejoin="round"/>
<path d="M73.8281 54.8437C72.2812 54.8437 70.875 54.4219 69.6094 53.7188V56.25L73.8281 62.5781L78.0469 56.25V53.7188C76.7813 54.4219 75.375 54.8437 73.8281 54.8437Z" stroke="#836400" stroke-miterlimit="10" stroke-linecap="round" stroke-linejoin="round"/>
<path d="M87.8906 87.1875V65.5312C87.8906 62.8594 86.3438 60.4687 83.9531 59.2031L78.0469 56.25L73.8281 62.5781L69.6094 56.25L65.3906 58.3594" stroke="#836400" stroke-miterlimit="10" stroke-linecap="round" stroke-linejoin="round"/>
<path d="M82.2656 67.5V87.1875" stroke="#836400" stroke-miterlimit="10" stroke-linecap="round" stroke-linejoin="round"/>
<path d="M69.6094 56.25L68.9062 62.5781H78.75L78.0469 56.25L73.8281 62.5781L69.6094 56.25Z" stroke="#836400" stroke-miterlimit="10" stroke-linecap="round" stroke-linejoin="round"/>
<path d="M73.8281 62.5781V67.5" stroke="#836400" stroke-miterlimit="10" stroke-linecap="round" stroke-linejoin="round"/>
<path d="M82.2656 30.9375H68.2031C64.2656 30.9375 61.1719 27.8438 61.1719 23.9062V9.84375C61.1719 5.90625 64.2656 2.8125 68.2031 2.8125H82.2656C86.2031 2.8125 89.2969 5.90625 89.2969 9.84375V23.9062C89.2969 27.8438 86.2031 30.9375 82.2656 30.9375Z" fill="#836400" stroke="#E7B100" stroke-miterlimit="10" stroke-linecap="round" stroke-linejoin="round"/>
<path d="M67.7812 16.875L72.7031 21.7969L82.6875 11.9531" stroke="white" stroke-miterlimit="10" stroke-linecap="round" stroke-linejoin="round"/>
</svg>
