<svg width="20" height="20" viewBox="0 0 20 20" fill="none" xmlns="http://www.w3.org/2000/svg">
<g clip-path="url(#clip0_663_28188)">
<path d="M14.1667 9.16667V2.5H5.83333V5.83333H2.5V17.5H9.16667V14.1667H10.8333V17.5H17.5V9.16667H14.1667ZM5.83333 15.8333H4.16667V14.1667H5.83333V15.8333ZM5.83333 12.5H4.16667V10.8333H5.83333V12.5ZM5.83333 9.16667H4.16667V7.5H5.83333V9.16667ZM9.16667 12.5H7.5V10.8333H9.16667V12.5ZM9.16667 9.16667H7.5V7.5H9.16667V9.16667ZM9.16667 5.83333H7.5V4.16667H9.16667V5.83333ZM12.5 12.5H10.8333V10.8333H12.5V12.5ZM12.5 9.16667H10.8333V7.5H12.5V9.16667ZM12.5 5.83333H10.8333V4.16667H12.5V5.83333ZM15.8333 15.8333H14.1667V14.1667H15.8333V15.8333ZM15.8333 12.5H14.1667V10.8333H15.8333V12.5Z" fill="black"/>
</g>
<defs>
<clipPath id="clip0_663_28188">
<rect width="20" height="20" fill="white"/>
</clipPath>
</defs>
</svg>
