<svg width="18" height="18" viewBox="0 0 18 18" fill="none" xmlns="http://www.w3.org/2000/svg">
<g clip-path="url(#clip0_663_28208)">
<path d="M14.25 3H13.5V1.5H12V3H6V1.5H4.5V3H3.75C2.9175 3 2.2575 3.675 2.2575 4.5L2.25 15C2.25 15.825 2.9175 16.5 3.75 16.5H14.25C15.075 16.5 15.75 15.825 15.75 15V4.5C15.75 3.675 15.075 3 14.25 3ZM14.25 15H3.75V7.5H14.25V15ZM6.75 10.5H5.25V9H6.75V10.5ZM9.75 10.5H8.25V9H9.75V10.5ZM12.75 10.5H11.25V9H12.75V10.5ZM6.75 13.5H5.25V12H6.75V13.5ZM9.75 13.5H8.25V12H9.75V13.5ZM12.75 13.5H11.25V12H12.75V13.5Z" fill="black"/>
</g>
<defs>
<clipPath id="clip0_663_28208">
<rect width="18" height="18" fill="white"/>
</clipPath>
</defs>
</svg>
