<svg width="20" height="20" viewBox="0 0 20 20" fill="none" xmlns="http://www.w3.org/2000/svg">
<path fill-rule="evenodd" clip-rule="evenodd" d="M5.83329 1.66602C3.53211 1.66602 1.66663 3.5315 1.66663 5.83268V14.166C1.66663 16.4672 3.53211 18.3327 5.83329 18.3327H14.1666C16.4678 18.3327 18.3333 16.4672 18.3333 14.166V5.83268C18.3333 3.5315 16.4678 1.66602 14.1666 1.66602H5.83329ZM9.88746 12.7035L13.8458 8.74518C14.1291 8.46185 14.1291 8.00352 13.8458 7.71185C13.5625 7.42852 13.0958 7.42852 12.8125 7.71185L9.37079 11.1535L7.91246 9.69518C7.62913 9.41185 7.16246 9.41185 6.87913 9.69518C6.59579 9.97852 6.59579 10.4368 6.87913 10.7285L8.86246 12.7035C9.00413 12.8452 9.18746 12.9118 9.37079 12.9118C9.56246 12.9118 9.74579 12.8452 9.88746 12.7035Z" fill="#637381"/>
</svg>
