<svg width="19" height="19" viewBox="0 0 19 19" fill="none" xmlns="http://www.w3.org/2000/svg">
<path d="M17.8484 18.4859C15.6984 18.4859 13.6028 17.9936 11.5614 17.0091C9.51944 16.0252 7.7111 14.7243 6.13644 13.1065C4.5611 11.4893 3.29444 9.63216 2.33644 7.53505C1.37777 5.43861 0.898438 3.28638 0.898438 1.07834C0.898438 0.770245 0.998437 0.513496 1.19844 0.308098C1.39844 0.102699 1.64844 0 1.94844 0H5.99844C6.23177 0 6.4401 0.0770244 6.62344 0.231073C6.80677 0.385122 6.9151 0.581963 6.94844 0.821594L7.59844 4.41607C7.63177 4.6557 7.62777 4.87377 7.58644 5.07026C7.54444 5.26745 7.44844 5.44306 7.29844 5.59711L4.89844 8.11324C5.59844 9.34563 6.47344 10.501 7.52344 11.5793C8.57344 12.6577 9.73177 13.5905 10.9984 14.3779L13.3484 11.9645C13.4984 11.8104 13.6944 11.6947 13.9364 11.6173C14.1778 11.5407 14.4151 11.5194 14.6484 11.5537L18.0984 12.2726C18.3318 12.3239 18.5234 12.4393 18.6734 12.6187C18.8234 12.7987 18.8984 13.0086 18.8984 13.2482V17.4075C18.8984 17.7156 18.7984 17.9724 18.5984 18.1778C18.3984 18.3832 18.1484 18.4859 17.8484 18.4859Z" fill="#A3B0B8"/>
</svg>
