<svg width="19" height="19" viewBox="0 0 19 19" fill="none" xmlns="http://www.w3.org/2000/svg">
<path d="M17.8482 18.4859C15.6982 18.4859 13.6025 17.9936 11.5612 17.0091C9.51919 16.0252 7.71086 14.7243 6.13619 13.1065C4.56086 11.4893 3.29419 9.63216 2.33619 7.53505C1.37753 5.43861 0.898193 3.28638 0.898193 1.07834C0.898193 0.770245 0.998193 0.513496 1.19819 0.308098C1.39819 0.102699 1.64819 0 1.94819 0H5.99819C6.23153 0 6.43986 0.0770244 6.62319 0.231073C6.80653 0.385122 6.91486 0.581963 6.94819 0.821594L7.59819 4.41607C7.63153 4.6557 7.62753 4.87377 7.58619 5.07026C7.54419 5.26745 7.44819 5.44306 7.29819 5.59711L4.89819 8.11324C5.59819 9.34563 6.47319 10.501 7.52319 11.5793C8.57319 12.6577 9.73153 13.5905 10.9982 14.3779L13.3482 11.9645C13.4982 11.8104 13.6942 11.6947 13.9362 11.6173C14.1775 11.5407 14.4149 11.5194 14.6482 11.5537L18.0982 12.2726C18.3315 12.3239 18.5232 12.4393 18.6732 12.6187C18.8232 12.7987 18.8982 13.0086 18.8982 13.2482V17.4075C18.8982 17.7156 18.7982 17.9724 18.5982 18.1778C18.3982 18.3832 18.1482 18.4859 17.8482 18.4859Z" fill="#3D4A52"/>
</svg>
