<svg width="30" height="24" viewBox="0 0 30 24" fill="none" xmlns="http://www.w3.org/2000/svg">
<path d="M14.9999 23.3332H0.833252V20.4998H8.97909C7.94492 16.519 4.81409 13.4023 0.833252 12.3682C1.73992 12.1415 2.68909 11.9998 3.66659 11.9998C9.92825 11.9998 14.9999 17.0715 14.9999 23.3332ZM29.1666 12.3682C28.2599 12.1415 27.3108 11.9998 26.3333 11.9998C22.1824 11.9998 18.5699 14.2382 16.5866 17.5673C16.9974 18.5023 17.3374 19.4798 17.5358 20.4998C17.7199 21.4207 17.8191 22.3698 17.8191 23.3332H20.6524H29.1524V20.4998H21.0066C22.0549 16.519 25.1858 13.4023 29.1666 12.3682ZM20.1566 10.6115C21.2616 7.65067 23.3158 5.1715 25.9508 3.52817C19.8733 3.7265 14.9999 8.699 14.9999 14.8332C14.9999 14.8473 14.9999 14.8615 14.9999 14.8615C16.3458 13.0623 18.1166 11.6032 20.1566 10.6115ZM14.1783 7.53734C12.9883 4.43484 10.5799 1.92734 7.49159 0.666504C9.53159 3.3015 10.7499 6.58817 10.7499 10.1723C10.7499 10.4698 10.7074 10.7532 10.6933 11.0365C11.3024 11.3765 11.8691 11.7732 12.4216 12.1982C12.7191 10.5265 13.3424 8.954 14.1783 7.53734Z" fill="#3D4A52"/>
</svg>
