<svg width="145" height="21" viewBox="0 0 145 21" fill="none" xmlns="http://www.w3.org/2000/svg">
<g clip-path="url(#clip0_1679_7333)">
<path d="M91.6122 13.851V10.0606H88.0173V8.4164H93.3467V13.851H91.6122ZM86.9346 17.3492C81.9139 17.3527 78.8105 13.6428 78.8105 9.0181V8.97263C78.8105 4.52634 82.0277 0.59082 86.8208 0.59082C89.514 0.59082 91.1795 1.37793 92.7777 2.744L91.6122 4.13281C90.3795 3.04485 89.0105 2.27347 86.7519 2.27347C83.2157 2.27347 80.6899 5.31522 80.6899 8.92015V8.96738C80.6899 12.8329 83.1311 15.7033 87.0105 15.7033H89.8967V17.3247L86.9346 17.3492Z" fill="#1CA069"/>
<path d="M97.5656 5.10593H99.3242V8.23162C100.192 6.24112 101.897 4.80508 104.138 4.8978V6.82183H104C101.414 6.82183 99.3226 8.6969 99.3226 12.3088V17.0752H97.564L97.5656 5.10593Z" fill="#1CA069"/>
<path d="M115.405 10.4323C115.224 8.25459 113.992 6.3568 111.641 6.3568C109.586 6.3568 108.035 8.09368 107.807 10.4323H115.405ZM106.035 11.1249V11.0794C106.035 7.63016 108.431 4.85254 111.693 4.85254C115.185 4.85254 117.193 7.67563 117.193 11.1721C117.197 11.3654 117.19 11.5588 117.171 11.7511H107.807C108.059 14.3433 109.861 15.8021 111.961 15.8021C113.581 15.8021 114.719 15.1304 115.679 14.1124L116.776 15.1077C115.59 16.451 114.152 17.3536 111.916 17.3536C108.674 17.3536 106.035 14.8295 106.035 11.1249Z" fill="#1CA069"/>
<path d="M129.37 10.4321C129.188 8.25442 127.957 6.35662 125.605 6.35662C123.552 6.35662 122 8.0935 121.771 10.4321H129.37ZM119.991 11.1317V11.0863C119.991 7.63698 122.388 4.85938 125.65 4.85938C129.143 4.85938 131.15 7.68247 131.15 11.179C131.154 11.3722 131.147 11.5656 131.128 11.7579H121.771C122.022 14.3501 123.826 15.8089 125.926 15.8089C127.545 15.8089 128.684 15.1372 129.645 14.1192L130.739 15.1145C129.553 16.4578 128.115 17.3604 125.879 17.3604C122.638 17.3534 120 14.8294 120 11.1247" fill="#1CA069"/>
<path d="M134.686 5.10618H136.443V7.19112C137.219 5.89327 138.452 4.85254 140.483 4.85254C143.334 4.85254 145 6.79582 145 9.64515V17.0754H143.243V10.0789C143.243 7.85579 142.057 6.46699 139.979 6.46699C137.95 6.46699 136.443 7.97298 136.443 10.2171V17.0754H134.686V5.10618Z" fill="#1CA069"/>
<path d="M20.2293 0.524414H18.2207V2.49043H20.2293V0.524414ZM20.0913 5.10888H18.3345V17.0746H20.0913V5.10888Z" fill="#1CA069"/>
<path d="M29.4933 4.84961C26.6848 4.84961 23.9468 7.00279 23.9468 10.4993V10.5465C23.9468 13.9958 26.6622 16.1437 29.4933 16.1437C31.6605 16.1437 33.0984 15.0085 34.126 13.6197V15.0418C34.126 17.8404 32.4364 19.3008 29.8347 19.3008C28.1977 19.3062 26.6039 18.7694 25.295 17.7722L24.495 19.1609C26.069 20.2668 27.9426 20.8493 29.857 20.828C31.7294 20.828 33.3053 20.3031 34.3536 19.2309C35.3123 18.2585 35.8588 16.8469 35.8588 14.9945V5.10499H34.1037V7.25817C33.1433 5.96206 31.7071 4.84961 29.4933 4.84961ZM29.8381 14.5747C27.6468 14.5747 25.7536 12.9078 25.7536 10.4993V10.4538C25.7536 8.00504 27.6019 6.43082 29.8381 6.43082C32.0744 6.43082 34.1744 8.02778 34.1744 10.4818V10.529C34.1744 12.9358 32.0744 14.58 29.8381 14.58" fill="#1CA069"/>
<path d="M42.2932 0.524414H40.2847V2.49043H42.2932V0.524414ZM42.1553 5.10888H40.3985V17.0746H42.1553V5.10888Z" fill="#1CA069"/>
<path d="M49.0688 1.49512H47.312V5.10531H45.6689V6.67953H47.312V13.9034C47.312 16.3347 48.7499 17.2845 50.6447 17.2845C51.3803 17.2953 52.1067 17.1197 52.7585 16.7737V15.2467C52.2299 15.5233 51.643 15.6662 51.0481 15.663C49.8603 15.663 49.0621 15.1383 49.0621 13.6725V6.67602H52.8051V5.10181H49.0688V1.49512Z" fill="#1CA069"/>
<path d="M60.8207 4.9451C59.3342 4.94247 57.8668 5.28532 56.5311 5.94736L57.0482 7.40613C58.1431 6.89714 59.2397 6.53156 60.631 6.53156C62.8448 6.53156 64.1449 7.64227 64.1449 9.79544V10.2117C62.9673 9.85869 61.7451 9.68308 60.5172 9.69048C57.5293 9.69048 55.4741 11.0338 55.4741 13.5561V13.6033C55.4741 16.0521 57.6897 17.3307 59.8793 17.3307C61.9569 17.3307 63.3275 16.3582 64.1466 15.2702V17.0753H65.8363V9.76046C65.8363 8.23171 65.4242 7.07555 64.6293 6.2622C63.7673 5.38763 62.4845 4.94336 60.8189 4.94336L60.8207 4.9451ZM60.2276 15.9174C58.6294 15.9174 57.2604 15.0428 57.2604 13.5316V13.4861C57.2604 11.9801 58.4931 11.0093 60.7087 11.0093C61.8825 11.0097 63.0501 11.1812 64.1759 11.5183V12.6745C64.1759 14.574 62.3965 15.9174 60.2293 15.9174" fill="#1CA069"/>
<path d="M71.9551 0.174805H70.1982V17.0749H71.9551V0.174805Z" fill="#1CA069"/>
<path d="M5.71719 0.875H3.62064V2.5664H5.71719C9.75685 2.5664 12.3344 5.3895 12.3344 8.9787V9.02417C12.3344 12.6134 9.74822 15.391 5.71719 15.391H1.97409V4.37326H0.172363V17.0754H5.71719C10.7379 17.0754 14.2068 13.5334 14.2068 8.97345V8.92098C14.2068 4.37326 10.7379 0.875 5.71719 0.875Z" fill="#1CA069"/>
</g>
<defs>
<clipPath id="clip0_1679_7333">
<rect width="145" height="21" fill="white"/>
</clipPath>
</defs>
</svg>
