<svg width="102" height="102" viewBox="0 0 102 102" fill="none" xmlns="http://www.w3.org/2000/svg">
<circle cx="51" cy="51" r="51" fill="#F9EABC"/>
<circle cx="51" cy="51" r="44" fill="#C09507"/>
<path d="M30.3229 30.3225L27.1279 33.495L32.2354 38.6025C29.8729 42.1575 28.5004 46.41 28.5004 51C28.5004 63.42 38.5804 73.5 51.0004 73.5C55.5904 73.5 59.8429 72.1275 63.3979 69.765L68.5054 74.8725L71.6779 71.7L30.3229 30.3225ZM51.0004 69C41.0779 69 33.0004 60.9225 33.0004 51C33.0004 47.67 33.9229 44.565 35.5204 41.865L60.1354 66.48C57.4354 68.0775 54.3304 69 51.0004 69ZM41.8654 35.52L38.6029 32.235C42.1579 29.8725 46.4104 28.5 51.0004 28.5C63.4204 28.5 73.5004 38.58 73.5004 51C73.5004 55.59 72.1279 59.8425 69.7654 63.3975L66.4804 60.1125C68.0779 57.435 69.0004 54.33 69.0004 51C69.0004 41.0775 60.9229 33 51.0004 33C47.6704 33 44.5654 33.9225 41.8654 35.52Z" fill="white"/>
</svg>
