<svg width="161" height="62" viewBox="0 0 161 62" fill="none" xmlns="http://www.w3.org/2000/svg">
<path d="M4.912 16.096C3.232 16.096 1.584 15.504 0.752 14.64L1.216 13.728C2.016 14.512 3.44 15.088 4.912 15.088C7.008 15.088 7.92 14.208 7.92 13.104C7.92 10.032 1.024 11.92 1.024 7.776C1.024 6.128 2.304 4.704 5.152 4.704C6.416 4.704 7.728 5.072 8.624 5.696L8.224 6.64C7.264 6.016 6.144 5.712 5.152 5.712C3.104 5.712 2.192 6.624 2.192 7.744C2.192 10.816 9.088 8.96 9.088 13.04C9.088 14.688 7.776 16.096 4.912 16.096ZM17.8758 7.584H19.0118V16H17.9237V14.464C17.3318 15.488 16.2438 16.08 14.8998 16.08C12.7558 16.08 11.3478 14.88 11.3478 12.464V7.584H12.4838V12.352C12.4838 14.144 13.4118 15.056 15.0118 15.056C16.7718 15.056 17.8758 13.92 17.8758 12V7.584ZM26.5294 7.52C28.9294 7.52 30.7214 9.248 30.7214 11.792C30.7214 14.352 28.9294 16.08 26.5294 16.08C25.1854 16.08 24.0334 15.504 23.3294 14.416V19.104H22.1934V7.584H23.2814V9.248C23.9694 8.128 25.1374 7.52 26.5294 7.52ZM26.4494 15.072C28.2254 15.072 29.5854 13.76 29.5854 11.792C29.5854 9.84 28.2254 8.512 26.4494 8.512C24.6574 8.512 23.3134 9.84 23.3134 11.792C23.3134 13.76 24.6574 15.072 26.4494 15.072ZM37.3731 7.52C39.7731 7.52 41.5651 9.248 41.5651 11.792C41.5651 14.352 39.7731 16.08 37.3731 16.08C36.0291 16.08 34.8771 15.504 34.1731 14.416V19.104H33.0371V7.584H34.1251V9.248C34.8131 8.128 35.9811 7.52 37.3731 7.52ZM37.2931 15.072C39.0691 15.072 40.4291 13.76 40.4291 11.792C40.4291 9.84 39.0691 8.512 37.2931 8.512C35.5011 8.512 34.1571 9.84 34.1571 11.792C34.1571 13.76 35.5011 15.072 37.2931 15.072ZM47.3209 16.08C44.8569 16.08 43.0329 14.288 43.0329 11.792C43.0329 9.296 44.8569 7.52 47.3209 7.52C49.7849 7.52 51.5929 9.296 51.5929 11.792C51.5929 14.288 49.7849 16.08 47.3209 16.08ZM47.3209 15.072C49.1129 15.072 50.4409 13.76 50.4409 11.792C50.4409 9.824 49.1129 8.512 47.3209 8.512C45.5289 8.512 44.1849 9.824 44.1849 11.792C44.1849 13.76 45.5289 15.072 47.3209 15.072ZM55.0001 9.232C55.5281 8.112 56.6001 7.52 58.1521 7.52V8.624C58.0561 8.624 57.9601 8.608 57.8801 8.608C56.1201 8.608 55.0481 9.728 55.0481 11.712V16H53.9121V7.584H55.0001V9.232ZM64.6004 14.672L65.0004 15.488C64.5524 15.888 63.8804 16.08 63.2244 16.08C61.6404 16.08 60.7604 15.184 60.7604 13.632V8.544H59.2564V7.584H60.7604V5.744H61.8964V7.584H64.4564V8.544H61.8964V13.568C61.8964 14.56 62.4084 15.104 63.3524 15.104C63.8164 15.104 64.2804 14.96 64.6004 14.672ZM67.6444 5.744C67.1804 5.744 66.8124 5.376 66.8124 4.928C66.8124 4.496 67.1804 4.128 67.6444 4.128C68.1084 4.128 68.4764 4.48 68.4764 4.912C68.4764 5.376 68.1244 5.744 67.6444 5.744ZM67.0684 16V7.584H68.2044V16H67.0684ZM75.6533 7.52C77.7013 7.52 79.1093 8.704 79.1093 11.12V16H77.9733V11.232C77.9733 9.456 77.0453 8.544 75.4453 8.544C73.6373 8.544 72.5013 9.664 72.5013 11.584V16H71.3653V7.584H72.4533V9.136C73.0613 8.112 74.1973 7.52 75.6533 7.52ZM88.9286 7.584H90.0166V14.976C90.0166 17.872 88.5926 19.184 85.8086 19.184C84.2726 19.184 82.7686 18.72 81.8886 17.888L82.4646 17.024C83.2646 17.744 84.4806 18.176 85.7766 18.176C87.9046 18.176 88.8806 17.2 88.8806 15.12V14.048C88.1766 15.12 86.9766 15.68 85.6006 15.68C83.2006 15.68 81.3766 14 81.3766 11.584C81.3766 9.168 83.2006 7.52 85.6006 7.52C87.0086 7.52 88.2246 8.096 88.9286 9.2V7.584ZM85.7126 14.672C87.5686 14.672 88.9126 13.408 88.9126 11.584C88.9126 9.76 87.5686 8.512 85.7126 8.512C83.8566 8.512 82.5286 9.76 82.5286 11.584C82.5286 13.408 83.8566 14.672 85.7126 14.672ZM101.717 7.52C104.117 7.52 105.909 9.248 105.909 11.792C105.909 14.352 104.117 16.08 101.717 16.08C100.373 16.08 99.2209 15.504 98.5169 14.416V19.104H97.3809V7.584H98.4689V9.248C99.1569 8.128 100.325 7.52 101.717 7.52ZM101.637 15.072C103.413 15.072 104.773 13.76 104.773 11.792C104.773 9.84 103.413 8.512 101.637 8.512C99.8449 8.512 98.5009 9.84 98.5009 11.792C98.5009 13.76 99.8449 15.072 101.637 15.072ZM111.122 7.52C113.298 7.52 114.53 8.608 114.53 10.784V16H113.442V14.688C112.93 15.552 111.938 16.08 110.546 16.08C108.642 16.08 107.474 15.088 107.474 13.632C107.474 12.336 108.306 11.248 110.722 11.248H113.394V10.736C113.394 9.296 112.578 8.512 111.01 8.512C109.922 8.512 108.898 8.896 108.21 9.504L107.698 8.656C108.546 7.936 109.794 7.52 111.122 7.52ZM110.722 15.184C112.002 15.184 112.946 14.576 113.394 13.472V12.096H110.754C109.122 12.096 108.594 12.736 108.594 13.6C108.594 14.576 109.378 15.184 110.722 15.184ZM118.703 9.232C119.231 8.112 120.303 7.52 121.855 7.52V8.624C121.759 8.624 121.663 8.608 121.583 8.608C119.823 8.608 118.751 9.728 118.751 11.712V16H117.615V7.584H118.703V9.232ZM128.304 14.672L128.704 15.488C128.256 15.888 127.584 16.08 126.928 16.08C125.344 16.08 124.464 15.184 124.464 13.632V8.544H122.96V7.584H124.464V5.744H125.6V7.584H128.16V8.544H125.6V13.568C125.6 14.56 126.112 15.104 127.056 15.104C127.52 15.104 127.984 14.96 128.304 14.672ZM135.06 7.52C137.108 7.52 138.516 8.704 138.516 11.12V16H137.38V11.232C137.38 9.456 136.452 8.544 134.852 8.544C133.044 8.544 131.908 9.664 131.908 11.584V16H130.772V7.584H131.86V9.136C132.468 8.112 133.604 7.52 135.06 7.52ZM148.975 11.792C148.975 11.888 148.959 12.016 148.959 12.144H141.919C142.047 13.904 143.391 15.072 145.231 15.072C146.255 15.072 147.167 14.704 147.807 13.968L148.447 14.704C147.695 15.6 146.527 16.08 145.199 16.08C142.575 16.08 140.783 14.288 140.783 11.792C140.783 9.296 142.527 7.52 144.895 7.52C147.263 7.52 148.975 9.264 148.975 11.792ZM144.895 8.496C143.263 8.496 142.063 9.648 141.919 11.296H147.887C147.743 9.648 146.543 8.496 144.895 8.496ZM152.375 9.232C152.903 8.112 153.975 7.52 155.527 7.52V8.624C155.431 8.624 155.335 8.608 155.255 8.608C153.495 8.608 152.423 9.728 152.423 11.712V16H151.287V7.584H152.375V9.232Z" fill="black"/>
<mask id="mask0_241_16239" style="mask-type:luminance" maskUnits="userSpaceOnUse" x="0" y="30" width="32" height="32">
<path d="M19.4571 56.184C21.5422 56.1582 23.521 55.8515 25.2726 55.2604C25.7131 55.1111 26.1342 54.9458 26.5323 54.7671C26.0448 55.9627 25.3292 56.96 24.3959 57.7013C22.555 59.0631 20.3833 59.9973 18.0258 60.3538C18.615 59.3298 19.0909 57.8827 19.4571 56.184ZM9.64408 59.0889C9.60073 59.0524 9.55385 59.0187 9.50077 58.9938C8.68073 58.592 8.349 56.7547 8.77627 53.9449C10.3527 54.6569 12.0688 55.2213 13.8725 55.608C15.2393 55.9013 16.6016 56.0827 17.9329 56.1529C17.2801 59.0044 16.4432 60.5022 15.8886 60.5022C15.8532 60.5022 15.8187 60.5084 15.7851 60.5138C13.5877 60.4987 11.5053 59.9911 9.64408 59.0889ZM2.03019 50.0053C1.90369 49.5235 1.82496 49.032 1.79223 48.5324C2.28585 49.2382 2.8865 49.9262 3.60215 50.5911C4.68315 51.5938 5.96585 52.4915 7.39538 53.2613C7.10346 54.9022 7.02119 56.3893 7.20519 57.5875C4.74154 55.7155 2.898 53.0658 2.03019 50.0053ZM20.3868 46.0204C20.3868 45.4409 20.378 44.8587 20.3612 44.2791C22.1985 44.1564 23.8997 43.6764 25.292 42.872C26.5818 45.4355 27.2736 48.1404 27.2683 50.6933C27.2674 51.4329 27.2037 52.136 27.0869 52.8C26.4235 53.208 25.66 53.5618 24.8011 53.8533C23.276 54.3689 21.5581 54.6498 19.7367 54.6969C20.1754 52.0595 20.3868 48.9973 20.3868 46.0204ZM14.1822 54.1582C12.3528 53.7644 10.6242 53.1804 9.05935 52.4418C9.57331 50.1182 10.5305 47.3031 12.0467 44.1778C12.267 43.7253 12.4917 43.28 12.7208 42.8444C13.7814 43.3227 14.9358 43.7022 16.146 43.9618C17.0651 44.16 17.9851 44.2675 18.8848 44.2987C18.9016 44.8551 18.9087 45.4284 18.9087 46.0204C18.9087 49.5147 18.6309 52.4151 18.2293 54.6818C16.9094 54.624 15.5498 54.4507 14.1822 54.1582ZM4.60531 49.5022C3.35092 48.3378 2.48842 47.104 2.04877 45.8791C2.39731 44.5067 3.07138 43.1289 4.06304 41.8089C5.00338 40.5573 6.17373 39.4302 7.51569 38.4613C7.90315 39.1644 8.44542 39.8507 9.13631 40.5013C9.79269 41.1191 10.5579 41.6791 11.4062 42.1689C11.1727 42.6142 10.9445 43.0667 10.7215 43.5271C9.41142 46.2249 8.34192 49.12 7.71385 51.7458C6.54704 51.0853 5.49877 50.3333 4.60531 49.5022ZM19.3837 35.7129C21.0627 36.9689 22.6019 38.5893 23.889 40.4844C24.1332 40.8435 24.3632 41.2089 24.5817 41.5778C23.4025 42.2631 21.9093 42.6729 20.3002 42.7875C20.1639 40.2267 19.8623 37.7627 19.3837 35.7129ZM16.4556 42.5111C15.387 42.2827 14.3715 41.9529 13.4355 41.5395C14.8138 39.1173 16.3203 37.0115 17.8073 35.4462C18.2717 37.2827 18.661 39.752 18.8255 42.8133C18.0426 42.7804 17.2465 42.6818 16.4556 42.5111ZM10.1457 39.4187C9.53439 38.8444 9.07085 38.2453 8.75858 37.6435C10.1421 36.8071 11.6734 36.1253 13.3046 35.632C14.275 35.3387 15.257 35.1218 16.2362 34.9715C14.8226 36.5635 13.4108 38.5858 12.1166 40.8702C11.377 40.4409 10.7145 39.9547 10.1457 39.4187ZM6.96989 34.6907C6.94954 34.7653 6.92831 34.8418 6.9115 34.92C6.762 35.6195 6.77969 36.3369 6.95485 37.048C5.36608 38.1493 3.98431 39.4515 2.88385 40.9147C2.54858 41.36 2.24869 41.8151 1.97712 42.2729C2.79539 39.2347 4.57523 36.5911 6.96989 34.6907ZM8.35519 35.2293C8.51885 34.4595 8.97973 33.7715 9.69185 33.2027C11.416 32.6853 13.4214 32.8098 15.5294 33.5849C14.6422 33.7395 13.7549 33.9458 12.88 34.2115C11.2514 34.7022 9.71396 35.3742 8.30565 36.1902C8.27381 35.8658 8.28885 35.544 8.35519 35.2293ZM20.3355 33.2747C20.8424 32.9449 21.3095 32.7191 21.6996 32.6258C22.44 32.9235 23.1743 33.3049 23.8705 33.7867C22.7532 33.5058 21.5652 33.3351 20.3355 33.2747ZM17.848 31.6862C18.4469 31.7538 19.0865 31.8569 19.7437 32.0107C19.3324 32.2329 18.906 32.5102 18.4717 32.8435C18.2788 32.4053 18.0709 32.0195 17.848 31.6862ZM16.2477 32.2684C15.5798 32.0115 14.9199 31.8124 14.2688 31.6702C14.7908 31.6115 15.3189 31.5778 15.8567 31.5778C16.108 31.5804 16.4167 31.8844 16.7396 32.472C16.5759 32.4018 16.4123 32.3324 16.2477 32.2684ZM0 46.0462C0 47.5627 0.21673 49.0284 0.612153 50.4195C0.636038 50.5129 0.659039 50.6062 0.686462 50.6995C0.69177 50.7164 0.699731 50.7324 0.705923 50.7511C2.70869 57.2587 8.75239 61.9991 15.8771 61.9991C19.1732 61.9991 22.2366 60.984 24.7772 59.2507C24.8028 59.2355 24.8285 59.2231 24.8515 59.2071C25.0019 59.104 25.1478 58.9955 25.2894 58.8818C28.2113 56.7138 30.368 53.5644 31.2773 49.9209C31.3287 49.7538 31.3729 49.5831 31.41 49.4107C31.4189 49.3689 31.4215 49.3298 31.4233 49.2889C31.64 48.2409 31.7533 47.1564 31.7533 46.0471C31.7533 43.8942 31.334 41.8044 30.5051 39.8382C30.3458 39.4604 29.9133 39.2835 29.5373 39.4444C29.1613 39.6027 28.9862 40.0391 29.1445 40.416C29.8956 42.1982 30.276 44.0933 30.276 46.0471C30.276 47.2444 30.1282 48.4071 29.8531 49.5209C29.6346 50.2231 29.2516 50.8729 28.7217 51.4631C28.735 51.2115 28.7429 50.9573 28.7438 50.6969C28.75 47.8507 27.9662 44.8444 26.5137 42.0187C27.5788 41.0995 28.259 39.9635 28.4917 38.6933C28.566 38.2907 28.3006 37.904 27.8999 37.8293C27.4983 37.7538 27.1135 38.0204 27.0392 38.424C26.8852 39.264 26.4509 40.0347 25.7715 40.6889C25.5601 40.3378 25.3407 39.9902 25.108 39.648C23.8121 37.7387 22.272 36.0871 20.5868 34.7689C22.8116 34.9164 24.8674 35.4578 26.5234 36.3875C26.7826 36.536 27.1276 36.5315 27.3709 36.328C27.684 36.0658 27.7265 35.5964 27.4638 35.2818C25.085 31.9387 20.9707 30.0942 15.8753 30.0942C7.12292 30.0933 0 37.2498 0 46.0462Z" fill="white"/>
</mask>
<g mask="url(#mask0_241_16239)">
<path d="M31.7533 30.0932H0V61.999H31.7533V30.0932Z" fill="url(#paint0_radial_241_16239)"/>
</g>
<path d="M38.0649 55.7778V50.3582H39.1283V55.7778H38.0649Z" fill="#00AEEF"/>
<path d="M40.0767 55.7778V50.3582H42.1175C43.2206 50.3582 43.8584 50.7778 43.8584 51.7893C43.8584 52.7502 43.2896 52.9147 43.0189 52.9147V52.9289C43.3807 52.9289 44.222 53.2471 44.222 54.2578C44.222 55.3902 43.3356 55.7778 42.3413 55.7778H40.0767ZM41.9954 52.6204C42.5722 52.6204 42.765 52.3333 42.765 51.9155C42.765 51.4809 42.4793 51.2267 41.8468 51.2267H41.1382V52.6204H41.9954ZM42.1086 54.9102C42.6412 54.9102 43.0428 54.7422 43.0428 54.1449C43.0428 53.5867 42.6332 53.3716 42.0874 53.3716H41.1391V54.9102H42.1086Z" fill="#00AEEF"/>
<path d="M49.3651 55.7627C49.3651 55.7627 49.1661 55.816 48.8105 55.816C47.1766 55.816 47.6242 53.7493 46.483 53.7493H45.9151V55.7778H44.8518V50.3582H46.7458C48.0709 50.3582 48.7804 50.8471 48.7804 52.0631C48.7804 52.8604 48.2638 53.2835 47.8471 53.44C48.4018 53.8969 48.4336 54.9484 49.1413 54.9484H49.3642L49.3651 55.7627ZM46.6228 52.9449C47.2633 52.9449 47.733 52.6489 47.733 52.0933C47.733 51.552 47.3553 51.224 46.7086 51.224H45.9151V52.9449H46.6228Z" fill="#00AEEF"/>
<path d="M49.834 55.7778V50.3582H51.4139C52.8302 50.3582 54.0943 51.1262 54.0943 53.1618C54.0943 55.0889 52.9531 55.7769 51.643 55.7769H49.834V55.7778ZM51.6351 54.9102C52.4613 54.9102 53.0372 54.3067 53.0372 53.1458C53.0372 51.9449 52.5303 51.2249 51.3971 51.2249H50.8964V54.9102H51.6351Z" fill="#00AEEF"/>
<path d="M57.2532 54.5395C56.6985 54.5395 56.2598 54.0907 56.2598 53.5324C56.2598 52.9751 56.6985 52.5271 57.2532 52.5271C57.807 52.5271 58.2537 52.9751 58.2537 53.5324C58.2537 54.0907 57.807 54.5395 57.2532 54.5395Z" fill="#00AEEF"/>
<path d="M60.6643 55.7778V50.3582H61.7276V55.7778H60.6643Z" fill="#00AEEF"/>
<path d="M62.6731 55.7778V50.3582H64.2521C65.6702 50.3582 66.9334 51.1262 66.9334 53.1618C66.9334 55.0889 65.794 55.7769 64.4839 55.7769H62.6731V55.7778ZM64.4768 54.9102C65.3022 54.9102 65.8807 54.3067 65.8807 53.1458C65.8807 51.9449 65.3721 51.2249 64.2398 51.2249H63.7391V54.9102H64.4768Z" fill="#00AEEF"/>
<path d="M70.4481 54.4249H68.5347L68.08 55.7769H66.9707L68.9514 50.3582H70.0368L72.0174 55.7769H70.9161L70.4481 54.4249ZM68.8213 53.6107H70.1774L69.4919 51.6435L68.8213 53.6107Z" fill="#00AEEF"/>
<path d="M35.2476 37.2062H43.2639V38.8587H40.3199V47.1467H38.1942V38.8587H35.2484L35.2476 37.2062Z" fill="#002F54"/>
<path d="M44.3901 47.1467V37.2062H46.515V41.1298H50.256V37.2062H52.4065V47.1467H50.2834V42.7813H46.515V47.1467H44.3901Z" fill="#002F54"/>
<path d="M54.1367 37.2062H60.7696V38.8587H56.2624V41.1858H60.483V42.8373H56.2624V45.4951H60.9208V47.1467H54.1376L54.1367 37.2062Z" fill="#002F54"/>
<path d="M71.3221 37.2062H73.7185L75.4453 44.6827H75.4727L77.0632 37.2062H79.0907L76.5696 47.1467H74.2139L72.4331 39.5733H72.4057L70.4852 47.1467H68.0755L65.6641 37.2062H67.857L69.3768 44.6827H69.406L71.3221 37.2062Z" fill="#002F54"/>
<path d="M79.8127 42.1769C79.8127 39.2444 81.2918 36.9982 84.5658 36.9982C87.8389 36.9982 89.3206 39.2435 89.3206 42.1769C89.3206 45.1102 87.8389 47.352 84.5658 47.352C81.2901 47.352 79.8127 45.1093 79.8127 42.1769ZM82.0712 42.1769C82.0712 43.8818 82.4692 45.8098 84.5649 45.8098C86.6614 45.8098 87.0595 43.8818 87.0595 42.1769C87.0595 40.4684 86.6614 38.5395 84.5649 38.5395C82.4692 38.5395 82.0712 40.4693 82.0712 42.1769Z" fill="#002F54"/>
<path d="M92.8465 47.1467H90.7217V37.2062H94.9272C96.6274 37.2195 98.3674 37.7698 98.3674 39.7955C98.3674 41.0889 97.5315 41.944 96.3125 42.2044V42.2329C97.9437 42.4115 97.9437 43.416 98.1215 44.7938C98.2188 45.4275 98.2993 46.5982 98.6965 47.1467H96.3532C96.1762 46.2667 96.0789 45.3715 95.9843 44.4755C95.9285 43.9262 95.7905 43.1689 95.0935 43.1422H92.8474V47.1467H92.8465ZM92.8465 41.488H94.6255C95.5596 41.472 96.1063 41.0062 96.1063 40.1235C96.1063 39.2435 95.5596 38.8711 94.6255 38.8578H92.8465V41.488Z" fill="#002F54"/>
<path d="M99.989 47.1467V37.2062H102.114V45.4951H106.402V47.1467H99.989Z" fill="#002F54"/>
<path d="M107.555 37.2062H110.927C114.008 37.1795 115.927 38.72 115.927 42.1769C115.927 45.632 114.008 47.1733 110.927 47.1458H107.555V37.2062ZM109.678 45.4942H110.774C113.297 45.5218 113.668 43.7582 113.668 42.1769C113.668 40.5929 113.297 38.8311 110.774 38.8587H109.678V45.4942Z" fill="#002F54"/>
<path d="M121.304 47.1467V37.2062H125.017C126.785 37.096 128.594 37.8409 128.594 39.7813C128.594 40.8684 127.838 41.6267 126.853 41.9555V41.984C128.101 42.2462 129.031 43.1138 129.031 44.5715C129.031 46.5404 126.563 47.2578 125.044 47.1467H121.304ZM125.085 45.4942C126.086 45.4942 126.771 45.3147 126.771 44.1724C126.771 43.0302 126.087 42.8507 125.085 42.8507H123.426V45.4951H125.085V45.4942ZM125.085 41.2C125.976 41.2 126.468 40.8275 126.468 40.0293C126.468 39.2293 125.975 38.8595 125.085 38.8595H123.426V41.2009L125.085 41.2Z" fill="#002F54"/>
<path d="M129.694 47.1467L133.272 37.2062H135.793L139.23 47.1467H137.095L136.382 45.04H132.463L131.722 47.1467H129.694ZM135.847 43.3884L134.491 39.1475H134.462L133.011 43.3884H135.847Z" fill="#002F54"/>
<path d="M146.238 47.1467L142.332 38.8853L142.305 38.9138V47.1467H140.319V37.2062H143.469L147.239 45.0267L147.265 44.9973V37.2053H149.252V47.1467H146.238Z" fill="#002F54"/>
<path d="M153.12 41.5022H153.147L156.436 37.2062H158.916L155.285 41.6533L159.232 47.1467H156.588L153.148 42.08H153.121V47.1467H150.998V37.2062H153.121V41.5022H153.12Z" fill="#002F54"/>
<defs>
<radialGradient id="paint0_radial_241_16239" cx="0" cy="0" r="1" gradientUnits="userSpaceOnUse" gradientTransform="translate(30.3461 36.0367) scale(26.2973 26.4244)">
<stop stop-color="white"/>
<stop offset="0.0598" stop-color="#E7F6FD"/>
<stop offset="0.1829" stop-color="#AFE2FA"/>
<stop offset="0.3589" stop-color="#37C6F4"/>
<stop offset="0.544" stop-color="#00AEEF"/>
<stop offset="1" stop-color="#002F54"/>
</radialGradient>
</defs>
</svg>
