<svg width="56" height="56" viewBox="0 0 56 56" fill="none" xmlns="http://www.w3.org/2000/svg">
<g clip-path="url(#clip0_592_27364)">
<path d="M26.4344 40.1579C27.3323 40.9637 28.6907 40.9637 29.5886 40.1579C34.1012 36.1058 34.907 30.8565 34.907 28.1858C34.907 25.5382 34.1012 20.2658 29.5656 16.2137C28.6677 15.4079 27.3093 15.4079 26.4114 16.2137C21.8988 20.2658 21.093 25.5151 21.093 28.1858C21.093 30.8335 21.8988 36.1058 26.4344 40.1579Z" fill="#DADCDD"/>
<path d="M38.3603 28.1866C38.3603 30.4198 37.8308 37.7643 31.3843 43.1517C33.1801 43.8654 35.1371 44.3029 37.2092 44.3029C46.0961 44.3029 53.3254 37.0736 53.3254 28.1866C53.3254 19.2996 46.0961 12.0703 37.2092 12.0703C35.1371 12.0703 33.1801 12.5078 31.3843 13.2215C37.8308 18.6089 38.3603 25.9533 38.3603 28.1866Z" fill="#9AA1A9"/>
<path d="M18.7906 44.3029C20.8627 44.3029 22.8197 43.8654 24.6155 43.1517C23.2111 41.9775 22.0829 40.6882 21.185 39.3989C20.4252 39.5831 19.6194 39.6982 18.7906 39.6982C12.4362 39.6982 7.27897 34.541 7.27897 28.1866C7.27897 21.8322 12.4362 16.675 18.7906 16.675C19.6194 16.675 20.4252 16.7901 21.185 16.9743C22.0829 15.685 23.2111 14.3957 24.6155 13.2215C22.8197 12.5078 20.8627 12.0703 18.7906 12.0703C9.90362 12.0703 2.67432 19.2996 2.67432 28.1866C2.67432 37.0736 9.90362 44.3029 18.7906 44.3029Z" fill="#9AA1A9"/>
</g>
<defs>
<clipPath id="clip0_592_27364">
<rect width="55.2558" height="55.2558" fill="white" transform="translate(0.37207 0.558594)"/>
</clipPath>
</defs>
</svg>
