<svg width="84" height="84" viewBox="0 0 84 84" fill="none" xmlns="http://www.w3.org/2000/svg">
<g filter="url(#filter0_d_768_42098)">
<circle cx="42" cy="41" r="31.5" fill="white" stroke="#919EAB"/>
<g clip-path="url(#clip0_768_42098)">
<path d="M33.8858 49.1151C32.1729 47.4022 32.1729 44.6174 33.8858 42.9044L37.8928 38.8974L35.9895 36.9942L31.9826 41.0011C29.2178 43.7659 29.2178 48.2537 31.9826 51.0184C34.7473 53.7832 39.2351 53.7832 41.9999 51.0184L46.0068 47.0115L44.1035 45.1082L40.0966 49.1151C38.3836 50.8281 35.5988 50.8281 33.8858 49.1151ZM38.9947 46.0098L47.0086 37.9959L45.0051 35.9924L36.9912 44.0063L38.9947 46.0098ZM41.9999 30.9837L37.993 34.9907L39.8963 36.894L43.9032 32.887C45.6162 31.1741 48.401 31.1741 50.1139 32.887C51.8269 34.6 51.8269 37.3848 50.1139 39.0978L46.107 43.1047L48.0103 45.008L52.0172 41.0011C54.782 38.2363 54.782 33.7485 52.0172 30.9837C49.2525 28.219 44.7647 28.219 41.9999 30.9837Z" fill="#00A94F"/>
</g>
</g>
<defs>
<filter id="filter0_d_768_42098" x="0" y="0" width="84" height="84" filterUnits="userSpaceOnUse" color-interpolation-filters="sRGB">
<feFlood flood-opacity="0" result="BackgroundImageFix"/>
<feColorMatrix in="SourceAlpha" type="matrix" values="0 0 0 0 0 0 0 0 0 0 0 0 0 0 0 0 0 0 127 0" result="hardAlpha"/>
<feOffset dy="1"/>
<feGaussianBlur stdDeviation="5"/>
<feComposite in2="hardAlpha" operator="out"/>
<feColorMatrix type="matrix" values="0 0 0 0 0 0 0 0 0 0.670588 0 0 0 0 0.333333 0 0 0 0.2 0"/>
<feBlend mode="normal" in2="BackgroundImageFix" result="effect1_dropShadow_768_42098"/>
<feBlend mode="normal" in="SourceGraphic" in2="effect1_dropShadow_768_42098" result="shape"/>
</filter>
<clipPath id="clip0_768_42098">
<rect width="34" height="34" fill="white" transform="translate(25 24)"/>
</clipPath>
</defs>
</svg>
