<svg width="50" height="48" viewBox="0 0 50 48" fill="none" xmlns="http://www.w3.org/2000/svg">
<rect x="0.204102" width="49.3858" height="48" rx="10" fill="#E9FEF5"/>
<path d="M41.1136 15.9639C41.1136 14.3286 39.7849 13 38.1497 13H22.1721C20.5368 13 19.2082 14.3286 19.2082 15.9639V28.0237C19.2082 29.659 20.5368 30.9876 22.1721 30.9876H25.17V34.3944C25.17 34.9394 25.8173 35.212 26.192 34.8032L30.0076 31.0217C30.0076 31.0217 30.0076 30.9876 30.0416 30.9876H38.1838C39.819 30.9876 41.1476 29.659 41.1476 28.0237V15.9639H41.1136ZM29.3603 17.1222H30.9274C31.0977 17.1222 31.2681 17.2584 31.2681 17.4628L31.0977 23.8675C31.0977 24.0379 30.9615 24.1401 30.8252 24.1401H29.5306C29.3603 24.1401 29.2581 24.0038 29.2581 23.8675L29.0877 17.4628C29.0537 17.2584 29.19 17.1222 29.3603 17.1222ZM31.2681 26.3885C31.2681 26.661 31.0637 26.8655 30.7911 26.8655H29.5306C29.2581 26.8655 29.0537 26.661 29.0537 26.3885V25.5709C29.0537 25.2983 29.2581 25.0939 29.5306 25.0939H30.7911C31.0637 25.0939 31.2681 25.2983 31.2681 25.5709V26.3885ZM8 16.5771C8 15.8276 8.61321 15.2144 9.3627 15.2144H15.3586C16.1081 15.2144 16.7213 15.8276 16.7213 16.5771C16.7213 17.3266 16.1081 17.9398 15.3586 17.9398H9.3627C8.61321 17.9398 8 17.3266 8 16.5771ZM16.6872 21.9938C16.6872 22.7433 16.074 23.3565 15.3245 23.3565H10.8957C10.1462 23.3565 9.53304 22.7433 9.53304 21.9938C9.53304 21.2443 10.1462 20.6311 10.8957 20.6311H15.3245C16.1081 20.6311 16.6872 21.2443 16.6872 21.9938ZM16.6872 27.4105C16.6872 28.16 16.074 28.7732 15.3245 28.7732H12.6332C11.8837 28.7732 11.2705 28.16 11.2705 27.4105C11.2705 26.661 11.8837 26.0478 12.6332 26.0478H15.3586C16.1081 26.0478 16.6872 26.661 16.6872 27.4105Z" fill="#00AB55"/>
</svg>
