<svg width="16" height="16" viewBox="0 0 16 16" fill="none" xmlns="http://www.w3.org/2000/svg">
<path fill-rule="evenodd" clip-rule="evenodd" d="M11.5 6.3175V2.7025L5.875 0.25L0.25 2.7025V6.385C0.25 9.79 2.65 12.9775 5.875 13.75C6.2875 13.6525 6.685 13.51 7.075 13.3375C7.885 14.4925 9.2275 15.25 10.75 15.25C13.2325 15.25 15.25 13.2325 15.25 10.75C15.25 8.5225 13.63 6.6775 11.5 6.3175ZM6.25 10.75C6.25 11.17 6.31 11.5825 6.4225 11.965C6.2425 12.0475 6.0625 12.13 5.875 12.19C3.4975 11.44 1.75 9.01 1.75 6.385V3.685L5.875 1.885L10 3.685V6.3175C7.87 6.6775 6.25 8.5225 6.25 10.75ZM10.75 13.75C9.0925 13.75 7.75 12.4075 7.75 10.75C7.75 9.0925 9.0925 7.75 10.75 7.75C12.4075 7.75 13.75 9.0925 13.75 10.75C13.75 12.4075 12.4075 13.75 10.75 13.75Z" fill="black"/>
</svg>
