<svg width="60" height="60" viewBox="0 0 60 60" fill="none" xmlns="http://www.w3.org/2000/svg">
<path d="M33.6323 9.48893L30.6581 12.4667L33.6323 15.4445H42.8856V9.48893H33.6323Z" fill="#E7B100"/>
<path d="M25.9511 51.5086L29.0057 48.2L25.9511 44.8913H16.4477V51.5086H25.9511Z" fill="#E7B100"/>
<path d="M29.6666 47.2146C29.1533 47.2146 28.7371 47.6312 28.7371 48.1451C28.7371 48.659 29.1533 49.0757 29.6666 49.0757H39.4369C42.1593 49.0757 44.6337 47.9613 46.427 46.1659C48.2202 44.3705 49.3333 41.8932 49.3333 39.1676C49.3333 36.4419 48.2202 33.9646 46.427 32.1693C44.6337 30.3739 42.1594 29.2595 39.4369 29.2595H19.8964C17.6871 29.2595 15.6779 28.3539 14.2207 26.895C12.7634 25.436 11.859 23.4245 11.859 21.2125C11.859 19.0006 12.7635 16.989 14.2207 15.5301C15.6779 14.0712 17.6871 13.1656 19.8964 13.1656H29.6666C30.1799 13.1656 30.5961 12.7489 30.5961 12.235C30.5961 11.7211 30.1799 11.3044 29.6666 11.3044H19.8964C17.174 11.3044 14.6996 12.4189 12.9063 14.2143C11.1131 16.0096 10 18.4869 10 21.2126C10 23.9382 11.1131 26.4155 12.9063 28.2109C14.6996 30.0062 17.174 31.1207 19.8964 31.1207H39.4369C41.6463 31.1207 43.6555 32.0263 45.1127 33.4852C46.5699 34.9441 47.4744 36.9557 47.4744 39.1676C47.4744 41.3795 46.5698 43.3911 45.1127 44.85C43.6554 46.309 41.6462 47.2146 39.4369 47.2146H29.6666Z" fill="#836400"/>
<path d="M33.3748 8.00001H43.6214C44.1347 8.00001 44.5509 8.41666 44.5509 8.93058V16.1126C44.5509 16.6266 44.1347 17.0432 43.6214 17.0432H33.3748C33.0884 17.0432 32.8324 16.9135 32.6619 16.7097L29.1235 13.0629L29.788 12.4159L29.1213 13.0643C28.7636 12.6956 28.7722 12.1065 29.1404 11.7484C29.1573 11.7319 29.1747 11.7163 29.1925 11.7014L32.7285 8.26536L33.3748 8.93058L32.7274 8.26282C32.908 8.08734 33.1415 7.99998 33.3748 8.00001ZM42.6919 9.86117H33.748L31.099 12.4352L33.7641 15.1821H42.6919V9.86117Z" fill="#836400"/>
<path d="M25.9963 45.4847H17.0523V50.8055H25.9802L28.6453 48.0587L25.9963 45.4847ZM16.1228 43.6235H26.3695V43.6236C26.6027 43.6236 26.8363 43.7108 27.0168 43.8863L26.3695 44.5541L27.0158 43.8888L30.5518 47.3248C30.5696 47.3398 30.587 47.3554 30.6039 47.3719C30.9721 47.73 30.9806 48.3191 30.623 48.6877L29.9563 48.0394L30.6207 48.6864L27.0823 52.3332C26.9118 52.537 26.6558 52.6667 26.3695 52.6667H16.1228C15.6095 52.6667 15.1934 52.25 15.1934 51.7361V44.5541C15.1934 44.0402 15.6095 43.6235 16.1228 43.6235L16.1228 43.6235Z" fill="#836400"/>
<path d="M36.9882 19.4445L38.5419 21L36.9882 22.5556H32.1544V19.4445H36.9882Z" fill="#E7B100"/>
<path d="M41.0006 41.395L39.4049 39.6666L41.0006 37.9383H45.9651V41.395H41.0006Z" fill="#E7B100"/>
<path d="M39.0598 39.1519C39.3279 39.1519 39.5453 39.3695 39.5453 39.638C39.5453 39.9065 39.3279 40.1241 39.0598 40.1241H33.9559C32.5337 40.1241 31.2411 39.5419 30.3044 38.6041C29.3676 37.6662 28.7861 36.3721 28.7861 34.9482C28.7861 33.5244 29.3676 32.2303 30.3044 31.2924C31.2411 30.3545 32.5337 29.7724 33.9559 29.7724H44.1636C45.3177 29.7724 46.3673 29.2993 47.1285 28.5372C47.8898 27.775 48.3623 26.7242 48.3623 25.5687C48.3623 24.4132 47.8898 23.3624 47.1285 22.6003C46.3673 21.8382 45.3177 21.3651 44.1636 21.3651H39.0598C38.7916 21.3651 38.5742 21.1474 38.5742 20.879C38.5742 20.6105 38.7916 20.3929 39.0598 20.3929H44.1636C45.5858 20.3929 46.8784 20.975 47.8151 21.9129C48.7519 22.8508 49.3334 24.1449 49.3334 25.5687C49.3334 26.9926 48.7519 28.2867 47.8151 29.2246C46.8784 30.1624 45.5858 30.7446 44.1636 30.7446H33.9559C32.8017 30.7446 31.7522 31.2177 30.9909 31.9798C30.2297 32.7419 29.7572 33.7928 29.7572 34.9482C29.7572 36.1037 30.2297 37.1546 30.9909 37.9167C31.7522 38.6788 32.8018 39.1519 33.9559 39.1519H39.0598Z" fill="#836400"/>
<path d="M37.1226 18.6667H31.7699C31.5017 18.6667 31.2843 18.8843 31.2843 19.1528V22.9046C31.2843 23.1731 31.5017 23.3907 31.7699 23.3907H37.1226C37.2722 23.3907 37.4059 23.323 37.495 23.2165L39.3434 21.3115L38.9963 20.9735L39.3445 21.3122C39.5314 21.1196 39.5269 20.8118 39.3346 20.6248C39.3257 20.6162 39.3167 20.608 39.3074 20.6002L37.4602 18.8053L37.1226 19.1528L37.4608 18.804C37.3664 18.7123 37.2444 18.6667 37.1226 18.6667ZM32.2554 19.6389H36.9276L38.3114 20.9836L36.9192 22.4185H32.2554V19.6389Z" fill="#836400"/>
<path d="M40.977 38.2482H45.6493V41.0278H40.9855L39.5932 39.5929L40.977 38.2482ZM46.1348 37.276H40.7821V37.276C40.6602 37.276 40.5382 37.3216 40.4439 37.4132L40.7821 37.7621L40.4445 37.4146L38.5973 39.2095C38.588 39.2173 38.5789 39.2255 38.5701 39.2341C38.3777 39.4211 38.3733 39.7289 38.5601 39.9215L38.9084 39.5828L38.5613 39.9207L40.4097 41.8258C40.4988 41.9323 40.6325 42 40.7821 42H46.1348C46.403 42 46.6204 41.7823 46.6204 41.5139V37.7621C46.6204 37.4936 46.403 37.276 46.1348 37.276L46.1348 37.276Z" fill="#836400"/>
</svg>
