<svg width="20" height="20" viewBox="0 0 20 20" fill="none" xmlns="http://www.w3.org/2000/svg">
<path fill-rule="evenodd" clip-rule="evenodd" d="M5.83329 1.66602C3.53211 1.66602 1.66663 3.5315 1.66663 5.83268V14.166C1.66663 16.4672 3.53211 18.3327 5.83329 18.3327H14.1666C16.4678 18.3327 18.3333 16.4672 18.3333 14.166V5.83268C18.3333 3.5315 16.4678 1.66602 14.1666 1.66602H5.83329ZM6.24996 2.91602C4.40901 2.91602 2.91663 4.4084 2.91663 6.24935V13.7493C2.91663 15.5903 4.40901 17.0827 6.24996 17.0827H13.75C15.5909 17.0827 17.0833 15.5903 17.0833 13.7493V6.24935C17.0833 4.4084 15.5909 2.91602 13.75 2.91602H6.24996Z" fill="#637381"/>
</svg>
