<svg width="83" height="90" viewBox="0 0 83 90" fill="none" xmlns="http://www.w3.org/2000/svg">
<path d="M66.2832 12.0064H0.761841V28.9953H66.2832V12.0064Z" fill="#E7B100"/>
<path d="M31.2369 33.6285H0.761841V55.2506H31.2369V33.6285Z" fill="#E7B100"/>
<path d="M6.09506 41.35C7.35737 41.35 8.38068 40.313 8.38068 39.0337C8.38068 37.7544 7.35737 36.7173 6.09506 36.7173C4.83275 36.7173 3.80945 37.7544 3.80945 39.0337C3.80945 40.313 4.83275 41.35 6.09506 41.35Z" fill="#E7B100"/>
<path d="M29.7132 55.2504H14.4756L22.0943 42.895L29.7132 55.2504Z" fill="#E7B100"/>
<path d="M22.0943 42.895L14.4756 55.2504H15.9993L22.8562 44.1303L22.0943 42.895Z" fill="#FCD969"/>
<path d="M15.916 52.9121L14.4755 55.2495H6.85681L12.2107 47.5283L15.916 52.9121Z" fill="#656D78"/>
<path d="M15.916 52.9121L14.4755 55.2495H6.85681L12.2107 47.5283L15.916 52.9121Z" fill="#E7B100"/>
<path d="M12.2107 47.5283L6.85681 55.2495H8.38055L12.9697 48.6308L12.2107 47.5283Z" fill="#FCD969"/>
<path d="M29.7141 56.0227C29.4603 56.0227 29.2119 55.8945 29.0675 55.6591L22.0944 44.3518L15.1213 55.6591C14.8982 56.0211 14.4286 56.1312 14.0716 55.9049C13.7151 55.6786 13.6066 55.202 13.8298 54.8417L21.4485 42.4863C21.7267 42.0337 22.4619 42.0337 22.7401 42.4863L30.3588 54.8417C30.582 55.202 30.4735 55.6786 30.117 55.9049C29.9915 55.985 29.8516 56.0227 29.7141 56.0227Z" fill="#836400"/>
<path d="M6.85618 56.0227C6.7051 56.0227 6.55173 55.9775 6.41875 55.8823C6.07507 55.6365 5.99162 55.1553 6.23357 54.8071L11.5876 47.085C11.7305 46.8784 11.9633 46.7561 12.211 46.7561C12.4743 46.7276 12.6938 46.8784 12.8359 47.0865L16.541 52.4708C16.7815 52.8207 16.6973 53.3021 16.352 53.5462C16.0053 53.7891 15.5313 53.7045 15.2911 53.3548L12.2085 48.8752L7.48031 55.694C7.33151 55.9082 7.09566 56.0227 6.85618 56.0227Z" fill="#836400"/>
<path d="M66.2832 29.7675H0.761871C0.340832 29.7675 0 29.422 0 28.9952V12.0064C0 11.5796 0.340832 11.2342 0.761871 11.2342H66.2832C66.7042 11.2342 67.0451 11.5796 67.0451 12.0064V28.9952C67.0451 29.422 66.7042 29.7675 66.2832 29.7675ZM1.52374 28.223H65.5213V12.7788H1.52374V28.223Z" fill="#836400"/>
<path d="M31.2369 56.0227H0.761871C0.340832 56.0227 0 55.6772 0 55.2504V33.6285C0 33.2018 0.340832 32.8563 0.761871 32.8563H31.2369C31.658 32.8563 31.9988 33.2018 31.9988 33.6285V55.2506C31.9988 55.6772 31.658 56.0227 31.2369 56.0227ZM1.52374 54.4782H30.475V34.4007H1.52374V54.4782Z" fill="#836400"/>
<path d="M6.09509 42.1221C4.41437 42.1221 3.04761 40.7362 3.04761 39.0337C3.04761 37.3311 4.41437 35.9452 6.09509 35.9452C7.77582 35.9452 9.14258 37.3311 9.14258 39.0337C9.14258 40.7362 7.77582 42.1221 6.09509 42.1221ZM6.09509 37.4894C5.25511 37.4894 4.57135 38.1816 4.57135 39.0337C4.57135 39.8857 5.25511 40.5779 6.09509 40.5779C6.93508 40.5779 7.61884 39.8857 7.61884 39.0337C7.61884 38.1816 6.93508 37.4894 6.09509 37.4894Z" fill="#836400"/>
<path d="M35.8401 61.1241H66.3152V82.7462H35.8401V61.1241Z" fill="#E7B100"/>
<path d="M60.9821 68.8457C59.7198 68.8457 58.6965 67.8086 58.6965 66.5293C58.6965 65.25 59.7198 64.213 60.9821 64.213C62.2444 64.213 63.2677 65.25 63.2677 66.5293C63.2677 67.8086 62.2444 68.8457 60.9821 68.8457Z" fill="#E7B100"/>
<path d="M37.3638 82.746H52.6014L44.9827 70.3907L37.3638 82.746Z" fill="#E7B100"/>
<path d="M44.9827 70.3907L52.6014 82.746H51.0777L44.2209 71.6259L44.9827 70.3907Z" fill="#FCD969"/>
<path d="M51.161 80.4077L52.6015 82.7451H60.2202L54.8663 75.0239L51.161 80.4077Z" fill="#656D78"/>
<path d="M51.161 80.4077L52.6015 82.7451H60.2202L54.8663 75.0239L51.161 80.4077Z" fill="#E7B100"/>
<path d="M54.8663 75.0239L60.2202 82.7451H58.6965L54.1073 76.1264L54.8663 75.0239Z" fill="#FCD969"/>
<path d="M37.3631 83.5183C37.6169 83.5183 37.8653 83.3901 38.0097 83.1547L44.9828 71.8475L51.9558 83.1547C52.1789 83.5168 52.6485 83.6268 53.0056 83.4005C53.362 83.1742 53.4706 82.6976 53.2473 82.3373L45.6286 69.9819C45.3504 69.5293 44.6153 69.5293 44.3371 69.9819L36.7184 82.3373C36.4951 82.6976 36.6037 83.1742 36.9601 83.4005C37.0857 83.4807 37.2255 83.5183 37.3631 83.5183Z" fill="#836400"/>
<path d="M60.221 83.5183C60.372 83.5183 60.5254 83.4731 60.6584 83.3779C61.0021 83.1321 61.0855 82.6509 60.8436 82.3028L55.4895 74.5806C55.3466 74.374 55.1138 74.2518 54.8662 74.2518C54.6029 74.2232 54.3834 74.374 54.2413 74.5822L50.5361 79.9664C50.2957 80.3163 50.3799 80.7977 50.7251 81.0418C51.0718 81.2847 51.5458 81.2001 51.7861 80.8504L54.8686 76.3709L59.5968 83.1897C59.7456 83.4038 59.9815 83.5183 60.221 83.5183Z" fill="#836400"/>
<path d="M35.8401 83.5183H66.3152C66.7362 83.5183 67.077 83.1728 67.077 82.7461V61.1242C67.077 60.6974 66.7362 60.3519 66.3152 60.3519H35.8401C35.4191 60.3519 35.0782 60.6974 35.0782 61.1242V82.7463C35.0782 83.1728 35.4191 83.5183 35.8401 83.5183ZM65.5533 81.9739H36.602V61.8964H65.5533V81.9739Z" fill="#836400"/>
<path d="M60.9819 69.6178C62.6627 69.6178 64.0294 68.2319 64.0294 66.5293C64.0294 64.8267 62.6627 63.4408 60.9819 63.4408C59.3012 63.4408 57.9344 64.8267 57.9344 66.5293C57.9344 68.2319 59.3012 69.6178 60.9819 69.6178ZM60.9819 64.9851C61.8219 64.9851 62.5057 65.6773 62.5057 66.5293C62.5057 67.3814 61.8219 68.0735 60.9819 68.0735C60.142 68.0735 59.4582 67.3814 59.4582 66.5293C59.4582 65.6773 60.142 64.9851 60.9819 64.9851Z" fill="#836400"/>
<path d="M66.2832 35.945H35.8081C35.3871 35.945 35.0463 35.5995 35.0463 35.1728C35.0463 34.7461 35.3871 34.4007 35.8081 34.4007H66.2832C66.7042 34.4007 67.045 34.7461 67.045 35.1728C67.045 35.5995 66.7042 35.945 66.2832 35.945Z" fill="#836400"/>
<path d="M66.2832 40.5782H35.8081C35.3871 40.5782 35.0463 40.2328 35.0463 39.8061C35.0463 39.3794 35.3871 39.034 35.8081 39.034H66.2832C66.7042 39.034 67.045 39.3794 67.045 39.8061C67.045 40.2328 66.7042 40.5782 66.2832 40.5782Z" fill="#E7B100"/>
<path d="M66.2832 45.2115H35.8081C35.3871 45.2115 35.0463 44.8661 35.0463 44.4394C35.0463 44.0127 35.3871 43.6673 35.8081 43.6673H66.2832C66.7042 43.6673 67.045 44.0127 67.045 44.4394C67.045 44.8661 66.7042 45.2115 66.2832 45.2115Z" fill="#E7B100"/>
<path d="M66.2832 49.8448H35.8081C35.3871 49.8448 35.0463 49.4994 35.0463 49.0727C35.0463 48.646 35.3871 48.3006 35.8081 48.3006H66.2832C66.7042 48.3006 67.045 48.646 67.045 49.0727C67.045 49.4994 66.7042 49.8448 66.2832 49.8448Z" fill="#E7B100"/>
<path d="M52.5694 54.478H35.808C35.387 54.478 35.0461 54.1326 35.0461 53.7059C35.0461 53.2792 35.387 52.9338 35.808 52.9338H52.5694C52.9904 52.9338 53.3312 53.2792 53.3312 53.7059C53.3312 54.1326 52.9904 54.478 52.5694 54.478Z" fill="#E7B100"/>
<path d="M31.2369 63.7448H0.761871C0.340832 63.7448 0 63.3994 0 62.9727C0 62.546 0.340832 62.2006 0.761871 62.2006H31.2369C31.658 62.2006 31.9988 62.546 31.9988 62.9727C31.9988 63.3994 31.658 63.7448 31.2369 63.7448Z" fill="#836400"/>
<path d="M31.2369 68.378H0.761871C0.340832 68.378 0 68.0326 0 67.6059C0 67.1792 0.340832 66.8338 0.761871 66.8338H31.2369C31.658 66.8338 31.9988 67.1792 31.9988 67.6059C31.9988 68.0326 31.658 68.378 31.2369 68.378Z" fill="#E7B100"/>
<path d="M31.2369 73.0113H0.761871C0.340832 73.0113 0 72.6659 0 72.2392C0 71.8125 0.340832 71.4671 0.761871 71.4671H31.2369C31.658 71.4671 31.9988 71.8125 31.9988 72.2392C31.9988 72.6659 31.658 73.0113 31.2369 73.0113Z" fill="#E7B100"/>
<path d="M31.2369 77.6446H0.761871C0.340832 77.6446 0 77.2992 0 76.8725C0 76.4458 0.340832 76.1003 0.761871 76.1003H31.2369C31.658 76.1003 31.9988 76.4458 31.9988 76.8725C31.9988 77.2992 31.658 77.6446 31.2369 77.6446Z" fill="#E7B100"/>
<path d="M17.523 82.2778H0.761871C0.340832 82.2778 0 81.9324 0 81.5057C0 81.079 0.340832 80.7336 0.761871 80.7336H17.5232C17.9443 80.7336 18.2851 81.079 18.2851 81.5057C18.2851 81.9324 17.9443 82.2778 17.523 82.2778Z" fill="#E7B100"/>
<path d="M58.6644 18.9561H8.38065C7.95961 18.9561 7.61877 18.6107 7.61877 18.184C7.61877 17.7573 7.95961 17.4119 8.38065 17.4119H58.6645C59.0856 17.4119 59.4264 17.7573 59.4264 18.184C59.4264 18.6107 59.0854 18.9561 58.6644 18.9561Z" fill="#836400"/>
<path d="M51.0456 23.5894H17.5231C17.1021 23.5894 16.7612 23.244 16.7612 22.8173C16.7612 22.3906 17.1021 22.0452 17.5231 22.0452H51.0456C51.4667 22.0452 51.8075 22.3906 51.8075 22.8173C51.8075 23.244 51.4667 23.5894 51.0456 23.5894Z" fill="#836400"/>
<path d="M63.2358 7.69932H3.80948C3.38844 7.69932 3.04761 7.45363 3.04761 7.15012C3.04761 6.84661 3.38844 6.60092 3.80948 6.60092H63.2358C63.6569 6.60092 63.9977 6.84661 63.9977 7.15012C63.9977 7.45363 63.6569 7.69932 63.2358 7.69932Z" fill="#836400"/>
<path d="M63.2358 8.14495C63.0409 8.14495 62.846 8.06945 62.6973 7.91866L61.1735 6.37442C60.8759 6.07283 60.8759 5.58415 61.1735 5.28276C61.4711 4.98117 61.9533 4.98117 62.2507 5.28276L63.7744 6.82699C64.072 7.12858 64.072 7.61707 63.7744 7.91866C63.6256 8.06945 63.4307 8.14495 63.2358 8.14495Z" fill="#836400"/>
<path d="M61.7121 9.68938C61.5172 9.68938 61.3223 9.61389 61.1735 9.46309C60.8759 9.1615 60.8759 8.67282 61.1735 8.37143L62.6973 6.82719C62.9948 6.5256 63.477 6.5256 63.7744 6.82719C64.072 7.12878 64.072 7.61727 63.7744 7.91885L62.2507 9.46309C62.1017 9.61389 61.907 9.68938 61.7121 9.68938Z" fill="#836400"/>
<path d="M3.80963 8.14495C3.61473 8.14495 3.41983 8.06945 3.27104 7.91866C2.97346 7.61707 2.97346 7.12839 3.27104 6.82699L4.79478 5.28276C5.09237 4.98117 5.57437 4.98117 5.87196 5.28276C6.16954 5.58434 6.16954 6.07283 5.87196 6.37442L4.34821 7.91866C4.19942 8.06945 4.00452 8.14495 3.80963 8.14495Z" fill="#836400"/>
<path d="M5.33313 9.68938C5.13823 9.68938 4.94333 9.61389 4.79454 9.46309L3.2708 7.91885C2.97321 7.61727 2.97321 7.12858 3.2708 6.82719C3.56838 6.5256 4.05039 6.5256 4.34797 6.82719L5.87171 8.37143C6.1693 8.67302 6.1693 9.1615 5.87171 9.46309C5.72292 9.61389 5.52802 9.68938 5.33313 9.68938Z" fill="#836400"/>
<path d="M70.8544 51.3893C70.4334 51.3893 70.0925 51.0439 70.0925 50.6171V38.2617C70.0925 37.835 70.4334 37.4895 70.8544 37.4895C71.2754 37.4895 71.6163 37.835 71.6163 38.2617V50.6171C71.6163 51.0439 71.2754 51.3893 70.8544 51.3893Z" fill="#836400"/>
<path d="M70.8543 51.3889C70.6594 51.3889 70.4645 51.3134 70.3157 51.1626C70.0181 50.8611 70.0181 50.3724 70.3157 50.071L71.8395 48.5267C72.137 48.2252 72.6192 48.2252 72.9166 48.5267C73.2142 48.8283 73.2142 49.317 72.9166 49.6184L71.3929 51.1626C71.2441 51.3136 71.0492 51.3889 70.8543 51.3889Z" fill="#836400"/>
<path d="M70.8545 51.3889C70.6596 51.3889 70.4647 51.3134 70.3159 51.1626L68.7922 49.6184C68.4946 49.3168 68.4946 48.8281 68.7922 48.5267C69.0897 48.2252 69.5719 48.2252 69.8693 48.5267L71.3931 50.071C71.6907 50.3726 71.6907 50.8613 71.3931 51.1626C71.2443 51.3136 71.0494 51.3889 70.8545 51.3889Z" fill="#836400"/>
<path d="M72.3781 40.578C72.1832 40.578 71.9883 40.5025 71.8395 40.3517L70.3157 38.8074C70.0181 38.5059 70.0181 38.0172 70.3157 37.7158C70.6133 37.4142 71.0955 37.4142 71.3929 37.7158L72.9166 39.26C73.2142 39.5616 73.2142 40.0503 72.9166 40.3517C72.7678 40.5025 72.5729 40.578 72.3781 40.578Z" fill="#836400"/>
<path d="M69.3307 40.5782C69.1358 40.5782 68.941 40.5027 68.7922 40.3519C68.4946 40.0503 68.4946 39.5616 68.7922 39.2602L70.3159 37.716C70.6135 37.4144 71.0957 37.4144 71.3931 37.716C71.6907 38.0176 71.6907 38.5063 71.3931 38.8076L69.8693 40.3519C69.7205 40.5027 69.5256 40.5782 69.3307 40.5782Z" fill="#836400"/>
<path d="M72.3782 35.945H69.3307C68.9097 35.945 68.5688 35.5995 68.5688 35.1728C68.5688 34.7461 68.9097 34.4007 69.3307 34.4007H72.3782C72.7992 34.4007 73.1401 34.7461 73.1401 35.1728C73.1401 35.5995 72.7992 35.945 72.3782 35.945Z" fill="#836400"/>
<path d="M72.3782 54.478H69.3307C68.9097 54.478 68.5688 54.1326 68.5688 53.7059C68.5688 53.2792 68.9097 52.9338 69.3307 52.9338H72.3782C72.7992 52.9338 73.1401 53.2792 73.1401 53.7059C73.1401 54.1326 72.7992 54.478 72.3782 54.478Z" fill="#836400"/>
<path d="M63.2358 88.4556H38.8557C38.4347 88.4556 38.0939 88.1102 38.0939 87.6835C38.0939 87.2568 38.4347 86.9114 38.8557 86.9114H63.2358C63.6569 86.9114 63.9977 87.2568 63.9977 87.6835C63.9977 88.1102 63.6569 88.4556 63.2358 88.4556Z" fill="#836400"/>
<path d="M40.3795 90C40.1846 90 39.9897 89.9245 39.8409 89.7737L38.3172 88.2295C38.0196 87.9279 38.0196 87.4392 38.3172 87.1378C38.6148 86.8362 39.097 86.8362 39.3944 87.1378L40.9181 88.682C41.2157 88.9836 41.2157 89.4723 40.9181 89.7737C40.7693 89.9245 40.5744 90 40.3795 90Z" fill="#836400"/>
<path d="M38.8559 88.4554C38.661 88.4554 38.4661 88.3799 38.3173 88.2291C38.0197 87.9275 38.0197 87.4388 38.3173 87.1374L39.841 85.5932C40.1386 85.2916 40.6208 85.2916 40.9182 85.5932C41.2158 85.8948 41.2158 86.3835 40.9182 86.6849L39.3945 88.2291C39.2457 88.3801 39.0508 88.4554 38.8559 88.4554Z" fill="#836400"/>
<path d="M61.7121 90C61.5172 90 61.3223 89.9245 61.1735 89.7737C60.8759 89.4721 60.8759 88.9834 61.1735 88.682L62.6973 87.1378C62.9948 86.8362 63.477 86.8362 63.7744 87.1378C64.072 87.4394 64.072 87.9281 63.7744 88.2295L62.2507 89.7737C62.1017 89.9245 61.907 90 61.7121 90Z" fill="#836400"/>
<path d="M63.2358 88.4554C63.0409 88.4554 62.846 88.3799 62.6973 88.2291L61.1735 86.6849C60.8759 86.3833 60.8759 85.8946 61.1735 85.5932C61.4711 85.2916 61.9533 85.2916 62.2507 85.5932L63.7744 87.1374C64.072 87.439 64.072 87.9277 63.7744 88.2291C63.6256 88.3801 63.4307 88.4554 63.2358 88.4554Z" fill="#836400"/>
<path d="M66.2831 89.9998C65.8621 89.9998 65.5212 89.6544 65.5212 89.2277V86.1392C65.5212 85.7125 65.8621 85.3671 66.2831 85.3671C66.7041 85.3671 67.045 85.7125 67.045 86.1392V89.2277C67.045 89.6542 66.7041 89.9998 66.2831 89.9998Z" fill="#836400"/>
<path d="M35.8081 90C35.3871 90 35.0463 89.6546 35.0463 89.2279V86.1394C35.0463 85.7127 35.3871 85.3673 35.8081 85.3673C36.2292 85.3673 36.57 85.7127 36.57 86.1394V89.2279C36.57 89.6544 36.2292 90 35.8081 90Z" fill="#836400"/>
<path d="M28.1896 88.4556H3.80948C3.38844 88.4556 3.04761 88.1102 3.04761 87.6835C3.04761 87.2568 3.38844 86.9114 3.80948 86.9114H28.1896C28.6106 86.9114 28.9514 87.2568 28.9514 87.6835C28.9514 88.1102 28.6106 88.4556 28.1896 88.4556Z" fill="#836400"/>
<path d="M5.33313 90C5.13823 90 4.94333 89.9245 4.79454 89.7737L3.2708 88.2295C2.97321 87.9279 2.97321 87.4392 3.2708 87.1378C3.56838 86.8362 4.05039 86.8362 4.34797 87.1378L5.87171 88.682C6.1693 88.9836 6.1693 89.4723 5.87171 89.7737C5.72292 89.9245 5.52802 90 5.33313 90Z" fill="#836400"/>
<path d="M3.80963 88.4554C3.61473 88.4554 3.41983 88.3799 3.27104 88.2291C2.97346 87.9275 2.97346 87.4388 3.27104 87.1374L4.79478 85.5932C5.09237 85.2916 5.57437 85.2916 5.87196 85.5932C6.16954 85.8948 6.16954 86.3835 5.87196 86.6849L4.34821 88.2291C4.19942 88.3801 4.00452 88.4554 3.80963 88.4554Z" fill="#836400"/>
<path d="M26.6657 90C26.4708 90 26.2759 89.9245 26.1271 89.7737C25.8295 89.4721 25.8295 88.9834 26.1271 88.682L27.6509 87.1378C27.9484 86.8362 28.4305 86.8362 28.728 87.1378C29.0256 87.4394 29.0256 87.9281 28.728 88.2295L27.2043 89.7737C27.0555 89.9245 26.8606 90 26.6657 90Z" fill="#836400"/>
<path d="M28.1894 88.4554C27.9946 88.4554 27.7997 88.3799 27.6509 88.2291L26.1271 86.6849C25.8295 86.3833 25.8295 85.8946 26.1271 85.5932C26.4247 85.2916 26.9067 85.2916 27.2043 85.5932L28.728 87.1374C29.0256 87.439 29.0256 87.9277 28.728 88.2291C28.5792 88.3801 28.3843 88.4554 28.1894 88.4554Z" fill="#836400"/>
<path d="M31.237 89.9998C30.8159 89.9998 30.4751 89.6544 30.4751 89.2277V86.1392C30.4751 85.7125 30.8159 85.3671 31.237 85.3671C31.658 85.3671 31.9988 85.7125 31.9988 86.1392V89.2277C31.9988 89.6542 31.658 89.9998 31.237 89.9998Z" fill="#836400"/>
<path d="M0.761871 90C0.340832 90 0 89.6546 0 89.2279V86.1394C0 85.7127 0.340832 85.3673 0.761871 85.3673C1.18291 85.3673 1.52374 85.7127 1.52374 86.1394V89.2279C1.52374 89.6544 1.18291 90 0.761871 90Z" fill="#836400"/>
<path d="M0.761871 9.68924C0.340832 9.68924 0 9.34382 0 8.91712V5.82864C0 5.40194 0.340832 5.05652 0.761871 5.05652C1.18291 5.05652 1.52374 5.40194 1.52374 5.82864V8.91712C1.52374 9.34382 1.18291 9.68924 0.761871 9.68924Z" fill="#836400"/>
<path d="M66.2831 9.68922C65.8621 9.68922 65.5212 9.3438 65.5212 8.9171V5.82862C65.5212 5.40192 65.8621 5.0565 66.2831 5.0565C66.7041 5.0565 67.045 5.40192 67.045 5.82862V8.9171C67.045 9.3438 66.7041 9.68922 66.2831 9.68922Z" fill="#836400"/>
<path d="M82.7542 5.7925C82.7542 8.65366 80.4661 10.9719 77.6433 10.9719C74.8213 10.9719 72.5341 8.65366 72.5341 5.7925C72.5341 2.9322 74.8213 0.613937 77.6433 0.613937C80.4661 0.613937 82.7542 2.9322 82.7542 5.7925Z" fill="#E7B100"/>
<path d="M77.4641 11.2222C74.4117 11.2222 71.9282 8.70502 71.9282 5.61116C71.9282 2.51729 74.4117 0 77.4641 0C80.5166 0 83.0001 2.51718 83.0001 5.61105C83.0001 8.70491 80.5166 11.2222 77.4641 11.2222ZM77.4641 0.863346C74.8816 0.863346 72.7799 2.99359 72.7799 5.61116C72.7799 8.22872 74.8816 10.359 77.4641 10.359C80.0466 10.359 82.1484 8.22872 82.1484 5.61116C82.1484 2.99359 80.0466 0.863346 77.4641 0.863346Z" fill="#836400"/>
<path d="M76.4382 7.77566C76.3293 7.77566 76.2204 7.73347 76.1372 7.64918L74.4338 5.92291C74.2675 5.75434 74.2675 5.4812 74.4338 5.31274C74.6002 5.14417 74.8697 5.14417 75.0359 5.31274L76.7393 7.03901C76.9056 7.20758 76.9056 7.48061 76.7393 7.64918C76.6561 7.73347 76.5473 7.77566 76.4382 7.77566Z" fill="#836400"/>
<path d="M76.4381 7.77543C76.3292 7.77543 76.2202 7.73324 76.1371 7.64895C75.9707 7.48038 75.9707 7.20724 76.1371 7.03878L79.5438 3.58624C79.7101 3.41767 79.9796 3.41767 80.1459 3.58624C80.3122 3.7548 80.3122 4.02784 80.1459 4.19641L76.7392 7.64895C76.656 7.73324 76.5472 7.77543 76.4381 7.77543Z" fill="#836400"/>
</svg>
