<svg width="468" height="174" viewBox="0 0 468 174" fill="none" xmlns="http://www.w3.org/2000/svg">
<rect x="1" y="1" width="466" height="172" rx="12" fill="#919EAB" fill-opacity="0.08"/>
<path d="M250.5 40.9995C250.5 40.8161 250.4 40.6328 250.35 40.4495C250.273 40.126 250.173 39.8086 250.05 39.4995C249.967 39.2995 249.85 39.0995 249.75 38.8828C249.65 38.6661 249.5 38.3828 249.35 38.1495C249.2 37.9161 249 37.7995 249 37.6661C249 37.5328 248.667 37.2495 248.483 37.0495C248.3 36.8495 248.133 36.7161 247.95 36.5495L247.333 35.9995L246.733 35.5995C246.498 35.4553 246.253 35.3273 246 35.2161L245.35 34.9161C245.078 34.8153 244.799 34.7318 244.517 34.6661C244.293 34.6003 244.064 34.5501 243.833 34.5161L243.45 34.3328C242.77 32.3679 241.494 30.6638 239.8 29.4577C238.107 28.2517 236.079 27.6035 234 27.6035C231.921 27.6035 229.893 28.2517 228.199 29.4577C226.506 30.6638 225.23 32.3679 224.55 34.3328L224.25 34.4161C224.019 34.4501 223.791 34.5003 223.567 34.5661C223.284 34.6318 223.005 34.7153 222.733 34.8161L222.083 35.1161C221.83 35.2273 221.585 35.3553 221.35 35.4995L220.75 35.9995L220.133 36.5161C219.95 36.6828 219.767 36.8328 219.6 37.0161C219.433 37.1995 219.25 37.4328 219.083 37.6328C218.917 37.8328 218.783 38.0161 218.65 38.2328C218.517 38.4495 218.383 38.7161 218.25 38.9661C218.117 39.2161 218.033 39.3828 217.95 39.5828C217.827 39.8919 217.727 40.2094 217.65 40.5328C217.65 40.7161 217.533 40.8995 217.5 41.0828C217.396 41.6044 217.34 42.1344 217.333 42.6661C217.341 43.175 217.391 43.6823 217.483 44.1828C217.483 44.3495 217.567 44.4995 217.6 44.6661C217.682 44.9936 217.782 45.3163 217.9 45.6328L218.1 46.1161C218.247 46.4375 218.414 46.7493 218.6 47.0495L218.833 47.4161C218.857 47.4629 218.885 47.5075 218.917 47.5495L219 47.6661C219.776 48.7011 220.783 49.5411 221.94 50.1197C223.097 50.6983 224.373 50.9995 225.667 50.9995H230.667V48.7161C230.16 49.0099 229.585 49.1651 229 49.1661C228.097 49.1577 227.234 48.7922 226.6 48.1495C226.295 47.8345 226.056 47.4625 225.895 47.0549C225.735 46.6472 225.656 46.2119 225.664 45.7739C225.671 45.3358 225.766 44.9036 225.94 44.5019C226.115 44.1002 226.368 43.7369 226.683 43.4328L231.683 38.5995C232.305 37.9999 233.136 37.6653 234 37.6661C234.883 37.6699 235.728 38.0235 236.35 38.6495L241.35 43.6495C241.971 44.274 242.319 45.1189 242.319 45.9995C242.319 46.8801 241.971 47.7249 241.35 48.3495C240.728 48.9755 239.883 49.3291 239 49.3328C238.414 49.3383 237.837 49.1827 237.333 48.8828V50.9995H242.333C243.627 50.9995 244.903 50.6983 246.06 50.1197C247.217 49.5411 248.224 48.7011 249 47.6661L249.083 47.5828C249.115 47.5408 249.143 47.4962 249.167 47.4495L249.4 47.0828C249.586 46.7826 249.753 46.4709 249.9 46.1495L250.1 45.6661C250.217 45.3496 250.318 45.0269 250.4 44.6995C250.4 44.5328 250.483 44.3828 250.517 44.2161C250.61 43.7047 250.661 43.1861 250.667 42.6661C250.665 42.1065 250.609 41.5484 250.5 40.9995Z" fill="#919EAB"/>
<path d="M235.183 39.8161C234.872 39.5108 234.453 39.3397 234.017 39.3397C233.58 39.3397 233.161 39.5108 232.85 39.8161L227.85 44.6495C227.673 44.7954 227.528 44.9763 227.424 45.1807C227.321 45.3852 227.26 45.6088 227.247 45.8377C227.233 46.0666 227.267 46.2958 227.347 46.511C227.426 46.7261 227.549 46.9226 227.707 47.0882C227.866 47.2537 228.057 47.3847 228.269 47.4731C228.48 47.5614 228.708 47.6051 228.937 47.6015C229.166 47.5978 229.392 47.5469 229.601 47.452C229.81 47.357 229.997 47.22 230.15 47.0495L232.333 44.9328V54.3328C232.333 54.7748 232.509 55.1988 232.821 55.5113C233.134 55.8239 233.558 55.9995 234 55.9995C234.442 55.9995 234.866 55.8239 235.178 55.5113C235.491 55.1988 235.667 54.7748 235.667 54.3328V45.0161L237.817 47.1828C237.972 47.339 238.156 47.463 238.359 47.5476C238.562 47.6322 238.78 47.6758 239 47.6758C239.22 47.6758 239.438 47.6322 239.641 47.5476C239.844 47.463 240.028 47.339 240.183 47.1828C240.339 47.0279 240.463 46.8435 240.548 46.6404C240.633 46.4373 240.676 46.2195 240.676 45.9995C240.676 45.7795 240.633 45.5616 240.548 45.3585C240.463 45.1554 240.339 44.9711 240.183 44.8161L235.183 39.8161Z" fill="#919EAB"/>
<path d="M129.646 81V77.36L129.884 78.004L125.726 71.2H126.832L130.486 77.178H129.898L133.552 71.2H134.588L130.43 78.004L130.668 77.36V81H129.646ZM138.147 81.07C137.437 81.07 136.798 80.9113 136.229 80.594C135.669 80.2673 135.225 79.824 134.899 79.264C134.572 78.6947 134.409 78.046 134.409 77.318C134.409 76.5807 134.572 75.932 134.899 75.372C135.225 74.812 135.669 74.3733 136.229 74.056C136.789 73.7387 137.428 73.58 138.147 73.58C138.875 73.58 139.519 73.7387 140.079 74.056C140.648 74.3733 141.091 74.812 141.409 75.372C141.735 75.932 141.899 76.5807 141.899 77.318C141.899 78.046 141.735 78.6947 141.409 79.264C141.091 79.824 140.648 80.2673 140.079 80.594C139.509 80.9113 138.865 81.07 138.147 81.07ZM138.147 80.188C138.679 80.188 139.15 80.0713 139.561 79.838C139.971 79.5953 140.293 79.2593 140.527 78.83C140.769 78.3913 140.891 77.8873 140.891 77.318C140.891 76.7393 140.769 76.2353 140.527 75.806C140.293 75.3767 139.971 75.0453 139.561 74.812C139.15 74.5693 138.683 74.448 138.161 74.448C137.638 74.448 137.171 74.5693 136.761 74.812C136.35 75.0453 136.023 75.3767 135.781 75.806C135.538 76.2353 135.417 76.7393 135.417 77.318C135.417 77.8873 135.538 78.3913 135.781 78.83C136.023 79.2593 136.35 79.5953 136.761 79.838C137.171 80.0713 137.633 80.188 138.147 80.188ZM146.966 81.07C146.341 81.07 145.795 80.9533 145.328 80.72C144.861 80.4867 144.497 80.1367 144.236 79.67C143.984 79.2033 143.858 78.62 143.858 77.92V73.65H144.852V77.808C144.852 78.592 145.043 79.1847 145.426 79.586C145.818 79.978 146.364 80.174 147.064 80.174C147.577 80.174 148.021 80.0713 148.394 79.866C148.777 79.6513 149.066 79.3433 149.262 78.942C149.467 78.5407 149.57 78.06 149.57 77.5V73.65H150.564V81H149.612V78.984L149.766 79.348C149.533 79.8893 149.169 80.314 148.674 80.622C148.189 80.9207 147.619 81.07 146.966 81.07ZM160.05 81.07C159.322 81.07 158.669 80.9113 158.09 80.594C157.521 80.2673 157.073 79.824 156.746 79.264C156.42 78.6947 156.256 78.046 156.256 77.318C156.256 76.5807 156.42 75.932 156.746 75.372C157.073 74.812 157.521 74.3733 158.09 74.056C158.669 73.7387 159.322 73.58 160.05 73.58C160.676 73.58 161.24 73.7013 161.744 73.944C162.248 74.1867 162.645 74.5507 162.934 75.036L162.192 75.54C161.94 75.1667 161.628 74.8913 161.254 74.714C160.881 74.5367 160.475 74.448 160.036 74.448C159.514 74.448 159.042 74.5693 158.622 74.812C158.202 75.0453 157.871 75.3767 157.628 75.806C157.386 76.2353 157.264 76.7393 157.264 77.318C157.264 77.8967 157.386 78.4007 157.628 78.83C157.871 79.2593 158.202 79.5953 158.622 79.838C159.042 80.0713 159.514 80.188 160.036 80.188C160.475 80.188 160.881 80.0993 161.254 79.922C161.628 79.7447 161.94 79.474 162.192 79.11L162.934 79.614C162.645 80.09 162.248 80.454 161.744 80.706C161.24 80.9487 160.676 81.07 160.05 81.07ZM169.493 81V79.376L169.451 79.11V76.394C169.451 75.7687 169.274 75.288 168.919 74.952C168.574 74.616 168.056 74.448 167.365 74.448C166.889 74.448 166.436 74.5273 166.007 74.686C165.578 74.8447 165.214 75.0547 164.915 75.316L164.467 74.574C164.84 74.2567 165.288 74.014 165.811 73.846C166.334 73.6687 166.884 73.58 167.463 73.58C168.415 73.58 169.148 73.818 169.661 74.294C170.184 74.7607 170.445 75.4747 170.445 76.436V81H169.493ZM166.959 81.07C166.408 81.07 165.928 80.9813 165.517 80.804C165.116 80.6173 164.808 80.3653 164.593 80.048C164.378 79.7213 164.271 79.348 164.271 78.928C164.271 78.5453 164.36 78.2 164.537 77.892C164.724 77.5747 165.022 77.3227 165.433 77.136C165.853 76.94 166.413 76.842 167.113 76.842H169.647V77.584H167.141C166.432 77.584 165.937 77.71 165.657 77.962C165.386 78.214 165.251 78.5267 165.251 78.9C165.251 79.32 165.414 79.656 165.741 79.908C166.068 80.16 166.525 80.286 167.113 80.286C167.673 80.286 168.154 80.16 168.555 79.908C168.966 79.6467 169.264 79.2733 169.451 78.788L169.675 79.474C169.488 79.9593 169.162 80.3467 168.695 80.636C168.238 80.9253 167.659 81.07 166.959 81.07ZM176.897 73.58C177.494 73.58 178.017 73.6967 178.465 73.93C178.922 74.154 179.277 74.4993 179.529 74.966C179.79 75.4327 179.921 76.0207 179.921 76.73V81H178.927V76.828C178.927 76.0533 178.731 75.47 178.339 75.078C177.956 74.6767 177.415 74.476 176.715 74.476C176.192 74.476 175.735 74.5833 175.343 74.798C174.96 75.0033 174.661 75.3067 174.447 75.708C174.241 76.1 174.139 76.576 174.139 77.136V81H173.145V73.65H174.097V75.666L173.943 75.288C174.176 74.756 174.549 74.3407 175.063 74.042C175.576 73.734 176.187 73.58 176.897 73.58ZM189.308 81.07C188.682 81.07 188.136 80.9533 187.67 80.72C187.203 80.4867 186.839 80.1367 186.578 79.67C186.326 79.2033 186.2 78.62 186.2 77.92V73.65H187.194V77.808C187.194 78.592 187.385 79.1847 187.768 79.586C188.16 79.978 188.706 80.174 189.406 80.174C189.919 80.174 190.362 80.0713 190.736 79.866C191.118 79.6513 191.408 79.3433 191.604 78.942C191.809 78.5407 191.912 78.06 191.912 77.5V73.65H192.906V81H191.954V78.984L192.108 79.348C191.874 79.8893 191.51 80.314 191.016 80.622C190.53 80.9207 189.961 81.07 189.308 81.07ZM199.47 81.07C198.835 81.07 198.261 80.9253 197.748 80.636C197.235 80.3373 196.824 79.9127 196.516 79.362C196.217 78.802 196.068 78.1207 196.068 77.318C196.068 76.5153 196.217 75.8387 196.516 75.288C196.815 74.728 197.221 74.3033 197.734 74.014C198.247 73.7247 198.826 73.58 199.47 73.58C200.17 73.58 200.795 73.7387 201.346 74.056C201.906 74.364 202.345 74.8027 202.662 75.372C202.979 75.932 203.138 76.5807 203.138 77.318C203.138 78.0647 202.979 78.718 202.662 79.278C202.345 79.838 201.906 80.2767 201.346 80.594C200.795 80.9113 200.17 81.07 199.47 81.07ZM195.676 83.716V73.65H196.628V75.862L196.53 77.332L196.67 78.816V83.716H195.676ZM199.4 80.188C199.923 80.188 200.389 80.0713 200.8 79.838C201.211 79.5953 201.537 79.2593 201.78 78.83C202.023 78.3913 202.144 77.8873 202.144 77.318C202.144 76.7487 202.023 76.2493 201.78 75.82C201.537 75.3907 201.211 75.0547 200.8 74.812C200.389 74.5693 199.923 74.448 199.4 74.448C198.877 74.448 198.406 74.5693 197.986 74.812C197.575 75.0547 197.249 75.3907 197.006 75.82C196.773 76.2493 196.656 76.7487 196.656 77.318C196.656 77.8873 196.773 78.3913 197.006 78.83C197.249 79.2593 197.575 79.5953 197.986 79.838C198.406 80.0713 198.877 80.188 199.4 80.188ZM205.164 81V70.612H206.158V81H205.164ZM211.92 81.07C211.211 81.07 210.571 80.9113 210.002 80.594C209.442 80.2673 208.999 79.824 208.672 79.264C208.345 78.6947 208.182 78.046 208.182 77.318C208.182 76.5807 208.345 75.932 208.672 75.372C208.999 74.812 209.442 74.3733 210.002 74.056C210.562 73.7387 211.201 73.58 211.92 73.58C212.648 73.58 213.292 73.7387 213.852 74.056C214.421 74.3733 214.865 74.812 215.182 75.372C215.509 75.932 215.672 76.5807 215.672 77.318C215.672 78.046 215.509 78.6947 215.182 79.264C214.865 79.824 214.421 80.2673 213.852 80.594C213.283 80.9113 212.639 81.07 211.92 81.07ZM211.92 80.188C212.452 80.188 212.923 80.0713 213.334 79.838C213.745 79.5953 214.067 79.2593 214.3 78.83C214.543 78.3913 214.664 77.8873 214.664 77.318C214.664 76.7393 214.543 76.2353 214.3 75.806C214.067 75.3767 213.745 75.0453 213.334 74.812C212.923 74.5693 212.457 74.448 211.934 74.448C211.411 74.448 210.945 74.5693 210.534 74.812C210.123 75.0453 209.797 75.3767 209.554 75.806C209.311 76.2353 209.19 76.7393 209.19 77.318C209.19 77.8873 209.311 78.3913 209.554 78.83C209.797 79.2593 210.123 79.5953 210.534 79.838C210.945 80.0713 211.407 80.188 211.92 80.188ZM222.266 81V79.376L222.224 79.11V76.394C222.224 75.7687 222.047 75.288 221.692 74.952C221.347 74.616 220.829 74.448 220.138 74.448C219.662 74.448 219.21 74.5273 218.78 74.686C218.351 74.8447 217.987 75.0547 217.688 75.316L217.24 74.574C217.614 74.2567 218.062 74.014 218.584 73.846C219.107 73.6687 219.658 73.58 220.236 73.58C221.188 73.58 221.921 73.818 222.434 74.294C222.957 74.7607 223.218 75.4747 223.218 76.436V81H222.266ZM219.732 81.07C219.182 81.07 218.701 80.9813 218.29 80.804C217.889 80.6173 217.581 80.3653 217.366 80.048C217.152 79.7213 217.044 79.348 217.044 78.928C217.044 78.5453 217.133 78.2 217.31 77.892C217.497 77.5747 217.796 77.3227 218.206 77.136C218.626 76.94 219.186 76.842 219.886 76.842H222.42V77.584H219.914C219.205 77.584 218.71 77.71 218.43 77.962C218.16 78.214 218.024 78.5267 218.024 78.9C218.024 79.32 218.188 79.656 218.514 79.908C218.841 80.16 219.298 80.286 219.886 80.286C220.446 80.286 220.927 80.16 221.328 79.908C221.739 79.6467 222.038 79.2733 222.224 78.788L222.448 79.474C222.262 79.9593 221.935 80.3467 221.468 80.636C221.011 80.9253 220.432 81.07 219.732 81.07ZM228.844 81.07C228.144 81.07 227.514 80.9113 226.954 80.594C226.404 80.2767 225.97 79.838 225.652 79.278C225.335 78.7087 225.176 78.0553 225.176 77.318C225.176 76.5713 225.335 75.918 225.652 75.358C225.97 74.798 226.404 74.364 226.954 74.056C227.514 73.7387 228.144 73.58 228.844 73.58C229.488 73.58 230.062 73.7247 230.566 74.014C231.08 74.3033 231.486 74.728 231.784 75.288C232.092 75.8387 232.246 76.5153 232.246 77.318C232.246 78.1113 232.097 78.788 231.798 79.348C231.5 79.908 231.094 80.3373 230.58 80.636C230.076 80.9253 229.498 81.07 228.844 81.07ZM228.914 80.188C229.437 80.188 229.904 80.0713 230.314 79.838C230.734 79.5953 231.061 79.2593 231.294 78.83C231.537 78.3913 231.658 77.8873 231.658 77.318C231.658 76.7393 231.537 76.2353 231.294 75.806C231.061 75.3767 230.734 75.0453 230.314 74.812C229.904 74.5693 229.437 74.448 228.914 74.448C228.401 74.448 227.939 74.5693 227.528 74.812C227.118 75.0453 226.791 75.3767 226.548 75.806C226.306 76.2353 226.184 76.7393 226.184 77.318C226.184 77.8873 226.306 78.3913 226.548 78.83C226.791 79.2593 227.118 79.5953 227.528 79.838C227.939 80.0713 228.401 80.188 228.914 80.188ZM231.686 81V78.788L231.784 77.304L231.644 75.82V70.612H232.638V81H231.686ZM237.923 81L241.941 75.568V76.366L238.161 71.2H239.351L242.529 75.512L242.067 75.526L245.245 71.2H246.365L242.627 76.296V75.568L246.631 81H245.427L242.039 76.394H242.473L239.113 81H237.923ZM248.126 81V71.2H249.162V80.104H254.65V81H248.126ZM258.963 81.084C258.235 81.084 257.535 80.9673 256.863 80.734C256.2 80.4913 255.687 80.1833 255.323 79.81L255.729 79.012C256.074 79.348 256.536 79.6327 257.115 79.866C257.703 80.09 258.319 80.202 258.963 80.202C259.579 80.202 260.078 80.1273 260.461 79.978C260.853 79.8193 261.138 79.6093 261.315 79.348C261.502 79.0867 261.595 78.7973 261.595 78.48C261.595 78.0973 261.483 77.7893 261.259 77.556C261.044 77.3227 260.76 77.1407 260.405 77.01C260.05 76.87 259.658 76.7487 259.229 76.646C258.8 76.5433 258.37 76.436 257.941 76.324C257.512 76.2027 257.115 76.044 256.751 75.848C256.396 75.652 256.107 75.3953 255.883 75.078C255.668 74.7513 255.561 74.3267 255.561 73.804C255.561 73.3187 255.687 72.8753 255.939 72.474C256.2 72.0633 256.597 71.7367 257.129 71.494C257.661 71.242 258.342 71.116 259.173 71.116C259.724 71.116 260.27 71.1953 260.811 71.354C261.352 71.5033 261.819 71.7133 262.211 71.984L261.861 72.81C261.441 72.53 260.993 72.3247 260.517 72.194C260.05 72.0633 259.598 71.998 259.159 71.998C258.571 71.998 258.086 72.0773 257.703 72.236C257.32 72.3947 257.036 72.6093 256.849 72.88C256.672 73.1413 256.583 73.44 256.583 73.776C256.583 74.1587 256.69 74.4667 256.905 74.7C257.129 74.9333 257.418 75.1153 257.773 75.246C258.137 75.3767 258.534 75.4933 258.963 75.596C259.392 75.6987 259.817 75.8107 260.237 75.932C260.666 76.0533 261.058 76.212 261.413 76.408C261.777 76.5947 262.066 76.8467 262.281 77.164C262.505 77.4813 262.617 77.8967 262.617 78.41C262.617 78.886 262.486 79.3293 262.225 79.74C261.964 80.1413 261.562 80.468 261.021 80.72C260.489 80.9627 259.803 81.084 258.963 81.084ZM264.336 83.044L264.952 80.454L265.064 81.056C264.849 81.056 264.667 80.986 264.518 80.846C264.378 80.706 264.308 80.524 264.308 80.3C264.308 80.076 264.378 79.894 264.518 79.754C264.667 79.614 264.844 79.544 265.05 79.544C265.264 79.544 265.437 79.6187 265.568 79.768C265.708 79.9173 265.778 80.0947 265.778 80.3C265.778 80.3747 265.773 80.4493 265.764 80.524C265.754 80.5987 265.736 80.6827 265.708 80.776C265.68 80.8693 265.642 80.9813 265.596 81.112L265.008 83.044H264.336ZM270.421 81L274.439 75.568V76.366L270.659 71.2H271.849L275.027 75.512L274.565 75.526L277.743 71.2H278.863L275.125 76.296V75.568L279.129 81H277.925L274.537 76.394H274.971L271.611 81H270.421ZM280.624 81V71.2H281.66V80.104H287.148V81H280.624ZM291.461 81.084C290.733 81.084 290.033 80.9673 289.361 80.734C288.698 80.4913 288.185 80.1833 287.821 79.81L288.227 79.012C288.572 79.348 289.034 79.6327 289.613 79.866C290.201 80.09 290.817 80.202 291.461 80.202C292.077 80.202 292.576 80.1273 292.959 79.978C293.351 79.8193 293.636 79.6093 293.813 79.348C294 79.0867 294.093 78.7973 294.093 78.48C294.093 78.0973 293.981 77.7893 293.757 77.556C293.542 77.3227 293.258 77.1407 292.903 77.01C292.548 76.87 292.156 76.7487 291.727 76.646C291.298 76.5433 290.868 76.436 290.439 76.324C290.01 76.2027 289.613 76.044 289.249 75.848C288.894 75.652 288.605 75.3953 288.381 75.078C288.166 74.7513 288.059 74.3267 288.059 73.804C288.059 73.3187 288.185 72.8753 288.437 72.474C288.698 72.0633 289.095 71.7367 289.627 71.494C290.159 71.242 290.84 71.116 291.671 71.116C292.222 71.116 292.768 71.1953 293.309 71.354C293.85 71.5033 294.317 71.7133 294.709 71.984L294.359 72.81C293.939 72.53 293.491 72.3247 293.015 72.194C292.548 72.0633 292.096 71.998 291.657 71.998C291.069 71.998 290.584 72.0773 290.201 72.236C289.818 72.3947 289.534 72.6093 289.347 72.88C289.17 73.1413 289.081 73.44 289.081 73.776C289.081 74.1587 289.188 74.4667 289.403 74.7C289.627 74.9333 289.916 75.1153 290.271 75.246C290.635 75.3767 291.032 75.4933 291.461 75.596C291.89 75.6987 292.315 75.8107 292.735 75.932C293.164 76.0533 293.556 76.212 293.911 76.408C294.275 76.5947 294.564 76.8467 294.779 77.164C295.003 77.4813 295.115 77.8967 295.115 78.41C295.115 78.886 294.984 79.3293 294.723 79.74C294.462 80.1413 294.06 80.468 293.519 80.72C292.987 80.9627 292.301 81.084 291.461 81.084ZM295.823 81L299.841 75.568V76.366L296.061 71.2H297.251L300.429 75.512L299.967 75.526L303.145 71.2H304.265L300.527 76.296V75.568L304.531 81H303.327L299.939 76.394H300.373L297.013 81H295.823ZM305.556 83.044L306.172 80.454L306.284 81.056C306.07 81.056 305.888 80.986 305.738 80.846C305.598 80.706 305.528 80.524 305.528 80.3C305.528 80.076 305.598 79.894 305.738 79.754C305.888 79.614 306.065 79.544 306.27 79.544C306.485 79.544 306.658 79.6187 306.788 79.768C306.928 79.9173 306.998 80.0947 306.998 80.3C306.998 80.3747 306.994 80.4493 306.984 80.524C306.975 80.5987 306.956 80.6827 306.928 80.776C306.9 80.8693 306.863 80.9813 306.816 81.112L306.228 83.044H305.556ZM317.255 81.084C316.518 81.084 315.837 80.9627 315.211 80.72C314.586 80.468 314.045 80.118 313.587 79.67C313.13 79.222 312.771 78.6947 312.509 78.088C312.257 77.4813 312.131 76.8187 312.131 76.1C312.131 75.3813 312.257 74.7187 312.509 74.112C312.771 73.5053 313.13 72.978 313.587 72.53C314.054 72.082 314.6 71.7367 315.225 71.494C315.851 71.242 316.532 71.116 317.269 71.116C317.979 71.116 318.646 71.2373 319.271 71.48C319.897 71.7133 320.424 72.068 320.853 72.544L320.195 73.202C319.794 72.7913 319.351 72.4973 318.865 72.32C318.38 72.1333 317.857 72.04 317.297 72.04C316.709 72.04 316.163 72.1427 315.659 72.348C315.155 72.544 314.717 72.8287 314.343 73.202C313.97 73.566 313.676 73.9953 313.461 74.49C313.256 74.9753 313.153 75.512 313.153 76.1C313.153 76.688 313.256 77.2293 313.461 77.724C313.676 78.2093 313.97 78.6387 314.343 79.012C314.717 79.376 315.155 79.6607 315.659 79.866C316.163 80.062 316.709 80.16 317.297 80.16C317.857 80.16 318.38 80.0667 318.865 79.88C319.351 79.6933 319.794 79.3947 320.195 78.984L320.853 79.642C320.424 80.118 319.897 80.4773 319.271 80.72C318.646 80.9627 317.974 81.084 317.255 81.084ZM325.736 81.084C325.008 81.084 324.308 80.9673 323.636 80.734C322.974 80.4913 322.46 80.1833 322.096 79.81L322.502 79.012C322.848 79.348 323.31 79.6327 323.888 79.866C324.476 80.09 325.092 80.202 325.736 80.202C326.352 80.202 326.852 80.1273 327.234 79.978C327.626 79.8193 327.911 79.6093 328.088 79.348C328.275 79.0867 328.368 78.7973 328.368 78.48C328.368 78.0973 328.256 77.7893 328.032 77.556C327.818 77.3227 327.533 77.1407 327.178 77.01C326.824 76.87 326.432 76.7487 326.002 76.646C325.573 76.5433 325.144 76.436 324.714 76.324C324.285 76.2027 323.888 76.044 323.524 75.848C323.17 75.652 322.88 75.3953 322.656 75.078C322.442 74.7513 322.334 74.3267 322.334 73.804C322.334 73.3187 322.46 72.8753 322.712 72.474C322.974 72.0633 323.37 71.7367 323.902 71.494C324.434 71.242 325.116 71.116 325.946 71.116C326.497 71.116 327.043 71.1953 327.584 71.354C328.126 71.5033 328.592 71.7133 328.984 71.984L328.634 72.81C328.214 72.53 327.766 72.3247 327.29 72.194C326.824 72.0633 326.371 71.998 325.932 71.998C325.344 71.998 324.859 72.0773 324.476 72.236C324.094 72.3947 323.809 72.6093 323.622 72.88C323.445 73.1413 323.356 73.44 323.356 73.776C323.356 74.1587 323.464 74.4667 323.678 74.7C323.902 74.9333 324.192 75.1153 324.546 75.246C324.91 75.3767 325.307 75.4933 325.736 75.596C326.166 75.6987 326.59 75.8107 327.01 75.932C327.44 76.0533 327.832 76.212 328.186 76.408C328.55 76.5947 328.84 76.8467 329.054 77.164C329.278 77.4813 329.39 77.8967 329.39 78.41C329.39 78.886 329.26 79.3293 328.998 79.74C328.737 80.1413 328.336 80.468 327.794 80.72C327.262 80.9627 326.576 81.084 325.736 81.084ZM334.434 81L330.094 71.2H331.214L335.274 80.426H334.658L338.746 71.2H339.796L335.456 81H334.434ZM340.105 83.044L340.721 80.454L340.833 81.056C340.619 81.056 340.437 80.986 340.287 80.846C340.147 80.706 340.077 80.524 340.077 80.3C340.077 80.076 340.147 79.894 340.287 79.754C340.437 79.614 340.614 79.544 340.819 79.544C341.034 79.544 341.207 79.6187 341.337 79.768C341.477 79.9173 341.547 80.0947 341.547 80.3C341.547 80.3747 341.543 80.4493 341.533 80.524C341.524 80.5987 341.505 80.6827 341.477 80.776C341.449 80.8693 341.412 80.9813 341.365 81.112L340.777 83.044H340.105ZM128.693 103.084C128.142 103.084 127.624 102.963 127.139 102.72C126.663 102.477 126.28 102.132 125.991 101.684L126.593 100.984C126.864 101.376 127.176 101.675 127.531 101.88C127.886 102.085 128.278 102.188 128.707 102.188C129.92 102.188 130.527 101.469 130.527 100.032V94.096H126.943V93.2H131.549V99.99C131.549 101.026 131.306 101.801 130.821 102.314C130.345 102.827 129.636 103.084 128.693 103.084ZM134.657 103V93.2H138.325C139.155 93.2 139.869 93.3353 140.467 93.606C141.064 93.8673 141.521 94.25 141.839 94.754C142.165 95.2487 142.329 95.8507 142.329 96.56C142.329 97.2507 142.165 97.848 141.839 98.352C141.521 98.8467 141.064 99.2293 140.467 99.5C139.869 99.7707 139.155 99.906 138.325 99.906H135.231L135.693 99.416V103H134.657ZM135.693 99.5L135.231 98.996H138.297C139.277 98.996 140.019 98.786 140.523 98.366C141.036 97.9367 141.293 97.3347 141.293 96.56C141.293 95.776 141.036 95.1693 140.523 94.74C140.019 94.3107 139.277 94.096 138.297 94.096H135.231L135.693 93.606V99.5ZM145.493 97.582H150.673V98.464H145.493V97.582ZM145.605 102.104H151.499V103H144.569V93.2H151.289V94.096H145.605V102.104ZM158.205 103.084C157.458 103.084 156.767 102.963 156.133 102.72C155.507 102.468 154.961 102.118 154.495 101.67C154.037 101.222 153.678 100.695 153.417 100.088C153.165 99.4813 153.039 98.8187 153.039 98.1C153.039 97.3813 153.165 96.7187 153.417 96.112C153.678 95.5053 154.042 94.978 154.509 94.53C154.975 94.082 155.521 93.7367 156.147 93.494C156.781 93.242 157.472 93.116 158.219 93.116C158.965 93.116 159.647 93.2327 160.263 93.466C160.888 93.6993 161.42 94.054 161.859 94.53L161.215 95.188C160.804 94.7773 160.351 94.4833 159.857 94.306C159.362 94.1287 158.83 94.04 158.261 94.04C157.654 94.04 157.094 94.1427 156.581 94.348C156.077 94.544 155.633 94.8287 155.251 95.202C154.877 95.566 154.583 95.9953 154.369 96.49C154.163 96.9753 154.061 97.512 154.061 98.1C154.061 98.6787 154.163 99.2153 154.369 99.71C154.583 100.205 154.877 100.639 155.251 101.012C155.633 101.376 156.077 101.661 156.581 101.866C157.094 102.062 157.649 102.16 158.247 102.16C158.807 102.16 159.334 102.076 159.829 101.908C160.333 101.74 160.795 101.455 161.215 101.054L161.803 101.838C161.336 102.249 160.79 102.561 160.165 102.776C159.539 102.981 158.886 103.084 158.205 103.084ZM160.809 101.712V98.1H161.803V101.838L160.809 101.712ZM164.059 105.044L164.675 102.454L164.787 103.056C164.573 103.056 164.391 102.986 164.241 102.846C164.101 102.706 164.031 102.524 164.031 102.3C164.031 102.076 164.101 101.894 164.241 101.754C164.391 101.614 164.568 101.544 164.773 101.544C164.988 101.544 165.161 101.619 165.291 101.768C165.431 101.917 165.501 102.095 165.501 102.3C165.501 102.375 165.497 102.449 165.487 102.524C165.478 102.599 165.459 102.683 165.431 102.776C165.403 102.869 165.366 102.981 165.319 103.112L164.731 105.044H164.059ZM171.502 103V93.2H175.17C176.001 93.2 176.715 93.3353 177.312 93.606C177.91 93.8673 178.367 94.25 178.684 94.754C179.011 95.2487 179.174 95.8507 179.174 96.56C179.174 97.2507 179.011 97.848 178.684 98.352C178.367 98.8467 177.91 99.2293 177.312 99.5C176.715 99.7707 176.001 99.906 175.17 99.906H172.076L172.538 99.416V103H171.502ZM172.538 99.5L172.076 98.996H175.142C176.122 98.996 176.864 98.786 177.368 98.366C177.882 97.9367 178.138 97.3347 178.138 96.56C178.138 95.776 177.882 95.1693 177.368 94.74C176.864 94.3107 176.122 94.096 175.142 94.096H172.076L172.538 93.606V99.5ZM181.414 103V93.2H182.268L189.03 101.712H188.582V93.2H189.604V103H188.75L182.002 94.488H182.45V103H181.414ZM197.101 103.084C196.354 103.084 195.664 102.963 195.029 102.72C194.404 102.468 193.858 102.118 193.391 101.67C192.934 101.222 192.574 100.695 192.313 100.088C192.061 99.4813 191.935 98.8187 191.935 98.1C191.935 97.3813 192.061 96.7187 192.313 96.112C192.574 95.5053 192.938 94.978 193.405 94.53C193.872 94.082 194.418 93.7367 195.043 93.494C195.678 93.242 196.368 93.116 197.115 93.116C197.862 93.116 198.543 93.2327 199.159 93.466C199.784 93.6993 200.316 94.054 200.755 94.53L200.111 95.188C199.7 94.7773 199.248 94.4833 198.753 94.306C198.258 94.1287 197.726 94.04 197.157 94.04C196.55 94.04 195.99 94.1427 195.477 94.348C194.973 94.544 194.53 94.8287 194.147 95.202C193.774 95.566 193.48 95.9953 193.265 96.49C193.06 96.9753 192.957 97.512 192.957 98.1C192.957 98.6787 193.06 99.2153 193.265 99.71C193.48 100.205 193.774 100.639 194.147 101.012C194.53 101.376 194.973 101.661 195.477 101.866C195.99 102.062 196.546 102.16 197.143 102.16C197.703 102.16 198.23 102.076 198.725 101.908C199.229 101.74 199.691 101.455 200.111 101.054L200.699 101.838C200.232 102.249 199.686 102.561 199.061 102.776C198.436 102.981 197.782 103.084 197.101 103.084ZM199.705 101.712V98.1H200.699V101.838L199.705 101.712ZM202.956 105.044L203.572 102.454L203.684 103.056C203.469 103.056 203.287 102.986 203.138 102.846C202.998 102.706 202.928 102.524 202.928 102.3C202.928 102.076 202.998 101.894 203.138 101.754C203.287 101.614 203.465 101.544 203.67 101.544C203.885 101.544 204.057 101.619 204.188 101.768C204.328 101.917 204.398 102.095 204.398 102.3C204.398 102.375 204.393 102.449 204.384 102.524C204.375 102.599 204.356 102.683 204.328 102.776C204.3 102.869 204.263 102.981 204.216 103.112L203.628 105.044H202.956ZM212.303 103V94.096H208.859V93.2H216.783V94.096H213.339V103H212.303ZM218.438 103V93.2H219.474V103H218.438ZM223.586 97.946H228.766V98.842H223.586V97.946ZM223.698 103H222.662V93.2H229.382V94.096H223.698V103ZM232.446 97.946H237.626V98.842H232.446V97.946ZM232.558 103H231.522V93.2H238.242V94.096H232.558V103ZM248.441 103V101.376L248.399 101.11V98.394C248.399 97.7687 248.222 97.288 247.867 96.952C247.522 96.616 247.004 96.448 246.313 96.448C245.837 96.448 245.385 96.5273 244.955 96.686C244.526 96.8447 244.162 97.0547 243.863 97.316L243.415 96.574C243.789 96.2567 244.237 96.014 244.759 95.846C245.282 95.6687 245.833 95.58 246.411 95.58C247.363 95.58 248.096 95.818 248.609 96.294C249.132 96.7607 249.393 97.4747 249.393 98.436V103H248.441ZM245.907 103.07C245.357 103.07 244.876 102.981 244.465 102.804C244.064 102.617 243.756 102.365 243.541 102.048C243.327 101.721 243.219 101.348 243.219 100.928C243.219 100.545 243.308 100.2 243.485 99.892C243.672 99.5747 243.971 99.3227 244.381 99.136C244.801 98.94 245.361 98.842 246.061 98.842H248.595V99.584H246.089C245.38 99.584 244.885 99.71 244.605 99.962C244.335 100.214 244.199 100.527 244.199 100.9C244.199 101.32 244.363 101.656 244.689 101.908C245.016 102.16 245.473 102.286 246.061 102.286C246.621 102.286 247.102 102.16 247.503 101.908C247.914 101.647 248.213 101.273 248.399 100.788L248.623 101.474C248.437 101.959 248.11 102.347 247.643 102.636C247.186 102.925 246.607 103.07 245.907 103.07ZM255.845 95.58C256.442 95.58 256.965 95.6967 257.413 95.93C257.87 96.154 258.225 96.4993 258.477 96.966C258.738 97.4327 258.869 98.0207 258.869 98.73V103H257.875V98.828C257.875 98.0533 257.679 97.47 257.287 97.078C256.904 96.6767 256.363 96.476 255.663 96.476C255.14 96.476 254.683 96.5833 254.291 96.798C253.908 97.0033 253.61 97.3067 253.395 97.708C253.19 98.1 253.087 98.576 253.087 99.136V103H252.093V95.65H253.045V97.666L252.891 97.288C253.124 96.756 253.498 96.3407 254.011 96.042C254.524 95.734 255.136 95.58 255.845 95.58ZM264.48 103.07C263.78 103.07 263.15 102.911 262.59 102.594C262.039 102.277 261.605 101.838 261.288 101.278C260.971 100.709 260.812 100.055 260.812 99.318C260.812 98.5713 260.971 97.918 261.288 97.358C261.605 96.798 262.039 96.364 262.59 96.056C263.15 95.7387 263.78 95.58 264.48 95.58C265.124 95.58 265.698 95.7247 266.202 96.014C266.715 96.3033 267.121 96.728 267.42 97.288C267.728 97.8387 267.882 98.5153 267.882 99.318C267.882 100.111 267.733 100.788 267.434 101.348C267.135 101.908 266.729 102.337 266.216 102.636C265.712 102.925 265.133 103.07 264.48 103.07ZM264.55 102.188C265.073 102.188 265.539 102.071 265.95 101.838C266.37 101.595 266.697 101.259 266.93 100.83C267.173 100.391 267.294 99.8873 267.294 99.318C267.294 98.7393 267.173 98.2353 266.93 97.806C266.697 97.3767 266.37 97.0453 265.95 96.812C265.539 96.5693 265.073 96.448 264.55 96.448C264.037 96.448 263.575 96.5693 263.164 96.812C262.753 97.0453 262.427 97.3767 262.184 97.806C261.941 98.2353 261.82 98.7393 261.82 99.318C261.82 99.8873 261.941 100.391 262.184 100.83C262.427 101.259 262.753 101.595 263.164 101.838C263.575 102.071 264.037 102.188 264.55 102.188ZM267.322 103V100.788L267.42 99.304L267.28 97.82V92.612H268.274V103H267.322ZM274.916 103V93.2H278.584C279.415 93.2 280.129 93.3353 280.726 93.606C281.324 93.8673 281.781 94.25 282.098 94.754C282.425 95.2487 282.588 95.8507 282.588 96.56C282.588 97.2507 282.425 97.848 282.098 98.352C281.781 98.8467 281.324 99.2293 280.726 99.5C280.129 99.7707 279.415 99.906 278.584 99.906H275.49L275.952 99.416V103H274.916ZM275.952 99.5L275.49 98.996H278.556C279.536 98.996 280.278 98.786 280.782 98.366C281.296 97.9367 281.552 97.3347 281.552 96.56C281.552 95.776 281.296 95.1693 280.782 94.74C280.278 94.3107 279.536 94.096 278.556 94.096H275.49L275.952 93.606V99.5ZM284.828 103V93.2H288.818C289.864 93.2 290.778 93.41 291.562 93.83C292.356 94.2407 292.972 94.8147 293.41 95.552C293.849 96.2893 294.068 97.1387 294.068 98.1C294.068 99.0613 293.849 99.9107 293.41 100.648C292.972 101.385 292.356 101.964 291.562 102.384C290.778 102.795 289.864 103 288.818 103H284.828ZM285.864 102.104H288.762C289.63 102.104 290.382 101.936 291.016 101.6C291.66 101.255 292.16 100.783 292.514 100.186C292.869 99.5793 293.046 98.884 293.046 98.1C293.046 97.3067 292.869 96.6113 292.514 96.014C292.16 95.4167 291.66 94.95 291.016 94.614C290.382 94.2687 289.63 94.096 288.762 94.096H285.864V102.104ZM297.319 97.946H302.499V98.842H297.319V97.946ZM297.431 103H296.395V93.2H303.115V94.096H297.431V103ZM309.842 97.946H315.022V98.842H309.842V97.946ZM309.954 103H308.918V93.2H315.638V94.096H309.954V103ZM317.568 103V95.65H318.562V103H317.568ZM318.072 94.026C317.866 94.026 317.694 93.956 317.554 93.816C317.414 93.676 317.344 93.508 317.344 93.312C317.344 93.116 317.414 92.9527 317.554 92.822C317.694 92.682 317.866 92.612 318.072 92.612C318.277 92.612 318.45 92.6773 318.59 92.808C318.73 92.9387 318.8 93.102 318.8 93.298C318.8 93.5033 318.73 93.676 318.59 93.816C318.459 93.956 318.286 94.026 318.072 94.026ZM321.327 103V92.612H322.321V103H321.327ZM328.209 103.07C327.444 103.07 326.772 102.911 326.193 102.594C325.615 102.267 325.162 101.824 324.835 101.264C324.509 100.695 324.345 100.046 324.345 99.318C324.345 98.59 324.499 97.946 324.807 97.386C325.125 96.826 325.554 96.3873 326.095 96.07C326.646 95.7433 327.262 95.58 327.943 95.58C328.634 95.58 329.245 95.7387 329.777 96.056C330.319 96.364 330.743 96.8027 331.051 97.372C331.359 97.932 331.513 98.5807 331.513 99.318C331.513 99.3647 331.509 99.416 331.499 99.472C331.499 99.5187 331.499 99.57 331.499 99.626H325.101V98.884H330.967L330.575 99.178C330.575 98.646 330.459 98.1747 330.225 97.764C330.001 97.344 329.693 97.0173 329.301 96.784C328.909 96.5507 328.457 96.434 327.943 96.434C327.439 96.434 326.987 96.5507 326.585 96.784C326.184 97.0173 325.871 97.344 325.647 97.764C325.423 98.184 325.311 98.6647 325.311 99.206V99.36C325.311 99.92 325.433 100.415 325.675 100.844C325.927 101.264 326.273 101.595 326.711 101.838C327.159 102.071 327.668 102.188 328.237 102.188C328.685 102.188 329.101 102.109 329.483 101.95C329.875 101.791 330.211 101.549 330.491 101.222L331.051 101.866C330.725 102.258 330.314 102.557 329.819 102.762C329.334 102.967 328.797 103.07 328.209 103.07ZM335.51 103.07C334.904 103.07 334.33 102.986 333.788 102.818C333.247 102.641 332.822 102.421 332.514 102.16L332.962 101.376C333.261 101.6 333.644 101.796 334.11 101.964C334.577 102.123 335.067 102.202 335.58 102.202C336.28 102.202 336.784 102.095 337.092 101.88C337.4 101.656 337.554 101.362 337.554 100.998C337.554 100.727 337.466 100.517 337.288 100.368C337.12 100.209 336.896 100.093 336.616 100.018C336.336 99.934 336.024 99.864 335.678 99.808C335.333 99.752 334.988 99.6867 334.642 99.612C334.306 99.5373 333.998 99.43 333.718 99.29C333.438 99.1407 333.21 98.94 333.032 98.688C332.864 98.436 332.78 98.1 332.78 97.68C332.78 97.2787 332.892 96.9193 333.116 96.602C333.34 96.2847 333.667 96.0373 334.096 95.86C334.535 95.6733 335.067 95.58 335.692 95.58C336.168 95.58 336.644 95.6453 337.12 95.776C337.596 95.8973 337.988 96.0607 338.296 96.266L337.862 97.064C337.536 96.84 337.186 96.6813 336.812 96.588C336.439 96.4853 336.066 96.434 335.692 96.434C335.03 96.434 334.54 96.5507 334.222 96.784C333.914 97.008 333.76 97.2973 333.76 97.652C333.76 97.932 333.844 98.1513 334.012 98.31C334.19 98.4687 334.418 98.5947 334.698 98.688C334.988 98.772 335.3 98.842 335.636 98.898C335.982 98.954 336.322 99.024 336.658 99.108C337.004 99.1827 337.316 99.29 337.596 99.43C337.886 99.5607 338.114 99.752 338.282 100.004C338.46 100.247 338.548 100.569 338.548 100.97C338.548 101.399 338.427 101.773 338.184 102.09C337.951 102.398 337.606 102.641 337.148 102.818C336.7 102.986 336.154 103.07 335.51 103.07ZM340.47 103.07C340.265 103.07 340.088 102.995 339.938 102.846C339.798 102.697 339.728 102.515 339.728 102.3C339.728 102.076 339.798 101.894 339.938 101.754C340.088 101.614 340.265 101.544 340.47 101.544C340.676 101.544 340.848 101.614 340.988 101.754C341.138 101.894 341.212 102.076 341.212 102.3C341.212 102.515 341.138 102.697 340.988 102.846C340.848 102.995 340.676 103.07 340.47 103.07ZM83.5511 125V115.2H84.4051L88.8851 122.844H88.4371L92.8751 115.2H93.7291V125H92.7351V116.754H92.9731L88.8851 123.754H88.3951L84.2791 116.754H84.5451V125H83.5511ZM101.318 125V123.376L101.276 123.11V120.394C101.276 119.769 101.099 119.288 100.744 118.952C100.399 118.616 99.8808 118.448 99.1902 118.448C98.7142 118.448 98.2615 118.527 97.8322 118.686C97.4028 118.845 97.0388 119.055 96.7402 119.316L96.2922 118.574C96.6655 118.257 97.1135 118.014 97.6362 117.846C98.1588 117.669 98.7095 117.58 99.2882 117.58C100.24 117.58 100.973 117.818 101.486 118.294C102.009 118.761 102.27 119.475 102.27 120.436V125H101.318ZM98.7842 125.07C98.2335 125.07 97.7528 124.981 97.3422 124.804C96.9408 124.617 96.6328 124.365 96.4182 124.048C96.2035 123.721 96.0962 123.348 96.0962 122.928C96.0962 122.545 96.1848 122.2 96.3622 121.892C96.5488 121.575 96.8475 121.323 97.2582 121.136C97.6782 120.94 98.2382 120.842 98.9382 120.842H101.472V121.584H98.9662C98.2568 121.584 97.7622 121.71 97.4822 121.962C97.2115 122.214 97.0762 122.527 97.0762 122.9C97.0762 123.32 97.2395 123.656 97.5662 123.908C97.8928 124.16 98.3502 124.286 98.9382 124.286C99.4982 124.286 99.9788 124.16 100.38 123.908C100.791 123.647 101.09 123.273 101.276 122.788L101.5 123.474C101.314 123.959 100.987 124.347 100.52 124.636C100.063 124.925 99.4842 125.07 98.7842 125.07ZM103.85 125L106.958 120.968L106.944 121.458L103.99 117.65H105.11L107.532 120.8L107.112 120.786L109.534 117.65H110.626L107.644 121.5L107.658 120.968L110.794 125H109.66L107.098 121.64L107.49 121.696L104.97 125H103.85ZM112.449 125V117.65H113.443V125H112.449ZM112.953 116.026C112.747 116.026 112.575 115.956 112.435 115.816C112.295 115.676 112.225 115.508 112.225 115.312C112.225 115.116 112.295 114.953 112.435 114.822C112.575 114.682 112.747 114.612 112.953 114.612C113.158 114.612 113.331 114.677 113.471 114.808C113.611 114.939 113.681 115.102 113.681 115.298C113.681 115.503 113.611 115.676 113.471 115.816C113.34 115.956 113.167 116.026 112.953 116.026ZM125.392 117.58C125.99 117.58 126.508 117.697 126.946 117.93C127.394 118.154 127.74 118.499 127.982 118.966C128.234 119.433 128.36 120.021 128.36 120.73V125H127.366V120.828C127.366 120.053 127.18 119.47 126.806 119.078C126.442 118.677 125.924 118.476 125.252 118.476C124.748 118.476 124.31 118.583 123.936 118.798C123.572 119.003 123.288 119.307 123.082 119.708C122.886 120.1 122.788 120.576 122.788 121.136V125H121.794V120.828C121.794 120.053 121.608 119.47 121.234 119.078C120.861 118.677 120.338 118.476 119.666 118.476C119.172 118.476 118.738 118.583 118.364 118.798C117.991 119.003 117.702 119.307 117.496 119.708C117.3 120.1 117.202 120.576 117.202 121.136V125H116.208V117.65H117.16V119.638L117.006 119.288C117.23 118.756 117.59 118.341 118.084 118.042C118.588 117.734 119.181 117.58 119.862 117.58C120.581 117.58 121.192 117.762 121.696 118.126C122.2 118.481 122.527 119.017 122.676 119.736L122.284 119.582C122.499 118.985 122.877 118.504 123.418 118.14C123.969 117.767 124.627 117.58 125.392 117.58ZM134.094 125.07C133.469 125.07 132.923 124.953 132.456 124.72C131.989 124.487 131.625 124.137 131.364 123.67C131.112 123.203 130.986 122.62 130.986 121.92V117.65H131.98V121.808C131.98 122.592 132.171 123.185 132.554 123.586C132.946 123.978 133.492 124.174 134.192 124.174C134.705 124.174 135.149 124.071 135.522 123.866C135.905 123.651 136.194 123.343 136.39 122.942C136.595 122.541 136.698 122.06 136.698 121.5V117.65H137.692V125H136.74V122.984L136.894 123.348C136.661 123.889 136.297 124.314 135.802 124.622C135.317 124.921 134.747 125.07 134.094 125.07ZM149.646 117.58C150.244 117.58 150.762 117.697 151.2 117.93C151.648 118.154 151.994 118.499 152.236 118.966C152.488 119.433 152.614 120.021 152.614 120.73V125H151.62V120.828C151.62 120.053 151.434 119.47 151.06 119.078C150.696 118.677 150.178 118.476 149.506 118.476C149.002 118.476 148.564 118.583 148.19 118.798C147.826 119.003 147.542 119.307 147.336 119.708C147.14 120.1 147.042 120.576 147.042 121.136V125H146.048V120.828C146.048 120.053 145.862 119.47 145.488 119.078C145.115 118.677 144.592 118.476 143.92 118.476C143.426 118.476 142.992 118.583 142.618 118.798C142.245 119.003 141.956 119.307 141.75 119.708C141.554 120.1 141.456 120.576 141.456 121.136V125H140.462V117.65H141.414V119.638L141.26 119.288C141.484 118.756 141.844 118.341 142.338 118.042C142.842 117.734 143.435 117.58 144.116 117.58C144.835 117.58 145.446 117.762 145.95 118.126C146.454 118.481 146.781 119.017 146.93 119.736L146.538 119.582C146.753 118.985 147.131 118.504 147.672 118.14C148.223 117.767 148.881 117.58 149.646 117.58ZM159.142 125V116.726C159.142 116.073 159.333 115.545 159.716 115.144C160.099 114.743 160.649 114.542 161.368 114.542C161.648 114.542 161.919 114.579 162.18 114.654C162.441 114.729 162.661 114.845 162.838 115.004L162.502 115.746C162.362 115.625 162.199 115.536 162.012 115.48C161.825 115.415 161.625 115.382 161.41 115.382C160.99 115.382 160.668 115.499 160.444 115.732C160.22 115.965 160.108 116.311 160.108 116.768V117.888L160.136 118.35V125H159.142ZM157.826 118.476V117.65H162.376V118.476H157.826ZM163.72 125V117.65H164.714V125H163.72ZM164.224 116.026C164.019 116.026 163.846 115.956 163.706 115.816C163.566 115.676 163.496 115.508 163.496 115.312C163.496 115.116 163.566 114.953 163.706 114.822C163.846 114.682 164.019 114.612 164.224 114.612C164.429 114.612 164.602 114.677 164.742 114.808C164.882 114.939 164.952 115.102 164.952 115.298C164.952 115.503 164.882 115.676 164.742 115.816C164.611 115.956 164.439 116.026 164.224 116.026ZM167.505 125V114.612H168.499V125H167.505ZM174.387 125.07C173.622 125.07 172.95 124.911 172.371 124.594C171.792 124.267 171.34 123.824 171.013 123.264C170.686 122.695 170.523 122.046 170.523 121.318C170.523 120.59 170.677 119.946 170.985 119.386C171.302 118.826 171.732 118.387 172.273 118.07C172.824 117.743 173.44 117.58 174.121 117.58C174.812 117.58 175.423 117.739 175.955 118.056C176.496 118.364 176.921 118.803 177.229 119.372C177.537 119.932 177.691 120.581 177.691 121.318C177.691 121.365 177.686 121.416 177.677 121.472C177.677 121.519 177.677 121.57 177.677 121.626H171.279V120.884H177.145L176.753 121.178C176.753 120.646 176.636 120.175 176.403 119.764C176.179 119.344 175.871 119.017 175.479 118.784C175.087 118.551 174.634 118.434 174.121 118.434C173.617 118.434 173.164 118.551 172.763 118.784C172.362 119.017 172.049 119.344 171.825 119.764C171.601 120.184 171.489 120.665 171.489 121.206V121.36C171.489 121.92 171.61 122.415 171.853 122.844C172.105 123.264 172.45 123.595 172.889 123.838C173.337 124.071 173.846 124.188 174.415 124.188C174.863 124.188 175.278 124.109 175.661 123.95C176.053 123.791 176.389 123.549 176.669 123.222L177.229 123.866C176.902 124.258 176.492 124.557 175.997 124.762C175.512 124.967 174.975 125.07 174.387 125.07ZM185.352 125.07C184.746 125.07 184.172 124.986 183.63 124.818C183.089 124.641 182.664 124.421 182.356 124.16L182.804 123.376C183.103 123.6 183.486 123.796 183.952 123.964C184.419 124.123 184.909 124.202 185.422 124.202C186.122 124.202 186.626 124.095 186.934 123.88C187.242 123.656 187.396 123.362 187.396 122.998C187.396 122.727 187.308 122.517 187.13 122.368C186.962 122.209 186.738 122.093 186.458 122.018C186.178 121.934 185.866 121.864 185.52 121.808C185.175 121.752 184.83 121.687 184.484 121.612C184.148 121.537 183.84 121.43 183.56 121.29C183.28 121.141 183.052 120.94 182.874 120.688C182.706 120.436 182.622 120.1 182.622 119.68C182.622 119.279 182.734 118.919 182.958 118.602C183.182 118.285 183.509 118.037 183.938 117.86C184.377 117.673 184.909 117.58 185.534 117.58C186.01 117.58 186.486 117.645 186.962 117.776C187.438 117.897 187.83 118.061 188.138 118.266L187.704 119.064C187.378 118.84 187.028 118.681 186.654 118.588C186.281 118.485 185.908 118.434 185.534 118.434C184.872 118.434 184.382 118.551 184.064 118.784C183.756 119.008 183.602 119.297 183.602 119.652C183.602 119.932 183.686 120.151 183.854 120.31C184.032 120.469 184.26 120.595 184.54 120.688C184.83 120.772 185.142 120.842 185.478 120.898C185.824 120.954 186.164 121.024 186.5 121.108C186.846 121.183 187.158 121.29 187.438 121.43C187.728 121.561 187.956 121.752 188.124 122.004C188.302 122.247 188.39 122.569 188.39 122.97C188.39 123.399 188.269 123.773 188.026 124.09C187.793 124.398 187.448 124.641 186.99 124.818C186.542 124.986 185.996 125.07 185.352 125.07ZM190.214 125V117.65H191.208V125H190.214ZM190.718 116.026C190.513 116.026 190.34 115.956 190.2 115.816C190.06 115.676 189.99 115.508 189.99 115.312C189.99 115.116 190.06 114.953 190.2 114.822C190.34 114.682 190.513 114.612 190.718 114.612C190.923 114.612 191.096 114.677 191.236 114.808C191.376 114.939 191.446 115.102 191.446 115.298C191.446 115.503 191.376 115.676 191.236 115.816C191.105 115.956 190.933 116.026 190.718 116.026ZM193.176 125V124.342L198.076 118.14L198.286 118.476H193.26V117.65H199.07V118.294L194.184 124.51L193.932 124.174H199.168V125H193.176ZM204.123 125.07C203.358 125.07 202.686 124.911 202.107 124.594C201.529 124.267 201.076 123.824 200.749 123.264C200.423 122.695 200.259 122.046 200.259 121.318C200.259 120.59 200.413 119.946 200.721 119.386C201.039 118.826 201.468 118.387 202.009 118.07C202.56 117.743 203.176 117.58 203.857 117.58C204.548 117.58 205.159 117.739 205.691 118.056C206.233 118.364 206.657 118.803 206.965 119.372C207.273 119.932 207.427 120.581 207.427 121.318C207.427 121.365 207.423 121.416 207.413 121.472C207.413 121.519 207.413 121.57 207.413 121.626H201.015V120.884H206.881L206.489 121.178C206.489 120.646 206.373 120.175 206.139 119.764C205.915 119.344 205.607 119.017 205.215 118.784C204.823 118.551 204.371 118.434 203.857 118.434C203.353 118.434 202.901 118.551 202.499 118.784C202.098 119.017 201.785 119.344 201.561 119.764C201.337 120.184 201.225 120.665 201.225 121.206V121.36C201.225 121.92 201.347 122.415 201.589 122.844C201.841 123.264 202.187 123.595 202.625 123.838C203.073 124.071 203.582 124.188 204.151 124.188C204.599 124.188 205.015 124.109 205.397 123.95C205.789 123.791 206.125 123.549 206.405 123.222L206.965 123.866C206.639 124.258 206.228 124.557 205.733 124.762C205.248 124.967 204.711 125.07 204.123 125.07ZM217.721 125V123.376L217.679 123.11V120.394C217.679 119.769 217.501 119.288 217.147 118.952C216.801 118.616 216.283 118.448 215.593 118.448C215.117 118.448 214.664 118.527 214.235 118.686C213.805 118.845 213.441 119.055 213.143 119.316L212.695 118.574C213.068 118.257 213.516 118.014 214.039 117.846C214.561 117.669 215.112 117.58 215.691 117.58C216.643 117.58 217.375 117.818 217.889 118.294C218.411 118.761 218.673 119.475 218.673 120.436V125H217.721ZM215.187 125.07C214.636 125.07 214.155 124.981 213.745 124.804C213.343 124.617 213.035 124.365 212.821 124.048C212.606 123.721 212.499 123.348 212.499 122.928C212.499 122.545 212.587 122.2 212.765 121.892C212.951 121.575 213.25 121.323 213.661 121.136C214.081 120.94 214.641 120.842 215.341 120.842H217.875V121.584H215.369C214.659 121.584 214.165 121.71 213.885 121.962C213.614 122.214 213.479 122.527 213.479 122.9C213.479 123.32 213.642 123.656 213.969 123.908C214.295 124.16 214.753 124.286 215.341 124.286C215.901 124.286 216.381 124.16 216.783 123.908C217.193 123.647 217.492 123.273 217.679 122.788L217.903 123.474C217.716 123.959 217.389 124.347 216.923 124.636C216.465 124.925 215.887 125.07 215.187 125.07ZM221.372 125V114.612H222.366V125H221.372ZM225.132 125V114.612H226.126V125H225.132ZM231.888 125.07C231.179 125.07 230.539 124.911 229.97 124.594C229.41 124.267 228.967 123.824 228.64 123.264C228.313 122.695 228.15 122.046 228.15 121.318C228.15 120.581 228.313 119.932 228.64 119.372C228.967 118.812 229.41 118.373 229.97 118.056C230.53 117.739 231.169 117.58 231.888 117.58C232.616 117.58 233.26 117.739 233.82 118.056C234.389 118.373 234.833 118.812 235.15 119.372C235.477 119.932 235.64 120.581 235.64 121.318C235.64 122.046 235.477 122.695 235.15 123.264C234.833 123.824 234.389 124.267 233.82 124.594C233.251 124.911 232.607 125.07 231.888 125.07ZM231.888 124.188C232.42 124.188 232.891 124.071 233.302 123.838C233.713 123.595 234.035 123.259 234.268 122.83C234.511 122.391 234.632 121.887 234.632 121.318C234.632 120.739 234.511 120.235 234.268 119.806C234.035 119.377 233.713 119.045 233.302 118.812C232.891 118.569 232.425 118.448 231.902 118.448C231.379 118.448 230.913 118.569 230.502 118.812C230.091 119.045 229.765 119.377 229.522 119.806C229.279 120.235 229.158 120.739 229.158 121.318C229.158 121.887 229.279 122.391 229.522 122.83C229.765 123.259 230.091 123.595 230.502 123.838C230.913 124.071 231.375 124.188 231.888 124.188ZM238.962 125L236.19 117.65H237.142L239.662 124.468H239.228L241.818 117.65H242.672L245.234 124.468H244.8L247.362 117.65H248.272L245.486 125H244.548L242.084 118.588H242.378L239.9 125H238.962ZM252.686 125.07C251.92 125.07 251.248 124.911 250.67 124.594C250.091 124.267 249.638 123.824 249.312 123.264C248.985 122.695 248.822 122.046 248.822 121.318C248.822 120.59 248.976 119.946 249.284 119.386C249.601 118.826 250.03 118.387 250.572 118.07C251.122 117.743 251.738 117.58 252.42 117.58C253.11 117.58 253.722 117.739 254.254 118.056C254.795 118.364 255.22 118.803 255.528 119.372C255.836 119.932 255.99 120.581 255.99 121.318C255.99 121.365 255.985 121.416 255.976 121.472C255.976 121.519 255.976 121.57 255.976 121.626H249.578V120.884H255.444L255.052 121.178C255.052 120.646 254.935 120.175 254.702 119.764C254.478 119.344 254.17 119.017 253.778 118.784C253.386 118.551 252.933 118.434 252.42 118.434C251.916 118.434 251.463 118.551 251.062 118.784C250.66 119.017 250.348 119.344 250.124 119.764C249.9 120.184 249.788 120.665 249.788 121.206V121.36C249.788 121.92 249.909 122.415 250.152 122.844C250.404 123.264 250.749 123.595 251.188 123.838C251.636 124.071 252.144 124.188 252.714 124.188C253.162 124.188 253.577 124.109 253.96 123.95C254.352 123.791 254.688 123.549 254.968 123.222L255.528 123.866C255.201 124.258 254.79 124.557 254.296 124.762C253.81 124.967 253.274 125.07 252.686 125.07ZM260.939 125.07C260.239 125.07 259.609 124.911 259.049 124.594C258.498 124.277 258.064 123.838 257.747 123.278C257.43 122.709 257.271 122.055 257.271 121.318C257.271 120.571 257.43 119.918 257.747 119.358C258.064 118.798 258.498 118.364 259.049 118.056C259.609 117.739 260.239 117.58 260.939 117.58C261.583 117.58 262.157 117.725 262.661 118.014C263.174 118.303 263.58 118.728 263.879 119.288C264.187 119.839 264.341 120.515 264.341 121.318C264.341 122.111 264.192 122.788 263.893 123.348C263.594 123.908 263.188 124.337 262.675 124.636C262.171 124.925 261.592 125.07 260.939 125.07ZM261.009 124.188C261.532 124.188 261.998 124.071 262.409 123.838C262.829 123.595 263.156 123.259 263.389 122.83C263.632 122.391 263.753 121.887 263.753 121.318C263.753 120.739 263.632 120.235 263.389 119.806C263.156 119.377 262.829 119.045 262.409 118.812C261.998 118.569 261.532 118.448 261.009 118.448C260.496 118.448 260.034 118.569 259.623 118.812C259.212 119.045 258.886 119.377 258.643 119.806C258.4 120.235 258.279 120.739 258.279 121.318C258.279 121.887 258.4 122.391 258.643 122.83C258.886 123.259 259.212 123.595 259.623 123.838C260.034 124.071 260.496 124.188 261.009 124.188ZM263.781 125V122.788L263.879 121.304L263.739 119.82V114.612H264.733V125H263.781ZM271.165 125V117.65H272.159V125H271.165ZM271.669 116.026C271.464 116.026 271.291 115.956 271.151 115.816C271.011 115.676 270.941 115.508 270.941 115.312C270.941 115.116 271.011 114.953 271.151 114.822C271.291 114.682 271.464 114.612 271.669 114.612C271.875 114.612 272.047 114.677 272.187 114.808C272.327 114.939 272.397 115.102 272.397 115.298C272.397 115.503 272.327 115.676 272.187 115.816C272.057 115.956 271.884 116.026 271.669 116.026ZM278.677 117.58C279.274 117.58 279.797 117.697 280.245 117.93C280.702 118.154 281.057 118.499 281.309 118.966C281.57 119.433 281.701 120.021 281.701 120.73V125H280.707V120.828C280.707 120.053 280.511 119.47 280.119 119.078C279.736 118.677 279.195 118.476 278.495 118.476C277.972 118.476 277.515 118.583 277.123 118.798C276.74 119.003 276.442 119.307 276.227 119.708C276.022 120.1 275.919 120.576 275.919 121.136V125H274.925V117.65H275.877V119.666L275.723 119.288C275.956 118.756 276.33 118.341 276.843 118.042C277.356 117.734 277.968 117.58 278.677 117.58ZM290.486 125.084C289.786 125.084 289.119 124.972 288.484 124.748C287.849 124.515 287.345 124.207 286.972 123.824L287.462 123.026C287.77 123.353 288.19 123.623 288.722 123.838C289.263 124.053 289.847 124.16 290.472 124.16C291.303 124.16 291.933 123.978 292.362 123.614C292.801 123.241 293.02 122.755 293.02 122.158C293.02 121.738 292.917 121.379 292.712 121.08C292.516 120.772 292.18 120.534 291.704 120.366C291.228 120.198 290.575 120.114 289.744 120.114H287.658L288.162 115.2H293.524V116.096H288.568L289.086 115.606L288.652 119.722L288.134 119.218H289.968C290.957 119.218 291.751 119.339 292.348 119.582C292.945 119.825 293.375 120.165 293.636 120.604C293.907 121.033 294.042 121.537 294.042 122.116C294.042 122.667 293.911 123.171 293.65 123.628C293.389 124.076 292.997 124.431 292.474 124.692C291.951 124.953 291.289 125.084 290.486 125.084ZM299.228 125.084C298.472 125.084 297.8 124.888 297.212 124.496C296.624 124.095 296.162 123.525 295.826 122.788C295.49 122.041 295.322 121.145 295.322 120.1C295.322 119.055 295.49 118.163 295.826 117.426C296.162 116.679 296.624 116.11 297.212 115.718C297.8 115.317 298.472 115.116 299.228 115.116C299.984 115.116 300.656 115.317 301.244 115.718C301.832 116.11 302.294 116.679 302.63 117.426C302.975 118.163 303.148 119.055 303.148 120.1C303.148 121.145 302.975 122.041 302.63 122.788C302.294 123.525 301.832 124.095 301.244 124.496C300.656 124.888 299.984 125.084 299.228 125.084ZM299.228 124.16C299.806 124.16 300.31 124.006 300.74 123.698C301.169 123.381 301.505 122.923 301.748 122.326C301.99 121.719 302.112 120.977 302.112 120.1C302.112 119.223 301.99 118.485 301.748 117.888C301.505 117.281 301.169 116.824 300.74 116.516C300.31 116.199 299.806 116.04 299.228 116.04C298.668 116.04 298.168 116.199 297.73 116.516C297.291 116.824 296.95 117.281 296.708 117.888C296.465 118.485 296.344 119.223 296.344 120.1C296.344 120.977 296.465 121.719 296.708 122.326C296.95 122.923 297.291 123.381 297.73 123.698C298.168 124.006 298.668 124.16 299.228 124.16ZM309.123 125V115.2H309.977L314.457 122.844H314.009L318.447 115.2H319.301V125H318.307V116.754H318.545L314.457 123.754H313.967L309.851 116.754H310.117V125H309.123ZM322.494 125V115.2H326.722C327.814 115.2 328.659 115.419 329.256 115.858C329.863 116.297 330.166 116.917 330.166 117.72C330.166 118.252 330.04 118.7 329.788 119.064C329.546 119.428 329.21 119.703 328.78 119.89C328.36 120.077 327.898 120.17 327.394 120.17L327.632 119.834C328.258 119.834 328.794 119.932 329.242 120.128C329.7 120.315 330.054 120.599 330.306 120.982C330.558 121.355 330.684 121.822 330.684 122.382C330.684 123.213 330.376 123.857 329.76 124.314C329.154 124.771 328.234 125 327.002 125H322.494ZM323.53 124.146H326.988C327.847 124.146 328.505 124.001 328.962 123.712C329.42 123.413 329.648 122.942 329.648 122.298C329.648 121.663 329.42 121.201 328.962 120.912C328.505 120.613 327.847 120.464 326.988 120.464H323.418V119.61H326.652C327.436 119.61 328.043 119.461 328.472 119.162C328.911 118.863 329.13 118.42 329.13 117.832C329.13 117.235 328.911 116.791 328.472 116.502C328.043 116.203 327.436 116.054 326.652 116.054H323.53V124.146ZM340.297 125.07C339.663 125.07 339.089 124.925 338.575 124.636C338.062 124.337 337.651 123.913 337.343 123.362C337.045 122.802 336.895 122.121 336.895 121.318C336.895 120.515 337.045 119.839 337.343 119.288C337.642 118.728 338.048 118.303 338.561 118.014C339.075 117.725 339.653 117.58 340.297 117.58C340.997 117.58 341.623 117.739 342.173 118.056C342.733 118.364 343.172 118.803 343.489 119.372C343.807 119.932 343.965 120.581 343.965 121.318C343.965 122.065 343.807 122.718 343.489 123.278C343.172 123.838 342.733 124.277 342.173 124.594C341.623 124.911 340.997 125.07 340.297 125.07ZM336.503 127.716V117.65H337.455V119.862L337.357 121.332L337.497 122.816V127.716H336.503ZM340.227 124.188C340.75 124.188 341.217 124.071 341.627 123.838C342.038 123.595 342.365 123.259 342.607 122.83C342.85 122.391 342.971 121.887 342.971 121.318C342.971 120.749 342.85 120.249 342.607 119.82C342.365 119.391 342.038 119.055 341.627 118.812C341.217 118.569 340.75 118.448 340.227 118.448C339.705 118.448 339.233 118.569 338.813 118.812C338.403 119.055 338.076 119.391 337.833 119.82C337.6 120.249 337.483 120.749 337.483 121.318C337.483 121.887 337.6 122.391 337.833 122.83C338.076 123.259 338.403 123.595 338.813 123.838C339.233 124.071 339.705 124.188 340.227 124.188ZM349.113 125.07C348.348 125.07 347.676 124.911 347.097 124.594C346.519 124.267 346.066 123.824 345.739 123.264C345.413 122.695 345.249 122.046 345.249 121.318C345.249 120.59 345.403 119.946 345.711 119.386C346.029 118.826 346.458 118.387 346.999 118.07C347.55 117.743 348.166 117.58 348.847 117.58C349.538 117.58 350.149 117.739 350.681 118.056C351.223 118.364 351.647 118.803 351.955 119.372C352.263 119.932 352.417 120.581 352.417 121.318C352.417 121.365 352.413 121.416 352.403 121.472C352.403 121.519 352.403 121.57 352.403 121.626H346.005V120.884H351.871L351.479 121.178C351.479 120.646 351.363 120.175 351.129 119.764C350.905 119.344 350.597 119.017 350.205 118.784C349.813 118.551 349.361 118.434 348.847 118.434C348.343 118.434 347.891 118.551 347.489 118.784C347.088 119.017 346.775 119.344 346.551 119.764C346.327 120.184 346.215 120.665 346.215 121.206V121.36C346.215 121.92 346.337 122.415 346.579 122.844C346.831 123.264 347.177 123.595 347.615 123.838C348.063 124.071 348.572 124.188 349.141 124.188C349.589 124.188 350.005 124.109 350.387 123.95C350.779 123.791 351.115 123.549 351.395 123.222L351.955 123.866C351.629 124.258 351.218 124.557 350.723 124.762C350.238 124.967 349.701 125.07 349.113 125.07ZM354.441 125V117.65H355.393V119.652L355.295 119.302C355.5 118.742 355.845 118.317 356.331 118.028C356.816 117.729 357.418 117.58 358.137 117.58V118.546C358.099 118.546 358.062 118.546 358.025 118.546C357.987 118.537 357.95 118.532 357.913 118.532C357.138 118.532 356.531 118.77 356.093 119.246C355.654 119.713 355.435 120.38 355.435 121.248V125H354.441ZM363.892 125V116.726C363.892 116.073 364.083 115.545 364.466 115.144C364.849 114.743 365.399 114.542 366.118 114.542C366.398 114.542 366.669 114.579 366.93 114.654C367.191 114.729 367.411 114.845 367.588 115.004L367.252 115.746C367.112 115.625 366.949 115.536 366.762 115.48C366.575 115.415 366.375 115.382 366.16 115.382C365.74 115.382 365.418 115.499 365.194 115.732C364.97 115.965 364.858 116.311 364.858 116.768V117.888L364.886 118.35V125H363.892ZM362.576 118.476V117.65H367.126V118.476H362.576ZM368.47 125V117.65H369.464V125H368.47ZM368.974 116.026C368.769 116.026 368.596 115.956 368.456 115.816C368.316 115.676 368.246 115.508 368.246 115.312C368.246 115.116 368.316 114.953 368.456 114.822C368.596 114.682 368.769 114.612 368.974 114.612C369.179 114.612 369.352 114.677 369.492 114.808C369.632 114.939 369.702 115.102 369.702 115.298C369.702 115.503 369.632 115.676 369.492 115.816C369.361 115.956 369.189 116.026 368.974 116.026ZM372.255 125V114.612H373.249V125H372.255ZM379.137 125.07C378.372 125.07 377.7 124.911 377.121 124.594C376.542 124.267 376.09 123.824 375.763 123.264C375.436 122.695 375.273 122.046 375.273 121.318C375.273 120.59 375.427 119.946 375.735 119.386C376.052 118.826 376.482 118.387 377.023 118.07C377.574 117.743 378.19 117.58 378.871 117.58C379.562 117.58 380.173 117.739 380.705 118.056C381.246 118.364 381.671 118.803 381.979 119.372C382.287 119.932 382.441 120.581 382.441 121.318C382.441 121.365 382.436 121.416 382.427 121.472C382.427 121.519 382.427 121.57 382.427 121.626H376.029V120.884H381.895L381.503 121.178C381.503 120.646 381.386 120.175 381.153 119.764C380.929 119.344 380.621 119.017 380.229 118.784C379.837 118.551 379.384 118.434 378.871 118.434C378.367 118.434 377.914 118.551 377.513 118.784C377.112 119.017 376.799 119.344 376.575 119.764C376.351 120.184 376.239 120.665 376.239 121.206V121.36C376.239 121.92 376.36 122.415 376.603 122.844C376.855 123.264 377.2 123.595 377.639 123.838C378.087 124.071 378.596 124.188 379.165 124.188C379.613 124.188 380.028 124.109 380.411 123.95C380.803 123.791 381.139 123.549 381.419 123.222L381.979 123.866C381.652 124.258 381.242 124.557 380.747 124.762C380.262 124.967 379.725 125.07 379.137 125.07ZM384.562 125.07C384.357 125.07 384.179 124.995 384.03 124.846C383.89 124.697 383.82 124.515 383.82 124.3C383.82 124.076 383.89 123.894 384.03 123.754C384.179 123.614 384.357 123.544 384.562 123.544C384.767 123.544 384.94 123.614 385.08 123.754C385.229 123.894 385.304 124.076 385.304 124.3C385.304 124.515 385.229 124.697 385.08 124.846C384.94 124.995 384.767 125.07 384.562 125.07ZM169.592 147.084C168.855 147.084 168.174 146.963 167.548 146.72C166.923 146.468 166.382 146.118 165.924 145.67C165.467 145.222 165.108 144.695 164.846 144.088C164.594 143.481 164.468 142.819 164.468 142.1C164.468 141.381 164.594 140.719 164.846 140.112C165.108 139.505 165.467 138.978 165.924 138.53C166.391 138.082 166.937 137.737 167.562 137.494C168.188 137.242 168.869 137.116 169.606 137.116C170.316 137.116 170.983 137.237 171.608 137.48C172.234 137.713 172.761 138.068 173.19 138.544L172.532 139.202C172.131 138.791 171.688 138.497 171.202 138.32C170.717 138.133 170.194 138.04 169.634 138.04C169.046 138.04 168.5 138.143 167.996 138.348C167.492 138.544 167.054 138.829 166.68 139.202C166.307 139.566 166.013 139.995 165.798 140.49C165.593 140.975 165.49 141.512 165.49 142.1C165.49 142.688 165.593 143.229 165.798 143.724C166.013 144.209 166.307 144.639 166.68 145.012C167.054 145.376 167.492 145.661 167.996 145.866C168.5 146.062 169.046 146.16 169.634 146.16C170.194 146.16 170.717 146.067 171.202 145.88C171.688 145.693 172.131 145.395 172.532 144.984L173.19 145.642C172.761 146.118 172.234 146.477 171.608 146.72C170.983 146.963 170.311 147.084 169.592 147.084ZM175.189 147V136.612H176.183V147H175.189ZM178.949 147V139.65H179.943V147H178.949ZM179.453 138.026C179.247 138.026 179.075 137.956 178.935 137.816C178.795 137.676 178.725 137.508 178.725 137.312C178.725 137.116 178.795 136.953 178.935 136.822C179.075 136.682 179.247 136.612 179.453 136.612C179.658 136.612 179.831 136.677 179.971 136.808C180.111 136.939 180.181 137.102 180.181 137.298C180.181 137.503 180.111 137.676 179.971 137.816C179.84 137.956 179.667 138.026 179.453 138.026ZM185.76 147.07C185.032 147.07 184.379 146.911 183.8 146.594C183.231 146.267 182.783 145.824 182.456 145.264C182.13 144.695 181.966 144.046 181.966 143.318C181.966 142.581 182.13 141.932 182.456 141.372C182.783 140.812 183.231 140.373 183.8 140.056C184.379 139.739 185.032 139.58 185.76 139.58C186.386 139.58 186.95 139.701 187.454 139.944C187.958 140.187 188.355 140.551 188.644 141.036L187.902 141.54C187.65 141.167 187.338 140.891 186.964 140.714C186.591 140.537 186.185 140.448 185.746 140.448C185.224 140.448 184.752 140.569 184.332 140.812C183.912 141.045 183.581 141.377 183.338 141.806C183.096 142.235 182.974 142.739 182.974 143.318C182.974 143.897 183.096 144.401 183.338 144.83C183.581 145.259 183.912 145.595 184.332 145.838C184.752 146.071 185.224 146.188 185.746 146.188C186.185 146.188 186.591 146.099 186.964 145.922C187.338 145.745 187.65 145.474 187.902 145.11L188.644 145.614C188.355 146.09 187.958 146.454 187.454 146.706C186.95 146.949 186.386 147.07 185.76 147.07ZM191.272 145.096L191.3 143.822L195.878 139.65H197.096L193.862 142.744L193.302 143.22L191.272 145.096ZM190.488 147V136.612H191.482V147H190.488ZM196.186 147L193.12 143.178L193.764 142.408L197.404 147H196.186ZM204.884 147.07C204.193 147.07 203.661 146.883 203.288 146.51C202.914 146.137 202.728 145.609 202.728 144.928V138.026H203.722V144.872C203.722 145.301 203.829 145.633 204.044 145.866C204.268 146.099 204.585 146.216 204.996 146.216C205.434 146.216 205.798 146.09 206.088 145.838L206.438 146.552C206.242 146.729 206.004 146.86 205.724 146.944C205.453 147.028 205.173 147.07 204.884 147.07ZM201.412 140.476V139.65H205.962V140.476H201.412ZM210.984 147.07C210.274 147.07 209.635 146.911 209.066 146.594C208.506 146.267 208.062 145.824 207.736 145.264C207.409 144.695 207.246 144.046 207.246 143.318C207.246 142.581 207.409 141.932 207.736 141.372C208.062 140.812 208.506 140.373 209.066 140.056C209.626 139.739 210.265 139.58 210.984 139.58C211.712 139.58 212.356 139.739 212.916 140.056C213.485 140.373 213.928 140.812 214.246 141.372C214.572 141.932 214.736 142.581 214.736 143.318C214.736 144.046 214.572 144.695 214.246 145.264C213.928 145.824 213.485 146.267 212.916 146.594C212.346 146.911 211.702 147.07 210.984 147.07ZM210.984 146.188C211.516 146.188 211.987 146.071 212.398 145.838C212.808 145.595 213.13 145.259 213.364 144.83C213.606 144.391 213.728 143.887 213.728 143.318C213.728 142.739 213.606 142.235 213.364 141.806C213.13 141.377 212.808 141.045 212.398 140.812C211.987 140.569 211.52 140.448 210.998 140.448C210.475 140.448 210.008 140.569 209.598 140.812C209.187 141.045 208.86 141.377 208.618 141.806C208.375 142.235 208.254 142.739 208.254 143.318C208.254 143.887 208.375 144.391 208.618 144.83C208.86 145.259 209.187 145.595 209.598 145.838C210.008 146.071 210.47 146.188 210.984 146.188Z" fill="#919EAB"/>
<path d="M224.223 147.07C223.579 147.07 223 146.925 222.487 146.636C221.974 146.337 221.568 145.908 221.269 145.348C220.97 144.788 220.821 144.111 220.821 143.318C220.821 142.515 220.97 141.839 221.269 141.288C221.577 140.728 221.988 140.303 222.501 140.014C223.014 139.725 223.588 139.58 224.223 139.58C224.923 139.58 225.548 139.739 226.099 140.056C226.659 140.364 227.098 140.798 227.415 141.358C227.732 141.918 227.891 142.571 227.891 143.318C227.891 144.055 227.732 144.709 227.415 145.278C227.098 145.838 226.659 146.277 226.099 146.594C225.548 146.911 224.923 147.07 224.223 147.07ZM220.429 147V136.612H221.423V141.82L221.283 143.304L221.381 144.788V147H220.429ZM224.153 146.188C224.676 146.188 225.142 146.071 225.553 145.838C225.964 145.595 226.29 145.259 226.533 144.83C226.776 144.391 226.897 143.887 226.897 143.318C226.897 142.739 226.776 142.235 226.533 141.806C226.29 141.377 225.964 141.045 225.553 140.812C225.142 140.569 224.676 140.448 224.153 140.448C223.63 140.448 223.159 140.569 222.739 140.812C222.328 141.045 222.002 141.377 221.759 141.806C221.526 142.235 221.409 142.739 221.409 143.318C221.409 143.887 221.526 144.391 221.759 144.83C222.002 145.259 222.328 145.595 222.739 145.838C223.159 146.071 223.63 146.188 224.153 146.188ZM229.917 147V139.65H230.869V141.652L230.771 141.302C230.977 140.742 231.322 140.317 231.807 140.028C232.293 139.729 232.895 139.58 233.613 139.58V140.546C233.576 140.546 233.539 140.546 233.501 140.546C233.464 140.537 233.427 140.532 233.389 140.532C232.615 140.532 232.008 140.77 231.569 141.246C231.131 141.713 230.911 142.38 230.911 143.248V147H229.917ZM238.355 147.07C237.645 147.07 237.006 146.911 236.437 146.594C235.877 146.267 235.433 145.824 235.107 145.264C234.78 144.695 234.617 144.046 234.617 143.318C234.617 142.581 234.78 141.932 235.107 141.372C235.433 140.812 235.877 140.373 236.437 140.056C236.997 139.739 237.636 139.58 238.355 139.58C239.083 139.58 239.727 139.739 240.287 140.056C240.856 140.373 241.299 140.812 241.617 141.372C241.943 141.932 242.107 142.581 242.107 143.318C242.107 144.046 241.943 144.695 241.617 145.264C241.299 145.824 240.856 146.267 240.287 146.594C239.717 146.911 239.073 147.07 238.355 147.07ZM238.355 146.188C238.887 146.188 239.358 146.071 239.769 145.838C240.179 145.595 240.501 145.259 240.735 144.83C240.977 144.391 241.099 143.887 241.099 143.318C241.099 142.739 240.977 142.235 240.735 141.806C240.501 141.377 240.179 141.045 239.769 140.812C239.358 140.569 238.891 140.448 238.369 140.448C237.846 140.448 237.379 140.569 236.969 140.812C236.558 141.045 236.231 141.377 235.989 141.806C235.746 142.235 235.625 142.739 235.625 143.318C235.625 143.887 235.746 144.391 235.989 144.83C236.231 145.259 236.558 145.595 236.969 145.838C237.379 146.071 237.841 146.188 238.355 146.188ZM245.429 147L242.657 139.65H243.609L246.129 146.468H245.695L248.285 139.65H249.139L251.701 146.468H251.267L253.829 139.65H254.739L251.953 147H251.015L248.551 140.588H248.845L246.367 147H245.429ZM258.128 147.07C257.521 147.07 256.947 146.986 256.406 146.818C255.864 146.641 255.44 146.421 255.132 146.16L255.58 145.376C255.878 145.6 256.261 145.796 256.728 145.964C257.194 146.123 257.684 146.202 258.198 146.202C258.898 146.202 259.402 146.095 259.71 145.88C260.018 145.656 260.172 145.362 260.172 144.998C260.172 144.727 260.083 144.517 259.906 144.368C259.738 144.209 259.514 144.093 259.234 144.018C258.954 143.934 258.641 143.864 258.296 143.808C257.95 143.752 257.605 143.687 257.26 143.612C256.924 143.537 256.616 143.43 256.336 143.29C256.056 143.141 255.827 142.94 255.65 142.688C255.482 142.436 255.398 142.1 255.398 141.68C255.398 141.279 255.51 140.919 255.734 140.602C255.958 140.285 256.284 140.037 256.714 139.86C257.152 139.673 257.684 139.58 258.31 139.58C258.786 139.58 259.262 139.645 259.738 139.776C260.214 139.897 260.606 140.061 260.914 140.266L260.48 141.064C260.153 140.84 259.803 140.681 259.43 140.588C259.056 140.485 258.683 140.434 258.31 140.434C257.647 140.434 257.157 140.551 256.84 140.784C256.532 141.008 256.378 141.297 256.378 141.652C256.378 141.932 256.462 142.151 256.63 142.31C256.807 142.469 257.036 142.595 257.316 142.688C257.605 142.772 257.918 142.842 258.254 142.898C258.599 142.954 258.94 143.024 259.276 143.108C259.621 143.183 259.934 143.29 260.214 143.43C260.503 143.561 260.732 143.752 260.9 144.004C261.077 144.247 261.166 144.569 261.166 144.97C261.166 145.399 261.044 145.773 260.802 146.09C260.568 146.398 260.223 146.641 259.766 146.818C259.318 146.986 258.772 147.07 258.128 147.07ZM266.112 147.07C265.346 147.07 264.674 146.911 264.096 146.594C263.517 146.267 263.064 145.824 262.738 145.264C262.411 144.695 262.248 144.046 262.248 143.318C262.248 142.59 262.402 141.946 262.71 141.386C263.027 140.826 263.456 140.387 263.998 140.07C264.548 139.743 265.164 139.58 265.846 139.58C266.536 139.58 267.148 139.739 267.68 140.056C268.221 140.364 268.646 140.803 268.954 141.372C269.262 141.932 269.416 142.581 269.416 143.318C269.416 143.365 269.411 143.416 269.402 143.472C269.402 143.519 269.402 143.57 269.402 143.626H263.004V142.884H268.87L268.478 143.178C268.478 142.646 268.361 142.175 268.128 141.764C267.904 141.344 267.596 141.017 267.204 140.784C266.812 140.551 266.359 140.434 265.846 140.434C265.342 140.434 264.889 140.551 264.488 140.784C264.086 141.017 263.774 141.344 263.55 141.764C263.326 142.184 263.214 142.665 263.214 143.206V143.36C263.214 143.92 263.335 144.415 263.578 144.844C263.83 145.264 264.175 145.595 264.614 145.838C265.062 146.071 265.57 146.188 266.14 146.188C266.588 146.188 267.003 146.109 267.386 145.95C267.778 145.791 268.114 145.549 268.394 145.222L268.954 145.866C268.627 146.258 268.216 146.557 267.722 146.762C267.236 146.967 266.7 147.07 266.112 147.07ZM275.271 147V138.726C275.271 138.073 275.462 137.545 275.845 137.144C276.227 136.743 276.778 136.542 277.497 136.542C277.777 136.542 278.047 136.579 278.309 136.654C278.57 136.729 278.789 136.845 278.967 137.004L278.631 137.746C278.491 137.625 278.327 137.536 278.141 137.48C277.954 137.415 277.753 137.382 277.539 137.382C277.119 137.382 276.797 137.499 276.573 137.732C276.349 137.965 276.237 138.311 276.237 138.768V139.888L276.265 140.35V147H275.271ZM273.955 140.476V139.65H278.505V140.476H273.955ZM279.849 147V139.65H280.843V147H279.849ZM280.353 138.026C280.147 138.026 279.975 137.956 279.835 137.816C279.695 137.676 279.625 137.508 279.625 137.312C279.625 137.116 279.695 136.953 279.835 136.822C279.975 136.682 280.147 136.612 280.353 136.612C280.558 136.612 280.731 136.677 280.871 136.808C281.011 136.939 281.081 137.102 281.081 137.298C281.081 137.503 281.011 137.676 280.871 137.816C280.74 137.956 280.567 138.026 280.353 138.026ZM283.634 147V136.612H284.628V147H283.634ZM290.516 147.07C289.75 147.07 289.078 146.911 288.5 146.594C287.921 146.267 287.468 145.824 287.142 145.264C286.815 144.695 286.652 144.046 286.652 143.318C286.652 142.59 286.806 141.946 287.114 141.386C287.431 140.826 287.86 140.387 288.402 140.07C288.952 139.743 289.568 139.58 290.25 139.58C290.94 139.58 291.552 139.739 292.084 140.056C292.625 140.364 293.05 140.803 293.358 141.372C293.666 141.932 293.82 142.581 293.82 143.318C293.82 143.365 293.815 143.416 293.806 143.472C293.806 143.519 293.806 143.57 293.806 143.626H287.408V142.884H293.274L292.882 143.178C292.882 142.646 292.765 142.175 292.532 141.764C292.308 141.344 292 141.017 291.608 140.784C291.216 140.551 290.763 140.434 290.25 140.434C289.746 140.434 289.293 140.551 288.892 140.784C288.49 141.017 288.178 141.344 287.954 141.764C287.73 142.184 287.618 142.665 287.618 143.206V143.36C287.618 143.92 287.739 144.415 287.982 144.844C288.234 145.264 288.579 145.595 289.018 145.838C289.466 146.071 289.974 146.188 290.544 146.188C290.992 146.188 291.407 146.109 291.79 145.95C292.182 145.791 292.518 145.549 292.798 145.222L293.358 145.866C293.031 146.258 292.62 146.557 292.126 146.762C291.64 146.967 291.104 147.07 290.516 147.07ZM297.817 147.07C297.21 147.07 296.636 146.986 296.095 146.818C295.554 146.641 295.129 146.421 294.821 146.16L295.269 145.376C295.568 145.6 295.95 145.796 296.417 145.964C296.884 146.123 297.374 146.202 297.887 146.202C298.587 146.202 299.091 146.095 299.399 145.88C299.707 145.656 299.861 145.362 299.861 144.998C299.861 144.727 299.772 144.517 299.595 144.368C299.427 144.209 299.203 144.093 298.923 144.018C298.643 143.934 298.33 143.864 297.985 143.808C297.64 143.752 297.294 143.687 296.949 143.612C296.613 143.537 296.305 143.43 296.025 143.29C295.745 143.141 295.516 142.94 295.339 142.688C295.171 142.436 295.087 142.1 295.087 141.68C295.087 141.279 295.199 140.919 295.423 140.602C295.647 140.285 295.974 140.037 296.403 139.86C296.842 139.673 297.374 139.58 297.999 139.58C298.475 139.58 298.951 139.645 299.427 139.776C299.903 139.897 300.295 140.061 300.603 140.266L300.169 141.064C299.842 140.84 299.492 140.681 299.119 140.588C298.746 140.485 298.372 140.434 297.999 140.434C297.336 140.434 296.846 140.551 296.529 140.784C296.221 141.008 296.067 141.297 296.067 141.652C296.067 141.932 296.151 142.151 296.319 142.31C296.496 142.469 296.725 142.595 297.005 142.688C297.294 142.772 297.607 142.842 297.943 142.898C298.288 142.954 298.629 143.024 298.965 143.108C299.31 143.183 299.623 143.29 299.903 143.43C300.192 143.561 300.421 143.752 300.589 144.004C300.766 144.247 300.855 144.569 300.855 144.97C300.855 145.399 300.734 145.773 300.491 146.09C300.258 146.398 299.912 146.641 299.455 146.818C299.007 146.986 298.461 147.07 297.817 147.07ZM302.777 147.07C302.572 147.07 302.394 146.995 302.245 146.846C302.105 146.697 302.035 146.515 302.035 146.3C302.035 146.076 302.105 145.894 302.245 145.754C302.394 145.614 302.572 145.544 302.777 145.544C302.982 145.544 303.155 145.614 303.295 145.754C303.444 145.894 303.519 146.076 303.519 146.3C303.519 146.515 303.444 146.697 303.295 146.846C303.155 146.995 302.982 147.07 302.777 147.07Z" fill="#0038FF"/>
<path d="M219.043 148.75H304.261V149.45H219.043V148.75Z" fill="#0038FF"/>
<rect x="1" y="1" width="466" height="172" rx="12" stroke="#919EAB" stroke-opacity="0.48" stroke-dasharray="3 3"/>
</svg>
