<svg width="22" height="16" viewBox="0 0 22 16" fill="none" xmlns="http://www.w3.org/2000/svg">
<path d="M11 0.500061C6 0.500061 1.73 3.61006 0 8.00006C1.73 12.3901 6 15.5001 11 15.5001C16 15.5001 20.27 12.3901 22 8.00006C20.27 3.61006 16 0.500061 11 0.500061ZM11 13.0001C8.24 13.0001 6 10.7601 6 8.00006C6 5.24006 8.24 3.00006 11 3.00006C13.76 3.00006 16 5.24006 16 8.00006C16 10.7601 13.76 13.0001 11 13.0001ZM11 5.00006C9.34 5.00006 8 6.34006 8 8.00006C8 9.66006 9.34 11.0001 11 11.0001C12.66 11.0001 14 9.66006 14 8.00006C14 6.34006 12.66 5.00006 11 5.00006Z" fill="#3491EE"/>
</svg>
