<svg width="56" height="56" viewBox="0 0 56 56" fill="none" xmlns="http://www.w3.org/2000/svg">
<g clip-path="url(#clip0_644_27149)">
<path d="M26.4342 39.5993C27.3321 40.4051 28.6904 40.4051 29.5884 39.5993C34.1009 35.5472 34.9067 30.2979 34.9067 27.6272C34.9067 24.9796 34.1009 19.7072 29.5653 15.6551C28.6674 14.8493 27.3091 14.8493 26.4111 15.6551C21.8986 19.7072 21.0928 24.9565 21.0928 27.6272C21.0928 30.2749 21.8986 35.5472 26.4342 39.5993Z" fill="#DADCDD"/>
<path d="M38.3603 27.628C38.3603 29.8613 37.8308 37.2057 31.3843 42.5931C33.1801 43.3068 35.1371 43.7443 37.2092 43.7443C46.0961 43.7443 53.3254 36.515 53.3254 27.628C53.3254 18.741 46.0961 11.5117 37.2092 11.5117C35.1371 11.5117 33.1801 11.9492 31.3843 12.6629C37.8308 18.0503 38.3603 25.3947 38.3603 27.628Z" fill="#9AA1A9"/>
<path d="M18.7906 43.7443C20.8627 43.7443 22.8197 43.3068 24.6155 42.5931C23.2111 41.4189 22.0829 40.1296 21.185 38.8403C20.4252 39.0245 19.6194 39.1396 18.7906 39.1396C12.4362 39.1396 7.27897 33.9824 7.27897 27.628C7.27897 21.2736 12.4362 16.1164 18.7906 16.1164C19.6194 16.1164 20.4252 16.2315 21.185 16.4157C22.0829 15.1264 23.2111 13.8371 24.6155 12.6629C22.8197 11.9492 20.8627 11.5117 18.7906 11.5117C9.90362 11.5117 2.67432 18.741 2.67432 27.628C2.67432 36.515 9.90362 43.7443 18.7906 43.7443Z" fill="#9AA1A9"/>
</g>
<defs>
<clipPath id="clip0_644_27149">
<rect width="55.2558" height="55.2558" fill="white" transform="translate(0.37207)"/>
</clipPath>
</defs>
</svg>
