<svg width="56" height="56" viewBox="0 0 56 56" fill="none" xmlns="http://www.w3.org/2000/svg">
<g clip-path="url(#clip0_644_27130)">
<path d="M29.5658 39.5993C28.6679 40.4051 27.3096 40.4051 26.4116 39.5993C21.8991 35.5472 21.0933 30.2979 21.0933 27.6272C21.0933 24.9796 21.8991 19.7072 26.4347 15.6551C27.3326 14.8493 28.6909 14.8493 29.5889 15.6551C34.1014 19.7072 34.9072 24.9565 34.9072 27.6272C34.9072 30.2749 34.1014 35.5472 29.5658 39.5993Z" fill="#DADCDD"/>
<path d="M17.6397 27.628C17.6397 29.8613 18.1692 37.2057 24.6157 42.5931C22.8199 43.3068 20.8629 43.7443 18.7908 43.7443C9.90386 43.7443 2.67456 36.515 2.67456 27.628C2.67456 18.741 9.90386 11.5117 18.7908 11.5117C20.8629 11.5117 22.8199 11.9492 24.6157 12.6629C18.1692 18.0503 17.6397 25.3947 17.6397 27.628Z" fill="#9AA1A9"/>
<path d="M37.2094 43.7443C35.1373 43.7443 33.1803 43.3068 31.3845 42.5931C32.7889 41.4189 33.9171 40.1296 34.815 38.8403C35.5748 39.0245 36.3806 39.1396 37.2094 39.1396C43.5638 39.1396 48.721 33.9824 48.721 27.628C48.721 21.2736 43.5638 16.1164 37.2094 16.1164C36.3806 16.1164 35.5748 16.2315 34.815 16.4157C33.9171 15.1264 32.7889 13.8371 31.3845 12.6629C33.1803 11.9492 35.1373 11.5117 37.2094 11.5117C46.0964 11.5117 53.3257 18.741 53.3257 27.628C53.3257 36.515 46.0964 43.7443 37.2094 43.7443Z" fill="#9AA1A9"/>
</g>
<defs>
<clipPath id="clip0_644_27130">
<rect width="55.2558" height="55.2558" fill="white" transform="matrix(-1 0 0 1 55.6279 0)"/>
</clipPath>
</defs>
</svg>
