<svg width="51" height="48" viewBox="0 0 51 48" fill="none" xmlns="http://www.w3.org/2000/svg">
<rect x="0.925781" width="49.3858" height="48" rx="10" fill="#E9FEF5"/>
<path d="M26.5583 23.9541H24.8625C24.4042 23.9541 23.9917 23.6791 23.8083 23.2666L23.1667 21.8458C23.1208 21.7541 23.0292 21.7083 22.9375 21.7083H18.5833C18.4917 21.7083 18.4 21.7541 18.3542 21.8458L17.6667 23.2666C17.4833 23.6791 17.0708 23.9541 16.6125 23.9541H14.9167C14.4125 23.9541 14 24.3666 14 24.8708V34.0833C14 34.5875 14.4125 35 14.9167 35H26.5583C27.0625 35 27.475 34.5875 27.475 34.0833V24.825C27.4292 24.3208 27.0625 23.9541 26.5583 23.9541ZM20.7375 33.2125C18.4458 33.2125 16.6125 31.3791 16.6125 29.0875C16.6125 26.7958 18.4458 24.9625 20.7375 24.9625C23.0292 24.9625 24.8625 26.7958 24.8625 29.0875C24.8625 31.3791 22.9833 33.2125 20.7375 33.2125ZM24.8625 25.8791C24.45 25.8791 24.1292 25.5583 24.1292 25.1458C24.1292 24.7333 24.45 24.4125 24.8625 24.4125C25.275 24.4125 25.5958 24.7333 25.5958 25.1458C25.5958 25.5583 25.2292 25.8791 24.8625 25.8791Z" fill="#00AB55"/>
<path d="M37.5117 13.8708H36.8242C36.6409 13.8708 36.5034 13.9167 36.3201 13.9625L32.9284 15.4292V14.8333C32.9284 13.825 32.1034 13 31.0951 13H17.3451C16.3367 13 15.5117 13.825 15.5117 14.8333V22.9917H16.4284C16.5659 22.9917 16.7492 22.9917 16.8409 22.8542L17.4826 21.4333C17.7117 21.0667 18.1242 20.7917 18.5826 20.7917H22.8909C23.3492 20.7917 23.7617 21.0667 23.9451 21.4792L24.5867 22.9C24.6326 22.9917 24.7242 23.0375 24.8159 23.0375H26.5117C27.5201 23.0375 28.3451 23.8625 28.3451 24.8708V26.8417V27.7583H31.1409C32.1492 27.7583 32.9742 26.9333 32.9742 25.925V25.3292L36.3201 26.7958C36.4576 26.8417 36.6409 26.8875 36.8242 26.8875H37.5117C38.1992 26.8875 38.7492 26.3375 38.7492 25.65V15.1083C38.7492 14.4208 38.1992 13.8708 37.5117 13.8708ZM27.8867 17.1708C27.8867 16.4375 28.4826 15.8417 29.2159 15.8417C29.9492 15.8417 30.5451 16.4375 30.5451 17.1708C30.5451 17.9042 29.9492 18.5 29.2159 18.5C28.4826 18.5 27.8867 17.9042 27.8867 17.1708Z" fill="#00AB55"/>
</svg>
