<svg width="12" height="6" viewBox="0 0 12 6" fill="none" xmlns="http://www.w3.org/2000/svg">
<path d="M6.00023 5.91838C5.80552 5.91876 5.61682 5.85095 5.4669 5.72671L0.466895 1.56005C0.112512 1.2655 0.0640098 0.73943 0.358562 0.385047C0.653114 0.0306642 1.17918 -0.0178383 1.53356 0.276714L6.00023 4.01005L10.4669 0.410047C10.6391 0.270238 10.8598 0.204823 11.0804 0.228284C11.3009 0.251745 11.503 0.362147 11.6419 0.535047C11.7962 0.708263 11.8713 0.937945 11.8491 1.16885C11.827 1.39975 11.7096 1.61097 11.5252 1.75171L6.52523 5.77671C6.37099 5.88131 6.18615 5.93119 6.00023 5.91838Z" fill="#637381"/>
</svg>
