<svg width="64" height="64" viewBox="0 0 64 64" fill="none" xmlns="http://www.w3.org/2000/svg">
<circle cx="32" cy="32" r="32" fill="white"/>
<path fill-rule="evenodd" clip-rule="evenodd" d="M36.9123 18.2344H22.2605V47.9995H44.5824V25.6916L36.9123 18.2344Z" fill="#FFD733"/>
<path d="M42.7458 46.5403H20.3892C20.2858 46.5403 20.1866 46.4994 20.1137 46.4264C20.0406 46.3535 19.9997 46.2546 20 46.1515L20.0828 16.3866C20.0834 16.173 20.2576 16 20.472 16H35.109C35.2123 16 35.3113 16.0408 35.3842 16.1136L43.0629 23.7597C43.136 23.8325 43.1772 23.9315 43.1769 24.0345L43.1586 33.0861C43.1582 33.3 42.984 33.473 42.7694 33.473C42.7691 33.473 42.7689 33.473 42.7686 33.473C42.5536 33.4724 42.3797 33.2985 42.3801 33.0846L42.3982 24.1939L34.9478 16.7752H20.8601L20.7795 45.7651H42.3577L42.36 44.9568C42.3607 44.7433 42.5348 44.5704 42.7493 44.5704C42.7497 44.5704 42.75 44.5704 42.7504 44.5704C42.9653 44.571 43.1392 44.7451 43.1385 44.9592L43.1351 46.1539C43.1344 46.3674 42.9602 46.5403 42.7458 46.5403Z" fill="black"/>
<path d="M42.7875 24.4211H37.626C36.0234 24.4211 34.7197 23.1229 34.7197 21.5272V16.3876C34.7197 16.2309 34.8146 16.0895 34.96 16.0296C35.106 15.9695 35.273 16.0027 35.3843 16.1135L43.063 23.7596C43.1743 23.8705 43.2076 24.0372 43.1473 24.182C43.0868 24.3267 42.9449 24.4211 42.7875 24.4211ZM35.4981 17.3232V21.5273C35.4981 22.6955 36.4525 23.6461 37.6258 23.6461H41.8477L35.4981 17.3232ZM45.1794 43.5719H30.0512C29.5989 43.5719 29.231 43.2055 29.231 42.7551V35.2882C29.231 34.8378 29.5989 34.4713 30.0512 34.4713H45.1796C45.6319 34.4713 46 34.8378 46 35.2882V42.7551C46 43.2055 45.6319 43.5719 45.1794 43.5719ZM30.0512 35.2463C30.0289 35.2463 30.0095 35.2659 30.0095 35.2881V42.755C30.0095 42.7772 30.0289 42.7966 30.0512 42.7966H45.1796C45.2019 42.7966 45.2215 42.7772 45.2215 42.755V35.2881C45.2215 35.2659 45.2019 35.2463 45.1796 35.2463H30.0512Z" fill="black"/>
<path d="M33.8422 38.7535H35.7982V39.3674H33.8422V38.7535ZM33.9039 40.863H33.1753V36.9565H36.0392V37.5648H33.9039V40.863Z" fill="black"/>
<path d="M36.6765 40.863V37.8829H37.3771V40.863H36.6765ZM37.0296 37.3918C36.8988 37.3918 36.7905 37.3509 36.7045 37.269C36.6223 37.1872 36.5812 37.0886 36.5812 36.9732C36.5812 36.8542 36.6223 36.7556 36.7045 36.6775C36.7905 36.5956 36.8988 36.5547 37.0296 36.5547C37.1604 36.5547 37.2668 36.5938 37.349 36.6719C37.435 36.7463 37.4779 36.8412 37.4779 36.9565C37.4779 37.0793 37.4368 37.1835 37.3546 37.269C37.2724 37.3509 37.1641 37.3918 37.0296 37.3918Z" fill="black"/>
<path d="M38.2965 40.863V36.7221H38.9971V40.863H38.2965Z" fill="black"/>
<path d="M41.3233 40.9021C40.9908 40.9021 40.6993 40.837 40.449 40.7068C40.2024 40.5728 40.01 40.3905 39.8717 40.1599C39.7372 39.9292 39.67 39.6669 39.67 39.373C39.67 39.0753 39.7354 38.813 39.8661 38.5861C40.0007 38.3554 40.1837 38.175 40.4154 38.0448C40.6508 37.9145 40.9179 37.8494 41.2168 37.8494C41.5083 37.8494 41.7679 37.9127 41.9958 38.0392C42.2238 38.1657 42.4031 38.3443 42.5339 38.5749C42.6646 38.8056 42.73 39.0772 42.73 39.3897C42.73 39.4195 42.7282 39.453 42.7244 39.4902C42.7244 39.5274 42.7226 39.5627 42.7188 39.5962H40.2248V39.133H42.3489L42.0743 39.2781C42.078 39.107 42.0425 38.9563 41.9678 38.8261C41.8931 38.6958 41.7903 38.5935 41.6596 38.5191C41.5325 38.4447 41.385 38.4075 41.2168 38.4075C41.0449 38.4075 40.8936 38.4447 40.7629 38.5191C40.6358 38.5935 40.5349 38.6977 40.4602 38.8316C40.3892 38.9619 40.3537 39.1163 40.3537 39.2948V39.4065C40.3537 39.585 40.3948 39.7432 40.477 39.8808C40.5592 40.0185 40.6751 40.1245 40.8245 40.1989C40.974 40.2733 41.1458 40.3106 41.3401 40.3106C41.5083 40.3106 41.6596 40.2845 41.7941 40.2324C41.9286 40.1803 42.0481 40.0985 42.1528 39.9869L42.5283 40.4166C42.3938 40.5728 42.2238 40.6938 42.0183 40.7793C41.8165 40.8612 41.5848 40.9021 41.3233 40.9021Z" fill="black"/>
</svg>
