<svg width="103" height="118" viewBox="0 0 103 118" fill="none" xmlns="http://www.w3.org/2000/svg">
<path d="M98.787 75.3109C98.7012 78.4911 98.1643 81.6434 97.1921 84.6749C97.1698 84.7453 97.1465 84.8146 97.1232 84.8849H91.1709C91.1773 84.8219 91.1836 84.7516 91.19 84.6749C91.5869 80.1483 93.8751 52.5981 91.1392 47.8867C91.3784 48.2689 99.2485 60.9279 98.787 75.3109Z" fill="#F0F0F0"/>
<path d="M98.3405 84.6761C98.2908 84.7465 98.2389 84.8168 98.186 84.8861H93.7207C93.7546 84.8263 93.7937 84.7559 93.8392 84.6761C94.5769 83.3552 96.7604 79.4061 98.7872 75.3121C100.965 70.9126 102.964 66.3461 102.795 64.6934C102.847 65.0661 104.354 76.4293 98.3405 84.6761Z" fill="#F0F0F0"/>
<path d="M97.0945 84.7593H59.4533C59.1598 84.759 58.8784 84.6432 58.6708 84.4373C58.4633 84.2314 58.3465 83.9522 58.3462 83.661V35.0202C58.3465 34.729 58.4633 34.4498 58.6708 34.2439C58.8784 34.038 59.1598 33.9222 59.4533 33.9219H97.0945C97.388 33.9222 97.6694 34.038 97.877 34.2439C98.0845 34.4498 98.2013 34.729 98.2016 35.0202V83.661C98.2013 83.9522 98.0845 84.2314 97.877 84.4373C97.6694 84.6432 97.388 84.759 97.0945 84.7593ZM59.4533 34.2357C59.2436 34.2359 59.0426 34.3187 58.8944 34.4657C58.7461 34.6128 58.6628 34.8122 58.6625 35.0202V83.661C58.6628 83.869 58.7461 84.0684 58.8944 84.2155C59.0426 84.3626 59.2436 84.4453 59.4533 84.4455H97.0945C97.3042 84.4453 97.5052 84.3626 97.6534 84.2155C97.8017 84.0684 97.8851 83.869 97.8853 83.661V35.0202C97.8851 34.8122 97.8017 34.6128 97.6534 34.4657C97.5052 34.3187 97.3042 34.2359 97.0945 34.2357H59.4533Z" fill="#E6E6E6"/>
<path d="M87.8292 67.7478H64.8321C64.4096 67.7473 64.0044 67.586 63.7056 67.2992C63.4068 67.0124 63.2388 66.6235 63.2383 66.2179V48.9518C63.2388 48.5462 63.4068 48.1573 63.7056 47.8705C64.0044 47.5837 64.4096 47.4223 64.8321 47.4219H87.8292C88.2517 47.4223 88.6568 47.5837 88.9556 47.8705C89.2544 48.1573 89.4225 48.5462 89.423 48.9518V66.2179C89.4225 66.6235 89.2544 67.0124 88.9556 67.2992C88.6568 67.586 88.2517 67.7473 87.8292 67.7478ZM64.8321 47.859C64.5303 47.8593 64.2409 47.9746 64.0275 48.1794C63.8141 48.3843 63.694 48.6621 63.6937 48.9518V66.2179C63.694 66.5076 63.8141 66.7854 64.0275 66.9902C64.2409 67.1951 64.5303 67.3104 64.8321 67.3107H87.8292C88.131 67.3104 88.4204 67.1951 88.6338 66.9902C88.8472 66.7854 88.9673 66.5076 88.9676 66.2179V48.9518C88.9673 48.6621 88.8472 48.3843 88.6338 48.1794C88.4204 47.9746 88.131 47.8593 87.8292 47.859H64.8321Z" fill="#3F3D56"/>
<path d="M92.7962 71.6189H71.5026C71.1114 71.6184 70.7363 71.4571 70.4596 71.1703C70.1829 70.8835 70.0273 70.4946 70.0269 70.089V52.8229C70.0273 52.4173 70.1829 52.0284 70.4596 51.7416C70.7363 51.4548 71.1114 51.2934 71.5026 51.293H92.7962C93.1875 51.2934 93.5626 51.4548 93.8392 51.7416C94.1159 52.0284 94.2715 52.4173 94.272 52.8229V70.089C94.2715 70.4946 94.1159 70.8835 93.8392 71.1703C93.5626 71.4571 93.1875 71.6184 92.7962 71.6189Z" fill="#FF6584"/>
<path d="M84.5736 66.7814H73.9455C73.9322 66.7816 73.9189 66.7806 73.9058 66.7783L78.9324 58.2454C78.9631 58.1923 79.0076 58.148 79.0614 58.1173C79.1152 58.0865 79.1764 58.0703 79.2387 58.0703C79.301 58.0703 79.3622 58.0865 79.416 58.1173C79.4698 58.148 79.5144 58.1923 79.5451 58.2454L82.9185 63.9717L83.0801 64.2457L84.5736 66.7814Z" fill="white"/>
<path opacity="0.2" d="M83.7828 66.7796H81.0449L82.3889 65.0325L82.4857 64.9067L82.534 64.8438L82.6559 65.0325L83.7828 66.7796Z" fill="black"/>
<path d="M91.3626 66.7792H81.6646L83.5438 64.0066L83.6791 63.8068L86.128 60.1936C86.1713 60.1384 86.2255 60.093 86.2872 60.0605C86.3489 60.028 86.4166 60.009 86.486 60.0048C86.5553 60.0006 86.6248 60.0112 86.6898 60.0361C86.7549 60.0609 86.8141 60.0993 86.8635 60.1489C86.8762 60.163 86.888 60.1779 86.8988 60.1936L91.3626 66.7792Z" fill="white"/>
<path d="M90.8776 58.0697C91.681 58.0697 92.3323 57.4197 92.3323 56.6179C92.3323 55.816 91.681 55.166 90.8776 55.166C90.0741 55.166 89.4229 55.816 89.4229 56.6179C89.4229 57.4197 90.0741 58.0697 90.8776 58.0697Z" fill="white"/>
<path d="M11.8608 30C9.12484 34.7114 11.4131 62.2616 11.8099 66.7882C11.8163 66.8648 11.8227 66.9352 11.829 66.9982H5.87667C5.85337 66.9278 5.83008 66.8585 5.80786 66.7882C4.83563 63.7566 4.29869 60.6043 4.21288 57.4242C3.75144 43.0411 11.6215 30.3822 11.8608 30Z" fill="#F0F0F0"/>
<path d="M0.204807 46.8047C0.0365164 48.4574 2.03475 53.0239 4.21289 57.4235C6.2397 61.5174 8.42313 65.4665 9.16081 66.7875C9.20633 66.8673 9.24548 66.9376 9.27936 66.9975H4.81405C4.76113 66.9282 4.70927 66.8578 4.65952 66.7875C-1.35421 58.5407 0.152932 47.1774 0.204807 46.8047Z" fill="#F0F0F0"/>
<path d="M43.1053 84.7446H5.46403C5.17051 84.7442 4.88912 84.6284 4.68157 84.4225C4.47403 84.2166 4.35728 83.9374 4.35693 83.6462V71.2507C4.35728 70.9595 4.47403 70.6803 4.68157 70.4744C4.88912 70.2685 5.17051 70.1527 5.46403 70.1523H43.1053C43.3988 70.1527 43.6802 70.2685 43.8877 70.4744C44.0952 70.6803 44.212 70.9595 44.2124 71.2507V83.6462C44.212 83.9374 44.0952 84.2166 43.8877 84.4225C43.6802 84.6284 43.3988 84.7442 43.1053 84.7446Z" fill="#E6E6E6"/>
<path d="M42.9471 67.0147H5.30583C5.01231 67.0143 4.73092 66.8985 4.52337 66.6926C4.31582 66.4867 4.19907 66.2075 4.19873 65.9163V35.6335C4.19906 35.3423 4.31581 35.0631 4.52335 34.8572C4.7309 34.6513 5.01231 34.5355 5.30583 34.5352H42.9471C43.2406 34.5355 43.522 34.6513 43.7295 34.8572C43.9371 35.0631 44.0538 35.3423 44.0542 35.6335V65.9163C44.0538 66.2075 43.937 66.4867 43.7295 66.6926C43.522 66.8985 43.2406 67.0143 42.9471 67.0147ZM5.30583 34.849C5.09617 34.8492 4.89518 34.9319 4.74693 35.079C4.59868 35.2261 4.51529 35.4255 4.51504 35.6335V65.9163C4.51529 66.1243 4.59868 66.3237 4.74693 66.4708C4.89518 66.6179 5.09617 66.7006 5.30583 66.7008H42.9471C43.1567 66.7006 43.3577 66.6179 43.506 66.4708C43.6542 66.3237 43.7376 66.1243 43.7378 65.9163V35.6335C43.7376 35.4255 43.6542 35.2261 43.506 35.079C43.3577 34.9319 43.1567 34.8492 42.9471 34.849H5.30583Z" fill="#3F3D56"/>
<path d="M49.115 72.5068H11.4738C11.1803 72.5065 10.8989 72.3907 10.6914 72.1848C10.4838 71.9789 10.3671 71.6997 10.3667 71.4085V41.1257C10.367 40.8345 10.4838 40.5553 10.6913 40.3494C10.8989 40.1435 11.1803 40.0277 11.4738 40.0273H49.115C49.4085 40.0277 49.6899 40.1435 49.8975 40.3494C50.105 40.5553 50.2218 40.8345 50.2221 41.1257V71.4085C50.2218 71.6997 50.105 71.9789 49.8975 72.1848C49.6899 72.3907 49.4085 72.5065 49.115 72.5068Z" fill="#00BFA6"/>
<path d="M34.589 65.0539H15.3721C15.348 65.0542 15.324 65.0523 15.3003 65.0483L24.389 49.4298C24.4445 49.3326 24.525 49.2516 24.6223 49.1953C24.7196 49.139 24.8302 49.1094 24.9429 49.1094C25.0555 49.1094 25.1661 49.139 25.2635 49.1953C25.3608 49.2516 25.4413 49.3326 25.4967 49.4298L31.5964 59.911L31.8886 60.4125L34.589 65.0539Z" fill="white"/>
<path opacity="0.2" d="M34.589 65.0531H28.0278L31.2487 60.4116L31.4805 60.0773L31.5965 59.9102L31.8887 60.4116L34.589 65.0531Z" fill="black"/>
<path d="M45.289 65.0547H28.668L31.8888 60.4133L32.1206 60.079L36.3176 54.0304C36.3918 53.938 36.4848 53.8621 36.5905 53.8077C36.6962 53.7532 36.8122 53.7214 36.9311 53.7144C37.05 53.7073 37.169 53.7252 37.2805 53.7667C37.392 53.8083 37.4934 53.8726 37.5782 53.9556C37.5999 53.9792 37.6201 54.0042 37.6386 54.0304L45.289 65.0547Z" fill="white"/>
<path d="M44.1491 49.049C45.7213 49.049 46.9959 47.7845 46.9959 46.2247C46.9959 44.6649 45.7213 43.4004 44.1491 43.4004C42.5768 43.4004 41.3022 44.6649 41.3022 46.2247C41.3022 47.7845 42.5768 49.049 44.1491 49.049Z" fill="white"/>
<path d="M54.5009 41.324C55.0864 41.0062 55.7658 40.8998 56.4223 41.0228L66.7139 31.5316L65.0056 23.0684L71.7626 23.43L72.3667 33.7022L58.7514 44.1664C58.6916 44.6509 58.5066 45.1121 58.2143 45.5057C57.922 45.8993 57.532 46.2122 57.0819 46.4143C56.6318 46.6164 56.1366 46.701 55.6439 46.6599C55.1511 46.6188 54.6773 46.4535 54.2679 46.1797C53.8585 45.9059 53.5273 45.5329 53.306 45.0965C53.0847 44.66 52.9808 44.1748 53.0042 43.6873C53.0276 43.1998 53.1775 42.7265 53.4396 42.3126C53.7017 41.8988 54.0672 41.5583 54.5009 41.324Z" fill="#A0616A"/>
<path d="M43.1371 112.768H38.7129L36.6084 95.9277H43.1378L43.1371 112.768Z" fill="#A0616A"/>
<path d="M44.2651 117L30 116.999V116.821C30.0001 115.368 30.5851 113.974 31.6264 112.947C32.6676 111.919 34.0798 111.342 35.5524 111.342L44.2653 111.342L44.2651 117Z" fill="#2F2E41"/>
<path d="M76.3358 112.768H71.9117L69.8071 95.9277H76.3365L76.3358 112.768Z" fill="#A0616A"/>
<path d="M77.4643 117L63.1992 116.999V116.821C63.1993 115.368 63.7843 113.974 64.8256 112.947C65.8668 111.919 67.279 111.342 68.7516 111.342L77.4645 111.342L77.4643 117Z" fill="#2F2E41"/>
<path d="M68.2671 18.0859C67.7331 17.4203 66.9755 16.965 66.1312 16.8023C65.2868 16.6396 64.4113 16.7802 63.6628 17.1988C62.9229 17.6126 62.3551 18.2712 62.0596 19.0582C61.7641 19.8452 61.76 20.71 62.0481 21.4997L64.2174 27.4467L73.1031 24.1144L68.2671 18.0859Z" fill="#00BFA6"/>
<path d="M67.4699 44.3498C67.0655 44.0505 66.6308 43.7932 66.1728 43.582L50.001 46.0374L50.3564 56.0342C42.5346 70.6043 37.3623 87.226 34.54 105.668L44.6696 107.948C49.2023 90.6187 54.3504 75.0685 60.8414 63.4003L67.6837 107.526L79.3235 107.246C77.7905 81.3061 76.6077 51.0654 67.4699 44.3498Z" fill="#2F2E41"/>
<path d="M55.399 15.5743C58.8803 15.5743 61.7024 12.7892 61.7024 9.35356C61.7024 5.91794 58.8803 3.13281 55.399 3.13281C51.9178 3.13281 49.0957 5.91794 49.0957 9.35356C49.0957 12.7892 51.9178 15.5743 55.399 15.5743Z" fill="#A0616A"/>
<path d="M69.2601 25.3377C69.5486 23.6174 69.2653 21.8511 68.4525 20.3028C67.6396 18.7546 66.3409 17.5075 64.7504 16.748L57.642 17.0988C56.4848 17.3946 55.4113 17.947 54.5031 18.714C53.5949 19.4809 52.876 20.4423 52.401 21.5248C49.3199 28.6414 48.881 37.7404 50.1781 48.1417L67.0151 44.189C64.7059 39.0578 66.562 32.3564 69.2601 25.3377Z" fill="#00BFA6"/>
<path d="M47.5835 7.83487C47.5835 6.99305 47.7515 6.15945 48.0779 5.38171C48.4044 4.60398 48.8828 3.89731 49.486 3.30205C50.0891 2.7068 50.8052 2.23462 51.5933 1.91247C52.3813 1.59033 53.226 1.42452 54.079 1.42452H54.4515C55.6279 0.501283 57.0867 -0.000912171 58.5897 1.24382e-06C60.3603 1.24381e-06 62.0583 0.694138 63.3103 1.9297C64.5623 3.16526 65.2656 4.84104 65.2656 6.58839V14.9575C60.9492 14.8514 56.0606 15.691 50.8312 17.0943C52.1493 13.4911 53.0253 10.1785 52.4268 7.83487H47.5835Z" fill="#2F2E41"/>
<path d="M33.6812 36.8326C34.3494 36.8317 34.9971 37.0605 35.5129 37.4797L49.1598 34.0368L51.7825 25.8047L57.5322 29.3263L53.0603 38.6212L36.0247 41.3411C35.7364 41.7376 35.3497 42.0544 34.9016 42.2609C34.4536 42.4675 33.9593 42.5569 33.4661 42.5207C32.973 42.4845 32.4975 42.3238 32.0854 42.0541C31.6733 41.7844 31.3383 41.4147 31.1126 40.9805C30.8869 40.5462 30.778 40.0621 30.7964 39.5744C30.8149 39.0867 30.96 38.6118 31.2179 38.1954C31.4758 37.779 31.8377 37.435 32.2691 37.1963C32.7005 36.9577 33.1867 36.8324 33.6812 36.8326Z" fill="#A0616A"/>
<path d="M60.2892 23.3104C60.5358 22.497 60.4795 21.6233 60.1305 20.8473C59.7816 20.0712 59.1629 19.4439 58.3863 19.0786C57.6186 18.7175 56.7463 18.6358 55.9235 18.848C55.1007 19.0603 54.3803 19.5527 53.8898 20.2383L50.1958 25.4017L58.0561 30.6768L60.2892 23.3104Z" fill="#00BFA6"/>
<path d="M80.7095 117.374H21.2905C21.2523 117.374 21.2146 117.369 21.1794 117.36C21.1441 117.35 21.1121 117.336 21.0851 117.319C21.0581 117.302 21.0367 117.281 21.0221 117.258C21.0075 117.236 21 117.211 21 117.187C21 117.162 21.0075 117.138 21.0221 117.115C21.0367 117.093 21.0581 117.072 21.0851 117.055C21.1121 117.037 21.1441 117.023 21.1794 117.014C21.2146 117.005 21.2523 117 21.2905 117H80.7095C80.7477 117 80.7854 117.005 80.8206 117.014C80.8559 117.023 80.8879 117.037 80.9149 117.055C80.9419 117.072 80.9633 117.093 80.9779 117.115C80.9925 117.138 81 117.162 81 117.187C81 117.211 80.9925 117.236 80.9779 117.258C80.9633 117.281 80.9419 117.302 80.9149 117.319C80.8879 117.336 80.8559 117.35 80.8206 117.36C80.7854 117.369 80.7477 117.374 80.7095 117.374Z" fill="#CACACA"/>
</svg>
