<svg width="404" height="250" viewBox="0 0 404 250" fill="none" xmlns="http://www.w3.org/2000/svg">
<path d="M2.51322e-06 249.5C-0.000219878 249.566 0.0143191 249.631 0.042778 249.692C0.0712369 249.752 0.113058 249.808 0.165833 249.854C0.218608 249.9 0.281293 249.937 0.350288 249.962C0.419284 249.987 0.493225 250 0.567857 250H403.432C403.583 250 403.727 249.947 403.834 249.854C403.94 249.76 404 249.633 404 249.5C404 249.367 403.94 249.24 403.834 249.146C403.727 249.053 403.583 249 403.432 249H0.567828C0.493199 249 0.419265 249.013 0.350274 249.038C0.281283 249.063 0.218597 249.1 0.165826 249.146C0.113055 249.192 0.071236 249.248 0.042778 249.308C0.01432 249.369 -0.000217326 249.434 2.51322e-06 249.5Z" fill="#CCCCCC"/>
<path d="M89.2993 248.709H227.166H311.06C320.062 248.709 328.841 245.896 336.18 240.66L345.416 234.07C364.542 220.423 365.116 192.107 346.559 177.69C328.46 163.63 328.47 136.192 346.579 122.146L353.055 117.122C371.915 102.492 374.557 74.9119 358.82 56.9403L329.342 23.277C308.904 -0.0628366 272.853 -0.54786 251.799 22.2337C232.904 42.6799 201.379 44.7067 180.041 26.8473L173.164 21.0913C156.453 7.10511 133.472 3.39446 113.237 11.4155C83.6777 23.1326 68.5129 56.1106 78.801 86.301L92.0061 125.052C98.3835 143.766 89.6085 164.289 71.7031 172.536C58.0721 178.815 49.334 192.492 49.334 207.55V208.58C49.334 230.743 67.2271 248.709 89.2993 248.709Z" fill="#B5B1FF"/>
<rect x="205.457" width="149.54" height="150.609" rx="10" fill="#3F3D56"/>
<path d="M206.403 7.31272C206.403 3.80041 209.23 0.953125 212.717 0.953125H347.735C351.223 0.953125 354.05 3.80041 354.05 7.31271V143.296C354.05 146.808 351.223 149.655 347.735 149.655H212.717C209.23 149.655 206.403 146.808 206.403 143.296V7.31272Z" fill="white"/>
<path fill-rule="evenodd" clip-rule="evenodd" d="M205.457 7.31281C205.457 3.27406 208.707 0 212.717 0L347.735 0C351.746 0 354.996 3.27405 354.996 7.3128V143.296C354.996 147.335 351.746 150.609 347.735 150.609H212.717C208.707 150.609 205.457 147.335 205.457 143.296V7.31281ZM212.717 1.90644C209.753 1.90644 207.349 4.32695 207.349 7.31281V143.296C207.349 146.282 209.753 148.702 212.717 148.702H347.735C350.7 148.702 353.103 146.282 353.103 143.296V7.3128C353.103 4.32695 350.7 1.90644 347.735 1.90644H212.717Z" fill="#032068"/>
<path d="M206.403 7.31271C206.403 3.80041 209.23 0.953125 212.717 0.953125H347.735C351.223 0.953125 354.05 3.80041 354.05 7.31271V22.8772H206.403V7.31271Z" fill="#032068"/>
<path d="M226.38 12.0716C226.38 14.7032 224.262 16.8366 221.649 16.8366C219.036 16.8366 216.917 14.7032 216.917 12.0716C216.917 9.43999 219.036 7.30664 221.649 7.30664C224.262 7.30664 226.38 9.43999 226.38 12.0716Z" fill="white"/>
<path d="M242.152 12.0716C242.152 14.7032 240.034 16.8366 237.421 16.8366C234.808 16.8366 232.689 14.7032 232.689 12.0716C232.689 9.43999 234.808 7.30664 237.421 7.30664C240.034 7.30664 242.152 9.43999 242.152 12.0716Z" fill="white"/>
<path d="M257.92 12.0716C257.92 14.7032 255.802 16.8366 253.189 16.8366C250.576 16.8366 248.458 14.7032 248.458 12.0716C248.458 9.43999 250.576 7.30664 253.189 7.30664C255.802 7.30664 257.92 9.43999 257.92 12.0716Z" fill="white"/>
<path d="M199.128 83.3102C198.222 85.862 200.107 88.943 201.163 90.1644L193.553 99.0309C193.034 99.0027 191.759 96.7829 189.439 96.1835C187.12 95.5841 185.047 93.8425 182.518 90.9754C182.078 90.229 180.142 87.8266 180.422 85.2798C180.702 82.7328 185.515 77.2715 188.189 76.6944C190.329 76.2327 193.963 79.3252 195.188 81.1179C195.711 79.469 196.496 78.532 198.035 76.9239C199.116 76.1725 201.04 76.0494 201.448 77.3036C201.725 78.1532 201.443 79.0841 200.849 79.7508C200.007 80.6969 199.733 81.6055 199.128 83.3102Z" fill="#F8965F"/>
<path d="M269.859 60.9652L267.806 68.5063C266.78 72.2768 269.859 76.7329 278.41 76.7329C285.25 76.7329 286.276 70.3344 285.934 67.1351L284.224 58.5657C285.934 56.8518 287.302 55.8235 287.302 47.5968C287.302 37.3135 281.83 33.543 275.331 33.543C268.833 33.543 263.36 39.0215 263.36 48.9679C263.36 57.5374 267.92 60.2796 269.859 60.9652Z" fill="#F8965F"/>
<path d="M276.014 72.9611C282.308 72.9611 285.477 68.8478 286.275 66.7911L286.308 66.7911C292.353 66.7911 302.202 66.791 312.269 76.0461C322.355 85.3178 330.776 98.3266 338.395 121.486C341.379 130.558 341.713 143.096 340.801 148.009H237.744C226.115 148.009 216.892 145.927 213.684 141.981C206.159 132.726 190.143 104.82 190.827 101.393C191.511 97.9648 200.061 87.1026 202.455 88.1309C204.371 88.9536 214.084 96.1683 224.109 103.804C235.738 72.9611 259.597 66.3341 267.463 66.7911C267.691 68.8478 269.721 72.9611 276.014 72.9611Z" fill="#6C63FF"/>
<path d="M253.098 53.7663C247.899 59.2507 248.195 68.8485 248.993 72.9618C257.759 67.6909 264.519 66.6738 267.437 66.7918C267.437 67.3723 267.845 68.5671 268.048 68.5961L269.857 60.9646C266.216 59.4178 263.701 56.5085 263.359 48.6246C263.359 42.4735 266.209 37.9985 267.805 36.6274C273.278 36.2846 276.014 43.1402 277.724 45.8824C279.092 48.0762 280.118 47.7105 280.46 47.2535C282.171 43.1402 285.249 42.7974 285.933 47.2535C286.48 50.8184 283.881 52.6237 282.513 53.0807L286.059 67.6783L286.365 67.0664C292.47 67.0664 300.695 68.9851 303.719 70.2196C304.745 59.2507 296.194 55.4802 293.458 48.6246C290.722 41.7691 294.484 38.3413 291.748 33.8852C289.72 30.5824 285.933 30.1147 283.539 29.4291C281.145 28.7436 279.776 26.0013 277.04 24.6302C272.252 22.9163 267.691 27.1439 266.437 30.1147C265.639 30.0004 263.359 30.3203 260.623 32.5141C252.756 37.9985 259.596 46.9107 253.098 53.7663Z" fill="#032068"/>
<path d="M307.919 106.215C311.127 121.486 314.822 143.054 314.335 148.009H319.147C319.32 138.449 310.726 111.439 307.919 106.215Z" fill="#032068"/>
<path d="M277.04 60.6211C272.935 61.718 270.541 61.3066 269.857 60.9639L268.831 64.7344C273.209 65.2829 276.128 62.2207 277.04 60.6211Z" fill="#032068"/>
<path d="M239.75 101.795C236.862 114.012 235.071 137.695 234.537 148.01H231.329C231.97 131.292 237.21 110.234 239.75 101.795Z" fill="#032068"/>
<path d="M214.887 142.785C225.474 140.213 231.061 141.714 232.531 142.785L231.729 148.01C223.709 148.01 217.16 144.527 214.887 142.785Z" fill="#032068"/>
<path d="M75.5112 49.2756C73.313 53.9573 66.8264 55.4899 63.8579 55.671L63.534 75.5114C64.2391 76.1914 66.11 78.1216 67.9528 80.4026C69.0247 82.1921 83.3598 81.9308 90.3934 81.5765C91.9441 81.1827 95.163 80.1935 95.6328 79.3869C96.22 78.3788 100.985 59.9877 98.3055 55.5139C96.1616 51.9349 87.7464 52.4683 83.8068 53.1824C86.2725 49.5997 86.1145 43.5623 85.3624 38.8615C84.9615 36.3563 82.3488 35.1663 80.17 36.2866C78.694 37.0455 77.8303 38.6868 77.7149 40.4033C77.5512 42.8392 76.9797 46.148 75.5112 49.2756Z" fill="#F8965F"/>
<path d="M49.3403 53.1113C49.3368 51.4566 50.616 50.1123 52.1975 50.1086L62.5234 50.0849C64.1049 50.0812 65.3898 51.4196 65.3933 53.0743L65.4474 78.805C65.4509 80.4596 64.1717 81.804 62.5902 81.8076L52.2643 81.8314C50.6828 81.8351 49.3979 80.4966 49.3944 78.8419L49.3403 53.1113Z" fill="#032068"/>
<path d="M172.565 23.463L174.383 28.9859C174.493 29.3219 174.408 29.6867 174.162 29.9316L171.034 33.0466C170.361 33.7167 171.034 34.866 171.961 34.6307L176.353 33.5166C176.673 33.4353 177.017 33.5299 177.258 33.7655L180.851 37.2867C181.527 37.9486 182.63 37.3515 182.421 36.4373L181.261 31.3779C181.193 31.0809 181.272 30.7729 181.473 30.5509L184.221 27.5196C184.84 26.8368 184.171 25.746 183.269 25.9673L179.352 26.9281C179.037 27.0052 178.701 26.9136 178.462 26.6859L174.102 22.5199C173.389 21.8386 172.259 22.5321 172.565 23.463Z" fill="#F8965F"/>
<path d="M322.47 43.7699L323.374 48.1222C323.429 48.387 323.333 48.6585 323.125 48.8261L320.478 50.9576C319.909 51.4162 320.321 52.3448 321.046 52.2376L324.479 51.7299C324.729 51.6928 324.983 51.7917 325.145 51.9901L327.571 54.9544C328.027 55.5117 328.917 55.1423 328.837 54.429L328.393 50.4813C328.367 50.2495 328.454 50.0208 328.626 49.8672L330.976 47.7699C331.505 47.2974 331.091 46.4137 330.386 46.5122L327.327 46.9399C327.081 46.9743 326.834 46.8783 326.672 46.6861L323.719 43.1705C323.237 42.5955 322.318 43.0363 322.47 43.7699Z" fill="#F8965F"/>
<path d="M89.2661 132.197L87.3125 134.607C87.1937 134.754 86.9998 134.824 86.81 134.79L84.3954 134.354C83.876 134.26 83.5626 134.889 83.9635 135.221L85.8611 136.791C85.9997 136.906 86.0651 137.082 86.0333 137.256L85.5572 139.845C85.4677 140.331 86.0897 140.633 86.442 140.273L88.3913 138.284C88.5057 138.167 88.6716 138.11 88.8369 138.132L91.0928 138.428C91.601 138.495 91.8888 137.884 91.5024 137.56L89.8247 136.149C89.6899 136.036 89.6256 135.864 89.6545 135.694L90.1835 132.584C90.27 132.075 89.5954 131.791 89.2661 132.197Z" fill="#F8965F"/>
<path d="M179.691 144.29C182.569 153.247 184.041 162.601 184.056 172.015C184.06 172.497 183.965 172.974 183.776 173.417C183.588 173.86 183.31 174.259 182.961 174.588C182.612 174.918 182.198 175.171 181.747 175.331C181.296 175.491 180.817 175.556 180.339 175.52L173.025 175.124C173.025 175.124 171.451 166.054 168.62 146.329C167.873 140.705 179.691 144.29 179.691 144.29Z" fill="#F8965F"/>
<path d="M181.148 144.666C184.031 153.622 185.51 162.976 185.533 172.391C185.542 172.874 185.452 173.353 185.268 173.798C185.085 174.244 184.812 174.647 184.467 174.982C184.122 175.316 183.712 175.576 183.262 175.743C182.813 175.911 182.334 175.983 181.856 175.956L174.561 175.52C174.561 175.52 172.968 166.47 170.156 146.745C169.33 141.062 181.148 144.666 181.148 144.666Z" fill="#F8965F"/>
<path d="M154.523 116.684C154.523 116.684 168.287 117.317 171.748 120.466C175.209 123.615 182.799 149.043 183.546 152.568C183.546 152.568 166.341 150.588 162.86 155.875L154.523 116.684Z" fill="#6C63FF"/>
<path d="M135.115 198.75C134.354 200.798 133.22 202.685 131.772 204.315C131.504 204.637 131.214 204.942 130.907 205.226C130.289 205.812 129.632 206.354 128.94 206.85C126.889 208.333 124.528 209.322 122.038 209.741C112.263 211.507 102.371 212.546 92.4445 212.85C90.5937 212.872 88.743 212.799 86.8994 212.632C84.1328 212.58 81.4254 211.816 79.034 210.414C78.5986 210.095 78.2309 209.691 77.9525 209.226C76.812 207.246 77.4412 205.265 79.3289 203.285C82.8487 199.443 90.6748 195.522 99.7201 192.353C108.211 189.359 116.989 187.268 125.912 186.115C137.985 184.689 137.671 192.116 135.115 198.75Z" fill="#3F3D56"/>
<path d="M145.223 195.821C145.908 199.013 147.407 201.97 149.573 204.401C151.738 206.832 154.495 208.652 157.572 209.683C171.926 214.397 200.085 222.635 205.177 216.516C212.06 208.238 179.477 190.196 157.1 184.117C144.338 180.552 143.532 188.434 145.223 195.821Z" fill="#3F3D56"/>
<path d="M106.405 196.613C106.405 196.613 154.777 215.863 153.715 230.973C152.654 246.083 116.138 240.221 95.6488 228.992C75.1594 217.764 106.405 196.613 106.405 196.613Z" fill="#49475F"/>
<path d="M99.3672 193.859C99.3672 193.859 147.74 213.089 146.658 228.14C145.577 243.191 109.101 237.368 88.5916 226.159C68.0825 214.95 99.3672 193.859 99.3672 193.859Z" fill="#3F3D56"/>
<path d="M137.179 224.275C136.373 235.603 115.549 235.128 96.515 229.424C95.0599 228.989 93.6048 228.533 92.189 228.038C87.6846 226.503 83.3114 224.602 79.1127 222.354C76.4691 221.108 74.3063 219.02 72.958 216.413C72.3415 214.89 72.0794 213.245 72.1919 211.604C72.3044 209.963 72.7884 208.37 73.6069 206.947C77.8936 202.036 87.2731 197.223 98.0291 193.48L99.1106 193.956C101.077 194.887 103.319 195.936 105.659 197.085C114.743 201.6 125.578 207.779 131.89 214.076C135.311 217.562 137.415 221.067 137.179 224.275Z" fill="#3F3D56"/>
<path d="M143.197 229.227C143.197 229.227 154.071 232.692 159.125 230.949C164.178 229.207 170.019 230.949 170.785 235.306C171.536 238.182 171.405 241.22 170.412 244.02C169.625 245.763 164.965 248.793 156.805 246.198C148.644 243.604 142.037 235.742 142.037 235.742" fill="#F8965F"/>
<path d="M143.197 227.484C143.197 227.484 154.071 230.95 159.125 229.227C164.178 227.504 170.019 229.227 170.785 233.564C171.536 236.44 171.405 239.478 170.412 242.278C169.625 244.021 164.965 247.07 156.805 244.456C148.644 241.842 142.037 234 142.037 234" fill="#F8965F"/>
<path d="M132.889 228.182C132.889 228.182 122.153 232.142 117.04 230.697C111.928 229.251 106.166 231.212 105.557 235.608C104.919 238.507 105.173 241.532 106.284 244.282C107.13 245.985 111.908 248.797 120.049 245.787C128.189 242.777 134.403 234.638 134.403 234.638" fill="#F8965F"/>
<path d="M134.056 226.436C134.056 226.436 123.319 230.396 118.207 228.951C113.094 227.505 107.333 229.466 106.723 233.862C106.085 236.761 106.339 239.786 107.451 242.536C108.296 244.239 113.075 247.051 121.117 244.041C129.159 241.031 135.471 232.892 135.471 232.892" fill="#F8965F"/>
<path d="M176.916 200.613C176.916 200.613 127.403 215.684 127.501 230.616C127.599 245.548 164.41 242.795 185.587 233.448C206.765 224.101 176.916 200.613 176.916 200.613Z" fill="#6F6E78"/>
<path d="M184.136 198.455C184.136 198.455 134.603 213.526 134.721 228.458C134.839 243.39 171.63 240.657 192.808 231.29C213.985 221.923 184.136 198.455 184.136 198.455Z" fill="#49475F"/>
<path d="M144.431 225.445C144.431 236.674 165.353 237.902 184.702 233.822C186.177 233.525 187.651 233.189 189.107 232.812C193.693 231.665 198.178 230.142 202.517 228.258C205.197 227.282 207.489 225.453 209.045 223.049C209.768 221.588 210.143 219.978 210.143 218.346C210.143 216.714 209.768 215.104 209.045 213.642C205.113 208.454 196.048 202.928 185.449 198.334L184.328 198.75C182.362 199.483 180.002 200.354 177.603 201.305C168.243 205.028 157.035 210.236 150.31 215.959C146.712 218.95 144.411 222.198 144.431 225.445Z" fill="#3F3D56"/>
<path d="M145.065 119.715C141.292 119.504 137.537 120.365 134.227 122.199C130.917 124.034 128.186 126.769 126.345 130.092C123.93 134.48 121.916 139.08 120.328 143.836C114.862 159.679 142.941 176.176 122.963 188.493C115.771 192.892 107.851 195.951 99.583 197.524C98.6462 197.638 97.7194 197.823 96.8104 198.078C90.9114 199.702 71.0119 203.505 77.9138 206.257C84.0095 208.693 87.1556 222.952 111.342 221.19C124.654 220.219 191.687 204.079 203.623 216.852C198.669 208.443 191.051 201.956 181.993 198.435C174.953 195.544 172.476 186.731 168.229 180.215C165.535 176.076 168.111 167.561 168.523 165.125C172.201 144.371 168.523 151.639 163.509 134.647C162.341 130.596 159.97 127.002 156.716 124.347C153.461 121.692 149.478 120.103 145.301 119.794L145.065 119.715Z" fill="#FFB8B8"/>
<path d="M146.125 117.515C142.342 117.311 138.579 118.186 135.267 120.039C131.956 121.892 129.231 124.649 127.405 127.992C124.989 132.329 122.962 136.876 121.349 141.577C115.882 157.42 136.45 169.461 120.818 187.344C113.798 195.265 104.163 194.79 100.584 195.265C99.6539 195.381 98.7338 195.566 97.831 195.82C91.9319 197.443 71.8947 203.345 78.7966 206.098C84.8923 208.534 88.1565 220.713 112.421 218.95C125.734 217.98 192.059 204.137 203.995 216.97C199.123 208.506 191.313 202.157 182.07 199.147C176.171 197.047 170.94 186.096 168.777 181.482C164.431 172.174 168.364 164.985 168.659 162.312C171.058 141.339 169.76 149.419 164.726 132.447C163.557 128.396 161.186 124.8 157.932 122.143C154.678 119.485 150.696 117.891 146.518 117.575L146.125 117.515Z" fill="#6C63FF"/>
<path d="M183.231 174.611C183.231 174.611 180.183 164.907 177.587 165.58C172.396 166.947 160.303 176.215 149.252 186.513C145.142 190.315 156.39 189.88 156.39 189.88C156.39 189.88 163.921 183.285 168.306 182.176C173.698 180.594 178.756 178.03 183.231 174.611Z" fill="#F8965F"/>
<path d="M184.705 174.966C184.705 174.966 181.638 165.263 179.042 165.936C173.851 167.302 161.778 176.59 150.707 186.868C146.617 190.691 157.865 190.255 157.865 190.255C157.865 190.255 165.376 183.64 169.781 182.531C175.173 180.949 180.231 178.385 184.705 174.966Z" fill="#F8965F"/>
<path d="M156.132 189.996C156.132 189.996 148.719 203.383 151.177 193.382C151.433 192.352 151.354 192.234 150.843 193.026C149.525 195.184 146.418 194.036 142.25 199.898C138.219 204.71 137.137 194.115 144.098 186.807C146.064 184.827 153.576 183.203 153.576 183.203C154.657 188.788 156.132 189.996 156.132 189.996Z" fill="#F8965F"/>
<path d="M157.608 190.375C157.608 190.375 150.175 203.762 152.633 193.761C152.889 192.732 152.81 192.593 152.319 193.405C151.001 195.544 147.894 194.395 143.726 200.257C139.675 205.089 138.593 194.494 145.554 187.187C147.521 185.206 155.052 183.562 155.052 183.562C156.133 189.147 157.608 190.375 157.608 190.375Z" fill="#F8965F"/>
<path d="M113.876 137.895C112.057 147.761 111.679 157.842 112.755 167.818C112.781 168.31 112.911 168.791 113.135 169.229C113.359 169.667 113.673 170.053 114.056 170.359C114.438 170.666 114.881 170.888 115.355 171.01C115.83 171.132 116.324 171.151 116.806 171.066L123.983 169.64C123.983 169.64 124.494 159.857 125.006 138.628C125.143 132.449 113.876 137.895 113.876 137.895Z" fill="#F8965F"/>
<path d="M120.981 161.777C120.981 161.777 111.975 166.609 113.116 169.105C115.338 174.056 126.487 184.453 138.462 193.661C142.906 197.068 140.586 185.879 140.586 185.879C140.586 185.879 132.819 179.541 130.971 175.343C128.51 170.233 125.122 165.633 120.981 161.777Z" fill="#F8965F"/>
<path d="M140.282 185.68C140.282 185.68 155.423 187.541 145.257 189.066C144.195 189.225 144.117 189.343 145.041 189.502C147.518 189.918 147.597 193.304 154.578 194.968C160.477 196.948 151.117 202.018 141.777 198.255C139.201 197.245 134.914 190.71 134.914 190.71C139.712 187.541 140.282 185.68 140.282 185.68Z" fill="#F8965F"/>
<path d="M113.05 138.488C111.244 148.356 110.873 158.436 111.949 168.411C111.977 168.892 112.104 169.361 112.321 169.79C112.538 170.218 112.84 170.597 113.21 170.902C113.579 171.207 114.007 171.432 114.467 171.562C114.927 171.693 115.409 171.725 115.882 171.659L123.059 170.233C123.059 170.233 123.59 160.45 124.082 139.22C124.337 133.061 113.05 138.488 113.05 138.488Z" fill="#F8965F"/>
<path d="M120.172 162.391C120.172 162.391 111.147 167.223 112.307 169.718C114.509 174.669 125.659 185.086 137.653 194.275C142.078 197.681 139.757 186.492 139.757 186.492C139.757 186.492 131.99 180.155 130.162 175.956C127.693 170.851 124.306 166.252 120.172 162.391Z" fill="#F8965F"/>
<path d="M139.48 186.295C139.48 186.295 154.602 188.156 144.436 189.681C143.394 189.84 143.295 189.959 144.219 190.117C146.697 190.533 146.795 193.919 153.756 195.583C159.655 197.563 150.295 202.633 140.955 198.87C138.379 197.86 134.112 191.325 134.112 191.325C138.891 188.156 139.48 186.295 139.48 186.295Z" fill="#F8965F"/>
<path d="M139.56 117.794C139.697 117.675 121.391 116.824 117.93 123.735C117.32 124.963 114.253 126.745 109.435 153.441C109.435 153.441 114.489 151.461 126.326 153.877C126.365 153.738 130.16 125.003 139.56 117.794Z" fill="#6C63FF"/>
<path d="M156.743 127.4C156.743 127.4 154.973 149.6 148.11 150.333C141.248 151.066 143.686 138.451 134.169 127.836C133.048 126.569 128.447 128.39 128.447 128.39C128.447 128.39 130.275 176.276 145.475 172.375C158.611 169.028 163.527 137.639 164.982 127.242C165.001 127.242 167.715 126.014 156.743 127.4Z" fill="#3F3D56"/>
<path d="M156.744 127.991C156.744 127.991 154.975 148.369 148.486 149.062C141.997 149.755 144.297 138.051 135.291 128.15C134.229 127.001 128.94 129.496 128.94 129.496C128.94 129.496 137.199 172.49 146.775 169.104C156.351 165.717 163.194 138.032 164.61 128.387C164.61 128.387 167.028 126.743 156.744 127.991Z" fill="#49475F"/>
<path d="M157.102 116.982C157.102 116.982 156.198 141.678 148.745 142.47C141.293 143.262 144.243 128.409 133.939 117.081C132.72 115.735 125.68 117.873 125.68 117.873C125.68 117.873 135.827 169.363 146.799 165.403C157.771 161.442 165.715 129.756 167.288 118.804C167.288 118.745 167.799 115.299 157.102 116.982Z" fill="#3F3D56"/>
<path d="M132.475 131.954C132.475 131.954 134.638 144.589 138.374 147.44C139.077 148.078 139.967 148.468 140.91 148.549C141.2 148.532 141.478 148.426 141.707 148.246C141.935 148.066 142.105 147.82 142.192 147.541C142.279 147.262 142.281 146.963 142.196 146.684C142.111 146.404 141.944 146.157 141.716 145.975C140.497 144.965 138.433 142.529 136.702 136.984C134.146 128.587 132.475 131.954 132.475 131.954Z" fill="#49475F"/>
<path d="M162.862 118.448C162.862 118.448 159.539 146.074 152.676 148.055C145.814 150.035 152.971 137.519 152.971 137.519C152.971 137.519 156.55 131.578 157.12 117.002C158.771 116.723 160.441 116.571 162.115 116.547C162.646 116.666 162.862 118.448 162.862 118.448Z" fill="#49475F"/>
<path d="M144.733 121.338C144.413 122.874 144.6 124.474 145.264 125.893C146.09 127.636 147.427 129.676 149.197 130.111C150.058 130.295 150.956 130.146 151.714 129.696C156.708 127.062 155.647 120.982 155.647 120.982C153.68 114.348 158.773 106.327 158.773 106.327C158.773 106.327 148.41 104.961 144.576 106.169C143.259 106.565 142.708 107.278 143.613 108.446C146.228 111.773 145.382 118.09 144.733 121.338Z" fill="#F8965F"/>
<path d="M146.711 128.29C147.339 129.157 148.229 129.797 149.248 130.112C149.888 128.869 150.333 127.533 150.565 126.151C152.177 117.477 147.065 109.338 144.666 106.07C143.348 106.466 142.798 107.179 143.702 108.348C146.062 111.417 145.531 117.061 144.922 120.448C144.642 121.808 144.656 123.212 144.965 124.566C145.274 125.919 145.87 127.19 146.711 128.29Z" fill="#F8965F"/>
<path d="M144.199 93.2358C144.24 94.0068 144.112 94.7775 143.825 95.4934C143.671 96.0828 143.335 96.6076 142.865 96.9918C142.395 97.376 141.816 97.5997 141.212 97.6306C140.608 97.6614 140.009 97.4979 139.503 97.1635C138.997 96.8291 138.61 96.3413 138.398 95.7707C138.041 95.0842 137.84 94.3268 137.808 93.5526C137.644 92.5756 137.862 91.5728 138.415 90.7536C138.969 89.9343 139.815 89.362 140.777 89.1562C142.547 89.0572 144.081 90.8791 144.199 93.2358Z" fill="#24160D"/>
<path d="M146.436 137.416C146.477 138.188 146.35 138.958 146.062 139.674C145.909 140.259 145.575 140.779 145.109 141.161C144.643 141.542 144.069 141.764 143.469 141.795C142.869 141.825 142.275 141.664 141.773 141.332C141.271 141.001 140.886 140.517 140.674 139.951C140.344 139.298 140.146 138.585 140.092 137.854C140.038 137.123 140.129 136.389 140.36 135.694C140.541 136.326 140.928 136.877 141.46 137.259C141.992 137.641 142.637 137.83 143.289 137.795C143.941 137.761 144.562 137.505 145.052 137.069C145.541 136.634 145.87 136.044 145.984 135.396C146.26 136.035 146.413 136.72 146.436 137.416Z" fill="#24160D"/>
<path d="M146.679 141.972C146.724 142.744 146.596 143.515 146.306 144.23C146.152 144.815 145.819 145.335 145.353 145.717C144.886 146.098 144.312 146.32 143.712 146.351C143.113 146.381 142.519 146.22 142.016 145.888C141.514 145.557 141.129 145.073 140.918 144.507C140.554 143.83 140.346 143.078 140.308 142.309C140.271 141.517 140.406 140.727 140.701 139.992C140.913 140.558 141.298 141.042 141.8 141.373C142.302 141.704 142.896 141.866 143.496 141.835C144.096 141.804 144.67 141.582 145.136 141.201C145.602 140.82 145.936 140.3 146.089 139.715C146.452 140.413 146.653 141.185 146.679 141.972Z" fill="#24160D"/>
<path d="M146.911 146.549C146.955 147.32 146.827 148.091 146.537 148.806C146.384 149.391 146.05 149.912 145.584 150.293C145.118 150.674 144.543 150.896 143.944 150.927C143.344 150.958 142.75 150.796 142.248 150.464C141.745 150.133 141.361 149.649 141.149 149.084C140.794 148.39 140.592 147.627 140.558 146.848C140.524 146.068 140.659 145.29 140.952 144.568C141.164 145.134 141.549 145.618 142.051 145.949C142.553 146.28 143.147 146.442 143.747 146.411C144.347 146.381 144.921 146.159 145.387 145.777C145.853 145.396 146.187 144.876 146.34 144.291C146.687 144.994 146.881 145.764 146.911 146.549Z" fill="#24160D"/>
<path d="M144.436 97.6924C144.477 98.4634 144.349 99.2341 144.062 99.95C143.913 100.547 143.578 101.079 143.106 101.47C142.634 101.86 142.05 102.088 141.44 102.119C140.83 102.15 140.227 101.983 139.718 101.642C139.209 101.302 138.823 100.806 138.615 100.227C138.261 99.5468 138.06 98.7964 138.025 98.029C137.981 97.2578 138.108 96.4864 138.399 95.7714C138.611 96.3421 138.998 96.8299 139.504 97.1642C140.01 97.4986 140.609 97.6622 141.213 97.6313C141.817 97.6004 142.396 97.3767 142.866 96.9925C143.336 96.6083 143.672 96.0835 143.826 95.4941C144.187 96.173 144.395 96.9235 144.436 97.6924Z" fill="#24160D"/>
<path d="M144.654 102.247C144.696 103.018 144.568 103.789 144.281 104.505C144.127 105.094 143.791 105.619 143.321 106.003C142.851 106.387 142.272 106.611 141.668 106.642C141.063 106.673 140.465 106.509 139.959 106.175C139.453 105.84 139.066 105.353 138.854 104.782C138.5 104.102 138.298 103.351 138.264 102.584C138.213 101.814 138.334 101.043 138.618 100.326C138.825 100.905 139.212 101.401 139.721 101.741C140.229 102.082 140.833 102.249 141.443 102.218C142.053 102.187 142.637 101.959 143.109 101.569C143.581 101.178 143.916 100.645 144.064 100.049C144.418 100.729 144.62 101.48 144.654 102.247Z" fill="#24160D"/>
<path d="M144.952 106.603C144.995 107.374 144.867 108.145 144.578 108.86C144.429 109.457 144.094 109.99 143.622 110.38C143.15 110.77 142.566 110.998 141.956 111.029C141.346 111.06 140.743 110.893 140.234 110.552C139.725 110.212 139.339 109.716 139.131 109.137C138.78 108.454 138.579 107.702 138.542 106.933C138.504 106.164 138.631 105.396 138.915 104.682C139.127 105.252 139.514 105.74 140.02 106.074C140.526 106.409 141.125 106.572 141.729 106.541C142.333 106.511 142.912 106.287 143.382 105.903C143.852 105.518 144.188 104.994 144.342 104.404C144.703 105.083 144.911 105.834 144.952 106.603Z" fill="#24160D"/>
<path d="M145.102 111.06C145.146 111.831 145.018 112.602 144.728 113.317C144.574 113.907 144.238 114.431 143.768 114.816C143.298 115.2 142.719 115.423 142.115 115.454C141.511 115.485 140.912 115.322 140.406 114.987C139.9 114.653 139.513 114.165 139.301 113.594C138.953 112.91 138.751 112.16 138.711 111.392C138.67 110.624 138.791 109.856 139.065 109.139C139.273 109.717 139.659 110.213 140.168 110.554C140.676 110.894 141.28 111.061 141.89 111.03C142.5 110.999 143.084 110.772 143.556 110.381C144.028 109.991 144.363 109.458 144.512 108.861C144.866 109.542 145.067 110.292 145.102 111.06Z" fill="#24160D"/>
<path d="M145.339 115.519C145.383 116.29 145.256 117.061 144.965 117.776C144.817 118.373 144.482 118.906 144.01 119.296C143.538 119.686 142.954 119.914 142.344 119.945C141.734 119.976 141.13 119.809 140.621 119.468C140.113 119.128 139.726 118.632 139.518 118.053C139.162 117.374 138.96 116.623 138.928 115.855C138.887 115.084 139.015 114.313 139.302 113.598C139.515 114.168 139.902 114.656 140.408 114.99C140.914 115.325 141.512 115.488 142.116 115.457C142.721 115.427 143.3 115.203 143.769 114.819C144.239 114.434 144.575 113.91 144.729 113.32C145.09 113.999 145.298 114.75 145.339 115.519Z" fill="#24160D"/>
<path d="M145.555 120.073C145.599 120.844 145.471 121.616 145.181 122.331C145.029 122.921 144.695 123.448 144.227 123.834C143.758 124.22 143.18 124.446 142.575 124.479C141.971 124.512 141.371 124.351 140.864 124.018C140.357 123.685 139.968 123.198 139.754 122.628C139.399 121.941 139.198 121.184 139.164 120.41C139.116 119.64 139.237 118.87 139.518 118.152C139.725 118.731 140.112 119.227 140.621 119.567C141.129 119.908 141.733 120.075 142.343 120.044C142.953 120.013 143.537 119.785 144.009 119.395C144.481 119.004 144.816 118.472 144.965 117.875C145.319 118.555 145.52 119.306 145.555 120.073Z" fill="#24160D"/>
<path d="M145.774 124.448C145.832 125.219 145.711 125.991 145.42 126.706C145.261 127.293 144.921 127.814 144.45 128.196C143.979 128.577 143.4 128.799 142.796 128.829C142.193 128.86 141.595 128.698 141.088 128.367C140.581 128.035 140.191 127.551 139.973 126.983C139.619 126.296 139.418 125.539 139.384 124.765C139.341 124.001 139.468 123.236 139.757 122.528C139.971 123.098 140.36 123.585 140.868 123.917C141.375 124.25 141.974 124.412 142.579 124.379C143.183 124.346 143.762 124.12 144.23 123.733C144.699 123.347 145.033 122.821 145.184 122.23C145.55 122.913 145.752 123.673 145.774 124.448Z" fill="#24160D"/>
<path d="M145.999 128.903C146.04 129.674 145.913 130.445 145.625 131.161C145.471 131.75 145.135 132.275 144.666 132.659C144.196 133.043 143.617 133.267 143.013 133.298C142.408 133.329 141.81 133.165 141.304 132.831C140.798 132.497 140.411 132.009 140.198 131.438C139.842 130.752 139.64 129.994 139.608 129.22C139.569 128.457 139.689 127.695 139.962 126.982C140.18 127.55 140.57 128.034 141.077 128.366C141.584 128.697 142.182 128.859 142.785 128.828C143.389 128.798 143.968 128.576 144.439 128.195C144.91 127.813 145.249 127.292 145.409 126.705C145.768 127.384 145.97 128.135 145.999 128.903Z" fill="#24160D"/>
<path d="M146.245 133.359C146.264 134.031 146.165 134.702 145.95 135.339C145.836 135.987 145.508 136.576 145.018 137.012C144.529 137.447 143.908 137.703 143.255 137.738C142.603 137.772 141.959 137.583 141.427 137.202C140.895 136.82 140.507 136.268 140.326 135.636C140.039 135.013 139.872 134.341 139.835 133.656C139.792 132.891 139.92 132.126 140.208 131.418C140.421 131.989 140.808 132.476 141.314 132.811C141.82 133.145 142.418 133.309 143.023 133.278C143.627 133.247 144.206 133.023 144.676 132.639C145.145 132.255 145.482 131.73 145.636 131.141C145.999 131.825 146.207 132.583 146.245 133.359Z" fill="#24160D"/>
<path d="M143.272 154.925C143.272 154.925 141.522 153.48 140.774 163.441L142.367 164.411L142.741 161.045L142.977 164.233L144.687 165.203L145.454 163.5L145.946 164.986L147.145 164.015C147.303 157.935 146.85 156.094 145.297 154.806C143.331 153.083 143.272 154.925 143.272 154.925Z" fill="#24160D"/>
<path d="M145.043 93.2373C145.088 94.0085 144.96 94.7799 144.67 95.4949C144.518 96.0852 144.184 96.6116 143.715 96.9978C143.247 97.3841 142.669 97.6101 142.064 97.6432C141.46 97.6763 140.86 97.5147 140.353 97.1819C139.846 96.8491 139.457 96.3622 139.243 95.792C138.888 95.1046 138.687 94.3477 138.653 93.5739C138.489 93.0844 138.439 92.5633 138.508 92.0514C138.578 91.5395 138.764 91.0506 139.052 90.6232C139.34 90.1958 139.722 89.8413 140.169 89.5876C140.616 89.3339 141.115 89.1878 141.628 89.1608C142.14 89.1338 142.651 89.2267 143.122 89.432C143.593 89.6374 144.01 89.9497 144.341 90.3446C144.672 90.7394 144.907 91.206 145.029 91.7079C145.151 92.2097 145.156 92.7332 145.043 93.2373Z" fill="#3F2815"/>
<path d="M147.285 137.42C147.33 138.191 147.202 138.963 146.911 139.678C146.734 140.258 146.392 140.774 145.928 141.161C145.463 141.549 144.896 141.79 144.296 141.856C143.708 141.848 143.133 141.673 142.639 141.35C142.145 141.028 141.752 140.572 141.504 140.034C141.147 139.355 140.946 138.604 140.914 137.836C140.879 137.164 140.972 136.492 141.189 135.856C141.384 136.474 141.777 137.009 142.307 137.378C142.836 137.747 143.472 137.928 144.115 137.894C144.758 137.86 145.372 137.613 145.86 137.19C146.348 136.767 146.683 136.194 146.813 135.559C147.079 136.146 147.239 136.776 147.285 137.42Z" fill="#3F3D56"/>
<path d="M147.98 151.143C148.027 151.912 147.906 152.683 147.626 153.4C147.478 153.988 147.148 154.512 146.683 154.896C146.219 155.28 145.644 155.505 145.043 155.536C144.443 155.567 143.848 155.403 143.347 155.068C142.845 154.734 142.463 154.247 142.257 153.678C141.903 152.99 141.702 152.233 141.667 151.46C141.622 150.667 141.756 149.875 142.061 149.142C142.3 149.688 142.691 150.153 143.186 150.479C143.682 150.806 144.261 150.982 144.853 150.984C145.441 150.917 145.998 150.681 146.458 150.306C146.918 149.931 147.261 149.431 147.449 148.865C147.793 149.574 147.975 150.353 147.98 151.143Z" fill="#3F3D56"/>
<path d="M145.263 97.7122C145.32 98.4822 145.199 99.2552 144.909 99.9698C144.749 100.557 144.409 101.078 143.938 101.459C143.467 101.841 142.888 102.062 142.285 102.093C141.681 102.124 141.083 101.962 140.576 101.63C140.07 101.299 139.68 100.815 139.462 100.247C139.107 99.5597 138.906 98.8028 138.872 98.029C138.829 97.2643 138.957 96.4997 139.245 95.7912C139.46 96.3615 139.849 96.8483 140.356 97.1811C140.863 97.514 141.462 97.6755 142.067 97.6424C142.671 97.6093 143.25 97.3833 143.718 96.9971C144.187 96.6108 144.521 96.0845 144.673 95.4941C145.038 96.177 145.24 96.9366 145.263 97.7122Z" fill="#3F2815"/>
<path d="M145.494 102.247C145.535 103.018 145.408 103.789 145.121 104.505C144.967 105.094 144.63 105.619 144.161 106.003C143.691 106.387 143.112 106.611 142.508 106.642C141.903 106.673 141.305 106.509 140.799 106.175C140.293 105.84 139.906 105.353 139.693 104.782C139.337 104.096 139.135 103.338 139.103 102.564C139.054 101.801 139.175 101.036 139.457 100.326C139.675 100.894 140.065 101.378 140.572 101.709C141.079 102.041 141.677 102.203 142.28 102.172C142.884 102.141 143.463 101.92 143.934 101.538C144.405 101.157 144.744 100.636 144.904 100.049C145.263 100.727 145.465 101.479 145.494 102.247Z" fill="#3F2815"/>
<path d="M145.718 106.626C145.775 107.396 145.654 108.169 145.364 108.884C145.173 109.454 144.826 109.959 144.364 110.341C143.901 110.723 143.342 110.966 142.748 111.042C142.147 111.036 141.559 110.856 141.057 110.522C140.555 110.188 140.159 109.716 139.917 109.161C139.56 108.474 139.359 107.717 139.327 106.943C139.284 106.178 139.412 105.413 139.701 104.705C139.913 105.276 140.3 105.763 140.806 106.098C141.312 106.432 141.91 106.596 142.515 106.565C143.119 106.534 143.698 106.31 144.168 105.926C144.637 105.542 144.974 105.017 145.128 104.428C145.491 105.105 145.692 105.857 145.718 106.626Z" fill="#3F2815"/>
<path d="M145.942 111.079C145.984 111.85 145.856 112.621 145.569 113.337C145.415 113.926 145.079 114.451 144.609 114.835C144.139 115.219 143.56 115.443 142.956 115.474C142.352 115.505 141.753 115.341 141.247 115.007C140.741 114.672 140.354 114.185 140.142 113.614C139.788 112.934 139.586 112.183 139.552 111.416C139.501 110.646 139.622 109.875 139.906 109.158C140.148 109.713 140.544 110.185 141.046 110.519C141.548 110.853 142.136 111.034 142.737 111.039C143.33 110.963 143.89 110.72 144.353 110.338C144.815 109.957 145.162 109.452 145.353 108.881C145.707 109.561 145.908 110.312 145.942 111.079Z" fill="#3F3D56"/>
<path d="M146.161 115.536C146.22 116.306 146.099 117.079 145.807 117.794C145.658 118.39 145.323 118.923 144.851 119.314C144.38 119.704 143.796 119.932 143.186 119.963C142.576 119.994 141.972 119.827 141.463 119.486C140.955 119.146 140.568 118.649 140.36 118.071C140.006 117.391 139.805 116.64 139.77 115.873C139.726 115.102 139.854 114.33 140.144 113.615C140.356 114.186 140.744 114.674 141.25 115.008C141.755 115.342 142.354 115.506 142.958 115.475C143.563 115.444 144.142 115.22 144.611 114.836C145.081 114.452 145.417 113.927 145.571 113.338C145.934 114.015 146.136 114.767 146.161 115.536Z" fill="#3F3D56"/>
<path d="M146.4 120.073C146.443 120.844 146.316 121.616 146.026 122.331C145.872 122.92 145.536 123.445 145.066 123.829C144.597 124.213 144.018 124.437 143.413 124.468C142.809 124.499 142.211 124.335 141.705 124.001C141.199 123.667 140.812 123.179 140.599 122.608C140.251 121.924 140.05 121.173 140.009 120.406C139.969 119.638 140.089 118.87 140.363 118.152C140.571 118.731 140.958 119.227 141.466 119.567C141.975 119.908 142.579 120.075 143.189 120.044C143.799 120.013 144.382 119.785 144.854 119.395C145.326 119.004 145.661 118.472 145.81 117.875C146.164 118.555 146.365 119.306 146.4 120.073Z" fill="#3F3D56"/>
<path d="M146.617 124.448C146.678 125.218 146.556 125.992 146.263 126.706C146.114 127.302 145.779 127.835 145.307 128.226C144.835 128.616 144.252 128.844 143.642 128.875C143.032 128.906 142.428 128.739 141.919 128.398C141.41 128.058 141.024 127.562 140.816 126.983C140.465 126.299 140.264 125.548 140.227 124.779C140.189 124.01 140.317 123.242 140.6 122.527C140.812 123.098 141.199 123.586 141.705 123.92C142.211 124.254 142.81 124.418 143.414 124.387C144.019 124.356 144.597 124.133 145.067 123.748C145.537 123.364 145.873 122.839 146.027 122.25C146.39 122.927 146.592 123.679 146.617 124.448Z" fill="#3F3D56"/>
<path d="M146.918 128.903C146.962 129.675 146.835 130.446 146.544 131.161C146.39 131.75 146.054 132.275 145.584 132.659C145.115 133.043 144.536 133.267 143.931 133.298C143.327 133.329 142.729 133.165 142.223 132.831C141.717 132.497 141.329 132.009 141.117 131.438C140.761 130.759 140.559 130.008 140.527 129.24C140.48 128.47 140.6 127.7 140.881 126.982C141.089 127.561 141.475 128.057 141.984 128.397C142.493 128.738 143.096 128.905 143.706 128.874C144.316 128.843 144.9 128.615 145.372 128.225C145.844 127.834 146.179 127.302 146.328 126.705C146.682 127.386 146.883 128.136 146.918 128.903Z" fill="#3F3D56"/>
<path d="M147.085 133.361C147.104 134.033 147.004 134.704 146.791 135.341C146.661 135.976 146.325 136.55 145.837 136.973C145.349 137.395 144.735 137.643 144.093 137.677C143.45 137.711 142.814 137.529 142.284 137.16C141.755 136.792 141.362 136.256 141.167 135.638C140.882 135.015 140.715 134.343 140.675 133.658C140.634 132.887 140.761 132.116 141.049 131.4C141.261 131.971 141.648 132.459 142.154 132.793C142.66 133.127 143.259 133.291 143.863 133.26C144.467 133.229 145.046 133.006 145.516 132.621C145.986 132.237 146.322 131.712 146.476 131.123C146.842 131.814 147.051 132.578 147.085 133.361Z" fill="#3F3D56"/>
<path d="M144.116 154.924C144.116 154.924 142.366 153.498 141.619 163.44L143.211 164.43L143.585 161.063L143.9 164.251L145.61 165.222L146.377 163.499L146.869 165.004L148.068 164.034C148.226 157.934 147.773 156.112 146.2 154.825C144.175 153.102 144.116 154.924 144.116 154.924Z" fill="#3F3D56"/>
<path d="M154.875 83.7125C156.519 84.1432 158.001 85.0532 159.135 86.3285C160.268 87.6038 161.002 89.1876 161.246 90.8815C161.909 94.8051 162.081 98.7971 161.757 102.764C160.027 111.081 151.67 127.578 136.666 103.734C135.958 106.408 129.371 97.694 135.27 97.793V95.0403C135.27 95.0403 137.531 78.0883 146.793 82.049C153.538 84.8611 152.181 83.0392 154.875 83.7125Z" fill="#F8965F"/>
<path d="M155.663 81.61C157.36 82.0454 158.892 82.9774 160.064 84.2885C161.237 85.5996 161.997 87.2311 162.25 88.977C162.69 93.0881 162.631 97.238 162.073 101.335C161.129 109.573 151.985 126.743 136.51 102.226C136.235 106.028 129.471 95.9876 135.547 96.1262V93.2942C135.547 93.2942 137.828 75.8075 147.345 79.8673C154.286 82.7982 152.811 80.9169 155.663 81.61Z" fill="#F8965F"/>
<path d="M153.459 85.393C153.459 85.393 155.72 93.1363 162.582 94.6216C162.582 94.6216 165.965 82.0462 153.989 77.115C153.989 77.115 132.694 72.1839 134.562 96.1266C134.562 96.1266 148.582 97.1564 153.459 85.393Z" fill="#24160D"/>
<path d="M153.438 84.4223C153.438 84.4223 155.817 92.3438 162.679 93.7499C162.679 93.7499 165.944 81.0755 153.969 76.1443C153.969 76.1443 132.673 71.2132 134.541 95.1559C134.541 95.0767 148.561 96.0867 153.438 84.4223Z" fill="#3F2815"/>
<path d="M265.939 181.448L243.532 232.856C242.407 235.437 244.278 238.334 247.069 238.334H315.444C317.014 238.334 318.428 237.374 319.022 235.906L339.796 184.498C340.833 181.929 338.963 179.117 336.218 179.117H269.476C267.944 179.117 266.557 180.032 265.939 181.448Z" fill="white"/>
<path fill-rule="evenodd" clip-rule="evenodd" d="M269.477 179.929C268.263 179.929 267.164 180.653 266.674 181.775L244.267 233.183C243.376 235.228 244.858 237.524 247.069 237.524H315.444C316.688 237.524 317.809 236.763 318.279 235.599L339.053 184.191C339.875 182.157 338.393 179.929 336.218 179.929H269.477ZM265.205 181.122C265.951 179.411 267.626 178.307 269.477 178.307H336.218C339.534 178.307 341.793 181.703 340.539 184.805L319.765 236.212C319.049 237.986 317.341 239.146 315.444 239.146H247.069C243.698 239.146 241.439 235.646 242.798 232.53L265.205 181.122Z" fill="#032068"/>
<path d="M286.824 204.613C288.081 201.669 290.95 199.762 294.124 199.762C299.839 199.762 303.687 205.672 301.424 210.974L300.86 212.295C299.603 215.24 296.734 217.147 293.56 217.147C287.845 217.147 283.997 211.236 286.26 205.934L286.824 204.613Z" fill="#3F3D56"/>
<path d="M314.371 243.225H195.705C193.774 243.225 192.209 241.644 192.209 239.693C192.209 237.743 193.774 236.162 195.705 236.162H314.371C316.875 236.162 318.567 238.745 317.588 241.074C317.039 242.378 315.773 243.225 314.371 243.225Z" fill="#032068"/>
</svg>
