<svg width="18" height="17" viewBox="0 0 18 17" fill="none" xmlns="http://www.w3.org/2000/svg">
<path d="M14.91 12.8525C15.24 12.3275 15.435 11.72 15.435 11.06C15.435 9.1925 13.9275 7.685 12.06 7.685C10.1925 7.685 8.685 9.1925 8.685 11.06C8.685 12.9275 10.1925 14.435 12.0525 14.435C12.7125 14.435 13.3275 14.24 13.845 13.91L16.185 16.25L17.25 15.185L14.91 12.8525ZM12.06 12.935C11.025 12.935 10.185 12.095 10.185 11.06C10.185 10.025 11.025 9.185 12.06 9.185C13.095 9.185 13.935 10.025 13.935 11.06C13.935 12.095 13.095 12.935 12.06 12.935ZM11.79 6.56C11.235 6.575 10.7025 6.695 10.215 6.8975L9.8025 6.275L6.9525 10.91L4.695 8.27L1.9725 12.6275L0.75 11.75L4.5 5.75L6.75 8.375L9.75 3.5L11.79 6.56ZM13.7325 6.935C13.2525 6.725 12.735 6.5975 12.195 6.5675L16.035 0.5L17.25 1.385L13.7325 6.935Z" fill="black"/>
</svg>
