<svg width="24" height="24" viewBox="0 0 24 24" fill="none" xmlns="http://www.w3.org/2000/svg">
<path fill-rule="evenodd" clip-rule="evenodd" d="M19.35 9.04C18.67 5.59 15.64 3 12 3C9.11 3 6.6 4.64 5.35 7.04C2.34 7.36 0 9.91 0 13C0 16.31 2.69 19 6 19H19C21.76 19 24 16.76 24 14C24 11.36 21.95 9.22 19.35 9.04ZM19 17H6C3.79 17 2 15.21 2 13C2 10.95 3.53 9.24 5.56 9.03L6.63 8.92L7.13 7.97C8.08 6.14 9.94 5 12 5C14.62 5 16.88 6.86 17.39 9.43L17.69 10.93L19.22 11.04C20.78 11.14 22 12.45 22 14C22 15.65 20.65 17 19 17ZM7.91 11.09L10 13.18L14.6 8.58L16.01 9.99L10 16L6.5 12.5L7.91 11.09Z" fill="#A3B0B8"/>
</svg>
