<svg width="102" height="102" viewBox="0 0 102 102" fill="none" xmlns="http://www.w3.org/2000/svg">
<circle cx="51" cy="51" r="51" fill="#F9EABC"/>
<circle cx="51" cy="51" r="44" fill="#C09507"/>
<path d="M71.25 42H57.0525L59.19 31.7175L59.2575 30.9975C59.2575 30.075 58.875 29.22 58.2675 28.6125L55.8825 26.25L41.0775 41.0775C40.245 41.8875 39.75 43.0125 39.75 44.25V66.75C39.75 69.225 41.775 71.25 44.25 71.25H64.5C66.3675 71.25 67.965 70.125 68.64 68.505L75.435 52.6425C75.6375 52.125 75.75 51.585 75.75 51V46.5C75.75 44.025 73.725 42 71.25 42ZM71.25 51L64.5 66.75H44.25V44.25L54.015 34.485L51.5175 46.5H71.25V51ZM26.25 44.25H35.25V71.25H26.25V44.25Z" fill="white"/>
</svg>
