<svg width="20" height="20" viewBox="0 0 20 20" fill="none" xmlns="http://www.w3.org/2000/svg">
<path d="M12.39 8.99938L14 10.6094V8.99938H12.39ZM15 4.99938H11V6.89937H15C16.71 6.89937 18.1 8.28938 18.1 9.99938C18.1 11.2694 17.33 12.3694 16.23 12.8394L17.63 14.2394C19.05 13.3594 20 11.7894 20 9.99938C20 7.23938 17.76 4.99938 15 4.99938ZM0 2.26938L3.11 5.37938C1.29 6.11938 0 7.90938 0 9.99938C0 12.7594 2.24 14.9994 5 14.9994H9V13.0994H5C3.29 13.0994 1.9 11.7094 1.9 9.99938C1.9 8.40938 3.11 7.09938 4.66 6.92938L6.73 8.99938H6V10.9994H8.73L11 13.2694V14.9994H12.73L16.74 19.0094L18.15 17.5994L1.41 0.859375L0 2.26938Z" fill="#3D4A52"/>
</svg>
