<svg width="468" height="152" viewBox="0 0 468 152" fill="none" xmlns="http://www.w3.org/2000/svg">
<rect x="1" y="1" width="466" height="150" rx="12" fill="#919EAB" fill-opacity="0.08"/>
<rect x="1" y="1" width="466" height="150" rx="12" stroke="#919EAB" stroke-opacity="0.48" stroke-dasharray="3 3"/>
<path d="M250.5 41C250.5 40.8166 250.4 40.6333 250.35 40.45C250.273 40.1265 250.173 39.8091 250.05 39.5C249.967 39.3 249.85 39.1 249.75 38.8833C249.65 38.6666 249.5 38.3833 249.35 38.15C249.2 37.9166 249 37.8 249 37.6666C249 37.5333 248.667 37.25 248.484 37.05C248.3 36.85 248.134 36.7166 247.95 36.55L247.334 36L246.734 35.6C246.498 35.4558 246.253 35.3278 246 35.2166L245.35 34.9166C245.078 34.8158 244.8 34.7323 244.517 34.6666C244.293 34.6007 244.065 34.5506 243.834 34.5166L243.45 34.3333C242.77 32.3684 241.494 30.6643 239.801 29.4582C238.107 28.2521 236.079 27.604 234 27.604C231.921 27.604 229.893 28.2521 228.2 29.4582C226.506 30.6643 225.23 32.3684 224.55 34.3333L224.25 34.4166C224.019 34.4506 223.791 34.5007 223.567 34.5666C223.284 34.6323 223.006 34.7158 222.733 34.8166L222.083 35.1166C221.831 35.2278 221.586 35.3558 221.35 35.5L220.75 36L220.133 36.5166C219.95 36.6833 219.767 36.8333 219.6 37.0166C219.433 37.2 219.25 37.4333 219.083 37.6333C218.917 37.8333 218.783 38.0166 218.65 38.2333C218.517 38.45 218.383 38.7166 218.25 38.9666C218.117 39.2166 218.033 39.3833 217.95 39.5833C217.828 39.8924 217.727 40.2099 217.65 40.5333C217.65 40.7166 217.533 40.9 217.5 41.0833C217.396 41.6049 217.341 42.1349 217.333 42.6666C217.341 43.1755 217.391 43.6828 217.483 44.1833C217.483 44.35 217.567 44.5 217.6 44.6666C217.683 44.9941 217.783 45.3168 217.9 45.6333L218.1 46.1166C218.247 46.438 218.414 46.7498 218.6 47.05L218.833 47.4166C218.857 47.4633 218.885 47.5079 218.917 47.55L219 47.6666C219.776 48.7016 220.783 49.5416 221.94 50.1202C223.097 50.6988 224.373 51 225.667 51H230.667V48.7166C230.16 49.0104 229.586 49.1656 229 49.1666C228.097 49.1582 227.234 48.7927 226.6 48.15C226.296 47.8349 226.056 47.463 225.896 47.0554C225.735 46.6477 225.656 46.2124 225.664 45.7744C225.672 45.3363 225.766 44.904 225.941 44.5023C226.116 44.1006 226.368 43.7374 226.683 43.4333L231.683 38.6C232.306 38.0004 233.136 37.6657 234 37.6666C234.883 37.6704 235.728 38.024 236.35 38.65L241.35 43.65C241.971 44.2745 242.319 45.1193 242.319 46C242.319 46.8806 241.971 47.7254 241.35 48.35C240.728 48.9759 239.883 49.3296 239 49.3333C238.414 49.3388 237.837 49.1832 237.334 48.8833V51H242.334C243.627 51 244.903 50.6988 246.06 50.1202C247.217 49.5416 248.224 48.7016 249 47.6666L249.084 47.5833C249.115 47.5413 249.143 47.4967 249.167 47.45L249.4 47.0833C249.586 46.7831 249.753 46.4714 249.9 46.15L250.1 45.6666C250.218 45.3501 250.318 45.0274 250.4 44.7C250.4 44.5333 250.484 44.3833 250.517 44.2166C250.611 43.7052 250.661 43.1866 250.667 42.6666C250.665 42.107 250.609 41.5489 250.5 41Z" fill="#919EAB"/>
<path d="M235.183 39.8166C234.872 39.5113 234.453 39.3402 234.017 39.3402C233.581 39.3402 233.162 39.5113 232.85 39.8166L227.85 44.65C227.673 44.7959 227.528 44.9767 227.425 45.1812C227.321 45.3857 227.26 45.6093 227.247 45.8382C227.234 46.0671 227.268 46.2963 227.347 46.5115C227.426 46.7266 227.549 46.9231 227.708 47.0887C227.866 47.2542 228.057 47.3852 228.269 47.4736C228.481 47.5619 228.708 47.6056 228.937 47.6019C229.167 47.5983 229.393 47.5474 229.601 47.4524C229.81 47.3575 229.997 47.2204 230.15 47.05L232.333 44.9333V54.3333C232.333 54.7753 232.509 55.1993 232.822 55.5118C233.134 55.8244 233.558 56 234 56C234.442 56 234.866 55.8244 235.179 55.5118C235.491 55.1993 235.667 54.7753 235.667 54.3333V45.0166L237.817 47.1833C237.972 47.3395 238.156 47.4635 238.359 47.5481C238.562 47.6327 238.78 47.6763 239 47.6763C239.22 47.6763 239.438 47.6327 239.641 47.5481C239.844 47.4635 240.029 47.3395 240.183 47.1833C240.34 47.0284 240.464 46.844 240.548 46.6409C240.633 46.4378 240.676 46.22 240.676 46C240.676 45.7799 240.633 45.5621 240.548 45.359C240.464 45.1559 240.34 44.9716 240.183 44.8166L235.183 39.8166Z" fill="#919EAB"/>
<path d="M101.55 71.2L97.6298 77.612V81H96.6078V77.612L92.6878 71.2H93.7938L97.1538 76.702L100.514 71.2H101.55ZM105.123 81.07C102.967 81.07 101.371 79.502 101.371 77.318C101.371 75.134 102.967 73.58 105.123 73.58C107.279 73.58 108.861 75.134 108.861 77.318C108.861 79.502 107.279 81.07 105.123 81.07ZM105.123 80.188C106.691 80.188 107.853 79.04 107.853 77.318C107.853 75.596 106.691 74.448 105.123 74.448C103.555 74.448 102.379 75.596 102.379 77.318C102.379 79.04 103.555 80.188 105.123 80.188ZM116.532 73.636H117.526V81H116.574V79.656C116.056 80.552 115.104 81.07 113.928 81.07C112.052 81.07 110.82 80.02 110.82 77.906V73.636H111.814V77.808C111.814 79.376 112.626 80.174 114.026 80.174C115.566 80.174 116.532 79.18 116.532 77.5V73.636ZM127.026 81.07C124.828 81.07 123.232 79.516 123.232 77.318C123.232 75.12 124.828 73.58 127.026 73.58C128.272 73.58 129.322 74.07 129.91 75.036L129.168 75.54C128.664 74.798 127.88 74.448 127.026 74.448C125.416 74.448 124.24 75.596 124.24 77.318C124.24 79.054 125.416 80.188 127.026 80.188C127.88 80.188 128.664 79.852 129.168 79.11L129.91 79.614C129.322 80.566 128.272 81.07 127.026 81.07ZM134.439 73.58C136.343 73.58 137.421 74.532 137.421 76.436V81H136.469V79.852C136.021 80.608 135.153 81.07 133.935 81.07C132.269 81.07 131.247 80.202 131.247 78.928C131.247 77.794 131.975 76.842 134.089 76.842H136.427V76.394C136.427 75.134 135.713 74.448 134.341 74.448C133.389 74.448 132.493 74.784 131.891 75.316L131.443 74.574C132.185 73.944 133.277 73.58 134.439 73.58ZM134.089 80.286C135.209 80.286 136.035 79.754 136.427 78.788V77.584H134.117C132.689 77.584 132.227 78.144 132.227 78.9C132.227 79.754 132.913 80.286 134.089 80.286ZM143.872 73.58C145.664 73.58 146.896 74.616 146.896 76.73V81H145.902V76.828C145.902 75.274 145.09 74.476 143.69 74.476C142.108 74.476 141.114 75.456 141.114 77.136V81H140.12V73.636H141.072V74.994C141.604 74.098 142.598 73.58 143.872 73.58ZM158.901 73.636H159.895V81H158.943V79.656C158.425 80.552 157.473 81.07 156.297 81.07C154.421 81.07 153.189 80.02 153.189 77.906V73.636H154.183V77.808C154.183 79.376 154.995 80.174 156.395 80.174C157.935 80.174 158.901 79.18 158.901 77.5V73.636ZM166.473 73.58C168.573 73.58 170.141 75.092 170.141 77.318C170.141 79.558 168.573 81.07 166.473 81.07C165.297 81.07 164.289 80.566 163.673 79.614V83.716H162.679V73.636H163.631V75.092C164.233 74.112 165.255 73.58 166.473 73.58ZM166.403 80.188C167.957 80.188 169.147 79.04 169.147 77.318C169.147 75.61 167.957 74.448 166.403 74.448C164.835 74.448 163.659 75.61 163.659 77.318C163.659 79.04 164.835 80.188 166.403 80.188ZM172.167 81V70.612H173.161V81H172.167ZM178.937 81.07C176.781 81.07 175.185 79.502 175.185 77.318C175.185 75.134 176.781 73.58 178.937 73.58C181.093 73.58 182.675 75.134 182.675 77.318C182.675 79.502 181.093 81.07 178.937 81.07ZM178.937 80.188C180.505 80.188 181.667 79.04 181.667 77.318C181.667 75.596 180.505 74.448 178.937 74.448C177.369 74.448 176.193 75.596 176.193 77.318C176.193 79.04 177.369 80.188 178.937 80.188ZM187.239 73.58C189.143 73.58 190.221 74.532 190.221 76.436V81H189.269V79.852C188.821 80.608 187.953 81.07 186.735 81.07C185.069 81.07 184.047 80.202 184.047 78.928C184.047 77.794 184.775 76.842 186.889 76.842H189.227V76.394C189.227 75.134 188.513 74.448 187.141 74.448C186.189 74.448 185.293 74.784 184.691 75.316L184.243 74.574C184.985 73.944 186.077 73.58 187.239 73.58ZM186.889 80.286C188.009 80.286 188.835 79.754 189.227 78.788V77.584H186.917C185.489 77.584 185.027 78.144 185.027 78.9C185.027 79.754 185.713 80.286 186.889 80.286ZM198.675 70.612H199.669V81H198.717V79.544C198.115 80.538 197.093 81.07 195.875 81.07C193.775 81.07 192.207 79.544 192.207 77.318C192.207 75.092 193.775 73.58 195.875 73.58C197.051 73.58 198.059 74.084 198.675 75.036V70.612ZM195.959 80.188C197.513 80.188 198.689 79.04 198.689 77.318C198.689 75.596 197.513 74.448 195.959 74.448C194.391 74.448 193.215 75.596 193.215 77.318C193.215 79.04 194.391 80.188 195.959 80.188ZM213.643 71.2C216.135 71.2 217.647 72.46 217.647 74.56C217.647 76.646 216.135 77.906 213.643 77.906H211.011V81H209.975V71.2H213.643ZM213.615 76.996C215.575 76.996 216.611 76.1 216.611 74.56C216.611 72.992 215.575 72.096 213.615 72.096H211.011V76.996H213.615ZM219.887 81V71.2H223.877C227.013 71.2 229.127 73.216 229.127 76.1C229.127 78.984 227.013 81 223.877 81H219.887ZM220.923 80.104H223.821C226.425 80.104 228.105 78.452 228.105 76.1C228.105 73.748 226.425 72.096 223.821 72.096H220.923V80.104ZM238.173 72.096H232.489V75.946H237.557V76.842H232.489V81H231.453V71.2H238.173V72.096ZM240.078 79.544C240.512 79.544 240.82 79.88 240.82 80.3C240.82 80.538 240.764 80.72 240.624 81.112L240.036 83.044H239.364L239.84 81.014C239.546 80.93 239.336 80.664 239.336 80.3C239.336 79.866 239.658 79.544 240.078 79.544ZM246.807 81V71.2H250.797C253.933 71.2 256.047 73.216 256.047 76.1C256.047 78.984 253.933 81 250.797 81H246.807ZM247.843 80.104H250.741C253.345 80.104 255.025 78.452 255.025 76.1C255.025 73.748 253.345 72.096 250.741 72.096H247.843V80.104ZM262.657 81.084C259.689 81.084 257.505 78.956 257.505 76.1C257.505 73.244 259.689 71.116 262.657 71.116C265.597 71.116 267.795 73.23 267.795 76.1C267.795 78.97 265.597 81.084 262.657 81.084ZM262.657 80.16C265.009 80.16 266.759 78.438 266.759 76.1C266.759 73.762 265.009 72.04 262.657 72.04C260.291 72.04 258.527 73.762 258.527 76.1C258.527 78.438 260.291 80.16 262.657 80.16ZM274.373 81.084C271.433 81.084 269.249 78.97 269.249 76.1C269.249 73.23 271.433 71.116 274.387 71.116C275.815 71.116 277.103 71.592 277.971 72.544L277.313 73.202C276.515 72.39 275.535 72.04 274.415 72.04C272.049 72.04 270.271 73.776 270.271 76.1C270.271 78.424 272.049 80.16 274.415 80.16C275.535 80.16 276.515 79.81 277.313 78.984L277.971 79.642C277.103 80.594 275.815 81.084 274.373 81.084ZM286.21 73.58C288.114 73.58 289.192 74.532 289.192 76.436V81H288.24V79.852C287.792 80.608 286.924 81.07 285.706 81.07C284.04 81.07 283.018 80.202 283.018 78.928C283.018 77.794 283.746 76.842 285.86 76.842H288.198V76.394C288.198 75.134 287.484 74.448 286.112 74.448C285.16 74.448 284.264 74.784 283.662 75.316L283.214 74.574C283.956 73.944 285.048 73.58 286.21 73.58ZM285.86 80.286C286.98 80.286 287.806 79.754 288.198 78.788V77.584H285.888C284.46 77.584 283.998 78.144 283.998 78.9C283.998 79.754 284.684 80.286 285.86 80.286ZM295.644 73.58C297.436 73.58 298.668 74.616 298.668 76.73V81H297.674V76.828C297.674 75.274 296.862 74.476 295.462 74.476C293.88 74.476 292.886 75.456 292.886 77.136V81H291.892V73.636H292.844V74.994C293.376 74.098 294.37 73.58 295.644 73.58ZM307.12 70.612H308.114V81H307.162V79.544C306.56 80.538 305.538 81.07 304.32 81.07C302.22 81.07 300.652 79.544 300.652 77.318C300.652 75.092 302.22 73.58 304.32 73.58C305.496 73.58 306.504 74.084 307.12 75.036V70.612ZM304.404 80.188C305.958 80.188 307.134 79.04 307.134 77.318C307.134 75.596 305.958 74.448 304.404 74.448C302.836 74.448 301.66 75.596 301.66 77.318C301.66 79.04 302.836 80.188 304.404 80.188ZM318.074 79.838L318.424 80.552C318.032 80.902 317.444 81.07 316.87 81.07C315.484 81.07 314.714 80.286 314.714 78.928V74.476H313.398V73.636H314.714V72.026H315.708V73.636H317.948V74.476H315.708V78.872C315.708 79.74 316.156 80.216 316.982 80.216C317.388 80.216 317.794 80.09 318.074 79.838ZM326.4 77.318C326.4 77.402 326.386 77.514 326.386 77.626H320.226C320.338 79.166 321.514 80.188 323.124 80.188C324.02 80.188 324.818 79.866 325.378 79.222L325.938 79.866C325.28 80.65 324.258 81.07 323.096 81.07C320.8 81.07 319.232 79.502 319.232 77.318C319.232 75.134 320.758 73.58 322.83 73.58C324.902 73.58 326.4 75.106 326.4 77.318ZM322.83 74.434C321.402 74.434 320.352 75.442 320.226 76.884H325.448C325.322 75.442 324.272 74.434 322.83 74.434ZM334.042 81H332.908L330.57 77.92L328.218 81H327.098L330.01 77.22L327.238 73.636H328.358L330.57 76.52L332.782 73.636H333.874L331.102 77.22L334.042 81ZM339.225 79.838L339.575 80.552C339.183 80.902 338.595 81.07 338.021 81.07C336.635 81.07 335.865 80.286 335.865 78.928V74.476H334.549V73.636H335.865V72.026H336.859V73.636H339.099V74.476H336.859V78.872C336.859 79.74 337.307 80.216 338.133 80.216C338.539 80.216 338.945 80.09 339.225 79.838ZM345.216 72.726C345.216 71.41 346 70.542 347.442 70.542C347.988 70.542 348.548 70.696 348.912 71.004L348.576 71.746C348.296 71.508 347.904 71.382 347.484 71.382C346.63 71.382 346.182 71.858 346.182 72.768V73.636H348.45V74.476H346.21V81H345.216V74.476H343.9V73.636H345.216V72.726ZM351.418 70.612C351.824 70.612 352.146 70.92 352.146 71.298C352.146 71.704 351.838 72.026 351.418 72.026C351.012 72.026 350.69 71.704 350.69 71.312C350.69 70.934 351.012 70.612 351.418 70.612ZM350.914 81V73.636H351.908V81H350.914ZM354.687 81V70.612H355.681V81H354.687ZM364.873 77.318C364.873 77.402 364.859 77.514 364.859 77.626H358.699C358.811 79.166 359.987 80.188 361.597 80.188C362.493 80.188 363.291 79.866 363.851 79.222L364.411 79.866C363.753 80.65 362.731 81.07 361.569 81.07C359.273 81.07 357.705 79.502 357.705 77.318C357.705 75.134 359.231 73.58 361.303 73.58C363.375 73.58 364.873 75.106 364.873 77.318ZM361.303 74.434C359.875 74.434 358.825 75.442 358.699 76.884H363.921C363.795 75.442 362.745 74.434 361.303 74.434ZM368.87 81.07C367.652 81.07 366.476 80.678 365.874 80.16L366.322 79.376C366.91 79.838 367.904 80.202 368.94 80.202C370.34 80.202 370.914 79.726 370.914 78.998C370.914 77.08 366.14 78.592 366.14 75.68C366.14 74.476 367.176 73.58 369.052 73.58C370.004 73.58 371.04 73.846 371.656 74.266L371.222 75.064C370.578 74.616 369.808 74.434 369.052 74.434C367.722 74.434 367.134 74.952 367.134 75.652C367.134 77.64 371.908 76.142 371.908 78.97C371.908 80.244 370.788 81.07 368.87 81.07ZM373.843 81.07C373.437 81.07 373.101 80.734 373.101 80.3C373.101 79.866 373.437 79.544 373.843 79.544C374.249 79.544 374.599 79.866 374.599 80.3C374.599 80.734 374.249 81.07 373.843 81.07ZM91.7471 93.2H92.6011V103H91.6071V95.16L87.7571 101.754H87.2671L83.4171 95.202V103H82.4231V93.2H83.2771L87.5331 100.466L91.7471 93.2ZM98.1602 95.58C100.064 95.58 101.142 96.532 101.142 98.436V103H100.19V101.852C99.7422 102.608 98.8742 103.07 97.6562 103.07C95.9902 103.07 94.9682 102.202 94.9682 100.928C94.9682 99.794 95.6962 98.842 97.8102 98.842H100.148V98.394C100.148 97.134 99.4342 96.448 98.0622 96.448C97.1102 96.448 96.2142 96.784 95.6122 97.316L95.1642 96.574C95.9062 95.944 96.9982 95.58 98.1602 95.58ZM97.8102 102.286C98.9302 102.286 99.7562 101.754 100.148 100.788V99.584H97.8382C96.4102 99.584 95.9482 100.144 95.9482 100.9C95.9482 101.754 96.6342 102.286 97.8102 102.286ZM109.666 103H108.532L106.194 99.92L103.842 103H102.722L105.634 99.22L102.862 95.636H103.982L106.194 98.52L108.406 95.636H109.498L106.726 99.22L109.666 103ZM111.825 94.026C111.419 94.026 111.097 93.704 111.097 93.312C111.097 92.934 111.419 92.612 111.825 92.612C112.231 92.612 112.553 92.92 112.553 93.298C112.553 93.704 112.245 94.026 111.825 94.026ZM111.321 103V95.636H112.315V103H111.321ZM124.264 95.58C126.056 95.58 127.232 96.616 127.232 98.73V103H126.238V98.828C126.238 97.274 125.454 96.476 124.124 96.476C122.612 96.476 121.66 97.456 121.66 99.136V103H120.666V98.828C120.666 97.274 119.882 96.476 118.538 96.476C117.04 96.476 116.074 97.456 116.074 99.136V103H115.08V95.636H116.032V96.98C116.55 96.098 117.502 95.58 118.734 95.58C119.952 95.58 120.904 96.098 121.352 97.134C121.884 96.182 122.934 95.58 124.264 95.58ZM135.57 95.636H136.564V103H135.612V101.656C135.094 102.552 134.142 103.07 132.966 103.07C131.09 103.07 129.858 102.02 129.858 99.906V95.636H130.852V99.808C130.852 101.376 131.664 102.174 133.064 102.174C134.604 102.174 135.57 101.18 135.57 99.5V95.636ZM148.532 95.58C150.324 95.58 151.5 96.616 151.5 98.73V103H150.506V98.828C150.506 97.274 149.722 96.476 148.392 96.476C146.88 96.476 145.928 97.456 145.928 99.136V103H144.934V98.828C144.934 97.274 144.15 96.476 142.806 96.476C141.308 96.476 140.342 97.456 140.342 99.136V103H139.348V95.636H140.3V96.98C140.818 96.098 141.77 95.58 143.002 95.58C144.22 95.58 145.172 96.098 145.62 97.134C146.152 96.182 147.202 95.58 148.532 95.58ZM158.028 94.726C158.028 93.41 158.812 92.542 160.254 92.542C160.8 92.542 161.36 92.696 161.724 93.004L161.388 93.746C161.108 93.508 160.716 93.382 160.296 93.382C159.442 93.382 158.994 93.858 158.994 94.768V95.636H161.262V96.476H159.022V103H158.028V96.476H156.712V95.636H158.028V94.726ZM164.23 92.612C164.636 92.612 164.958 92.92 164.958 93.298C164.958 93.704 164.65 94.026 164.23 94.026C163.824 94.026 163.502 93.704 163.502 93.312C163.502 92.934 163.824 92.612 164.23 92.612ZM163.726 103V95.636H164.72V103H163.726ZM167.498 103V92.612H168.492V103H167.498ZM177.684 99.318C177.684 99.402 177.67 99.514 177.67 99.626H171.51C171.622 101.166 172.798 102.188 174.408 102.188C175.304 102.188 176.102 101.866 176.662 101.222L177.222 101.866C176.564 102.65 175.542 103.07 174.38 103.07C172.084 103.07 170.516 101.502 170.516 99.318C170.516 97.134 172.042 95.58 174.114 95.58C176.186 95.58 177.684 97.106 177.684 99.318ZM174.114 96.434C172.686 96.434 171.636 97.442 171.51 98.884H176.732C176.606 97.442 175.556 96.434 174.114 96.434ZM185.345 103.07C184.127 103.07 182.951 102.678 182.349 102.16L182.797 101.376C183.385 101.838 184.379 102.202 185.415 102.202C186.815 102.202 187.389 101.726 187.389 100.998C187.389 99.08 182.615 100.592 182.615 97.68C182.615 96.476 183.651 95.58 185.527 95.58C186.479 95.58 187.515 95.846 188.131 96.266L187.697 97.064C187.053 96.616 186.283 96.434 185.527 96.434C184.197 96.434 183.609 96.952 183.609 97.652C183.609 99.64 188.383 98.142 188.383 100.97C188.383 102.244 187.263 103.07 185.345 103.07ZM190.725 94.026C190.319 94.026 189.997 93.704 189.997 93.312C189.997 92.934 190.319 92.612 190.725 92.612C191.131 92.612 191.453 92.92 191.453 93.298C191.453 93.704 191.145 94.026 190.725 94.026ZM190.221 103V95.636H191.215V103H190.221ZM194.457 102.174H199.175V103H193.183V102.342L197.817 96.476H193.267V95.636H199.091V96.294L194.457 102.174ZM207.434 99.318C207.434 99.402 207.42 99.514 207.42 99.626H201.26C201.372 101.166 202.548 102.188 204.158 102.188C205.054 102.188 205.852 101.866 206.412 101.222L206.972 101.866C206.314 102.65 205.292 103.07 204.13 103.07C201.834 103.07 200.266 101.502 200.266 99.318C200.266 97.134 201.792 95.58 203.864 95.58C205.936 95.58 207.434 97.106 207.434 99.318ZM203.864 96.434C202.436 96.434 201.386 97.442 201.26 98.884H206.482C206.356 97.442 205.306 96.434 203.864 96.434ZM215.697 95.58C217.601 95.58 218.679 96.532 218.679 98.436V103H217.727V101.852C217.279 102.608 216.411 103.07 215.193 103.07C213.527 103.07 212.505 102.202 212.505 100.928C212.505 99.794 213.233 98.842 215.347 98.842H217.685V98.394C217.685 97.134 216.971 96.448 215.599 96.448C214.647 96.448 213.751 96.784 213.149 97.316L212.701 96.574C213.443 95.944 214.535 95.58 215.697 95.58ZM215.347 102.286C216.467 102.286 217.293 101.754 217.685 100.788V99.584H215.375C213.947 99.584 213.485 100.144 213.485 100.9C213.485 101.754 214.171 102.286 215.347 102.286ZM221.379 103V92.612H222.373V103H221.379ZM225.139 103V92.612H226.133V103H225.139ZM231.909 103.07C229.753 103.07 228.157 101.502 228.157 99.318C228.157 97.134 229.753 95.58 231.909 95.58C234.065 95.58 235.647 97.134 235.647 99.318C235.647 101.502 234.065 103.07 231.909 103.07ZM231.909 102.188C233.477 102.188 234.639 101.04 234.639 99.318C234.639 97.596 233.477 96.448 231.909 96.448C230.341 96.448 229.165 97.596 229.165 99.318C229.165 101.04 230.341 102.188 231.909 102.188ZM247.369 95.636H248.279L245.493 103H244.555L242.231 96.966L239.907 103H238.969L236.197 95.636H237.149L239.459 101.894L241.825 95.636H242.679L245.031 101.894L247.369 95.636ZM255.997 99.318C255.997 99.402 255.983 99.514 255.983 99.626H249.823C249.935 101.166 251.111 102.188 252.721 102.188C253.617 102.188 254.415 101.866 254.975 101.222L255.535 101.866C254.877 102.65 253.855 103.07 252.693 103.07C250.397 103.07 248.829 101.502 248.829 99.318C248.829 97.134 250.355 95.58 252.427 95.58C254.499 95.58 255.997 97.106 255.997 99.318ZM252.427 96.434C250.999 96.434 249.949 97.442 249.823 98.884H255.045C254.919 97.442 253.869 96.434 252.427 96.434ZM263.746 92.612H264.74V103H263.788V101.544C263.186 102.538 262.164 103.07 260.946 103.07C258.846 103.07 257.278 101.544 257.278 99.318C257.278 97.092 258.846 95.58 260.946 95.58C262.122 95.58 263.13 96.084 263.746 97.036V92.612ZM261.03 102.188C262.584 102.188 263.76 101.04 263.76 99.318C263.76 97.596 262.584 96.448 261.03 96.448C259.462 96.448 258.286 97.596 258.286 99.318C258.286 101.04 259.462 102.188 261.03 102.188ZM271.676 94.026C271.27 94.026 270.948 93.704 270.948 93.312C270.948 92.934 271.27 92.612 271.676 92.612C272.082 92.612 272.404 92.92 272.404 93.298C272.404 93.704 272.096 94.026 271.676 94.026ZM271.172 103V95.636H272.166V103H271.172ZM278.684 95.58C280.476 95.58 281.708 96.616 281.708 98.73V103H280.714V98.828C280.714 97.274 279.902 96.476 278.502 96.476C276.92 96.476 275.926 97.456 275.926 99.136V103H274.932V95.636H275.884V96.994C276.416 96.098 277.41 95.58 278.684 95.58ZM289.989 97.218C292.943 97.218 294.063 98.38 294.063 100.116C294.063 101.782 292.901 103.084 290.507 103.084C289.093 103.084 287.749 102.594 286.993 101.824L287.483 101.026C288.113 101.684 289.233 102.16 290.493 102.16C292.159 102.16 293.041 101.348 293.041 100.158C293.041 98.898 292.257 98.114 289.765 98.114H287.679L288.183 93.2H293.545V94.096H289.065L288.729 97.218H289.989ZM299.248 103.084C296.98 103.084 295.342 101.222 295.342 98.1C295.342 94.978 296.98 93.116 299.248 93.116C301.516 93.116 303.168 94.978 303.168 98.1C303.168 101.222 301.516 103.084 299.248 103.084ZM299.248 102.16C300.956 102.16 302.132 100.718 302.132 98.1C302.132 95.482 300.956 94.04 299.248 94.04C297.54 94.04 296.364 95.482 296.364 98.1C296.364 100.718 297.54 102.16 299.248 102.16ZM318.468 93.2H319.322V103H318.328V95.16L314.478 101.754H313.988L310.138 95.202V103H309.144V93.2H309.998L314.254 100.466L318.468 93.2ZM328.689 97.946C329.949 98.226 330.705 99.052 330.705 100.382C330.705 102.048 329.473 103 327.023 103H322.515V93.2H326.743C328.927 93.2 330.187 94.124 330.187 95.72C330.187 96.84 329.585 97.582 328.689 97.946ZM326.673 94.054H323.551V97.61H326.673C328.241 97.61 329.151 97.008 329.151 95.832C329.151 94.656 328.241 94.054 326.673 94.054ZM327.009 102.146C328.731 102.146 329.669 101.586 329.669 100.298C329.669 99.024 328.731 98.464 327.009 98.464H323.551V102.146H327.009ZM340.318 95.58C342.418 95.58 343.986 97.092 343.986 99.318C343.986 101.558 342.418 103.07 340.318 103.07C339.142 103.07 338.134 102.566 337.518 101.614V105.716H336.524V95.636H337.476V97.092C338.078 96.112 339.1 95.58 340.318 95.58ZM340.248 102.188C341.802 102.188 342.992 101.04 342.992 99.318C342.992 97.61 341.802 96.448 340.248 96.448C338.68 96.448 337.504 97.61 337.504 99.318C337.504 101.04 338.68 102.188 340.248 102.188ZM352.438 99.318C352.438 99.402 352.424 99.514 352.424 99.626H346.264C346.376 101.166 347.552 102.188 349.162 102.188C350.058 102.188 350.856 101.866 351.416 101.222L351.976 101.866C351.318 102.65 350.296 103.07 349.134 103.07C346.838 103.07 345.27 101.502 345.27 99.318C345.27 97.134 346.796 95.58 348.868 95.58C350.94 95.58 352.438 97.106 352.438 99.318ZM348.868 96.434C347.44 96.434 346.39 97.442 346.264 98.884H351.486C351.36 97.442 350.31 96.434 348.868 96.434ZM355.413 97.078C355.875 96.098 356.813 95.58 358.171 95.58V96.546C358.087 96.546 358.003 96.532 357.933 96.532C356.393 96.532 355.455 97.512 355.455 99.248V103H354.461V95.636H355.413V97.078ZM363.912 94.726C363.912 93.41 364.696 92.542 366.138 92.542C366.684 92.542 367.244 92.696 367.608 93.004L367.272 93.746C366.992 93.508 366.6 93.382 366.18 93.382C365.326 93.382 364.878 93.858 364.878 94.768V95.636H367.146V96.476H364.906V103H363.912V96.476H362.596V95.636H363.912V94.726ZM370.114 92.612C370.52 92.612 370.842 92.92 370.842 93.298C370.842 93.704 370.534 94.026 370.114 94.026C369.708 94.026 369.386 93.704 369.386 93.312C369.386 92.934 369.708 92.612 370.114 92.612ZM369.61 103V95.636H370.604V103H369.61ZM373.383 103V92.612H374.377V103H373.383ZM383.569 99.318C383.569 99.402 383.555 99.514 383.555 99.626H377.395C377.507 101.166 378.683 102.188 380.293 102.188C381.189 102.188 381.987 101.866 382.547 101.222L383.107 101.866C382.449 102.65 381.427 103.07 380.265 103.07C377.969 103.07 376.401 101.502 376.401 99.318C376.401 97.134 377.927 95.58 379.999 95.58C382.071 95.58 383.569 97.106 383.569 99.318ZM379.999 96.434C378.571 96.434 377.521 97.442 377.395 98.884H382.617C382.491 97.442 381.441 96.434 379.999 96.434ZM385.69 103.07C385.284 103.07 384.948 102.734 384.948 102.3C384.948 101.866 385.284 101.544 385.69 101.544C386.096 101.544 386.446 101.866 386.446 102.3C386.446 102.734 386.096 103.07 385.69 103.07ZM169.025 125.084C166.085 125.084 163.901 122.97 163.901 120.1C163.901 117.23 166.085 115.116 169.039 115.116C170.467 115.116 171.755 115.592 172.623 116.544L171.965 117.202C171.167 116.39 170.187 116.04 169.067 116.04C166.701 116.04 164.923 117.776 164.923 120.1C164.923 122.424 166.701 124.16 169.067 124.16C170.187 124.16 171.167 123.81 171.965 122.984L172.623 123.642C171.755 124.594 170.467 125.084 169.025 125.084ZM174.621 125V114.612H175.615V125H174.621ZM178.885 116.026C178.479 116.026 178.157 115.704 178.157 115.312C178.157 114.934 178.479 114.612 178.885 114.612C179.291 114.612 179.613 114.92 179.613 115.298C179.613 115.704 179.305 116.026 178.885 116.026ZM178.381 125V117.636H179.375V125H178.381ZM185.193 125.07C182.995 125.07 181.399 123.516 181.399 121.318C181.399 119.12 182.995 117.58 185.193 117.58C186.439 117.58 187.489 118.07 188.077 119.036L187.335 119.54C186.831 118.798 186.047 118.448 185.193 118.448C183.583 118.448 182.407 119.596 182.407 121.318C182.407 123.054 183.583 124.188 185.193 124.188C186.047 124.188 186.831 123.852 187.335 123.11L188.077 123.614C187.489 124.566 186.439 125.07 185.193 125.07ZM195.618 125L192.65 121.304L190.914 122.9V125H189.92V114.612H190.914V121.654L195.31 117.636H196.542L193.392 120.646L196.836 125H195.618ZM205.52 123.838L205.87 124.552C205.478 124.902 204.89 125.07 204.316 125.07C202.93 125.07 202.16 124.286 202.16 122.928V118.476H200.844V117.636H202.16V116.026H203.154V117.636H205.394V118.476H203.154V122.872C203.154 123.74 203.602 124.216 204.428 124.216C204.834 124.216 205.24 124.09 205.52 123.838ZM210.43 125.07C208.274 125.07 206.678 123.502 206.678 121.318C206.678 119.134 208.274 117.58 210.43 117.58C212.586 117.58 214.168 119.134 214.168 121.318C214.168 123.502 212.586 125.07 210.43 125.07ZM210.43 124.188C211.998 124.188 213.16 123.04 213.16 121.318C213.16 119.596 211.998 118.448 210.43 118.448C208.862 118.448 207.686 119.596 207.686 121.318C207.686 123.04 208.862 124.188 210.43 124.188Z" fill="#919EAB"/>
<path d="M223.656 117.58C225.756 117.58 227.324 119.092 227.324 121.318C227.324 123.544 225.756 125.07 223.656 125.07C222.438 125.07 221.416 124.538 220.814 123.544V125H219.862V114.612H220.856V119.036C221.472 118.084 222.48 117.58 223.656 117.58ZM223.586 124.188C225.14 124.188 226.33 123.04 226.33 121.318C226.33 119.596 225.14 118.448 223.586 118.448C222.018 118.448 220.842 119.596 220.842 121.318C220.842 123.04 222.018 124.188 223.586 124.188ZM230.302 119.078C230.764 118.098 231.702 117.58 233.06 117.58V118.546C232.976 118.546 232.892 118.532 232.822 118.532C231.282 118.532 230.344 119.512 230.344 121.248V125H229.35V117.636H230.302V119.078ZM237.801 125.07C235.645 125.07 234.049 123.502 234.049 121.318C234.049 119.134 235.645 117.58 237.801 117.58C239.957 117.58 241.539 119.134 241.539 121.318C241.539 123.502 239.957 125.07 237.801 125.07ZM237.801 124.188C239.369 124.188 240.531 123.04 240.531 121.318C240.531 119.596 239.369 118.448 237.801 118.448C236.233 118.448 235.057 119.596 235.057 121.318C235.057 123.04 236.233 124.188 237.801 124.188ZM253.262 117.636H254.172L251.386 125H250.448L248.124 118.966L245.8 125H244.862L242.09 117.636H243.042L245.352 123.894L247.718 117.636H248.572L250.924 123.894L253.262 117.636ZM257.56 125.07C256.342 125.07 255.166 124.678 254.564 124.16L255.012 123.376C255.6 123.838 256.594 124.202 257.63 124.202C259.03 124.202 259.604 123.726 259.604 122.998C259.604 121.08 254.83 122.592 254.83 119.68C254.83 118.476 255.866 117.58 257.742 117.58C258.694 117.58 259.73 117.846 260.346 118.266L259.912 119.064C259.268 118.616 258.498 118.434 257.742 118.434C256.412 118.434 255.824 118.952 255.824 119.652C255.824 121.64 260.598 120.142 260.598 122.97C260.598 124.244 259.478 125.07 257.56 125.07ZM268.862 121.318C268.862 121.402 268.848 121.514 268.848 121.626H262.688C262.8 123.166 263.976 124.188 265.586 124.188C266.482 124.188 267.28 123.866 267.84 123.222L268.4 123.866C267.742 124.65 266.72 125.07 265.558 125.07C263.262 125.07 261.694 123.502 261.694 121.318C261.694 119.134 263.22 117.58 265.292 117.58C267.364 117.58 268.862 119.106 268.862 121.318ZM265.292 118.434C263.864 118.434 262.814 119.442 262.688 120.884H267.91C267.784 119.442 266.734 118.434 265.292 118.434ZM274.717 116.726C274.717 115.41 275.501 114.542 276.943 114.542C277.489 114.542 278.049 114.696 278.413 115.004L278.077 115.746C277.797 115.508 277.405 115.382 276.985 115.382C276.131 115.382 275.683 115.858 275.683 116.768V117.636H277.951V118.476H275.711V125H274.717V118.476H273.401V117.636H274.717V116.726ZM280.919 114.612C281.325 114.612 281.647 114.92 281.647 115.298C281.647 115.704 281.339 116.026 280.919 116.026C280.513 116.026 280.191 115.704 280.191 115.312C280.191 114.934 280.513 114.612 280.919 114.612ZM280.415 125V117.636H281.409V125H280.415ZM284.188 125V114.612H285.182V125H284.188ZM294.374 121.318C294.374 121.402 294.36 121.514 294.36 121.626H288.2C288.312 123.166 289.488 124.188 291.098 124.188C291.994 124.188 292.792 123.866 293.352 123.222L293.912 123.866C293.254 124.65 292.232 125.07 291.07 125.07C288.774 125.07 287.206 123.502 287.206 121.318C287.206 119.134 288.732 117.58 290.804 117.58C292.876 117.58 294.374 119.106 294.374 121.318ZM290.804 118.434C289.376 118.434 288.326 119.442 288.2 120.884H293.422C293.296 119.442 292.246 118.434 290.804 118.434ZM298.371 125.07C297.153 125.07 295.977 124.678 295.375 124.16L295.823 123.376C296.411 123.838 297.405 124.202 298.441 124.202C299.841 124.202 300.415 123.726 300.415 122.998C300.415 121.08 295.641 122.592 295.641 119.68C295.641 118.476 296.677 117.58 298.553 117.58C299.505 117.58 300.541 117.846 301.157 118.266L300.723 119.064C300.079 118.616 299.309 118.434 298.553 118.434C297.223 118.434 296.635 118.952 296.635 119.652C296.635 121.64 301.409 120.142 301.409 122.97C301.409 124.244 300.289 125.07 298.371 125.07ZM303.344 125.07C302.938 125.07 302.602 124.734 302.602 124.3C302.602 123.866 302.938 123.544 303.344 123.544C303.75 123.544 304.1 123.866 304.1 124.3C304.1 124.734 303.75 125.07 303.344 125.07Z" fill="#0038FF"/>
<path d="M218.476 126.4H304.828V127.1H218.476V126.4Z" fill="#0038FF"/>
</svg>
