<svg width="42" height="52" viewBox="0 0 42 52" fill="none" xmlns="http://www.w3.org/2000/svg">
<path fill-rule="evenodd" clip-rule="evenodd" d="M27.3201 3.63184H3.65186V52.0001H39.7103V15.7498L27.3201 3.63184Z" fill="#FFD733"/>
<path d="M36.7432 49.628H0.628785C0.461738 49.628 0.301399 49.5614 0.183607 49.4428C0.0656049 49.3244 -0.000417205 49.1638 1.984e-06 48.9963L0.133722 0.628173C0.13477 0.281124 0.416046 0 0.762506 0H24.4068C24.5737 0 24.7336 0.0663444 24.8514 0.184547L37.2554 12.6094C37.3736 12.7279 37.4401 12.8887 37.4396 13.056L37.4101 27.765C37.4095 28.1124 37.128 28.3936 36.7813 28.3936C36.7809 28.3936 36.7805 28.3936 36.78 28.3936C36.4327 28.3927 36.1519 28.1101 36.1525 27.7624L36.1816 13.3151L24.1465 1.25971H1.3894L1.25924 48.3683H36.1163L36.12 47.0548C36.1211 46.7078 36.4023 46.4269 36.7488 46.4269C36.7494 46.4269 36.7501 46.4269 36.7507 46.4269C37.0978 46.4279 37.3786 46.7107 37.3776 47.0586L37.3721 49C37.3709 49.3471 37.0896 49.628 36.7432 49.628Z" fill="black"/>
<path d="M36.8107 13.6844H28.4728C25.8841 13.6844 23.7781 11.5748 23.7781 8.98167V0.629816C23.7781 0.375145 23.9313 0.145459 24.1663 0.0480418C24.4021 -0.0495854 24.6718 0.00437196 24.8516 0.18451L37.2556 12.6094C37.4355 12.7895 37.4893 13.0604 37.3919 13.2957C37.2942 13.5309 37.0649 13.6844 36.8107 13.6844ZM25.0354 2.15028V8.98188C25.0354 10.8803 26.5772 12.4249 28.4726 12.4249H35.2926L25.0354 2.15028ZM40.6745 44.8043H16.2367C15.506 44.8043 14.9116 44.2089 14.9116 43.477V31.3433C14.9116 30.6114 15.506 30.0158 16.2367 30.0158H40.6748C41.4054 30.0158 42 30.6114 42 31.3433V43.477C42 44.2089 41.4054 44.8043 40.6745 44.8043ZM16.2367 31.2753C16.2006 31.2753 16.1692 31.307 16.1692 31.3431V43.4768C16.1692 43.5129 16.2006 43.5444 16.2367 43.5444H40.6748C40.7108 43.5444 40.7425 43.5129 40.7425 43.4768V31.3431C40.7425 31.307 40.7108 31.2753 40.6748 31.2753H16.2367Z" fill="black"/>
<path d="M22.3603 36.9735H25.5199V37.971H22.3603V36.9735ZM22.4599 40.4015H21.283V34.0533H25.9092V35.0418H22.4599V40.4015Z" fill="black"/>
<path d="M26.9388 40.4015V35.5588H28.0704V40.4015H26.9388ZM27.5091 34.7607C27.2979 34.7607 27.1228 34.6942 26.984 34.5612C26.8512 34.4282 26.7849 34.268 26.7849 34.0805C26.7849 33.8871 26.8512 33.7269 26.984 33.5999C27.1228 33.4669 27.2979 33.4004 27.5091 33.4004C27.7204 33.4004 27.8924 33.4639 28.0252 33.5908C28.164 33.7118 28.2334 33.8659 28.2334 34.0533C28.2334 34.2529 28.167 34.4221 28.0342 34.5612C27.9014 34.6942 27.7264 34.7607 27.5091 34.7607Z" fill="black"/>
<path d="M29.5557 40.4015V33.6725H30.6874V40.4015H29.5557Z" fill="black"/>
<path d="M34.4451 40.465C33.908 40.465 33.4372 40.3592 33.0328 40.1475C32.6345 39.9299 32.3236 39.6337 32.1003 39.2588C31.883 38.884 31.7744 38.4577 31.7744 37.9801C31.7744 37.4964 31.88 37.0702 32.0913 36.7014C32.3085 36.3266 32.6043 36.0334 32.9785 35.8218C33.3587 35.6101 33.7903 35.5043 34.2731 35.5043C34.7439 35.5043 35.1634 35.6071 35.5315 35.8127C35.8997 36.0182 36.1894 36.3084 36.4007 36.6833C36.6119 37.0581 36.7175 37.4995 36.7175 38.0073C36.7175 38.0557 36.7145 38.1101 36.7085 38.1706C36.7085 38.231 36.7055 38.2885 36.6994 38.3429H32.6707V37.5902H36.1019L35.6583 37.8259C35.6643 37.5478 35.607 37.303 35.4863 37.0914C35.3656 36.8798 35.1996 36.7135 34.9883 36.5926C34.7831 36.4717 34.5447 36.4112 34.2731 36.4112C33.9955 36.4112 33.751 36.4717 33.5398 36.5926C33.3346 36.7135 33.1716 36.8828 33.0509 37.1004C32.9362 37.312 32.8789 37.563 32.8789 37.8532V38.0345C32.8789 38.3247 32.9453 38.5817 33.0781 38.8054C33.2109 39.0291 33.398 39.2014 33.6394 39.3223C33.8808 39.4432 34.1584 39.5037 34.4723 39.5037C34.7439 39.5037 34.9883 39.4613 35.2056 39.3767C35.4229 39.2921 35.616 39.1591 35.785 38.9777L36.3916 39.676C36.1743 39.9299 35.8997 40.1264 35.5677 40.2654C35.2418 40.3985 34.8676 40.465 34.4451 40.465Z" fill="black"/>
</svg>
