<svg width="374" height="50" viewBox="0 0 374 50" fill="none" xmlns="http://www.w3.org/2000/svg">
<path d="M287.676 39.1981V27.894C287.676 23.4417 286.376 20.0711 283.858 17.7117C281.126 15.151 277.099 13.8732 271.849 13.8732C267.162 13.8578 262.534 14.8491 258.32 16.7709L259.974 21.0169C263.431 19.5328 266.883 18.4562 271.248 18.4562C278.227 18.4562 282.328 21.691 282.328 27.9594V29.1718C278.613 28.1566 274.758 27.6582 270.888 27.6927C261.45 27.6927 255.008 31.6016 255.008 38.9465V39.0824C255.008 46.2311 261.987 49.9388 268.891 49.9388C270.376 49.9354 271.856 49.7665 273.299 49.4357C273.948 49.2864 274.588 49.1016 275.215 48.8823C275.821 48.698 276.403 48.4499 276.949 48.1428C276.949 47.4988 276.949 46.8599 276.949 46.216C276.949 45.5721 276.949 44.8929 276.949 44.2389C276.445 44.4884 275.925 44.7085 275.392 44.8979C274.829 45.0984 274.254 45.2665 273.669 45.401C272.452 45.6708 271.205 45.8058 269.954 45.8035C264.918 45.8035 260.602 43.2428 260.602 38.861V38.7302C260.602 34.3484 264.489 31.5161 271.468 31.5161C275.169 31.5285 278.85 32.0367 282.398 33.0253V36.3959C282.393 37.352 282.211 38.3 281.861 39.1981H284.073C285.301 39.2216 286.502 39.2216 287.676 39.1981Z" fill="#00A94F"/>
<path d="M0 2.01953H36.1841V6.94968H5.6853V23.8027H32.9468V28.6826H5.6853V49.2182H0V2.01953Z" fill="#00A94F"/>
<path d="M74.403 39.2353V27.9312C74.403 23.479 73.1038 20.1083 70.586 17.7489C67.8534 15.1883 63.8269 13.9054 58.5765 13.9054C53.8895 13.8918 49.2615 14.8848 45.0477 16.8082L46.7066 21.029C50.164 19.5197 53.616 18.4683 57.9806 18.4683C64.9597 18.4683 69.0613 21.7031 69.0613 27.9714V29.1738C65.3457 28.1586 61.4911 27.6603 57.6209 27.6947C48.1991 27.6947 41.7246 31.6036 41.7246 38.9486V39.0844C41.7246 46.2331 48.7037 49.9408 55.6077 49.9408C57.093 49.9374 58.5726 49.7686 60.0153 49.4377C60.6651 49.2884 61.305 49.1036 61.9318 48.8843C62.5389 48.7004 63.1208 48.4505 63.6659 48.1398C63.6659 47.5009 63.6659 46.8619 63.6659 46.218C63.6659 45.5741 63.6659 44.8949 63.6659 44.2409C63.1619 44.4904 62.6419 44.7105 62.109 44.9C61.5461 45.1005 60.9706 45.2685 60.3857 45.403C59.1684 45.6728 57.9215 45.8078 56.6707 45.8055C51.635 45.8055 47.3186 43.2448 47.3186 38.863V38.7272C47.3186 34.3454 51.2055 31.5131 58.1846 31.5131C61.8849 31.5173 65.5656 32.017 69.115 32.9972V36.3678C69.1096 37.3238 68.9279 38.2718 68.5781 39.1699H70.79C72.0247 39.2135 73.2291 39.2353 74.403 39.2353Z" fill="#00A94F"/>
<path d="M86.1802 14.3594H91.7205V23.46C94.4531 17.6646 99.8539 13.484 106.897 13.7557V19.3499H106.468C98.34 19.3499 91.7205 24.8083 91.7205 35.3276V49.2125H86.1802V14.3594Z" fill="#00A94F"/>
<path d="M115.316 14.3518H120.857V20.2177C123.299 16.7817 126.612 13.6123 132.872 13.6123C138.911 13.6123 142.798 16.6308 144.811 20.5548C147.495 16.7113 151.431 13.6123 157.905 13.6123C166.468 13.6123 171.718 19.0053 171.718 27.633V49.205H166.178V28.8455C166.178 22.1042 162.581 18.3312 156.515 18.3312C150.905 18.3312 146.229 22.2401 146.229 29.1171V49.205H140.785V28.7096C140.785 22.1696 137.113 18.3312 131.213 18.3312C125.313 18.3312 120.857 22.9142 120.857 29.3183V49.205H115.316V14.3518Z" fill="#00A94F"/>
<path d="M181.143 42.3372L184.68 38.4283C189.931 42.8805 194.967 45.1041 201.946 45.1041C208.705 45.1041 213.166 41.7335 213.166 37.0549V36.9191C213.166 32.5373 210.648 30.047 200.072 27.9542C188.481 25.62 183.156 22.1387 183.156 14.3611V14.2253C183.156 6.80994 190.135 1.35156 199.702 1.35156C207.04 1.35156 212.291 3.30853 217.418 7.147L214.105 11.2622C209.429 7.69033 204.753 6.13582 199.573 6.13582C193.029 6.13582 188.836 9.50643 188.836 13.7574V13.8882C188.836 18.3405 191.423 20.8357 202.504 23.0593C213.724 25.3533 218.905 29.1918 218.905 36.4059V36.5418C218.905 44.6312 211.711 49.8884 201.726 49.8884C193.732 49.8884 187.188 47.3931 181.143 42.3372Z" fill="#00A94F"/>
<path d="M231.14 39.9737V18.9451H225.959V14.3571H231.14V3.84277H236.68V14.3571H248.491V18.9451H236.68V39.2996C236.68 43.5506 239.198 45.1001 242.94 45.1001C244.816 45.1084 246.667 44.6925 248.335 43.8877V48.3349C246.274 49.3551 243.972 49.8741 241.64 49.8441C235.681 49.8038 231.14 47.052 231.14 39.9737Z" fill="#00A94F"/>
<path d="M297.604 31.9494V31.8136C297.604 21.9734 305.807 13.6123 316.668 13.6123C323.722 13.6123 328.108 16.3742 331.56 19.8152L327.893 23.4525C324.941 20.5548 321.634 18.1953 316.619 18.1953C309.066 18.1953 303.311 24.197 303.311 31.6778V31.8136C303.311 39.3598 309.216 45.3615 316.979 45.3615C321.725 45.3615 325.397 43.1379 328.344 40.1747L331.85 43.2586C328.092 47.1675 323.647 49.9998 316.668 49.9998C305.807 50.0149 297.604 41.7494 297.604 31.9494Z" fill="#00A94F"/>
<path d="M340.989 0H346.524V33.9778L366.597 14.3578H373.506L357.894 29.3243L374 49.2109H367.386L354.077 32.9666L346.524 40.1103V49.2109H340.989V0Z" fill="#00A94F"/>
</svg>
