<svg width="103" height="118" viewBox="0 0 103 118" fill="none" xmlns="http://www.w3.org/2000/svg">
<path d="M72.1358 44.5038L71.8892 44.7656L88.8145 61.047L89.0612 60.7852L72.1358 44.5038Z" fill="#E6E6E6"/>
<path d="M89.0886 59.0195L88.7312 59.0414L88.839 60.8201L87.0751 60.7987L87.0713 61.1603L89.2195 61.186L89.0886 59.0195Z" fill="#E6E6E6"/>
<path d="M73.8798 44.3892L73.8759 44.7508L72.1122 44.7294L72.2201 46.5081L71.8625 46.53L71.7319 44.3633L73.8798 44.3892Z" fill="#E6E6E6"/>
<path d="M80.4752 54.7628C81.5618 54.7628 82.4426 53.8728 82.4426 52.7749C82.4426 51.6771 81.5618 50.7871 80.4752 50.7871C79.3886 50.7871 78.5078 51.6771 78.5078 52.7749C78.5078 53.8728 79.3886 54.7628 80.4752 54.7628Z" fill="#E6E6E6"/>
<path d="M90.2554 41.3838H60.5657C60.139 41.3833 59.7298 41.2118 59.428 40.9069C59.1263 40.602 58.9565 40.1886 58.9561 39.7574V1.80804C58.9565 1.37684 59.1263 0.963449 59.428 0.658546C59.7298 0.353643 60.139 0.182132 60.5657 0.181641H90.2554C90.6822 0.182132 91.0913 0.353643 91.3931 0.658546C91.6948 0.963449 91.8646 1.37684 91.8651 1.80804V39.7574C91.8646 40.1886 91.6948 40.602 91.3931 40.9069C91.0913 41.2118 90.6822 41.3833 90.2554 41.3838ZM60.5657 0.543064C60.2338 0.54344 59.9156 0.676835 59.6809 0.913983C59.4461 1.15113 59.3141 1.47266 59.3138 1.80804V39.7574C59.3141 40.0927 59.4461 40.4143 59.6809 40.6514C59.9156 40.8886 60.2338 41.022 60.5657 41.0223H90.2554C90.5873 41.022 90.9056 40.8886 91.1403 40.6514C91.375 40.4143 91.507 40.0927 91.5074 39.7574V1.80804C91.507 1.47266 91.375 1.15113 91.1403 0.913983C90.9056 0.676835 90.5873 0.54344 90.2554 0.543064H60.5657Z" fill="#3F3D56"/>
<path d="M72.9407 18.4225H66.4054C66.192 18.4223 65.9875 18.3365 65.8366 18.1841C65.6857 18.0316 65.6008 17.8249 65.6006 17.6093V9.81711C65.6008 9.60151 65.6857 9.3948 65.8366 9.24235C65.9875 9.0899 66.192 9.00414 66.4054 9.00391H72.9407C73.1541 9.00414 73.3587 9.0899 73.5096 9.24235C73.6605 9.3948 73.7453 9.6015 73.7456 9.81711V17.6093C73.7453 17.8249 73.6605 18.0316 73.5096 18.1841C73.3587 18.3365 73.1541 18.4223 72.9407 18.4225Z" fill="#00BFA6"/>
<path d="M85.6395 22.0377H79.1041C78.8908 22.0375 78.6862 21.9517 78.5353 21.7993C78.3844 21.6468 78.2996 21.4401 78.2993 21.2245V13.4323C78.2996 13.2167 78.3844 13.01 78.5353 12.8576C78.6862 12.7051 78.8908 12.6194 79.1041 12.6191H85.6395C85.8528 12.6194 86.0574 12.7051 86.2083 12.8576C86.3592 13.01 86.4441 13.2167 86.4443 13.4323V21.2245C86.4441 21.4401 86.3592 21.6468 86.2083 21.7993C86.0574 21.9517 85.8528 22.0375 85.6395 22.0377Z" fill="#CCCCCC"/>
<path d="M75.4446 33.0592H68.9093C68.696 33.059 68.4914 32.9732 68.3405 32.8208C68.1896 32.6683 68.1047 32.4616 68.1045 32.246V24.4538C68.1047 24.2382 68.1896 24.0315 68.3405 23.8791C68.4914 23.7266 68.696 23.6409 68.9093 23.6406H75.4446C75.658 23.6409 75.8626 23.7266 76.0135 23.8791C76.1644 24.0315 76.2492 24.2382 76.2495 24.4538V32.246C76.2492 32.4616 76.1644 32.6683 76.0135 32.8208C75.8626 32.9732 75.658 33.059 75.4446 33.0592Z" fill="#FF6584"/>
<path d="M101.39 104.337H71.7005C71.2737 104.336 70.8646 104.165 70.5628 103.86C70.2611 103.555 70.0913 103.142 70.0908 102.71V64.7612C70.0913 64.33 70.2611 63.9166 70.5628 63.6117C70.8646 63.3068 71.2737 63.1353 71.7005 63.1348H101.39C101.817 63.1353 102.226 63.3068 102.528 63.6117C102.83 63.9166 102.999 64.33 103 64.7612V102.71C102.999 103.142 102.83 103.555 102.528 103.86C102.226 104.165 101.817 104.336 101.39 104.337ZM71.7005 63.4962C71.3686 63.4966 71.0503 63.63 70.8156 63.8671C70.5809 64.1043 70.4489 64.4258 70.4485 64.7612V102.71C70.4489 103.046 70.5809 103.367 70.8156 103.605C71.0503 103.842 71.3686 103.975 71.7005 103.975H101.39C101.722 103.975 102.04 103.842 102.275 103.605C102.51 103.367 102.642 103.046 102.642 102.71V64.7612C102.642 64.4258 102.51 64.1043 102.275 63.8671C102.04 63.63 101.722 63.4966 101.39 63.4962H71.7005Z" fill="#3F3D56"/>
<path d="M91.6425 71.5375H81.4478C81.2581 71.5375 81.0761 71.4613 80.942 71.3258C80.8078 71.1902 80.7324 71.0064 80.7324 70.8146C80.7324 70.6229 80.8078 70.4391 80.942 70.3035C81.0761 70.168 81.2581 70.0918 81.4478 70.0918H91.6425C91.8322 70.0918 92.0142 70.168 92.1484 70.3035C92.2825 70.4391 92.3579 70.6229 92.3579 70.8146C92.3579 71.0064 92.2825 71.1902 92.1484 71.3258C92.0142 71.4613 91.8322 71.5375 91.6425 71.5375Z" fill="#00BFA6"/>
<path d="M96.6507 78.4047H76.4403C76.3462 78.4048 76.2531 78.3863 76.1661 78.35C76.0792 78.3138 76.0002 78.2605 75.9336 78.1934C75.867 78.1263 75.8142 78.0465 75.7782 77.9587C75.7422 77.871 75.7236 77.7769 75.7236 77.6818C75.7236 77.5868 75.7422 77.4927 75.7782 77.4049C75.8142 77.3171 75.867 77.2374 75.9336 77.1703C76.0002 77.1031 76.0792 77.0499 76.1661 77.0137C76.2531 76.9774 76.3462 76.9588 76.4403 76.959H96.6507C96.7448 76.9588 96.8379 76.9774 96.9249 77.0137C97.0118 77.0499 97.0908 77.1031 97.1574 77.1703C97.224 77.2374 97.2768 77.3171 97.3128 77.4049C97.3488 77.4927 97.3674 77.5868 97.3674 77.6818C97.3674 77.7769 97.3488 77.871 97.3128 77.9587C97.2768 78.0465 97.224 78.1263 97.1574 78.1934C97.0908 78.2605 97.0118 78.3138 96.9249 78.35C96.8379 78.3863 96.7448 78.4048 96.6507 78.4047Z" fill="#CCCCCC"/>
<path d="M96.6507 82.1996H76.4403C76.3462 82.1998 76.2531 82.1812 76.1661 82.1449C76.0792 82.1087 76.0002 82.0555 75.9336 81.9883C75.867 81.9212 75.8142 81.8414 75.7782 81.7537C75.7422 81.6659 75.7236 81.5718 75.7236 81.4767C75.7236 81.3817 75.7422 81.2876 75.7782 81.1998C75.8142 81.1121 75.867 81.0323 75.9336 80.9652C76.0002 80.898 76.0792 80.8448 76.1661 80.8086C76.2531 80.7723 76.3462 80.7537 76.4403 80.7539H96.6507C96.7448 80.7537 96.8379 80.7723 96.9249 80.8086C97.0118 80.8448 97.0908 80.898 97.1574 80.9652C97.224 81.0323 97.2768 81.1121 97.3128 81.1998C97.3488 81.2876 97.3674 81.3817 97.3674 81.4767C97.3674 81.5718 97.3488 81.6659 97.3128 81.7537C97.2768 81.8414 97.224 81.9212 97.1574 81.9883C97.0908 82.0555 97.0118 82.1087 96.9249 82.1449C96.8379 82.1812 96.7448 82.1998 96.6507 82.1996Z" fill="#CCCCCC"/>
<path d="M96.6507 85.9945H76.4403C76.3462 85.9947 76.2531 85.9761 76.1661 85.9399C76.0792 85.9036 76.0002 85.8504 75.9336 85.7832C75.867 85.7161 75.8142 85.6364 75.7782 85.5486C75.7422 85.4608 75.7236 85.3667 75.7236 85.2717C75.7236 85.1766 75.7422 85.0825 75.7782 84.9948C75.8142 84.907 75.867 84.8272 75.9336 84.7601C76.0002 84.693 76.0792 84.6397 76.1661 84.6035C76.2531 84.5672 76.3462 84.5487 76.4403 84.5488H96.6507C96.7448 84.5487 96.8379 84.5672 96.9249 84.6035C97.0118 84.6397 97.0908 84.693 97.1574 84.7601C97.224 84.8272 97.2768 84.907 97.3128 84.9948C97.3488 85.0825 97.3674 85.1766 97.3674 85.2717C97.3674 85.3667 97.3488 85.4608 97.3128 85.5486C97.2768 85.6364 97.224 85.7161 97.1574 85.7832C97.0908 85.8504 97.0118 85.9036 96.9249 85.9399C96.8379 85.9761 96.7448 85.9947 96.6507 85.9945Z" fill="#CCCCCC"/>
<path d="M96.6507 89.7894H76.4403C76.3462 89.7896 76.2531 89.771 76.1661 89.7348C76.0792 89.6985 76.0002 89.6453 75.9336 89.5782C75.867 89.511 75.8142 89.4313 75.7782 89.3435C75.7422 89.2557 75.7236 89.1616 75.7236 89.0666C75.7236 88.9716 75.7422 88.8775 75.7782 88.7897C75.8142 88.7019 75.867 88.6222 75.9336 88.555C76.0002 88.4879 76.0792 88.4347 76.1661 88.3984C76.2531 88.3622 76.3462 88.3436 76.4403 88.3438H96.6507C96.7448 88.3436 96.8379 88.3622 96.9249 88.3984C97.0118 88.4347 97.0908 88.4879 97.1574 88.555C97.224 88.6222 97.2768 88.7019 97.3128 88.7897C97.3488 88.8775 97.3674 88.9716 97.3674 89.0666C97.3674 89.1616 97.3488 89.2557 97.3128 89.3435C97.2768 89.4313 97.224 89.511 97.1574 89.5782C97.0908 89.6453 97.0118 89.6985 96.9249 89.7348C96.8379 89.771 96.7448 89.7896 96.6507 89.7894Z" fill="#CCCCCC"/>
<path d="M96.6507 93.5844H76.4403C76.3462 93.5845 76.2531 93.566 76.1661 93.5297C76.0792 93.4934 76.0002 93.4402 75.9336 93.3731C75.867 93.3059 75.8142 93.2262 75.7782 93.1384C75.7422 93.0506 75.7236 92.9565 75.7236 92.8615C75.7236 92.7665 75.7422 92.6724 75.7782 92.5846C75.8142 92.4968 75.867 92.4171 75.9336 92.3499C76.0002 92.2828 76.0792 92.2296 76.1661 92.1933C76.2531 92.1571 76.3462 92.1385 76.4403 92.1387H96.6507C96.7448 92.1385 96.8379 92.1571 96.9249 92.1933C97.0118 92.2296 97.0908 92.2828 97.1574 92.3499C97.224 92.4171 97.2768 92.4968 97.3128 92.5846C97.3488 92.6724 97.3674 92.7665 97.3674 92.8615C97.3674 92.9565 97.3488 93.0506 97.3128 93.1384C97.2768 93.2262 97.224 93.3059 97.1574 93.3731C97.0908 93.4402 97.0118 93.4934 96.9249 93.5297C96.8379 93.566 96.7448 93.5845 96.6507 93.5844Z" fill="#CCCCCC"/>
<path d="M96.6507 97.3793H76.4403C76.3462 97.3795 76.2531 97.3609 76.1661 97.3246C76.0792 97.2884 76.0002 97.2352 75.9336 97.168C75.867 97.1009 75.8142 97.0211 75.7782 96.9333C75.7422 96.8456 75.7236 96.7515 75.7236 96.6564C75.7236 96.5614 75.7422 96.4673 75.7782 96.3795C75.8142 96.2917 75.867 96.212 75.9336 96.1449C76.0002 96.0777 76.0792 96.0245 76.1661 95.9883C76.2531 95.952 76.3462 95.9334 76.4403 95.9336H96.6507C96.7448 95.9334 96.8379 95.952 96.9249 95.9883C97.0118 96.0245 97.0908 96.0777 97.1574 96.1449C97.224 96.212 97.2768 96.2917 97.3128 96.3795C97.3488 96.4673 97.3674 96.5614 97.3674 96.6564C97.3674 96.7515 97.3488 96.8456 97.3128 96.9333C97.2768 97.0211 97.224 97.1009 97.1574 97.168C97.0908 97.2352 97.0118 97.2884 96.9249 97.3246C96.8379 97.3609 96.7448 97.3795 96.6507 97.3793Z" fill="#CCCCCC"/>
<path d="M4.21729 70.5212V59.6431C4.21762 59.3421 4.3361 59.0535 4.54674 58.8407C4.75738 58.6279 5.04297 58.5081 5.34086 58.5078H14.4643C14.7622 58.5081 15.0478 58.6279 15.2584 58.8407C15.4691 59.0535 15.5876 59.3421 15.5879 59.6431V70.5212C15.5876 70.8221 15.4691 71.1107 15.2584 71.3235C15.0478 71.5364 14.7622 71.6561 14.4643 71.6564H5.34086C5.04297 71.6561 4.75738 71.5364 4.54674 71.3235C4.3361 71.1107 4.21762 70.8221 4.21729 70.5212Z" fill="#E6E6E6"/>
<path d="M7.50391 66.8981V56.02C7.50424 55.719 7.62272 55.4305 7.83336 55.2176C8.044 55.0048 8.32959 54.8851 8.62748 54.8848H17.7509C18.0488 54.8851 18.3344 55.0048 18.5451 55.2176C18.7557 55.4305 18.8742 55.719 18.8745 56.02V66.8981C18.8742 67.1991 18.7557 67.4877 18.5451 67.7005C18.3344 67.9133 18.0488 68.033 17.7509 68.0334H8.62748C8.32959 68.033 8.044 67.9133 7.83336 67.7005C7.62272 67.4877 7.50424 67.1991 7.50391 66.8981Z" fill="#00BFA6"/>
<path d="M48.4019 63.4194C48.0586 63.2189 47.763 62.9449 47.5359 62.6165C47.3087 62.2882 47.1556 61.9135 47.0873 61.5188C47.019 61.1242 47.0372 60.7193 47.1405 60.3325C47.2438 59.9457 47.4299 59.5866 47.6854 59.2803L44.8574 38.3945L50.7484 38.6867L51.6733 59.0586C52.1541 59.5265 52.4482 60.1564 52.5001 60.8288C52.552 61.5013 52.3579 62.1696 51.9547 62.7071C51.5514 63.2446 50.967 63.6141 50.3123 63.7453C49.6575 63.8766 48.9778 63.7606 48.4019 63.4194Z" fill="#A0616A"/>
<path d="M51.5566 38.9638C51.4359 39.1075 51.2812 39.218 51.107 39.2851L45.8129 41.3267C45.547 41.4292 45.2524 41.4249 44.9895 41.3146C44.7267 41.2042 44.5157 40.9963 44.4 40.7336L39.7105 30.085C39.2602 29.0973 39.1836 27.9771 39.495 26.9361C39.7253 26.1932 40.1497 25.5267 40.7234 25.007C41.2972 24.4873 41.999 24.1336 42.7551 23.9832C43.3365 23.8623 43.937 23.8708 44.5148 24.0083C45.2072 24.1642 45.8502 24.4921 46.3856 24.9624C46.921 25.4326 47.3319 26.0303 47.5811 26.7014L51.7507 37.8374C51.8208 38.0256 51.8398 38.2293 51.8057 38.4273C51.7715 38.6254 51.6856 38.8107 51.5566 38.9638Z" fill="#CCCCCC"/>
<path d="M23.9694 114.395H20.3065L18.9785 100.053L23.97 100.12L23.9694 114.395Z" fill="#A0616A"/>
<path d="M17.6904 113.338H24.7544V117.832H13.2427C13.2427 117.242 13.3577 116.657 13.5812 116.112C13.8048 115.567 14.1324 115.071 14.5454 114.654C14.9584 114.237 15.4487 113.906 15.9883 113.68C16.5279 113.454 17.1063 113.338 17.6904 113.338Z" fill="#2F2E41"/>
<path d="M40.999 114.396H37.3362L35.5938 100.121L40.9996 100.121L40.999 114.396Z" fill="#A0616A"/>
<path d="M34.7202 113.338H41.7842V117.832H30.2725C30.2725 117.242 30.3875 116.657 30.611 116.112C30.8345 115.567 31.1622 115.071 31.5752 114.654C31.9882 114.237 32.4785 113.906 33.0181 113.68C33.5577 113.454 34.1361 113.338 34.7202 113.338Z" fill="#2F2E41"/>
<path d="M41.46 109.316L35.7072 108.886C35.38 108.861 35.0731 108.716 34.8441 108.479C34.6151 108.242 34.4798 107.928 34.4636 107.597L33.1809 80.8118C33.1686 80.5547 33.0638 80.3111 32.8863 80.1265C32.7087 79.942 32.4706 79.8292 32.2167 79.8095C31.9627 79.7897 31.7104 79.8643 31.507 80.0192C31.3036 80.1741 31.1631 80.3987 31.112 80.6508L25.7607 107.036C25.6945 107.361 25.5132 107.65 25.2509 107.849C24.9887 108.048 24.6635 108.144 24.3364 108.118L19.1362 107.697C18.958 107.683 18.7844 107.633 18.6256 107.55C18.4668 107.467 18.326 107.353 18.2114 107.214C18.0968 107.075 18.0107 106.915 17.9582 106.742C17.9057 106.57 17.8878 106.388 17.9056 106.208L22.73 57.4634C22.7488 57.2729 22.8073 57.0886 22.9017 56.9225C22.996 56.7564 23.124 56.6124 23.2773 56.4998C23.4306 56.3872 23.6057 56.3087 23.7912 56.2693C23.9766 56.2299 24.1682 56.2306 24.3534 56.2713L42.6995 60.3008C43.0033 60.3682 43.2748 60.5398 43.4677 60.7864C43.6606 61.0329 43.7632 61.3394 43.758 61.6536L42.9036 107.987C42.8968 108.342 42.7527 108.681 42.502 108.93C42.2513 109.179 41.914 109.319 41.5624 109.32C41.5284 109.32 41.4943 109.319 41.46 109.316Z" fill="#2F2E41"/>
<path d="M25.0418 61.2221C24.3362 60.5828 23.776 59.7967 23.3998 58.9178C23.0237 58.0389 22.8404 57.088 22.8626 56.1307C22.8626 45.4745 31.9917 21.6668 32.2779 20.9239C32.3058 20.745 32.5467 20.6677 33.8104 19.8052C35.0749 18.942 36.8982 18.8093 39.2299 19.411C39.4669 19.4723 39.6827 19.5982 39.8539 19.7748C40.0251 19.9514 40.1451 20.172 40.2008 20.4127L40.6346 21.046C40.6723 21.2065 40.7468 21.3559 40.8521 21.4821C40.9574 21.6082 41.0905 21.7077 41.2408 21.7723C43.121 22.5727 49.0978 26.2635 47.0612 40.1537C45.1693 53.0566 44.4016 60.6449 44.1594 63.3087C44.1308 63.6248 43.9935 63.9207 43.7712 64.145C43.5489 64.3692 43.2558 64.5076 42.9429 64.5359C42.021 64.6194 40.4387 64.7302 38.5542 64.7302C34.1859 64.7302 28.1941 64.1347 25.0418 61.2221Z" fill="#CCCCCC"/>
<path d="M16.2735 57.2753C16.0989 56.9156 16.0046 56.5216 15.9971 56.121C15.9896 55.7205 16.0691 55.3231 16.23 54.957C16.3909 54.5909 16.6293 54.2648 16.9284 54.0019C17.2275 53.7389 17.5801 53.5454 17.9612 53.435L27.1313 34.5L31.8618 38.0593L21.3948 55.496C21.5359 56.1553 21.4329 56.8439 21.1051 57.4315C20.7773 58.0191 20.2476 58.4647 19.6163 58.684C18.985 58.9034 18.296 58.8811 17.6799 58.6215C17.0638 58.3618 16.5634 57.8828 16.2735 57.2753Z" fill="#A0616A"/>
<path d="M32.3799 38.7463C32.2004 38.7976 32.011 38.8023 31.8293 38.7599L26.3074 37.4745C26.0301 37.41 25.7878 37.2405 25.6304 37.0009C25.473 36.7613 25.4125 36.4699 25.4613 36.1866L27.4399 24.7042C27.6108 23.6305 28.1649 22.6572 28.9976 21.9681C29.5985 21.4809 30.3185 21.1664 31.0815 21.0579C31.8445 20.9494 32.6224 21.0508 33.3331 21.3516C33.8826 21.5785 34.3765 21.9237 34.7805 22.3632C35.2694 22.8825 35.6225 23.5168 35.8077 24.2087C35.993 24.9006 36.0045 25.6282 35.8414 26.3258L33.1622 37.9202C33.1167 38.1159 33.0201 38.2958 32.8825 38.441C32.745 38.5863 32.5714 38.6917 32.3799 38.7463Z" fill="#CCCCCC"/>
<path d="M35.2298 16.7074C31.1772 16.7074 27.8918 13.3879 27.8918 9.29315C27.8918 5.19837 31.1772 1.87891 35.2298 1.87891C39.2825 1.87891 42.5679 5.19837 42.5679 9.29315C42.5679 13.3879 39.2825 16.7074 35.2298 16.7074Z" fill="#A0616A"/>
<path d="M36.9479 15.9914C37.305 15.6233 37.5687 15.1733 37.7164 14.6799C37.8641 14.1865 37.8915 13.6643 37.7961 13.1579C37.5403 11.8057 37.39 10.9209 37.3615 10.599C37.2641 9.49791 38.3658 8.60651 39.4559 8.46467C39.4982 8.4591 39.5335 8.45538 39.5631 8.45299C39.5353 8.48057 39.5055 8.50867 39.4793 8.53359C39.2722 8.73006 39.0145 8.97479 39.0758 9.2272C39.1127 9.37912 39.2501 9.48704 39.496 9.55651C41.2008 10.0385 42.5138 9.59601 43.6282 8.16293C43.9414 7.75575 44.1567 7.28058 44.2571 6.77493C44.6562 4.7962 43.5927 3.10939 42.6301 2.043C41.8363 1.16367 40.5496 0.0962144 38.9271 0.00474162C37.6653 -0.0664485 36.1648 0.667196 35.7157 1.98931C35.5039 1.67211 35.2219 1.40912 34.892 1.22121C34.5621 1.0333 34.1934 0.92564 33.8151 0.906751C32.9537 0.887893 32.1058 1.12616 31.3777 1.59174C27.8197 3.65106 26.2905 8.55667 28.0385 12.3044C29.138 14.6618 31.5204 16.4167 34.2557 16.8844C34.427 16.9138 34.6004 16.9286 34.7741 16.9287C35.1802 16.928 35.5819 16.8447 35.9554 16.6837C36.3289 16.5226 36.6665 16.2872 36.9479 15.9914Z" fill="#2F2E41"/>
<path d="M0.298767 118H58.5584C58.6376 118 58.7136 117.968 58.7696 117.912C58.8256 117.855 58.8571 117.778 58.8571 117.698C58.8571 117.618 58.8256 117.542 58.7696 117.485C58.7136 117.428 58.6376 117.396 58.5584 117.396H0.298767C0.219529 117.396 0.143532 117.428 0.0875021 117.485C0.0314724 117.542 0 117.618 0 117.698C0 117.778 0.0314724 117.855 0.0875021 117.912C0.143532 117.968 0.219529 118 0.298767 118Z" fill="#3F3D56"/>
</svg>
