<svg width="103" height="119" viewBox="0 0 103 119" fill="none" xmlns="http://www.w3.org/2000/svg">
<path d="M94.8091 32.375H54.3995C53.9199 32.375 53.4449 32.47 53.0018 32.6545C52.5586 32.839 52.156 33.1094 51.8168 33.4503C51.4777 33.7912 51.2086 34.1959 51.0251 34.6413C50.8415 35.0867 50.7471 35.5641 50.7471 36.0462V97.3736C50.7471 98.3473 51.1319 99.2811 51.8168 99.9696C52.5018 100.658 53.4308 101.045 54.3995 101.045H94.8091C95.7778 101.045 96.7068 100.658 97.3917 99.9696C98.0767 99.2811 98.4615 98.3473 98.4615 97.3736C103.822 76.532 103.987 56.0773 98.4615 36.0462C98.4615 35.0726 98.0767 34.1388 97.3917 33.4503C96.7068 32.7618 95.7778 32.375 94.8091 32.375ZM55.627 92.548C55.627 92.7056 55.5647 92.8568 55.4538 92.9683C55.3429 93.0797 55.1925 93.1424 55.0357 93.1424H53.5072C53.3504 93.1424 53.2 93.0797 53.0891 92.9683C52.9782 92.8568 52.9159 92.7056 52.9159 92.548V91.0117C52.9159 90.8541 52.9782 90.7029 53.0891 90.5914C53.2 90.48 53.3504 90.4174 53.5072 90.4174H55.0357C55.1925 90.4174 55.3429 90.48 55.4538 90.5914C55.5647 90.7029 55.627 90.8541 55.627 91.0117V92.548ZM55.627 86.4849C55.627 86.6425 55.5647 86.7937 55.4538 86.9052C55.3429 87.0166 55.1925 87.0792 55.0357 87.0792H53.5072C53.3504 87.0792 53.2 87.0166 53.0891 86.9052C52.9782 86.7937 52.9159 86.6425 52.9159 86.4849V84.9486C52.9159 84.8705 52.9312 84.7933 52.9609 84.7212C52.9906 84.649 53.0342 84.5835 53.0891 84.5283C53.144 84.4731 53.2092 84.4294 53.2809 84.3995C53.3527 84.3696 53.4296 84.3543 53.5072 84.3543H55.0357C55.1133 84.3543 55.1902 84.3696 55.2619 84.3995C55.3337 84.4294 55.3989 84.4731 55.4538 84.5283C55.5087 84.5835 55.5522 84.649 55.5819 84.7212C55.6117 84.7933 55.627 84.8705 55.627 84.9486V86.4849ZM55.627 80.4218C55.627 80.5794 55.5647 80.7306 55.4538 80.8421C55.3429 80.9535 55.1925 81.0161 55.0357 81.0161H53.5072C53.3504 81.0161 53.2 80.9535 53.0891 80.8421C52.9782 80.7306 52.9159 80.5794 52.9159 80.4218V78.8855C52.9159 78.7279 52.9782 78.5767 53.0891 78.4652C53.2 78.3538 53.3504 78.2911 53.5072 78.2911H55.0357C55.1925 78.2911 55.3429 78.3538 55.4538 78.4652C55.5647 78.5767 55.627 78.7279 55.627 78.8855V80.4218ZM55.627 74.3587C55.627 74.5163 55.5647 74.6675 55.4538 74.7789C55.3429 74.8904 55.1925 74.953 55.0357 74.953H53.5072C53.3504 74.953 53.2 74.8904 53.0891 74.7789C52.9782 74.6675 52.9159 74.5163 52.9159 74.3587V72.8224C52.9159 72.6647 52.9782 72.5136 53.0891 72.4021C53.2 72.2906 53.3504 72.228 53.5072 72.228H55.0357C55.1925 72.228 55.3429 72.2906 55.4538 72.4021C55.5647 72.5136 55.627 72.6647 55.627 72.8224V74.3587ZM55.627 68.2956C55.627 68.4532 55.5647 68.6044 55.4538 68.7158C55.3429 68.8273 55.1925 68.8899 55.0357 68.8899H53.5072C53.3504 68.8899 53.2 68.8273 53.0891 68.7158C52.9782 68.6044 52.9159 68.4532 52.9159 68.2956V66.7593C52.9159 66.6016 52.9782 66.4505 53.0891 66.339C53.2 66.2275 53.3504 66.1649 53.5072 66.1649H55.0357C55.1925 66.1649 55.3429 66.2275 55.4538 66.339C55.5647 66.4505 55.627 66.6016 55.627 66.7593V68.2956ZM55.627 62.2325C55.627 62.3901 55.5647 62.5413 55.4538 62.6527C55.3429 62.7642 55.1925 62.8268 55.0357 62.8268H53.5072C53.3504 62.8268 53.2 62.7642 53.0891 62.6527C52.9782 62.5413 52.9159 62.3901 52.9159 62.2325V60.6962C52.9159 60.5385 52.9782 60.3874 53.0891 60.2759C53.2 60.1644 53.3504 60.1018 53.5072 60.1018H55.0357C55.1925 60.1018 55.3429 60.1644 55.4538 60.2759C55.5647 60.3874 55.627 60.5385 55.627 60.6962V62.2325ZM55.627 56.1693C55.627 56.327 55.5647 56.4782 55.4538 56.5896C55.3429 56.7011 55.1925 56.7637 55.0357 56.7637H53.5072C53.3504 56.7637 53.2 56.7011 53.0891 56.5896C52.9782 56.4782 52.9159 56.327 52.9159 56.1693V54.633C52.9159 54.4754 52.9782 54.3242 53.0891 54.2128C53.2 54.1013 53.3504 54.0387 53.5072 54.0387H55.0357C55.1925 54.0387 55.3429 54.1013 55.4538 54.2128C55.5647 54.3242 55.627 54.4754 55.627 54.633V56.1693ZM55.627 50.1062C55.627 50.2639 55.5647 50.415 55.4538 50.5265C55.3429 50.638 55.1925 50.7006 55.0357 50.7006H53.5072C53.3504 50.7006 53.2 50.638 53.0891 50.5265C52.9782 50.415 52.9159 50.2639 52.9159 50.1062V48.5699C52.9159 48.4123 52.9782 48.2611 53.0891 48.1497C53.2 48.0382 53.3504 47.9756 53.5072 47.9756H55.0357C55.1925 47.9756 55.3429 48.0382 55.4538 48.1497C55.5647 48.2611 55.627 48.4123 55.627 48.5699V50.1062ZM55.627 44.0431C55.627 44.2008 55.5647 44.3519 55.4538 44.4634C55.3429 44.5748 55.1925 44.6375 55.0357 44.6375H53.5072C53.3504 44.6375 53.2 44.5748 53.0891 44.4634C52.9782 44.3519 52.9159 44.2008 52.9159 44.0431V42.5068C52.9159 42.3492 52.9782 42.198 53.0891 42.0866C53.2 41.9751 53.3504 41.9125 53.5072 41.9125H55.0357C55.1925 41.9125 55.3429 41.9751 55.4538 42.0866C55.5647 42.198 55.627 42.3492 55.627 42.5068V44.0431Z" fill="#F2F2F2"/>
<path d="M55.2821 35.6445H53.2609C53.0704 35.6445 52.916 35.7998 52.916 35.9912V38.0228C52.916 38.2143 53.0704 38.3695 53.2609 38.3695H55.2821C55.4726 38.3695 55.6271 38.2143 55.6271 38.0228V35.9912C55.6271 35.7998 55.4726 35.6445 55.2821 35.6445Z" fill="#00BFA6"/>
<path d="M90.5993 43.4332H61.0873C61.0454 43.4332 61.0052 43.4164 60.9755 43.3866C60.9459 43.3568 60.9292 43.3164 60.9292 43.2742C60.9292 43.232 60.9459 43.1916 60.9755 43.1618C61.0052 43.132 61.0454 43.1152 61.0873 43.1152H90.5993C90.6413 43.1152 90.6815 43.132 90.7112 43.1618C90.7408 43.1916 90.7575 43.232 90.7575 43.2742C90.7575 43.3164 90.7408 43.3568 90.7112 43.3866C90.6815 43.4164 90.6413 43.4332 90.5993 43.4332Z" fill="#E6E6E6"/>
<path d="M90.5995 37.439H82.1953C82.1533 37.439 82.1131 37.4223 82.0834 37.3924C82.0538 37.3626 82.0371 37.3222 82.0371 37.2801C82.0371 37.2379 82.0538 37.1975 82.0834 37.1677C82.1131 37.1378 82.1533 37.1211 82.1953 37.1211H90.5995C90.6415 37.1211 90.6817 37.1378 90.7114 37.1677C90.741 37.1975 90.7577 37.2379 90.7577 37.2801C90.7577 37.3222 90.741 37.3626 90.7114 37.3924C90.6817 37.4223 90.6415 37.439 90.5995 37.439Z" fill="#E6E6E6"/>
<path d="M90.5993 49.4292H61.0873C61.0454 49.4292 61.0052 49.4125 60.9755 49.3827C60.9459 49.3529 60.9292 49.3124 60.9292 49.2703C60.9292 49.2281 60.9459 49.1877 60.9755 49.1579C61.0052 49.1281 61.0454 49.1113 61.0873 49.1113H90.5993C90.6413 49.1113 90.6815 49.1281 90.7112 49.1579C90.7408 49.1877 90.7575 49.2281 90.7575 49.2703C90.7575 49.3124 90.7408 49.3529 90.7112 49.3827C90.6815 49.4125 90.6413 49.4292 90.5993 49.4292Z" fill="#E6E6E6"/>
<path d="M90.5993 55.4234H61.0873C61.0454 55.4234 61.0052 55.4066 60.9755 55.3768C60.9459 55.347 60.9292 55.3066 60.9292 55.2644C60.9292 55.2223 60.9459 55.1818 60.9755 55.152C61.0052 55.1222 61.0454 55.1055 61.0873 55.1055H90.5993C90.6413 55.1055 90.6815 55.1222 90.7112 55.152C90.7408 55.1818 90.7575 55.2223 90.7575 55.2644C90.7575 55.3066 90.7408 55.347 90.7112 55.3768C90.6815 55.4066 90.6413 55.4234 90.5993 55.4234Z" fill="#E6E6E6"/>
<path d="M90.5993 61.4195H61.0873C61.0454 61.4195 61.0052 61.4027 60.9755 61.3729C60.9459 61.3431 60.9292 61.3027 60.9292 61.2605C60.9292 61.2184 60.9459 61.1779 60.9755 61.1481C61.0052 61.1183 61.0454 61.1016 61.0873 61.1016H90.5993C90.6413 61.1016 90.6815 61.1183 90.7112 61.1481C90.7408 61.1779 90.7575 61.2184 90.7575 61.2605C90.7575 61.3027 90.7408 61.3431 90.7112 61.3729C90.6815 61.4027 90.6413 61.4195 90.5993 61.4195Z" fill="#E6E6E6"/>
<path d="M90.5993 67.4136H61.0873C61.0454 67.4136 61.0052 67.3969 60.9755 67.3671C60.9459 67.3372 60.9292 67.2968 60.9292 67.2547C60.9292 67.2125 60.9459 67.1721 60.9755 67.1423C61.0052 67.1125 61.0454 67.0957 61.0873 67.0957H90.5993C90.6413 67.0957 90.6815 67.1125 90.7112 67.1423C90.7408 67.1721 90.7575 67.2125 90.7575 67.2547C90.7575 67.2968 90.7408 67.3372 90.7112 67.3671C90.6815 67.3969 90.6413 67.4136 90.5993 67.4136Z" fill="#E6E6E6"/>
<path d="M90.5993 73.4097H61.0873C61.0454 73.4097 61.0052 73.393 60.9755 73.3632C60.9459 73.3333 60.9292 73.2929 60.9292 73.2508C60.9292 73.2086 60.9459 73.1682 60.9755 73.1384C61.0052 73.1085 61.0454 73.0918 61.0873 73.0918H90.5993C90.6413 73.0918 90.6815 73.1085 90.7112 73.1384C90.7408 73.1682 90.7575 73.2086 90.7575 73.2508C90.7575 73.2929 90.7408 73.3333 90.7112 73.3632C90.6815 73.393 90.6413 73.4097 90.5993 73.4097Z" fill="#E6E6E6"/>
<path d="M90.5993 79.4039H61.0873C61.0454 79.4039 61.0052 79.3871 60.9755 79.3573C60.9459 79.3275 60.9292 79.2871 60.9292 79.2449C60.9292 79.2027 60.9459 79.1623 60.9755 79.1325C61.0052 79.1027 61.0454 79.0859 61.0873 79.0859H90.5993C90.6413 79.0859 90.6815 79.1027 90.7112 79.1325C90.7408 79.1623 90.7575 79.2027 90.7575 79.2449C90.7575 79.2871 90.7408 79.3275 90.7112 79.3573C90.6815 79.3871 90.6413 79.4039 90.5993 79.4039Z" fill="#E6E6E6"/>
<path d="M90.5993 85.398H61.0873C61.0454 85.398 61.0052 85.3812 60.9755 85.3514C60.9459 85.3216 60.9292 85.2812 60.9292 85.239C60.9292 85.1969 60.9459 85.1564 60.9755 85.1266C61.0052 85.0968 61.0454 85.0801 61.0873 85.0801H90.5993C90.6413 85.0801 90.6815 85.0968 90.7112 85.1266C90.7408 85.1564 90.7575 85.1969 90.7575 85.239C90.7575 85.2812 90.7408 85.3216 90.7112 85.3514C90.6815 85.3812 90.6413 85.398 90.5993 85.398Z" fill="#E6E6E6"/>
<path d="M90.5993 91.3941H61.0873C61.0454 91.3941 61.0052 91.3773 60.9755 91.3475C60.9459 91.3177 60.9292 91.2773 60.9292 91.2351C60.9292 91.193 60.9459 91.1525 60.9755 91.1227C61.0052 91.0929 61.0454 91.0762 61.0873 91.0762H90.5993C90.6413 91.0762 90.6815 91.0929 90.7112 91.1227C90.7408 91.1525 90.7575 91.193 90.7575 91.2351C90.7575 91.2773 90.7408 91.3177 90.7112 91.3475C90.6815 91.3773 90.6413 91.3941 90.5993 91.3941Z" fill="#E6E6E6"/>
<path d="M86.2243 42.0342H65.8709C65.7917 42.0343 65.7132 42.0187 65.6399 41.9883C65.5667 41.9579 65.5001 41.9133 65.444 41.857C65.3879 41.8008 65.3434 41.7339 65.3131 41.6603C65.2827 41.5868 65.2671 41.5079 65.2671 41.4282C65.2671 41.3486 65.2827 41.2697 65.3131 41.1961C65.3434 41.1225 65.3879 41.0557 65.444 40.9994C65.5001 40.9431 65.5667 40.8985 65.6399 40.8681C65.7132 40.8377 65.7917 40.8221 65.8709 40.8223H86.2243C86.384 40.8225 86.5371 40.8865 86.6499 41.0001C86.7628 41.1137 86.8262 41.2677 86.8262 41.4282C86.8262 41.5888 86.7628 41.7427 86.6499 41.8564C86.5371 41.97 86.384 42.0339 86.2243 42.0342Z" fill="#FF6584"/>
<path d="M86.2243 48.0303H65.8709C65.711 48.0303 65.5577 47.9664 65.4446 47.8528C65.3316 47.7392 65.2681 47.585 65.2681 47.4243C65.2681 47.2636 65.3316 47.1095 65.4446 46.9958C65.5577 46.8822 65.711 46.8184 65.8709 46.8184H86.2243C86.3842 46.8184 86.5375 46.8822 86.6506 46.9958C86.7636 47.1095 86.8271 47.2636 86.8271 47.4243C86.8271 47.585 86.7636 47.7392 86.6506 47.8528C86.5375 47.9664 86.3842 48.0303 86.2243 48.0303Z" fill="#00BFA6"/>
<path d="M86.2243 54.0244H65.8709C65.7917 54.0245 65.7132 54.009 65.6399 53.9786C65.5667 53.9482 65.5001 53.9036 65.444 53.8473C65.3879 53.791 65.3434 53.7242 65.3131 53.6506C65.2827 53.577 65.2671 53.4981 65.2671 53.4185C65.2671 53.3388 65.2827 53.2599 65.3131 53.1863C65.3434 53.1128 65.3879 53.0459 65.444 52.9896C65.5001 52.9333 65.5667 52.8887 65.6399 52.8583C65.7132 52.8279 65.7917 52.8124 65.8709 52.8125H86.2243C86.384 52.8128 86.5371 52.8767 86.6499 52.9903C86.7628 53.1039 86.8262 53.2579 86.8262 53.4185C86.8262 53.579 86.7628 53.733 86.6499 53.8466C86.5371 53.9602 86.384 54.0241 86.2243 54.0244Z" fill="#FF6584"/>
<path d="M86.2243 60.0205H65.8709C65.711 60.0205 65.5577 59.9567 65.4446 59.843C65.3316 59.7294 65.2681 59.5753 65.2681 59.4146C65.2681 59.2538 65.3316 59.0997 65.4446 58.9861C65.5577 58.8724 65.711 58.8086 65.8709 58.8086H86.2243C86.3842 58.8086 86.5375 58.8724 86.6506 58.9861C86.7636 59.0997 86.8271 59.2538 86.8271 59.4146C86.8271 59.5753 86.7636 59.7294 86.6506 59.843C86.5375 59.9567 86.3842 60.0205 86.2243 60.0205Z" fill="#00BFA6"/>
<path d="M86.2243 66.0146H65.8709C65.7917 66.0148 65.7132 65.9992 65.6399 65.9688C65.5667 65.9384 65.5001 65.8938 65.444 65.8375C65.3879 65.7812 65.3434 65.7144 65.3131 65.6408C65.2827 65.5672 65.2671 65.4883 65.2671 65.4087C65.2671 65.329 65.2827 65.2502 65.3131 65.1766C65.3434 65.103 65.3879 65.0362 65.444 64.9799C65.5001 64.9236 65.5667 64.879 65.6399 64.8486C65.7132 64.8182 65.7917 64.8026 65.8709 64.8027H86.2243C86.384 64.803 86.5371 64.867 86.6499 64.9806C86.7628 65.0942 86.8262 65.2481 86.8262 65.4087C86.8262 65.5692 86.7628 65.7232 86.6499 65.8368C86.5371 65.9504 86.384 66.0144 86.2243 66.0146Z" fill="#FF6584"/>
<path d="M86.2243 72.0088H65.8709C65.7917 72.0089 65.7132 71.9933 65.6399 71.9629C65.5667 71.9325 65.5001 71.8879 65.444 71.8317C65.3879 71.7754 65.3434 71.7085 65.3131 71.6349C65.2827 71.5614 65.2671 71.4825 65.2671 71.4028C65.2671 71.3232 65.2827 71.2443 65.3131 71.1707C65.3434 71.0971 65.3879 71.0303 65.444 70.974C65.5001 70.9177 65.5667 70.8731 65.6399 70.8427C65.7132 70.8123 65.7917 70.7967 65.8709 70.7969H86.2243C86.384 70.7971 86.5371 70.8611 86.6499 70.9747C86.7628 71.0883 86.8262 71.2423 86.8262 71.4028C86.8262 71.5634 86.7628 71.7174 86.6499 71.831C86.5371 71.9446 86.384 72.0085 86.2243 72.0088Z" fill="#00BFA6"/>
<path d="M86.2243 78.0049H65.8709C65.711 78.0049 65.5577 77.941 65.4446 77.8274C65.3316 77.7138 65.2681 77.5596 65.2681 77.3989C65.2681 77.2382 65.3316 77.0841 65.4446 76.9705C65.5577 76.8568 65.711 76.793 65.8709 76.793H86.2243C86.3842 76.793 86.5375 76.8568 86.6506 76.9705C86.7636 77.0841 86.8271 77.2382 86.8271 77.3989C86.8271 77.5596 86.7636 77.7138 86.6506 77.8274C86.5375 77.941 86.3842 78.0049 86.2243 78.0049Z" fill="#00BFA6"/>
<path d="M86.2243 83.999H65.8709C65.7917 83.9991 65.7132 83.9836 65.6399 83.9532C65.5667 83.9228 65.5001 83.8782 65.444 83.8219C65.3879 83.7656 65.3434 83.6988 65.3131 83.6252C65.2827 83.5516 65.2671 83.4727 65.2671 83.3931C65.2671 83.3134 65.2827 83.2345 65.3131 83.1609C65.3434 83.0874 65.3879 83.0205 65.444 82.9642C65.5001 82.908 65.5667 82.8633 65.6399 82.833C65.7132 82.8026 65.7917 82.787 65.8709 82.7871H86.2243C86.384 82.7874 86.5371 82.8513 86.6499 82.9649C86.7628 83.0785 86.8262 83.2325 86.8262 83.3931C86.8262 83.5536 86.7628 83.7076 86.6499 83.8212C86.5371 83.9348 86.384 83.9988 86.2243 83.999Z" fill="#FF6584"/>
<path d="M86.2243 89.9951H65.8709C65.7918 89.9951 65.7134 89.9795 65.6402 89.949C65.5671 89.9185 65.5006 89.8739 65.4446 89.8176C65.3887 89.7614 65.3443 89.6946 65.314 89.6211C65.2837 89.5475 65.2681 89.4687 65.2681 89.3892C65.2681 89.3096 65.2837 89.2308 65.314 89.1573C65.3443 89.0838 65.3887 89.017 65.4446 88.9607C65.5006 88.9044 65.5671 88.8598 65.6402 88.8293C65.7134 88.7989 65.7918 88.7832 65.8709 88.7832H86.2243C86.3842 88.7832 86.5375 88.8471 86.6506 88.9607C86.7636 89.0743 86.8271 89.2285 86.8271 89.3892C86.8271 89.5499 86.7636 89.704 86.6506 89.8176C86.5375 89.9313 86.3842 89.9951 86.2243 89.9951Z" fill="#00BFA6"/>
<path d="M98.9153 36.0462C98.9153 35.0726 98.5305 34.1388 97.8455 33.4503C97.1606 32.7618 96.2315 32.375 95.2629 32.375H54.3843C56.0371 32.375 75.8969 33.5489 88.5493 35.0306C90.6587 35.2774 92.6376 36.1843 94.2063 37.6231C95.775 39.0619 96.8542 40.9599 97.2912 43.0488C101.011 60.838 100.332 78.9547 95.5943 97.3736C95.5943 98.3473 95.2094 99.2811 94.5245 99.9696C93.8395 100.658 92.9105 101.045 91.9418 101.045H95.2629C96.2316 101.045 97.1606 100.658 97.8455 99.9696C98.5305 99.2811 98.9153 98.3473 98.9153 97.3736C104.276 76.532 104.441 56.0773 98.9153 36.0462Z" fill="#E6E6E6"/>
<path d="M97.3736 99.2326L97.0673 99.1531C102.475 78.1284 102.477 57.5288 97.0731 37.9259C96.5105 36.9009 95.7013 36.034 94.7194 35.4046C93.7374 34.7752 92.6142 34.4033 91.4523 34.3229L75.248 33.1687L75.2704 32.8516L91.4747 34.0058C92.6924 34.09 93.8694 34.4806 94.8976 35.1417C95.9259 35.8027 96.7723 36.713 97.359 37.7887L97.3729 37.823C100.105 47.7231 101.48 57.9516 101.461 68.2255C101.44 78.3349 100.065 88.7673 97.3736 99.2326Z" fill="white"/>
<path d="M42.989 53.5116C37.7243 53.5116 32.5778 51.9424 28.2004 49.0025C23.8229 46.0625 20.4111 41.8838 18.3964 36.9948C16.3816 32.1058 15.8545 26.7261 16.8816 21.536C17.9087 16.3459 20.4439 11.5785 24.1666 7.83661C27.8893 4.09474 32.6324 1.5465 37.7959 0.514117C42.9595 -0.518262 48.3116 0.0115937 53.1756 2.03668C58.0396 4.06176 62.1969 7.49112 65.1218 11.8911C68.0467 16.2911 69.6079 21.464 69.6079 26.7558C69.5999 33.8494 66.7928 40.6502 61.8026 45.6662C56.8123 50.6821 50.0463 53.5036 42.989 53.5116ZM42.989 0.421365C37.8072 0.421365 32.7418 1.96585 28.4332 4.85952C24.1247 7.75319 20.7667 11.8661 18.7837 16.6781C16.8007 21.4901 16.2818 26.785 17.2927 31.8934C18.3037 37.0018 20.7989 41.6942 24.463 45.3771C28.1271 49.06 32.7955 51.5682 37.8777 52.5843C42.9599 53.6004 48.2278 53.0789 53.0152 51.0857C57.8026 49.0925 61.8944 45.7171 64.7732 41.3865C67.6521 37.0558 69.1887 31.9643 69.1887 26.7558C69.1887 19.7715 66.4284 13.0732 61.515 8.13455C56.6016 3.19588 49.9376 0.421365 42.989 0.421365Z" fill="#F2F2F2"/>
<path d="M28.6106 4.65805C27.6834 1.26044 35.1612 -1.65309 37.1249 1.08303C37.3979 0.694036 38.407 0.457751 38.87 0.577087C39.3232 0.728341 39.742 0.968442 40.1023 1.2835C40.6246 1.68683 41.1659 2.10447 41.4865 2.68439C41.8094 3.26193 41.8593 4.0495 41.4248 4.55067C41.0805 4.94922 40.0643 5.20697 39.5467 5.31198C39.1858 5.38596 38.8819 5.44562 38.6207 5.48857C38.3834 5.14503 38.2742 4.72847 38.312 4.31202C38.1362 4.43121 37.9889 4.58802 37.8805 4.77122C37.7721 4.95443 37.7054 5.15946 37.6852 5.37163C37.6781 5.45993 40.6032 16.2781 40.6032 16.2781C40.2518 16.4791 39.8821 16.6462 39.4992 16.7769C38.7417 15.6132 38.1615 14.3422 37.7778 13.0061C37.6896 13.8996 37.7008 14.8001 37.811 15.691C37.8697 16.1906 37.9537 16.6868 38.0627 17.1778C34.5867 17.9319 29.3585 17.6838 27.0839 14.4763L27.0827 14.4364C27.081 14.3098 27.0355 14.1878 26.954 14.0912C26.8725 13.9946 26.7602 13.9295 26.6362 13.907C26.5123 13.8845 26.3844 13.906 26.2745 13.9679C26.1645 14.0297 26.0795 14.1281 26.0338 14.2461C25.9786 14.3876 25.9278 14.5101 25.8825 14.6075C25.2201 12.2257 26.0772 9.46929 28.6106 4.65805Z" fill="#2F2E41"/>
<path d="M45.0034 113.334L47.5934 113.312L48.7398 103.037L44.9175 103.07L45.0034 113.334Z" fill="#A0616A"/>
<path d="M52.7916 116.519L48.6551 113.699L48.6395 111.836L47.75 111.896L44.9928 112.087L44.3168 112.132L43.8262 118.716L45.7691 118.698L46.1002 116.852L47.0017 118.689L52.151 118.646C52.3978 118.644 52.6375 118.562 52.8351 118.414C53.0327 118.265 53.1778 118.057 53.2493 117.819C53.3209 117.582 53.315 117.327 53.2327 117.094C53.1503 116.86 52.9958 116.658 52.7916 116.519Z" fill="#2F2E41"/>
<path d="M19.1787 112.318L21.7393 112.71L24.4924 102.747L20.7132 102.17L19.1787 112.318Z" fill="#A0616A"/>
<path d="M26.3656 116.706L22.7264 113.262L23.0049 111.42L22.1172 111.337L19.3647 111.087L18.6902 111.023L17.167 117.446L19.0881 117.738L19.7063 115.968L20.3065 117.925L25.3975 118.704C25.6416 118.741 25.8911 118.699 26.1096 118.583C26.3282 118.468 26.5043 118.285 26.6124 118.062C26.7205 117.839 26.7548 117.587 26.7104 117.343C26.666 117.099 26.5452 116.876 26.3656 116.706Z" fill="#2F2E41"/>
<path d="M43.8118 41.5469L51.1551 54.7665C51.1551 54.7665 51.3599 82.2812 51.3599 83.2756C51.3599 84.2699 51.3599 84.2699 51.3599 85.2643C51.3599 86.2586 50.8474 87.0208 50.8474 87.0208L49.0198 107.449H44.4112C44.4112 107.449 41.1684 95.4022 41.8596 88.5323L36.4001 63.4269C36.4001 63.4269 32.4576 86.2586 31.771 87.8794C31.6305 89.2979 31.381 88.1922 31.381 89.2979C31.381 90.4646 31.381 91.6236 31.381 91.6236L23.632 107.789L19.4287 107.256C19.4287 107.256 20.1574 94.0592 22.6949 88.3937V61.62C22.5038 63.9156 31.4437 40.6817 25.9768 42.4255C27.7064 41.8738 43.8118 41.5469 43.8118 41.5469Z" fill="#2F2E41"/>
<path d="M37.5708 16.3397L30.1059 14.748L28.6237 17.7468L23.6323 20.6514C23.6323 20.6514 26.8497 33.8743 26.8314 35.734C26.7848 40.4555 19.2688 51.0397 24.9458 50.2255C30.6229 49.4112 31.7761 46.0006 33.5986 46.5399C41.1176 48.7648 50.0536 48.5289 47.0129 45.4725C43.9721 42.4161 44.6515 22.0702 44.6515 22.0702L38.7618 19.2725L37.5708 16.3397Z" fill="#00BFA6"/>
<path d="M23.4909 64.3587C23.7909 63.9992 23.9394 63.5362 23.9049 63.0683C23.8705 62.6004 23.6557 62.1645 23.3064 61.8534C23.2344 61.7912 23.1574 61.7352 23.0762 61.6858L24.3243 55.5288L21.4389 53.793L20.6364 62.4132C20.4588 62.7674 20.4029 63.1708 20.4774 63.5604C20.552 63.9499 20.7527 64.3037 21.0482 64.5666C21.3908 64.8653 21.8374 65.0151 22.2898 64.9829C22.7423 64.9506 23.1634 64.7391 23.4606 64.3948C23.4709 64.3829 23.481 64.3708 23.4909 64.3587Z" fill="#A0616A"/>
<path d="M21.8972 35.5496L22.1372 24.33C22.1523 23.6247 22.3076 22.9296 22.5941 22.2855C22.8805 21.6415 23.2923 21.0616 23.8051 20.58C24.318 20.0984 24.9215 19.7249 25.5802 19.4813C26.2389 19.2378 26.9394 19.1292 27.6405 19.162C29.9213 19.2691 29.3136 20.1851 29.9195 22.3981C30.904 25.9952 31.2826 28.0745 31.045 28.578C30.9646 28.7485 30.8799 28.9119 30.7983 29.0691C30.3784 29.8785 30.075 30.4634 30.8461 31.0236C31.151 31.2264 31.4832 31.3844 31.8325 31.493C32.1805 31.6173 32.432 31.7071 32.4497 31.9049C32.4666 32.0963 32.2517 32.2948 31.6564 32.6372C30.058 33.5567 28.6719 39.0524 28.6584 39.1067L24.0202 58.6635L20.3252 58.4791L21.8972 35.5496Z" fill="#00BFA6"/>
<path d="M68.3906 50.8787C67.9285 50.8126 67.5102 50.5679 67.2249 50.1965C66.9396 49.8252 66.8097 49.3567 66.8628 48.8905C66.8751 48.7959 66.8951 48.7026 66.9228 48.6113L61.9019 44.8678L62.8953 41.6387L69.2217 47.5142C69.5893 47.6586 69.899 47.9213 70.1024 48.2612C70.3059 48.6011 70.3917 48.9991 70.3464 49.3932C70.3185 49.6172 70.247 49.8334 70.136 50.0296C70.0249 50.2258 69.8765 50.3981 69.6992 50.5367C69.5219 50.6752 69.3192 50.7773 69.1026 50.8371C68.8861 50.8969 68.6599 50.9133 68.4371 50.8852C68.4216 50.8833 68.4061 50.8811 68.3906 50.8787Z" fill="#A0616A"/>
<path d="M66.8385 44.3775L64.2116 46.9958L47.7622 35.5577C47.716 35.5264 43.0321 32.3676 41.2316 32.7567C40.561 32.9017 40.2692 32.8983 40.1545 32.7444C40.0362 32.5854 40.1637 32.3497 40.3401 32.0236C40.5278 31.7082 40.6699 31.3676 40.7621 31.0119C40.9635 30.0773 40.349 29.8458 39.4986 29.5254C39.3335 29.4632 39.1618 29.3986 38.9886 29.3257C38.4772 29.1106 37.377 27.309 35.7188 23.9713C34.6989 21.9178 33.6378 21.6442 35.2639 20.0329C35.7638 19.5378 36.3572 19.1482 37.0092 18.8871C37.6612 18.626 38.3586 18.4988 39.0603 18.5128C39.762 18.5268 40.4539 18.6818 41.095 18.9687C41.7362 19.2555 42.3138 19.6685 42.7938 20.1832L50.4293 28.3708L66.8385 44.3775Z" fill="#00BFA6"/>
<path d="M34.4213 14.6357C37.7848 14.6357 40.5115 11.895 40.5115 8.51415C40.5115 5.1333 37.7848 2.39258 34.4213 2.39258C31.0577 2.39258 28.3311 5.1333 28.3311 8.51415C28.3311 11.895 31.0577 14.6357 34.4213 14.6357Z" fill="#A0616A"/>
<path d="M25.2868 5.13462C24.3597 1.73701 31.8375 -1.17653 33.8011 1.5596C34.0742 1.1706 35.0833 0.934319 35.5463 1.05366C35.9994 1.20491 36.4183 1.44501 36.7785 1.76007C37.3009 2.1634 37.8422 2.58104 38.1627 3.16096C38.4857 3.7385 38.5355 4.52607 38.101 5.02724C37.7567 5.42578 36.7405 5.68353 36.2229 5.78854C35.862 5.86252 35.5581 5.92218 35.297 5.96514C35.0597 5.6216 34.9504 5.20504 34.9883 4.78858C34.8125 4.90778 34.6651 5.06459 34.5568 5.24779C34.4484 5.43099 34.3817 5.63603 34.3615 5.8482C34.3543 5.9365 37.2795 16.7546 37.2795 16.7546C36.928 16.9557 36.5584 17.1227 36.1754 17.2534C35.4179 16.0898 34.8377 14.8188 34.4541 13.4827C34.3659 14.3761 34.377 15.2766 34.4873 16.1676C34.5459 16.6671 34.6299 17.1634 34.739 17.6544C31.263 18.4085 26.0347 18.1603 23.7601 14.9528L23.759 14.913C23.7572 14.7864 23.7117 14.6643 23.6302 14.5678C23.5488 14.4712 23.4365 14.4061 23.3125 14.3836C23.1885 14.3611 23.0607 14.3826 22.9507 14.4445C22.8408 14.5063 22.7557 14.6047 22.71 14.7227C22.6548 14.8642 22.6041 14.9867 22.5587 15.0841C21.8963 12.7023 22.7534 9.94586 25.2868 5.13462Z" fill="#2F2E41"/>
<path d="M11.3703 115.273C11.2728 115.277 11.1764 115.251 11.094 115.199C11.0116 115.147 10.9472 115.07 10.9096 114.979C10.872 114.889 10.8629 114.789 10.8837 114.693C10.9044 114.598 10.9539 114.511 11.0256 114.444L11.0581 114.314C11.0539 114.303 11.0495 114.293 11.0452 114.282C10.947 114.049 10.7826 113.851 10.5725 113.711C10.3623 113.572 10.1159 113.498 9.8642 113.499C9.61246 113.5 9.36661 113.576 9.15753 113.717C8.94844 113.858 8.78545 114.058 8.68903 114.291C8.30367 115.224 7.81304 116.159 7.69223 117.145C7.63903 117.581 7.66147 118.023 7.75856 118.451C6.85345 116.467 6.38345 114.31 6.38043 112.127C6.38024 111.579 6.41052 111.031 6.47113 110.487C6.52122 110.041 6.59072 109.598 6.67962 109.158C7.16475 106.77 8.20632 104.533 9.7188 102.629C10.4508 102.227 11.0429 101.61 11.4151 100.86C11.5499 100.59 11.6452 100.302 11.698 100.005C11.6154 100.016 11.3866 98.7522 11.4489 98.6746C11.3338 98.4991 11.1279 98.4118 11.0022 98.2405C10.3771 97.3887 9.51589 97.5374 9.0663 98.695C8.10587 99.1823 8.09658 99.9903 8.68588 100.767C9.0608 101.262 9.11232 101.931 9.44128 102.46C9.40743 102.504 9.37224 102.546 9.3384 102.589C8.71973 103.389 8.18051 104.248 7.72848 105.153C7.83841 104.139 7.7072 103.113 7.34567 102.159C6.97925 101.271 6.29246 100.523 5.68765 99.7546C5.52769 99.5482 5.31046 99.3942 5.06342 99.3119C4.81638 99.2297 4.55063 99.2229 4.29974 99.2924C4.04886 99.3619 3.82411 99.5047 3.65391 99.7025C3.48371 99.9004 3.37569 100.145 3.34352 100.404C3.34228 100.415 3.34107 100.427 3.33989 100.438C3.42972 100.489 3.51766 100.543 3.6037 100.6C3.71179 100.673 3.79554 100.777 3.84398 100.898C3.89242 101.019 3.90329 101.152 3.87517 101.28C3.84706 101.407 3.78126 101.523 3.6864 101.613C3.59155 101.702 3.47205 101.761 3.34358 101.78L3.33042 101.783C3.36242 102.108 3.41899 102.43 3.49964 102.747C2.72375 105.763 4.39883 106.862 6.79062 106.911C6.84342 106.938 6.89487 106.966 6.94767 106.991C6.49351 108.285 6.20864 109.633 6.10021 111C6.03883 111.807 6.04245 112.617 6.11104 113.424L6.10698 113.395C5.93369 112.498 5.4579 111.69 4.75998 111.105C3.72339 110.249 2.25889 109.934 1.1406 109.246C1.02175 109.169 0.883554 109.128 0.742318 109.128C0.601082 109.127 0.462696 109.168 0.343476 109.244C0.224257 109.32 0.129182 109.429 0.0694607 109.557C0.00973985 109.686 -0.0121365 109.829 0.00641774 109.97L0.0109912 110C0.177692 110.068 0.340004 110.147 0.496977 110.235C0.586811 110.286 0.674746 110.34 0.760784 110.398C0.868871 110.47 0.952622 110.574 1.00107 110.695C1.04951 110.816 1.06038 110.949 1.03226 111.077C1.00414 111.205 0.938349 111.321 0.84349 111.41C0.74863 111.499 0.62913 111.558 0.500655 111.578L0.487491 111.58C0.478018 111.581 0.469883 111.582 0.460428 111.584C0.745266 112.267 1.14505 112.897 1.64225 113.444C2.12739 116.077 4.21108 116.327 6.43999 115.56H6.44134C6.68589 116.628 7.04023 117.668 7.49864 118.662H11.2756C11.2892 118.62 11.3013 118.577 11.3135 118.534C10.9639 118.556 10.6129 118.535 10.2684 118.472C10.5487 118.126 10.8289 117.778 11.1091 117.432C11.1154 117.426 11.1212 117.419 11.1267 117.412C11.2689 117.235 11.4124 117.059 11.5545 116.882L11.5546 116.882C11.5622 116.34 11.5001 115.799 11.3703 115.273Z" fill="#F2F2F2"/>
<path d="M0.137696 118.749C0.137599 118.782 0.143982 118.814 0.156483 118.845C0.168984 118.875 0.187357 118.903 0.210539 118.926C0.233721 118.95 0.261255 118.968 0.291562 118.981C0.321869 118.993 0.354348 119 0.387131 118.999H53.476C53.5422 118.999 53.6056 118.973 53.6524 118.926C53.6992 118.879 53.7255 118.815 53.7255 118.749C53.7255 118.682 53.6992 118.618 53.6524 118.571C53.6056 118.524 53.5422 118.498 53.476 118.498H0.387131C0.354348 118.498 0.321868 118.504 0.291562 118.517C0.261255 118.529 0.23372 118.548 0.210539 118.571C0.187357 118.595 0.168984 118.622 0.156483 118.653C0.143981 118.683 0.1376 118.716 0.137696 118.749Z" fill="#CCCCCC"/>
</svg>
