<svg width="16" height="16" viewBox="0 0 16 16" fill="none" xmlns="http://www.w3.org/2000/svg">
<path d="M12.95 13.6266H14.75V15.1266H10.25V10.6266H11.75V12.6741C13.1225 11.5716 14 9.89156 14 8.00156C14 4.94906 11.705 2.42156 8.75 2.05406V0.539062C12.5375 0.914062 15.5 4.10906 15.5 8.00156C15.5 10.2441 14.51 12.2541 12.95 13.6266ZM2 8.00156C2 6.11156 2.8775 4.42406 4.25 3.32906V5.37656H5.75V0.876563H1.25V2.37656H3.05C1.49 3.74906 0.5 5.75906 0.5 8.00156C0.5 11.8941 3.4625 15.0891 7.25 15.4641V13.9491C4.295 13.5816 2 11.0541 2 8.00156ZM11.18 5.08406L6.935 9.32906L4.8125 7.20656L3.755 8.26406L6.935 11.4441L12.2375 6.14156L11.18 5.08406Z" fill="black"/>
</svg>
