<svg width="62" height="62" viewBox="0 0 62 62" fill="none" xmlns="http://www.w3.org/2000/svg">
<rect x="43.2222" y="39.8889" width="17.7778" height="13.3333" rx="3" fill="#E7B100"/>
<rect x="1.66669" y="1" width="17.7778" height="13.3333" rx="3" fill="#E7B100"/>
<path d="M41.5773 40.0411V34.4247C41.5773 31.137 39.094 29.4018 37.8524 28.9452C33.1696 26.9726 31.7328 22.0959 31.5998 19.9041V4.56164C31.5998 1.71233 29.4712 1 28.407 1C21.7996 1 7.8133 1 4.72692 1C1.64054 1 0.957638 3.6484 1.00198 4.9726V20.4521C1.00198 23.8493 3.48527 24.8813 4.72692 24.9726H14.9706C15.414 24.9269 16.3009 25.2466 16.3009 26.8904V32.5068" stroke="#836400" stroke-width="2" stroke-linecap="round"/>
<path d="M36.2563 35.9315L41.4447 40.3151L46.3669 36.4794" stroke="#836400" stroke-width="2" stroke-linecap="round"/>
<path d="M11.645 32.6438H20.6913" stroke="#836400" stroke-width="2" stroke-linecap="round"/>
<path d="M40.9119 61H49.9582" stroke="#836400" stroke-width="2" stroke-linecap="round"/>
<path d="M45.3022 53.4658V60.863" stroke="#836400" stroke-width="2" stroke-linecap="round"/>
<path d="M16.4336 19.0822L22.154 14.4247L27.0763 19.0822" stroke="#836400" stroke-width="2" stroke-linecap="round"/>
<path d="M22.0213 14.8356V21.137C22.11 22.2329 22.8097 23.5504 25.8793 25.6575C27.4757 26.7534 30.0033 29.3836 30.0033 32.7808V49.9041C30.0033 50.9543 30.7217 53.0822 33.5952 53.1918H57.9404C58.9603 53.2374 61.0001 52.6438 61.0001 49.9041V32.7808C60.8671 31.7762 60.0689 29.7671 57.9404 29.7671H45.5682" stroke="#836400" stroke-width="2" stroke-linecap="round"/>
</svg>
