<svg width="54" height="54" viewBox="0 0 54 54" fill="none" xmlns="http://www.w3.org/2000/svg">
<path d="M27 13.4768L43.9425 42.7493H10.0575L27 13.4768ZM6.16503 40.4993C4.43253 43.4918 6.59253 47.2493 10.0575 47.2493H43.9425C47.4075 47.2493 49.5675 43.4918 47.835 40.4993L30.8925 11.2268C29.16 8.2343 24.84 8.2343 23.1075 11.2268L6.16503 40.4993ZM24.75 24.7493V29.2493C24.75 30.4868 25.7625 31.4993 27 31.4993C28.2375 31.4993 29.25 30.4868 29.25 29.2493V24.7493C29.25 23.5118 28.2375 22.4993 27 22.4993C25.7625 22.4993 24.75 23.5118 24.75 24.7493ZM24.75 35.9993H29.25V40.4993H24.75V35.9993Z" fill="#A3B0B8"/>
</svg>
