<svg width="406" height="406" viewBox="0 0 406 406" fill="none" xmlns="http://www.w3.org/2000/svg">
<mask id="mask0_2385_90235" style="mask-type:luminance" maskUnits="userSpaceOnUse" x="0" y="0" width="406" height="406">
<path d="M406 0H0V406H406V0Z" fill="white"/>
</mask>
<g mask="url(#mask0_2385_90235)">
<path fill-rule="evenodd" clip-rule="evenodd" d="M177.669 234.914C175.579 243.319 173.469 251.799 169.744 259.658C165.98 267.567 160.398 274.93 152.785 279.286C140.563 286.306 125.211 284.699 111.72 280.555C111.521 280.493 111.321 280.431 111.121 280.368C107.621 279.277 103.982 278.143 100.382 278.863C98.4415 279.259 96.6357 280.147 95.1377 281.443C95.1335 281.447 95.125 281.451 95.1208 281.456L95.1588 281.502L95.18 281.527C92.0081 284.15 89.7244 288.21 87.8635 292.016C85.5798 296.723 83.3848 301.548 83.1184 306.539C83.0795 307.202 83.0812 307.868 83.1226 308.531C83.1438 308.873 83.1691 309.22 83.2114 309.567C83.269 310.165 83.3679 310.759 83.5075 311.343C83.8796 313.026 84.3914 314.198 85.1188 315.027C85.2402 315.165 85.3717 315.293 85.5121 315.412C87.1881 316.859 89.8411 316.967 94.1218 317.143C95.6955 317.207 97.4895 317.281 99.536 317.433C148.218 321.07 181.675 311.216 195.081 285.334C198.761 278.271 200.537 270.443 202.059 262.577C202.068 262.593 202.075 262.611 202.082 262.629C202.086 262.639 202.09 262.65 202.093 262.661C203.912 266.992 205.599 271.136 207.164 275.171C207.452 275.911 207.735 276.643 208.014 277.374C208.293 278.106 208.568 278.829 208.839 279.557C208.973 279.913 209.107 280.274 209.241 280.635L209.245 280.644C209.647 281.726 210.04 282.805 210.425 283.879C211.068 285.668 211.689 287.448 212.29 289.22C212.89 290.992 213.466 292.756 214.024 294.528C214.026 294.53 214.028 294.533 214.028 294.536C217.948 306.941 220.934 319.493 223.501 334.692C224.406 339.924 225.523 345.494 227.735 350.273C227.972 350.776 228.213 351.271 228.475 351.753C230.048 354.836 232.385 357.466 235.263 359.391C236.053 359.915 236.888 360.368 237.758 360.744C237.771 360.748 237.787 360.757 237.8 360.761C244.347 363.616 252.281 362.558 259.411 360.913C263.556 359.94 268.081 358.503 270.618 355.288C271.005 354.8 271.345 354.276 271.633 353.724C273.875 349.368 272.141 344.081 270.365 339.471C262.773 319.641 255.249 300.039 247.722 280.429C240.795 262.381 233.865 244.326 226.876 226.079H226.842C223.472 225.931 220.311 225.773 217.15 225.614C213.981 225.455 210.812 225.296 207.431 225.148H207.346L206.162 237.075L185.274 237.963L185.27 238.005L178.49 234.495L177.996 234.241L177.962 234.224L177.742 234.622L177.669 234.914ZM225.05 233.364C224.916 233.046 224.549 232.897 224.231 233.031C223.913 233.165 223.764 233.532 223.898 233.85C239.952 271.885 254.552 310.457 267.7 349.567C267.81 349.894 268.165 350.07 268.492 349.96C268.819 349.85 268.995 349.496 268.885 349.168C255.727 310.03 241.116 271.428 225.05 233.364Z" fill="#171717"/>
<path d="M113.793 214.909C115.4 218.128 117.303 221.553 114.808 224.81C112.398 227.982 107.741 229.673 104.273 231.196C99.7519 233.185 95.0685 234.784 90.2747 235.975C89.0483 236.271 75.9379 238.893 75.8533 238.259C74.6742 230.878 73.0502 223.575 70.9897 216.39C74.9652 214.233 79.4904 213.26 83.931 212.372C88.3716 211.484 92.8968 210.596 96.9145 208.481C100.932 206.409 104.442 202.899 105.457 198.458C108.206 203.956 110.998 209.496 113.793 214.909Z" fill="url(#paint0_linear_2385_90235)"/>
<path d="M239.092 378.709C240.28 379.517 242.04 379.504 243.554 379.436C242.035 379.538 240.276 379.529 239.092 378.709Z" fill="url(#paint1_linear_2385_90235)"/>
<path d="M238.87 378.544C238.942 378.6 239.014 378.655 239.091 378.71C239.015 378.658 238.941 378.603 238.87 378.544Z" fill="url(#paint2_linear_2385_90235)"/>
<path d="M238.478 378.146C238.537 378.22 238.601 378.289 238.669 378.354C238.6 378.29 238.536 378.221 238.478 378.146Z" fill="url(#paint3_linear_2385_90235)"/>
<path d="M230.066 73.4191C230.13 73.3428 230.194 73.2622 230.257 73.1816C230.198 73.2622 230.134 73.3428 230.066 73.4191Z" fill="#171717"/>
<path d="M229.674 73.8965L230.034 73.4609C229.92 73.6047 229.797 73.7527 229.674 73.8965Z" fill="#171717"/>
<path d="M229.267 74.3708C229.389 74.227 229.512 74.0832 229.639 73.9395C229.52 74.0832 229.393 74.227 229.267 74.3708Z" fill="#171717"/>
<path d="M228.856 74.8397C228.979 74.696 229.106 74.5564 229.233 74.4126C229.11 74.5564 228.983 74.696 228.856 74.8397Z" fill="#171717"/>
<path d="M219.908 218.171C222.53 218.424 225.279 218.382 227.647 217.536C227.647 217.549 227.643 217.566 227.643 217.578C225.232 218.424 222.488 218.467 219.908 218.171Z" fill="url(#paint4_linear_2385_90235)"/>
<path d="M226.878 226.08H226.843C226.848 226.058 226.848 226.032 226.852 226.011C226.861 226.032 226.869 226.058 226.878 226.08Z" fill="#171717"/>
<path d="M223.046 72.4756C222.864 72.7166 222.691 72.9535 222.53 73.1819L222.594 73.0804C222.738 72.8816 222.886 72.6786 223.046 72.4756Z" fill="#171717"/>
<path d="M216.237 217.637C216.846 217.734 217.459 217.836 218.068 217.929C217.455 217.836 216.846 217.739 216.237 217.637Z" fill="url(#paint5_linear_2385_90235)"/>
<path d="M216.736 79.3139C220.012 79.5322 223.302 79.3905 226.548 78.891C229.359 78.4322 232.122 77.7102 234.799 76.7342C235.669 76.417 236.47 75.9361 237.158 75.3174C236.461 75.9568 235.645 76.4525 234.756 76.7764C232.078 77.7475 229.316 78.4694 226.505 78.9333C226.226 78.9756 225.943 79.0179 225.659 79.056C222.69 79.4768 219.684 79.5774 216.694 79.3562C212.494 79.0856 207.546 78.4554 204.573 81.1494C207.542 78.4047 212.515 79.039 216.736 79.3139Z" fill="#171717"/>
<path d="M215.356 71.2618C216.515 70.4879 217.602 69.5279 218.693 68.8047C217.61 69.5406 216.523 70.5006 215.356 71.2618Z" fill="#171717"/>
<path d="M215.129 131.252L215.1 131.295H202.04L202.019 131.252H215.129Z" fill="url(#paint6_linear_2385_90235)"/>
<path d="M223.502 334.692C224.407 339.924 225.523 345.493 227.735 350.272C225.494 345.472 224.369 339.873 223.459 334.607C220.918 319.459 217.945 306.932 214.028 294.536C217.949 306.94 220.935 319.492 223.502 334.692Z" fill="#171717"/>
<path d="M213.606 162.806L208.108 217.028V217.033L208.066 217.028L207.271 225.064H207.262L206.078 236.99L185.283 237.874L191.868 159.169H191.864L191.868 159.135L213.606 162.806ZM201.849 233.691L207.727 180.569L195.209 179.385L189.161 233.945H189.208L189.204 233.987L201.849 233.691ZM207.262 169.319C207.291 168.685 207.19 168.052 206.967 167.458C206.744 166.864 206.402 166.321 205.964 165.862C205.525 165.403 204.998 165.038 204.414 164.789C203.831 164.54 203.203 164.411 202.568 164.411C201.933 164.411 201.305 164.54 200.721 164.789C200.138 165.038 199.611 165.403 199.172 165.862C198.734 166.321 198.392 166.864 198.169 167.458C197.946 168.052 197.846 168.685 197.873 169.319C197.874 169.651 197.906 169.983 197.971 170.309C198.129 171.2 198.535 172.029 199.141 172.701C199.748 173.373 200.531 173.862 201.401 174.111C201.474 174.134 201.549 174.152 201.625 174.166C201.778 174.2 201.934 174.225 202.09 174.242C202.408 174.276 202.728 174.276 203.046 174.242C203.202 174.225 203.357 174.2 203.511 174.166C203.587 174.149 203.663 174.132 203.735 174.111C204.605 173.862 205.388 173.373 205.995 172.701C206.601 172.029 207.007 171.2 207.165 170.309C207.23 169.983 207.262 169.651 207.262 169.319Z" fill="url(#paint7_linear_2385_90235)"/>
<path d="M213.606 162.806L191.868 159.135V159.127L213.606 162.806Z" fill="url(#paint8_linear_2385_90235)"/>
<path d="M212.29 289.221C212.891 290.993 213.466 292.756 214.024 294.528C213.466 292.761 212.888 290.991 212.29 289.221Z" fill="#171717"/>
<path d="M211.957 217.066C213.179 217.164 214.401 217.346 215.619 217.54C214.397 217.346 213.179 217.168 211.957 217.066Z" fill="url(#paint9_linear_2385_90235)"/>
<path d="M208.404 217.07C209.583 216.961 210.769 216.96 211.948 217.066C210.769 216.962 209.583 216.963 208.404 217.07Z" fill="url(#paint10_linear_2385_90235)"/>
<path d="M208.015 277.375C208.294 278.106 208.569 278.829 208.84 279.557C208.569 278.834 208.294 278.106 208.015 277.375Z" fill="#171717"/>
<path d="M208.15 217.037L207.355 225.064H207.312L208.108 217.033L208.15 217.037Z" fill="url(#paint11_linear_2385_90235)"/>
<path d="M208.151 217.028V217.037L208.108 217.033V217.028L213.606 162.806L208.151 217.028Z" fill="url(#paint12_linear_2385_90235)"/>
<path d="M208.108 217.033L207.313 225.064H207.271L208.066 217.028L208.108 217.033Z" fill="url(#paint13_linear_2385_90235)"/>
<path d="M226.843 226.079C220.093 225.783 214.185 225.445 207.431 225.149H207.347L207.355 225.064H207.389C214.156 225.36 220.076 225.699 226.843 225.995C226.847 225.999 226.847 226.008 226.852 226.012C226.847 226.033 226.847 226.058 226.843 226.079Z" fill="url(#paint14_linear_2385_90235)"/>
<path d="M207.355 225.064L207.347 225.15H207.304L207.313 225.064H207.355Z" fill="url(#paint15_linear_2385_90235)"/>
<path d="M206.163 237.075L185.275 237.963L206.079 237.075L207.305 225.148H207.347L206.163 237.075Z" fill="url(#paint16_linear_2385_90235)"/>
<path d="M207.314 225.064L207.305 225.15H207.263L207.271 225.064H207.314Z" fill="url(#paint17_linear_2385_90235)"/>
<path d="M206.079 237.075L185.275 237.963L185.284 237.875L206.079 236.991L207.263 225.064H207.271L207.263 225.149H207.305L206.079 237.075Z" fill="url(#paint18_linear_2385_90235)"/>
<path d="M201.848 233.692L189.203 233.988L189.207 233.946L201.848 233.692Z" fill="url(#paint19_linear_2385_90235)"/>
<path d="M199.82 74.9575C199.735 75.0466 199.655 75.1356 199.579 75.2289C199.642 75.1525 199.71 75.0762 199.778 74.9999C199.791 74.9846 199.805 74.9707 199.82 74.9575Z" fill="#171717"/>
<path d="M199.577 75.229C199.501 75.318 199.425 75.4113 199.353 75.5088C199.425 75.4113 199.497 75.318 199.577 75.229Z" fill="#171717"/>
<path d="M197.971 170.309C198.136 171.197 198.543 172.023 199.149 172.694C199.754 173.365 200.534 173.856 201.401 174.111C200.531 173.862 199.748 173.373 199.141 172.701C198.535 172.029 198.129 171.2 197.971 170.309Z" fill="url(#paint20_linear_2385_90235)"/>
<path d="M198.344 77.3394C198.31 77.4242 198.276 77.5089 198.251 77.5937C198.281 77.5089 198.31 77.4242 198.344 77.3394Z" fill="#171717"/>
<path d="M198.017 78.3374C197.983 78.4519 197.958 78.5664 197.928 78.6851C197.958 78.5664 197.988 78.4519 198.017 78.3374Z" fill="#171717"/>
<path d="M197.793 103.213C197.857 103.226 197.917 103.239 197.981 103.248C197.918 103.24 197.855 103.229 197.793 103.213Z" fill="#171717"/>
<path d="M197.1 102.938C197.314 103.068 197.548 103.161 197.793 103.213C197.547 103.165 197.312 103.072 197.1 102.938Z" fill="#171717"/>
<path d="M223.249 72.2177C225.516 69.3503 229.055 66.0262 231.584 67.3457C233.2 68.0393 232.637 69.8071 231.271 71.8202C230.967 72.2642 230.624 72.721 230.256 73.182C230.193 73.2623 230.13 73.3427 230.066 73.4188C230.053 73.4357 230.041 73.4484 230.032 73.4611L229.673 73.8967C229.659 73.909 229.648 73.9229 229.639 73.939C229.512 74.0828 229.389 74.2266 229.267 74.3704C229.255 74.3835 229.243 74.3974 229.233 74.4127C229.106 74.5564 228.979 74.696 228.857 74.8398C228.582 75.1528 228.303 75.4615 228.028 75.7618C228.013 75.7749 227.998 75.7888 227.985 75.8041C229.795 74.4803 231.597 73.9178 232.933 72.814C233.005 72.7591 233.077 72.6956 233.149 72.6322C234.502 71.4057 236.998 70.7291 237.97 72.2938C238.533 73.2243 238.199 74.1885 237.471 75.0047C237.374 75.1151 237.269 75.22 237.158 75.3177C236.47 75.9364 235.668 76.4173 234.799 76.7345C232.122 77.7106 229.359 78.4329 226.547 78.8913C223.302 79.3908 220.012 79.5325 216.736 79.3143C212.515 79.0394 207.542 78.405 204.573 81.1497C204.454 81.2533 204.341 81.3633 204.234 81.4796C204.094 81.6251 203.962 81.7773 203.837 81.9363C202.23 83.9663 202.103 86.7153 202.018 89.2951C201.891 93.0168 201.765 96.7807 201.638 100.507C201.637 100.601 201.63 100.696 201.616 100.79C201.604 100.883 201.586 100.974 201.562 101.065C201.549 101.107 201.536 101.154 201.519 101.196C201.485 101.285 201.447 101.374 201.409 101.458C201.139 101.934 200.763 102.342 200.311 102.651C199.859 102.959 199.342 103.16 198.8 103.239C198.749 103.247 198.703 103.251 198.652 103.26C198.428 103.281 198.202 103.277 197.979 103.247C197.916 103.239 197.857 103.226 197.793 103.213C197.548 103.161 197.314 103.068 197.1 102.938C197.049 102.905 196.994 102.871 196.943 102.833C195.378 101.648 195.886 98.8107 197.62 98.0495C196.182 98.5993 194.744 99.7877 193.348 99.0645C189.415 97.3305 197.112 90.6484 197.366 86.0809C197.485 83.9156 197.404 81.5811 197.776 79.4454C197.819 79.1874 197.869 78.9336 197.929 78.6841C197.958 78.5657 197.984 78.4515 198.017 78.3373C198.085 78.0878 198.161 77.8383 198.25 77.593C198.275 77.5084 198.309 77.4238 198.343 77.3392C198.385 77.2293 198.428 77.1236 198.474 77.0136C198.567 76.8021 198.669 76.5949 198.783 76.3919C198.829 76.3031 198.88 76.2185 198.931 76.1339C198.973 76.062 199.016 75.9901 199.062 75.9225C199.155 75.7787 199.252 75.6433 199.354 75.508C199.426 75.4107 199.502 75.3177 199.578 75.2289C199.654 75.1401 199.735 75.047 199.819 74.9582C199.927 74.8407 200.042 74.729 200.162 74.6241C203.029 72.0359 207.571 72.4292 211.492 72.5899C212.667 72.5988 213.818 72.2575 214.799 71.6087C214.989 71.503 215.175 71.3846 215.357 71.2619C216.524 70.5007 217.611 69.5407 218.694 68.8048C218.867 68.6864 219.036 68.5764 219.21 68.4707C219.991 67.9522 220.916 67.6917 221.853 67.7263C224.56 67.7263 223.587 71.5326 222.487 73.2243C222.521 73.1777 222.555 73.127 222.593 73.0805L222.53 73.182C222.69 72.9536 222.864 72.7168 223.046 72.4757C223.113 72.3911 223.177 72.3023 223.249 72.2177Z" fill="#171717"/>
<path d="M191.868 159.169L185.283 237.874H185.279L191.864 159.169H191.868Z" fill="url(#paint21_linear_2385_90235)"/>
<path d="M191.864 159.169L185.28 237.874L185.237 237.878L191.822 159.173L191.864 159.169Z" fill="url(#paint22_linear_2385_90235)"/>
<path d="M187.428 168.685L171.526 164.921C171.531 164.913 171.535 164.9 171.539 164.892L187.428 168.685Z" fill="url(#paint23_linear_2385_90235)"/>
<path d="M185.284 237.874L185.275 237.964H185.271L185.28 237.874H185.284Z" fill="url(#paint24_linear_2385_90235)"/>
<path d="M185.28 237.874L185.272 237.964H185.229L185.238 237.878L185.28 237.874Z" fill="url(#paint25_linear_2385_90235)"/>
<path d="M185.271 237.963H185.275L185.271 238.005L178.491 234.495L185.228 237.963H185.271Z" fill="url(#paint26_linear_2385_90235)"/>
<path d="M185.186 237.879H185.237L185.228 237.963L178.491 234.496L177.996 234.242L177.962 234.225V234.221L177.996 234.157L185.186 237.879Z" fill="url(#paint27_linear_2385_90235)"/>
<path d="M173.218 160.946L173.471 161.115L191.822 159.174L185.237 237.879H185.186L177.997 234.157L177.963 234.22L168.561 229.336L168.477 229.293L168.236 229.167L164.967 227.475L164.755 227.433V226.967C164.747 226.908 164.738 226.853 164.726 226.794C164.49 225.932 164.034 225.146 163.402 224.514C161.812 222.59 160.158 220.767 158.407 219.008C158.158 218.754 157.904 218.505 157.65 218.255L156.508 218.171L157.27 217.917C158.156 217.524 158.957 216.962 159.629 216.263C159.645 216.249 159.659 216.233 159.672 216.217C159.748 216.136 159.824 216.052 159.896 215.967L159.976 216.01L177.109 228.405L187.428 168.685L171.539 164.892C171.661 164.646 171.784 164.405 171.907 164.16C171.986 164.064 172.045 163.953 172.081 163.834C172.116 163.715 172.127 163.59 172.114 163.466C172.118 163.344 172.118 163.213 172.122 163.09C172.115 162.984 172.13 162.878 172.166 162.778C172.201 162.679 172.257 162.588 172.33 162.511C172.626 162.003 172.922 161.453 173.218 160.946Z" fill="url(#paint28_linear_2385_90235)"/>
<path d="M159.897 215.967C159.825 216.052 159.748 216.136 159.672 216.217C159.748 216.136 159.82 216.052 159.892 215.967H159.897Z" fill="url(#paint29_linear_2385_90235)"/>
<path d="M158.406 219.008C160.157 220.767 161.811 222.59 163.401 224.514C161.811 222.628 160.153 220.771 158.406 219.008Z" fill="url(#paint30_linear_2385_90235)"/>
<path d="M140.649 215.84C140.901 216.279 141.214 216.679 141.579 217.028L141.283 217.113C141.193 217.418 141.122 217.729 141.072 218.043L141.021 218.035L140.818 218.001L136.42 215.036L136.424 215.024L137.435 209.454V209.327C138.234 209.292 139.034 209.32 139.829 209.412V209.42C139.81 209.452 139.801 209.489 139.803 209.526V209.539C139.681 210.117 139.602 210.704 139.566 211.294C139.546 211.637 139.545 211.982 139.562 212.326C139.621 213.57 139.995 214.779 140.649 215.84Z" fill="url(#paint31_linear_2385_90235)"/>
<path d="M139.845 209.412C139.841 209.412 139.838 209.413 139.835 209.414C139.832 209.416 139.829 209.418 139.827 209.421V209.412H139.845Z" fill="url(#paint32_linear_2385_90235)"/>
<path d="M139.803 209.539V209.581C139.682 210.145 139.603 210.718 139.566 211.294C139.601 210.704 139.68 210.117 139.803 209.539Z" fill="url(#paint33_linear_2385_90235)"/>
<path d="M171.23 141.445C194.816 147.733 203.575 141.533 205.512 139.74C203.664 141.483 194.956 147.826 171.188 141.487C168.815 140.853 166.489 140.26 164.163 139.668C142.413 134.192 122.557 131.51 110.343 146.575C122.379 131.641 141.875 134.073 163.296 139.398C163.596 139.474 163.901 139.55 164.205 139.626C166.531 140.218 168.858 140.81 171.23 141.445Z" fill="url(#paint34_linear_2385_90235)"/>
<path d="M113.752 168.685L101.779 171.645L101.783 171.632L113.709 168.685C113.709 168.685 126.887 149.015 153.738 147.805C126.917 149.036 113.752 168.685 113.752 168.685Z" fill="url(#paint35_linear_2385_90235)"/>
<path d="M87.8648 291.974C89.7214 288.176 92.0009 284.125 95.1601 281.502L95.1812 281.528C92.0093 284.15 89.7256 288.21 87.8648 292.016C85.581 296.723 83.3861 301.549 83.1196 306.539C83.3734 301.536 85.5725 296.694 87.8648 291.974Z" fill="url(#paint36_linear_2385_90235)"/>
<path d="M83.2114 309.567C83.2689 310.165 83.3674 310.759 83.5074 311.343C83.8796 313.026 84.3913 314.198 85.1187 315.027C84.3659 314.198 83.8415 313.014 83.4651 311.301C83.3467 310.738 83.2621 310.176 83.1818 309.613L83.2114 309.609C83.1691 309.25 83.1395 308.89 83.1226 308.531C83.1437 308.873 83.1691 309.22 83.2114 309.567Z" fill="#171717"/>
<path d="M83.1224 308.531C83.1393 308.89 83.1689 309.25 83.2112 309.609L83.1816 309.613L83.1689 309.525C82.4922 303.435 85.1143 297.598 87.821 291.931C89.6776 288.133 91.9571 284.078 95.1205 281.456L95.1586 281.502C91.9994 284.124 89.7199 288.176 87.8633 291.974C85.5711 296.693 83.3719 301.536 83.1181 306.539C83.0797 307.202 83.0809 307.868 83.1224 308.531Z" fill="url(#paint37_linear_2385_90235)"/>
<path d="M57.6768 308.463C57.7319 308.552 57.787 308.646 57.8464 308.735C57.787 308.646 57.7276 308.557 57.6768 308.463Z" fill="url(#paint38_linear_2385_90235)"/>
<path d="M57.5112 308.188C57.5663 308.281 57.6215 308.37 57.6766 308.463C57.6172 308.374 57.5621 308.281 57.5112 308.188Z" fill="url(#paint39_linear_2385_90235)"/>
<path d="M215.721 121.229C214.452 118.945 215.213 116.492 216.693 114.378C218.173 112.263 220.288 110.656 221.98 108.711C225.321 104.82 226.928 99.6604 227.351 94.5389C227.774 89.4174 227.139 84.3043 226.547 79.187" stroke="#171717" stroke-width="0.834454" stroke-linecap="round" stroke-linejoin="round"/>
<path d="M197.619 98.0493C195.885 98.8106 195.378 101.648 196.942 102.833C196.993 102.871 197.048 102.904 197.099 102.938C197.313 103.068 197.547 103.161 197.792 103.213C197.856 103.226 197.915 103.239 197.979 103.247C198.201 103.277 198.427 103.281 198.651 103.26C198.702 103.255 198.752 103.247 198.799 103.239C199.342 103.164 199.86 102.965 200.313 102.656C200.766 102.347 201.141 101.937 201.408 101.458C201.451 101.373 201.488 101.285 201.518 101.196C201.535 101.154 201.548 101.107 201.561 101.065C201.585 100.974 201.603 100.882 201.616 100.79C201.629 100.696 201.636 100.601 201.637 100.506V100.295" stroke="#171717" stroke-width="0.834454" stroke-linecap="round" stroke-linejoin="round"/>
<path d="M198.084 97.9224C197.915 97.9647 197.788 98.0069 197.619 98.0492" stroke="#171717" stroke-width="0.834454" stroke-linecap="round" stroke-linejoin="round"/>
<path d="M201.003 121.441V121.357C201.214 114.421 201.426 107.443 201.68 100.507C201.807 96.7388 201.933 93.0172 202.06 89.2532C202.145 86.6734 202.314 83.8822 203.879 81.8945C203.993 81.7507 204.111 81.6111 204.234 81.48C204.341 81.3637 204.454 81.2533 204.572 81.1501C207.541 78.4054 212.515 79.0398 216.735 79.3147C220.012 79.5329 223.302 79.3912 226.547 78.8917C229.359 78.4329 232.122 77.711 234.798 76.7349C235.668 76.4177 236.469 75.9368 237.158 75.3181C237.268 75.22 237.373 75.1155 237.471 75.0052C238.228 74.1805 238.583 73.1993 238.012 72.252C237.04 70.6872 234.544 71.3638 233.191 72.5903C233.107 72.6664 233.022 72.7425 232.933 72.8144C231.605 73.8886 229.854 74.4554 228.027 75.7622C228.302 75.4619 228.581 75.1532 228.856 74.8402C228.979 74.6964 229.106 74.5569 229.233 74.4131C229.243 74.3978 229.254 74.3839 229.266 74.3708C229.389 74.227 229.512 74.0832 229.639 73.9394C229.648 73.9233 229.659 73.9094 229.672 73.8971L230.032 73.4615C230.04 73.4488 230.053 73.4361 230.066 73.4192C230.129 73.3431 230.193 73.2627 230.256 73.1824C230.624 72.7214 230.967 72.2647 231.271 71.8206C232.658 69.8033 233.25 68.027 231.626 67.3038C229.08 65.9759 225.486 69.3423 223.248 72.2181C223.176 72.3027 223.113 72.3915 223.045 72.4761C222.864 72.7172 222.69 72.954 222.529 73.1824L222.593 73.0809C223.663 71.3427 224.509 67.6845 221.895 67.6845C220.939 67.6532 219.998 67.9289 219.21 68.4711C219.036 68.5768 218.867 68.6868 218.694 68.8052C217.611 69.5411 216.524 70.5011 215.357 71.2623C215.175 71.385 214.989 71.5034 214.798 71.6091C213.824 72.2308 212.69 72.5569 211.534 72.548C207.592 72.3873 203.029 71.9898 200.161 74.6245C200.041 74.7294 199.927 74.8406 199.819 74.9586C199.734 75.0474 199.654 75.1363 199.578 75.2293C199.502 75.3223 199.425 75.4111 199.354 75.5084C199.252 75.6437 199.155 75.7791 199.062 75.9229C199.015 75.9905 198.973 76.0624 198.931 76.1343C198.88 76.2189 198.829 76.3035 198.783 76.3923C198.668 76.5953 198.567 76.8025 198.474 77.014C198.427 77.124 198.385 77.2297 198.343 77.3396C198.309 77.4242 198.275 77.5088 198.25 77.5934C198.161 77.8387 198.085 78.0882 198.017 78.3377C197.983 78.4519 197.958 78.5661 197.928 78.6845C197.869 78.934 197.818 79.1878 197.776 79.4458C197.412 81.5561 197.501 83.8695 197.408 86.039C197.154 90.6065 189.457 97.2886 193.39 99.0226C194.786 99.7458 196.224 98.5574 197.662 98.0076" stroke="#171717" stroke-width="0.834454" stroke-linecap="round" stroke-linejoin="round"/>
<path d="M193.518 128.292C193.222 126.981 193.01 126.431 193.179 125.078C193.348 123.725 194.025 122.371 195.294 121.779C196.159 121.461 197.082 121.331 198.001 121.399H201.046C205.939 121.399 210.828 121.441 215.721 121.441H217.201C219.358 121.441 221.599 121.483 223.502 122.54C225.346 123.589 226.691 125.924 225.85 127.861C225.845 127.879 225.837 127.895 225.828 127.912" stroke="#171717" stroke-width="0.834454" stroke-linecap="round" stroke-linejoin="round"/>
<path d="M193.307 128.503H193.56C204.302 128.884 215.171 129.222 225.787 127.869C225.808 127.865 225.829 127.865 225.85 127.861C228.578 127.522 231.268 127.061 233.953 126.473C251.112 122.664 266.599 113.46 278.148 100.21C281.193 96.6959 284.323 92.6782 288.852 91.6209C289.23 91.5334 289.613 91.4653 289.998 91.4179C290.023 91.4137 290.053 91.4137 290.078 91.4095C291.317 91.2919 292.566 91.3993 293.766 91.7266C293.792 91.7351 293.817 91.7393 293.842 91.7478C296.676 92.5784 299.129 94.3737 300.778 96.8228L300.804 96.8608C301.102 97.3125 301.376 97.7798 301.624 98.2607C303.908 102.917 303.358 108.584 301.243 113.321C299.087 118.057 295.492 121.948 291.643 125.416C274.68 140.641 252.35 148.592 229.893 152.779C229.851 152.787 229.809 152.792 229.766 152.8C228.836 152.961 227.901 153.126 227.013 153.286" stroke="#171717" stroke-width="0.834454" stroke-linecap="round" stroke-linejoin="round"/>
<path d="M289.95 91.0287C290.542 89.8445 290.246 88.4066 289.654 87.2224C289.062 86.0383 288.216 84.981 287.666 83.7968C287.116 82.6126 286.858 81.1324 287.493 79.9905C288.258 78.6372 289.865 78.172 291.43 77.9183C291.625 77.8722 291.823 77.8438 292.022 77.8337C293.798 77.5799 295.659 77.3262 297.393 77.7068C297.402 77.7068 297.41 77.711 297.419 77.711C297.787 77.7855 298.147 77.8975 298.493 78.0451C299.411 78.3619 300.189 78.9903 300.692 79.8214C300.937 80.2363 301.07 80.7082 301.078 81.1904C301.085 81.6725 300.967 82.1478 300.734 82.5703C300.1 83.5853 298.747 83.9237 297.52 83.966C296.928 83.966 296.294 83.966 295.702 84.0082C295.11 83.9998 294.522 84.1 293.968 84.3043" stroke="#171717" stroke-width="0.834454" stroke-linecap="round" stroke-linejoin="round"/>
<path d="M300.609 96.8652H300.735C300.757 96.8652 300.782 96.861 300.803 96.861C306.995 96.4212 312.937 99.2463 318.498 102.029C326.745 106.131 335.034 110.276 343.281 114.378C349.206 93.5665 355.114 72.7717 361.005 51.9938C361.202 51.4952 361.231 50.9462 361.09 50.429C360.835 49.9765 360.453 49.6089 359.99 49.3717C353.477 45.3963 346.88 41.3786 339.855 38.3293C332.831 35.2801 325.222 33.2966 317.568 33.5081C314.988 33.5927 312.196 33.9733 310.251 35.665C308.306 37.3566 307.544 40.021 306.868 42.5204L300.397 66.6267C300.393 66.6478 300.384 66.6732 300.38 66.6944C299.412 70.3103 298.447 73.8797 297.479 77.4534" stroke="#171717" stroke-width="0.834454" stroke-linecap="round" stroke-linejoin="round"/>
<path d="M295.702 84.0088C294.789 86.507 294.139 89.0935 293.765 91.727C293.761 91.7482 293.761 91.7693 293.757 91.7905C293.757 91.875 293.714 91.9596 293.714 92.0442" stroke="#171717" stroke-width="0.834454" stroke-linecap="round" stroke-linejoin="round"/>
<path d="M291.431 77.707C291.303 75.1598 292.066 72.6476 293.588 70.602C295.118 68.5589 297.32 67.1214 299.805 66.542" stroke="#171717" stroke-width="0.834454" stroke-linecap="round" stroke-linejoin="round"/>
<path d="M229.765 152.736V152.821C232.133 169.199 233.658 185.687 234.333 202.222C234.544 207.001 234.375 212.456 230.865 215.671C229.929 216.512 228.834 217.16 227.647 217.578H227.642C225.232 218.424 222.487 218.466 219.907 218.17C219.294 218.102 218.681 218.018 218.067 217.929C217.454 217.84 216.845 217.739 216.236 217.637C216.029 217.608 215.826 217.574 215.619 217.54C214.397 217.345 213.179 217.168 211.956 217.066L211.955 217.067C211.954 217.068 211.953 217.068 211.952 217.068C211.951 217.068 211.951 217.068 211.95 217.067C211.949 217.067 211.949 217.067 211.948 217.066C210.769 216.962 209.583 216.963 208.404 217.07" stroke="#171717" stroke-width="0.834454" stroke-linecap="round" stroke-linejoin="round"/>
<path d="M227.69 217.578C227.436 220.411 227.14 223.245 226.886 226.078H226.844C220.094 225.782 214.186 225.444 207.432 225.148" stroke="#171717" stroke-width="0.834454" stroke-linecap="round" stroke-linejoin="round"/>
<path d="M226.885 226.079C241.48 264.183 255.817 301.447 270.408 339.556C272.184 344.165 273.918 349.452 271.677 353.808C271.388 354.36 271.049 354.884 270.662 355.373C268.124 358.587 263.599 360.025 259.454 360.997C252.307 362.647 244.356 363.704 237.801 360.828C236.931 360.452 236.096 359.999 235.306 359.475C232.312 357.538 230.125 354.852 228.476 351.753C228.213 351.27 227.972 350.776 227.736 350.272C225.524 345.493 224.407 339.924 223.502 334.692C220.935 319.492 217.949 306.94 214.029 294.536C214.028 294.533 214.027 294.53 214.025 294.528C213.466 292.756 212.891 290.992 212.291 289.22C211.69 287.448 211.068 285.668 210.426 283.879C210.041 282.804 209.647 281.726 209.246 280.643C209.11 280.28 208.975 279.916 208.84 279.556C208.569 278.829 208.294 278.106 208.015 277.374C207.736 276.643 207.452 275.911 207.165 275.171C205.6 271.136 203.913 266.992 202.094 262.661C202.085 262.632 202.073 262.604 202.06 262.576C201.595 261.434 201.088 260.293 200.58 259.108" stroke="#171717" stroke-width="0.834454" stroke-linecap="round" stroke-linejoin="round"/>
<path d="M177.784 234.664C175.669 243.207 173.555 251.792 169.787 259.701C166.023 267.652 160.44 274.968 152.828 279.328C140.605 286.349 125.211 284.742 111.763 280.597C108.079 279.455 104.188 278.144 100.424 278.905C98.4901 279.319 96.6885 280.206 95.18 281.485C95.1715 281.489 95.1673 281.498 95.1588 281.502C91.9996 284.124 89.7201 288.176 87.8635 291.974C85.5713 296.693 83.3721 301.536 83.1184 306.539C83.0795 307.202 83.0812 307.868 83.1226 308.531C83.1438 308.873 83.1691 309.22 83.2114 309.567C83.269 310.165 83.3679 310.759 83.5075 311.343C83.8796 313.026 84.3914 314.198 85.1188 315.027C85.2402 315.165 85.3717 315.293 85.5121 315.412C87.7916 317.437 91.9193 316.909 99.5783 317.475C148.26 321.07 181.717 311.216 195.124 285.376C198.795 278.326 200.571 270.515 202.093 262.661C202.098 262.648 202.098 262.632 202.102 262.619C202.694 259.489 203.286 256.317 203.92 253.23" stroke="#171717" stroke-width="0.834454" stroke-linecap="round" stroke-linejoin="round"/>
<path d="M156.508 148.085C154.379 151.177 152.632 154.515 151.307 158.028C150.968 158.874 150.672 159.719 150.376 160.565C149.573 162.849 148.854 165.133 148.135 167.459C144.836 181.542 142.341 194.821 139.846 209.328C139.847 209.344 139.844 209.36 139.837 209.374C139.836 209.387 139.833 209.4 139.829 209.412V209.421C139.815 209.454 139.807 209.49 139.803 209.526V209.539C139.68 210.117 139.601 210.704 139.566 211.294C139.546 211.637 139.544 211.982 139.562 212.326C139.628 213.556 140.002 214.75 140.649 215.798C140.902 216.236 141.215 216.636 141.58 216.987C143.483 218.763 146.528 218.805 148.981 219.143C151.603 219.524 154.225 218.89 156.551 218.128L157.312 217.875C158.179 217.489 158.966 216.943 159.63 216.263C159.645 216.249 159.659 216.233 159.672 216.217C159.748 216.136 159.824 216.052 159.896 215.967C159.909 215.955 159.921 215.938 159.934 215.925C160.096 215.731 160.245 215.528 160.382 215.316C160.389 215.308 160.395 215.3 160.399 215.291C161.668 213.43 162.176 211.061 162.725 208.693C165.047 194.415 164.84 180.176 170.41 167.205C170.414 167.192 170.422 167.175 170.427 167.163C170.743 166.384 171.102 165.623 171.501 164.883C171.509 164.866 171.518 164.854 171.526 164.837L171.907 164.075C172.052 163.907 172.127 163.688 172.114 163.466C172.118 163.344 172.118 163.213 172.123 163.09C172.108 162.971 172.119 162.85 172.155 162.736C172.191 162.621 172.25 162.516 172.33 162.426C172.626 161.919 172.922 161.369 173.218 160.861C175.77 156.863 178.906 153.269 182.522 150.2" stroke="#171717" stroke-width="0.834454" stroke-linecap="round" stroke-linejoin="round"/>
<path d="M193.517 128.588C185.182 128.5 176.995 130.788 169.914 135.185C167.921 136.418 166.026 137.804 164.247 139.33" stroke="#171717" stroke-width="0.834454" stroke-linecap="round" stroke-linejoin="round"/>
<path d="M222.572 84.6428C220.641 84.3476 218.688 84.2203 216.735 84.2622C216.325 84.2351 215.915 84.3231 215.551 84.5159C215.001 84.9388 215.002 85.7424 215.044 86.419C215.34 89.887 215.636 93.3972 215.932 96.8651C216.027 97.4479 215.969 98.0454 215.763 98.599C215.58 98.9395 215.313 99.2271 214.987 99.4352C214.661 99.6432 214.288 99.7646 213.902 99.7874C213.132 99.831 212.36 99.7451 211.618 99.5337" stroke="#171717" stroke-width="0.834454" stroke-linecap="round" stroke-linejoin="round"/>
<path d="M218.469 89.0842C218.487 89.0511 218.509 89.0201 218.533 88.9909C218.554 88.957 218.579 88.923 218.601 88.8934C218.622 88.8637 218.639 88.8467 218.656 88.8213" stroke="#171717" stroke-width="0.834454" stroke-linecap="round" stroke-linejoin="round"/>
<path d="M218.657 88.8213C218.639 88.8429 218.618 88.8688 218.601 88.8948" stroke="#171717" stroke-width="0.834454" stroke-linecap="round" stroke-linejoin="round"/>
<path d="M218.657 88.8225C218.69 88.7797 218.727 88.7394 218.768 88.7026" stroke="#171717" stroke-width="0.834454" stroke-linecap="round" stroke-linejoin="round"/>
<path d="M222.022 89.1682C221.87 88.8337 221.627 88.5495 221.32 88.3474C221.013 88.1452 220.656 88.034 220.288 88.0264C220.002 88.0319 219.72 88.0945 219.458 88.2108C219.197 88.3266 218.961 88.4941 218.766 88.703" stroke="#171717" stroke-width="0.834454" stroke-linecap="round" stroke-linejoin="round"/>
<path d="M210.181 88.7028C210.082 88.2985 209.863 87.9331 209.554 87.6544C209.245 87.3752 208.859 87.1955 208.447 87.138C208.042 87.0931 207.633 87.1697 207.271 87.3579C206.91 87.5461 206.612 87.8375 206.417 88.1953" stroke="#171717" stroke-width="0.834454" stroke-linecap="round" stroke-linejoin="round"/>
<path d="M209.715 105.243C209.324 105.439 208.887 105.528 208.451 105.499C208.014 105.471 207.592 105.326 207.23 105.081C206.868 104.835 206.578 104.497 206.391 104.102C206.203 103.706 206.124 103.268 206.162 102.832" stroke="#171717" stroke-width="0.834454" stroke-linecap="round" stroke-linejoin="round"/>
<path d="M94.9694 281.274C94.7283 281.05 94.4788 280.83 94.2293 280.606C94.1447 280.529 94.0559 280.453 93.9713 280.377C93.1289 279.628 92.2264 278.949 91.2731 278.347C91.1928 278.296 91.1124 278.25 91.0363 278.203C90.8671 278.106 90.7022 278.013 90.533 277.924C90.2962 277.802 90.0551 277.687 89.8141 277.586C89.6111 277.497 89.4081 277.421 89.2051 277.349C88.1786 276.987 87.0757 276.897 86.0036 277.087C83.889 277.467 82.2396 279.032 80.6748 280.47L58.9792 301.151C57.9642 302.081 56.9492 303.139 56.6532 304.492C56.4633 305.59 56.6701 306.721 57.2368 307.681C57.3214 307.85 57.4144 308.019 57.5117 308.188C57.5667 308.281 57.6216 308.37 57.6766 308.463C57.7316 308.556 57.7866 308.645 57.8458 308.734C57.9727 308.928 58.0995 309.123 58.2306 309.309C58.3406 309.47 58.4463 309.626 58.5563 309.778C59.7827 311.512 61.0515 313.204 62.278 314.938C62.4598 315.187 62.6459 315.441 62.8404 315.682C62.9166 315.779 62.9927 315.877 63.073 315.966C63.515 316.521 64.1041 316.942 64.7732 317.179C65.427 317.339 66.1125 317.307 66.7482 317.086C67.287 316.912 67.8139 316.702 68.3257 316.46C73.1469 314.177 78.0104 311.893 82.8317 309.609" stroke="#171717" stroke-width="0.834454" stroke-linecap="round" stroke-linejoin="round"/>
<path d="M237.801 360.533V360.871C237.759 365.523 237.716 370.175 237.716 374.827C237.716 375.885 237.716 377.027 238.308 377.915C238.363 377.995 238.418 378.075 238.478 378.147C238.536 378.22 238.6 378.289 238.668 378.354C238.731 378.422 238.803 378.486 238.871 378.545C238.939 378.604 239.015 378.655 239.091 378.71C240.279 379.517 242.039 379.505 243.553 379.437C253.351 378.799 263.178 378.744 272.983 379.272C273 379.276 273.017 379.277 273.034 379.276C274.502 379.357 275.966 379.453 277.428 379.564C280.854 379.818 284.279 380.156 287.709 379.818C291.139 379.479 294.561 378.38 297.14 376.096C299.72 373.812 301.243 370.175 300.439 366.834C300.357 366.499 300.252 366.17 300.126 365.849C299.701 364.787 299.079 363.814 298.295 362.981C297.981 362.645 297.646 362.329 297.293 362.034C295.936 360.91 294.377 360.056 292.7 359.518C289.794 358.583 286.741 358.444 283.692 358.325C283.011 358.304 282.334 358.279 281.657 358.249C277.936 358.08 274.087 357.615 270.958 355.627" stroke="#171717" stroke-width="0.834454" stroke-linecap="round" stroke-linejoin="round"/>
<path d="M164.924 227.432L168.236 229.166L168.477 229.293L168.498 229.306L168.561 229.335L177.963 234.224L177.997 234.241L178.491 234.495L185.229 237.963M185.229 237.963L185.237 237.878L191.822 159.173L191.826 159.127L191.868 159.135L213.606 162.806L208.108 217.028V217.033L207.313 225.064L207.305 225.148L206.078 237.075L185.275 237.963H185.271H185.229Z" stroke="#171717" stroke-width="0.834454" stroke-linecap="round" stroke-linejoin="round"/>
<path d="M191.826 159.127L173.429 161.072" stroke="#171717" stroke-width="0.834454" stroke-linecap="round" stroke-linejoin="round"/>
<path d="M171.315 164.836L171.485 164.878L171.502 164.882L171.54 164.891L187.429 168.684L177.109 228.405L159.977 216.009" stroke="#171717" stroke-width="0.834454" stroke-linecap="round" stroke-linejoin="round"/>
<path d="M170.511 167.247L183.452 169.277L176.389 223.119L160.399 215.333L160.382 215.316L160.356 215.29" stroke="#171717" stroke-width="0.834454" stroke-linecap="round" stroke-linejoin="round"/>
<path d="M149.699 160.354C147.204 158.958 143.905 160.354 142.213 162.637C140.522 164.921 139.972 167.839 139.507 170.673C137.519 182.684 135.489 194.652 133.501 206.663C133.29 207.847 133.121 209.074 132.909 210.258C134.344 209.705 135.856 209.376 137.392 209.285C138.196 209.25 139.003 209.278 139.803 209.37" stroke="#171717" stroke-width="0.834454" stroke-linecap="round" stroke-linejoin="round"/>
<path d="M133.121 206.578C132.275 206.578 131.472 206.578 130.668 206.536C132.529 190.973 134.756 175.438 137.35 159.93C141.575 157.5 146.584 156.817 151.306 158.027H151.391" stroke="#171717" stroke-width="0.834454" stroke-linecap="round" stroke-linejoin="round"/>
<path d="M157.65 218.254C157.904 218.504 158.157 218.753 158.407 219.007C160.158 220.767 161.811 222.589 163.402 224.514C163.956 225.186 164.548 225.935 164.725 226.793C164.738 226.852 164.746 226.907 164.755 226.966V227.432C164.653 228.117 164.335 228.753 163.849 229.247C163.363 229.741 162.732 230.068 162.048 230.181C160.526 230.434 159.172 229.462 158.453 228.108C157.735 226.755 157.65 225.74 157.438 224.344" stroke="#171717" stroke-width="0.834454" stroke-linecap="round" stroke-linejoin="round"/>
<path d="M148.641 230.985H148.472C145.469 231.027 142.72 228.828 141.536 226.079C140.441 223.55 140.479 220.733 141.02 218.035C141.024 218.022 141.024 218.014 141.028 218.001C141.113 217.705 141.155 217.367 141.24 217.071" stroke="#171717" stroke-width="0.834454" stroke-linecap="round" stroke-linejoin="round"/>
<path d="M145.936 224.557C146.37 226.519 147.221 228.365 148.431 229.97C148.613 230.215 148.799 230.456 148.993 230.685C149.535 231.336 150.14 231.933 150.799 232.465C153.041 234.241 156.297 234.791 158.877 233.48" stroke="#171717" stroke-width="0.834454" stroke-linecap="round" stroke-linejoin="round"/>
<path d="M151.899 224.811C151.899 228.49 155.198 232 158.792 233.184C158.822 233.184 158.856 233.21 158.907 233.218C158.924 233.223 158.943 233.226 158.962 233.227C160.691 233.787 162.56 233.74 164.26 233.094C165.959 232.448 167.387 231.241 168.308 229.674" stroke="#171717" stroke-width="0.834454" stroke-linecap="round" stroke-linejoin="round"/>
<path d="M137.392 209.412L136.377 214.995L136.424 215.024L140.776 217.959" stroke="#171717" stroke-width="0.834454" stroke-linecap="round" stroke-linejoin="round"/>
<path d="M189.207 233.945L189.203 233.987L201.848 233.691L207.726 180.569L195.208 179.427L189.207 233.945Z" stroke="#171717" stroke-width="0.834454" stroke-linecap="round" stroke-linejoin="round"/>
<path d="M197.971 170.309C197.906 169.983 197.874 169.652 197.874 169.32C197.845 168.686 197.946 168.052 198.169 167.458C198.392 166.864 198.734 166.321 199.173 165.863C199.611 165.404 200.138 165.039 200.722 164.789C201.305 164.54 201.933 164.412 202.568 164.412C203.203 164.412 203.831 164.54 204.415 164.789C204.998 165.039 205.525 165.404 205.964 165.863C206.403 166.321 206.744 166.864 206.967 167.458C207.19 168.052 207.291 168.686 207.263 169.32C207.263 169.652 207.23 169.983 207.165 170.309C207.001 171.198 206.593 172.024 205.987 172.695C205.382 173.366 204.603 173.856 203.735 174.111C203.664 174.132 203.587 174.149 203.511 174.166C203.358 174.2 203.203 174.225 203.046 174.242C202.728 174.276 202.408 174.276 202.09 174.242C201.934 174.225 201.779 174.2 201.625 174.166C201.549 174.152 201.475 174.134 201.401 174.111C200.531 173.862 199.748 173.374 199.142 172.701C198.535 172.029 198.13 171.2 197.971 170.309Z" stroke="#171717" stroke-width="0.834454" stroke-linecap="round" stroke-linejoin="round"/>
<path d="M314.734 44.2119C327.397 45.1982 339.777 48.4648 351.278 53.8544" stroke="#171717" stroke-width="0.834454" stroke-linecap="round" stroke-linejoin="round"/>
<path d="M312.408 54.9966C324.425 56.0987 336.138 59.3953 346.965 64.7237" stroke="#171717" stroke-width="0.834454" stroke-linecap="round" stroke-linejoin="round"/>
<path d="M309.278 66.4148C319.924 66.1526 330.42 68.9565 339.517 74.4925" stroke="#171717" stroke-width="0.834454" stroke-linecap="round" stroke-linejoin="round"/>
<path d="M105.457 198.458C104.442 202.899 100.932 206.409 96.9145 208.481C92.8968 210.596 88.3716 211.484 83.931 212.372C79.4904 213.26 74.9652 214.233 70.9897 216.39C73.0502 223.575 74.6742 230.878 75.8533 238.259C75.9379 238.893 89.0483 236.271 90.2747 235.975C95.0685 234.784 99.7519 233.185 104.273 231.196C107.741 229.673 112.398 227.982 114.808 224.81C117.303 221.553 115.4 218.128 113.793 214.909C110.998 209.496 108.206 203.956 105.457 198.458Z" stroke="#171717" stroke-width="0.834454" stroke-linecap="round" stroke-linejoin="round"/>
<path d="M78.814 191.692C74.6694 190.846 70.4402 190 66.5917 188.139C62.7854 186.321 59.3175 183.36 57.7104 179.427C60.0788 175.536 62.4471 171.603 64.8155 167.712C64.0542 168.981 72.5971 173.633 73.5698 174.014C77.1646 175.452 80.6325 175.536 84.3965 175.621C83.8044 180.865 80.5902 186.701 78.814 191.692Z" stroke="#171717" stroke-width="0.834454" stroke-linecap="round" stroke-linejoin="round"/>
<path d="M38.337 212.119C33.6773 216.142 29.9779 221.158 27.5103 226.798C26.9182 228.194 26.3684 229.716 26.5799 231.196C26.9182 233.48 28.8636 235.172 30.8513 236.441C32.247 237.329 33.5157 237.963 34.6153 238.936C34.7307 239.033 34.867 239.102 35.0135 239.138C35.1601 239.174 35.3129 239.176 35.4602 239.143C35.6074 239.11 35.7452 239.044 35.8627 238.949C35.9802 238.855 36.0744 238.734 36.1378 238.597C36.9414 236.694 38.8445 233.903 39.1828 233.142C40.4768 230.556 42.0663 228.129 43.9193 225.91C47.4295 221.765 48.4445 222.188 45.9493 219.397C43.6232 216.817 40.8322 214.529 38.337 212.119Z" stroke="#171717" stroke-width="0.834454" stroke-linecap="round" stroke-linejoin="round"/>
<path d="M182.521 150.115C202.144 151.172 208.234 147.408 208.869 139.922L215.128 131.295H201.975L205.908 139.33C205.908 139.33 205.862 139.39 205.764 139.495C205.701 139.559 205.616 139.643 205.511 139.741C203.663 141.483 194.955 147.827 171.187 141.487C168.814 140.853 166.488 140.261 164.162 139.669C142.411 134.192 122.556 131.511 110.342 146.575C110.084 146.892 109.826 147.222 109.572 147.56C108.238 149.351 107.059 151.253 106.049 153.244L101.735 171.645L101.782 171.633L113.708 168.685C113.708 168.685 126.886 149.015 153.737 147.806C154.646 147.763 155.57 147.743 156.507 147.746C157.459 147.746 158.429 147.77 159.417 147.818C161.062 147.903 162.756 148.062 164.5 148.296C171.483 149.269 177.446 149.819 182.521 150.115Z" stroke="#171717" stroke-width="0.834454" stroke-linecap="round" stroke-linejoin="round"/>
<path d="M243.85 47.1298C243.871 45.6454 243.892 44.1736 243.913 42.6976C243.934 41.2301 243.955 39.7626 243.976 38.2866" stroke="#171717" stroke-width="0.834454" stroke-linecap="round" stroke-linejoin="round"/>
<path d="M239.831 43.3661C241.192 43.1377 242.55 42.9178 243.912 42.6979C245.299 42.4738 246.69 42.2495 248.077 42.0127" stroke="#171717" stroke-width="0.834454" stroke-linecap="round" stroke-linejoin="round"/>
<path d="M222.36 55.377C221.802 54.4804 221.242 53.5838 220.681 52.6872C220.258 52.019 219.831 51.3508 219.399 50.6826" stroke="#171717" stroke-width="0.834454" stroke-linecap="round" stroke-linejoin="round"/>
<path d="M218.427 54.7427C219.18 54.0576 219.929 53.3724 220.681 52.6873C221.367 52.0614 222.056 51.4355 222.741 50.8096" stroke="#171717" stroke-width="0.834454" stroke-linecap="round" stroke-linejoin="round"/>
<path d="M250.616 67.3033C250.971 66.5336 251.322 65.7638 251.678 64.9941C252.041 64.1991 252.409 63.404 252.773 62.6089" stroke="#171717" stroke-width="0.834454" stroke-linecap="round" stroke-linejoin="round"/>
<path d="M253.788 66.4995C253.09 66.0004 252.384 65.4972 251.677 64.9939C251.009 64.516 250.341 64.0339 249.686 63.5391" stroke="#171717" stroke-width="0.834454" stroke-linecap="round" stroke-linejoin="round"/>
<path d="M80.9708 233.437L77.9258 220.115" stroke="#171717" stroke-width="0.834454" stroke-linecap="round" stroke-linejoin="round"/>
<path d="M84.9041 232.676C84.4389 230.731 84.016 228.743 83.5508 226.798" stroke="#171717" stroke-width="0.834454" stroke-linecap="round" stroke-linejoin="round"/>
<path d="M93.3207 231.069C92.4749 227.263 91.629 223.499 90.7832 219.693" stroke="#171717" stroke-width="0.834454" stroke-linecap="round" stroke-linejoin="round"/>
<path d="M68.7915 185.601C69.1311 184.115 69.878 182.753 70.9484 181.668" stroke="#171717" stroke-width="0.834454" stroke-linecap="round" stroke-linejoin="round"/>
<path d="M64.4336 183.994C65.5353 181.079 67.0138 178.32 68.8319 175.79" stroke="#171717" stroke-width="0.834454" stroke-linecap="round" stroke-linejoin="round"/>
<path d="M41.3391 223.626C40.272 221.988 38.8748 220.59 37.2368 219.523" stroke="#171717" stroke-width="0.834454" stroke-linecap="round" stroke-linejoin="round"/>
<path d="M39.0135 226.587C38.5483 225.995 38.0831 225.403 37.6602 224.811" stroke="#171717" stroke-width="0.834454" stroke-linecap="round" stroke-linejoin="round"/>
<path d="M197.577 228.363C198.55 214.571 200.199 200.784 202.525 187.167" stroke="#171717" stroke-width="0.834454" stroke-linecap="round" stroke-linejoin="round"/>
<path d="M171.315 213.64C173.303 201.08 175.333 188.519 177.32 175.958" stroke="#171717" stroke-width="0.834454" stroke-linecap="round" stroke-linejoin="round"/>
<path d="M167.927 200.108C169.238 191.861 170.511 183.614 171.822 175.409" stroke="#171717" stroke-width="0.834454" stroke-linecap="round" stroke-linejoin="round"/>
<path d="M287.625 117.507C288.133 115.562 288.64 113.574 289.19 111.629" stroke="#171717" stroke-width="0.834454" stroke-linecap="round" stroke-linejoin="round"/>
<path d="M277.133 113.152C275.864 112.729 274.595 112.264 273.369 111.841L273.58 112.052" stroke="#171717" stroke-width="0.834454" stroke-linecap="round" stroke-linejoin="round"/>
<path d="M265.587 133.028C266.306 131.337 266.983 129.603 267.701 127.911" stroke="#171717" stroke-width="0.834454" stroke-linecap="round" stroke-linejoin="round"/>
<path d="M255.351 128.292C254.257 127.7 253.042 127.367 251.799 127.319" stroke="#171717" stroke-width="0.834454" stroke-linecap="round" stroke-linejoin="round"/>
<path d="M244.907 143.602L246.683 139.668" stroke="#171717" stroke-width="0.834454" stroke-linecap="round" stroke-linejoin="round"/>
<path d="M232.937 137.004C231.668 136.412 230.357 135.862 229.088 135.27" stroke="#171717" stroke-width="0.834454" stroke-linecap="round" stroke-linejoin="round"/>
<path d="M214.536 150.495C215.101 148.918 216.012 147.488 217.201 146.308" stroke="#171717" stroke-width="0.834454" stroke-linecap="round" stroke-linejoin="round"/>
<path d="M225.067 169.023C223.967 168.347 222.868 167.712 221.768 167.036" stroke="#171717" stroke-width="0.834454" stroke-linecap="round" stroke-linejoin="round"/>
<path d="M215.764 183.656C216.483 182.514 217.159 181.415 217.878 180.273" stroke="#171717" stroke-width="0.834454" stroke-linecap="round" stroke-linejoin="round"/>
<path d="M229.048 197.95C228.071 196.893 227.098 195.878 226.083 194.821" stroke="#171717" stroke-width="0.834454" stroke-linecap="round" stroke-linejoin="round"/>
<path d="M213.521 210.892C214.367 209.834 215.171 208.777 216.017 207.72" stroke="#171717" stroke-width="0.834454" stroke-linecap="round" stroke-linejoin="round"/>
<path d="M194.533 156.331C193.666 155.669 192.946 154.834 192.418 153.878" stroke="#171717" stroke-width="0.834454" stroke-linecap="round" stroke-linejoin="round"/>
<path d="M186.455 138.104C187.174 137.047 187.893 135.99 188.612 134.975" stroke="#171717" stroke-width="0.834454" stroke-linecap="round" stroke-linejoin="round"/>
<path d="M167.251 159.508C166.912 158.281 166.574 157.008 166.278 155.782" stroke="#171717" stroke-width="0.834454" stroke-linecap="round" stroke-linejoin="round"/>
<path d="M151.01 171.856C152.068 170.926 153.083 170.038 154.14 169.107" stroke="#171717" stroke-width="0.834454" stroke-linecap="round" stroke-linejoin="round"/>
<path d="M161.161 188.35C160.031 187.093 159.128 185.647 158.497 184.079" stroke="#171717" stroke-width="0.834454" stroke-linecap="round" stroke-linejoin="round"/>
<path d="M145.724 207.382C146.695 205.777 147.844 204.287 149.15 202.941" stroke="#171717" stroke-width="0.834454" stroke-linecap="round" stroke-linejoin="round"/>
<path d="M157.903 201.842L156.127 199.685" stroke="#171717" stroke-width="0.834454" stroke-linecap="round" stroke-linejoin="round"/>
<path d="M310.632 26.7412L310.378 14.8149" stroke="#171717" stroke-width="0.834454" stroke-linecap="round" stroke-linejoin="round"/>
<path d="M300.312 27.5446C295.11 20.9471 289.951 14.3919 284.745 7.79443" stroke="#171717" stroke-width="0.834454" stroke-linecap="round" stroke-linejoin="round"/>
<path d="M297.182 38.0754C293.376 37.0181 289.527 35.9608 285.717 34.9458" stroke="#171717" stroke-width="0.834454" stroke-linecap="round" stroke-linejoin="round"/>
<path d="M341.292 121.525C345.522 122.667 350.432 119.707 351.362 115.393" stroke="#171717" stroke-width="0.834454" stroke-linecap="round" stroke-linejoin="round"/>
<path d="M260.47 155.358C271.354 152.791 281.232 147.05 288.852 138.865" stroke="#171717" stroke-width="0.834454" stroke-linecap="round" stroke-linejoin="round"/>
<path d="M145.343 324.876C154.83 325.603 164.261 322.885 171.906 317.221" stroke="#171717" stroke-width="0.834454" stroke-linecap="round" stroke-linejoin="round"/>
<path d="M159.087 330.417C161.287 329.402 163.528 328.387 165.727 327.372" stroke="#171717" stroke-width="0.834454" stroke-linecap="round" stroke-linejoin="round"/>
<path d="M78.2643 310.92C76.2254 308.287 75.2722 304.973 75.5999 301.658" stroke="#171717" stroke-width="0.834454" stroke-linecap="round" stroke-linejoin="round"/>
<path d="M72.5552 313.119C71.5186 312.477 70.6812 311.56 70.1361 310.47C69.591 309.38 69.3596 308.159 69.4679 306.945" stroke="#171717" stroke-width="0.834454" stroke-linecap="round" stroke-linejoin="round"/>
<path d="M283.73 358.249L283.692 358.325C283.687 358.341 283.68 358.357 283.67 358.371C283.275 359.235 282.824 360.073 282.321 360.879C280.976 363.069 279.28 365.023 277.301 366.665" stroke="#171717" stroke-width="0.834454" stroke-linecap="round" stroke-linejoin="round"/>
<path d="M275.991 357.826C273.637 360.915 270.577 363.395 267.067 365.058" stroke="#171717" stroke-width="0.834454" stroke-linecap="round" stroke-linejoin="round"/>
<path d="M237.886 374.108C251.039 374.319 264.149 374.531 277.302 374.7C281.531 374.784 285.803 374.827 289.867 373.685C293.931 372.543 297.775 370.005 299.552 366.199" stroke="#171717" stroke-width="0.834454" stroke-linecap="round" stroke-linejoin="round"/>
<path d="M89.2178 277.34C89.2136 277.345 89.2094 277.345 89.2052 277.349C89.2009 277.353 89.1967 277.353 89.1925 277.357C86.029 279.172 83.2885 281.62 80.5903 284.022C76.3189 287.786 72.0897 291.55 67.8183 295.314C66.2535 296.71 64.6887 298.063 63.4199 299.713C62.108 301.335 61.2474 303.276 60.9247 305.337C60.7716 307.571 61.3028 309.799 62.4472 311.723C63.5468 313.669 65.0693 315.276 66.6764 316.841" stroke="#171717" stroke-width="0.834454" stroke-linecap="round" stroke-linejoin="round"/>
<path d="M205.909 139.204C206.881 139.288 207.896 139.415 208.869 139.5" stroke="#171717" stroke-width="0.834454" stroke-linecap="round" stroke-linejoin="round"/>
<g opacity="0.1">
<path d="M213.11 78.705C211.987 78.417 210.816 78.3612 209.671 78.5414C208.525 78.7211 207.428 79.133 206.447 79.7517C204.041 81.2848 202.719 83.2598 201.88 85.9724C200.915 89.0969 200.815 92.4815 200.589 95.724C200.341 99.2795 200.193 102.84 200.171 106.404C200.152 109.698 200.376 112.992 200.35 116.282C200.34 117.495 200.293 118.523 199.174 119.13C198.128 119.697 196.873 119.845 195.818 120.431C194.778 121.001 193.919 121.853 193.34 122.889C192.596 124.248 192.71 125.719 192.256 127.143C191.563 129.315 187.34 128.703 185.464 128.989C178.589 130.094 172.093 132.877 166.55 137.092C164.007 138.995 166.495 143.336 169.072 141.405C175.312 136.73 182.242 134.641 189.869 133.581C192.862 133.166 196.011 132.212 197.207 129.141C197.685 127.914 197.399 125.842 198.524 125.058C199.666 124.265 201.309 124.183 202.517 123.409C205.701 121.373 205.778 117.587 205.667 114.211C205.531 110.1 205.532 105.991 205.638 101.88C205.749 97.6031 206.011 93.3367 206.427 89.08C206.765 85.6303 207.925 79.852 212.592 80.5747C213.798 80.7617 214.341 79.0552 213.109 78.7016L213.11 78.705Z" fill="#171717"/>
</g>
<g opacity="0.1">
<path d="M158.526 146.302C152.45 148.855 150.475 157.348 149.098 163.078C147.181 171.057 145.433 179.08 143.763 187.113C142.106 195.083 140.447 203.093 139.834 211.225C139.546 214.851 139.891 218.5 140.852 222.009C141.698 225.16 141.93 227.914 144.182 230.478C145.683 232.188 148.171 229.684 146.677 227.983C144.584 225.599 144.179 221.956 144.839 218.941C145.539 215.746 145.561 212.474 145.883 209.201C146.618 201.749 148.246 194.402 149.786 187.085C151.296 179.915 152.837 172.75 154.471 165.608C155.088 162.624 155.922 159.69 156.966 156.828C157.524 155.396 158.229 154.056 158.894 152.674C159.541 151.329 160.444 150.14 160.963 148.743C161.456 147.42 159.887 145.732 158.525 146.304L158.526 146.302Z" fill="#171717"/>
</g>
<g opacity="0.1">
<path d="M226.266 153.565C229.519 153.182 232.798 152.918 235.997 152.198C239.351 151.4 242.661 150.431 245.915 149.294C252.211 147.146 258.38 144.644 264.394 141.799C270.473 138.955 276.47 135.873 282.254 132.464C287.652 129.282 292.977 125.596 297.048 120.775C299.327 118.124 301.189 115.141 302.569 111.928C303.821 108.956 304.814 105.182 303.574 102.069C303.024 100.69 300.952 100.045 300.132 101.619C298.495 104.765 297.982 108.352 296.305 111.515C294.657 114.562 292.515 117.315 289.967 119.661C284.292 124.997 277.19 128.612 270.367 132.236C263.368 136.016 256.142 139.357 248.73 142.243C245.03 143.654 241.276 144.924 237.469 146.013C233.543 147.135 229.673 148.446 225.696 149.358C223.395 149.886 223.835 153.85 226.266 153.564V153.565Z" fill="#171717"/>
</g>
</g>
<defs>
<linearGradient id="paint0_linear_2385_90235" x1="93.2039" y1="198.615" x2="93.2039" y2="238.139" gradientUnits="userSpaceOnUse">
<stop stop-color="#28ED9B"/>
<stop offset="1" stop-color="#0A7D60"/>
</linearGradient>
<linearGradient id="paint1_linear_2385_90235" x1="241.293" y1="378.712" x2="241.293" y2="379.477" gradientUnits="userSpaceOnUse">
<stop stop-color="#28ED9B"/>
<stop offset="1" stop-color="#0A7D60"/>
</linearGradient>
<linearGradient id="paint2_linear_2385_90235" x1="238.979" y1="378.545" x2="238.979" y2="378.709" gradientUnits="userSpaceOnUse">
<stop stop-color="#28ED9B"/>
<stop offset="1" stop-color="#0A7D60"/>
</linearGradient>
<linearGradient id="paint3_linear_2385_90235" x1="238.572" y1="378.147" x2="238.572" y2="378.353" gradientUnits="userSpaceOnUse">
<stop stop-color="#28ED9B"/>
<stop offset="1" stop-color="#0A7D60"/>
</linearGradient>
<linearGradient id="paint4_linear_2385_90235" x1="223.726" y1="217.539" x2="223.726" y2="218.332" gradientUnits="userSpaceOnUse">
<stop stop-color="#28ED9B"/>
<stop offset="1" stop-color="#0A7D60"/>
</linearGradient>
<linearGradient id="paint5_linear_2385_90235" x1="217.14" y1="217.638" x2="217.14" y2="217.927" gradientUnits="userSpaceOnUse">
<stop stop-color="#28ED9B"/>
<stop offset="1" stop-color="#0A7D60"/>
</linearGradient>
<linearGradient id="paint6_linear_2385_90235" x1="208.488" y1="131.252" x2="208.488" y2="131.294" gradientUnits="userSpaceOnUse">
<stop stop-color="#28ED9B"/>
<stop offset="1" stop-color="#0A7D60"/>
</linearGradient>
<linearGradient id="paint7_linear_2385_90235" x1="199.258" y1="159.445" x2="199.258" y2="237.444" gradientUnits="userSpaceOnUse">
<stop stop-color="#28ED9B"/>
<stop offset="1" stop-color="#0A7D60"/>
</linearGradient>
<linearGradient id="paint8_linear_2385_90235" x1="202.593" y1="159.141" x2="202.593" y2="162.786" gradientUnits="userSpaceOnUse">
<stop stop-color="#28ED9B"/>
<stop offset="1" stop-color="#0A7D60"/>
</linearGradient>
<linearGradient id="paint9_linear_2385_90235" x1="213.763" y1="217.068" x2="213.763" y2="217.538" gradientUnits="userSpaceOnUse">
<stop stop-color="#28ED9B"/>
<stop offset="1" stop-color="#0A7D60"/>
</linearGradient>
<linearGradient id="paint10_linear_2385_90235" x1="210.153" y1="216.988" x2="210.153" y2="217.07" gradientUnits="userSpaceOnUse">
<stop stop-color="#28ED9B"/>
<stop offset="1" stop-color="#0A7D60"/>
</linearGradient>
<linearGradient id="paint11_linear_2385_90235" x1="207.726" y1="217.064" x2="207.726" y2="225.02" gradientUnits="userSpaceOnUse">
<stop stop-color="#28ED9B"/>
<stop offset="1" stop-color="#0A7D60"/>
</linearGradient>
<linearGradient id="paint12_linear_2385_90235" x1="210.821" y1="163.019" x2="210.821" y2="216.741" gradientUnits="userSpaceOnUse">
<stop stop-color="#28ED9B"/>
<stop offset="1" stop-color="#0A7D60"/>
</linearGradient>
<linearGradient id="paint13_linear_2385_90235" x1="207.684" y1="217.06" x2="207.684" y2="225.02" gradientUnits="userSpaceOnUse">
<stop stop-color="#28ED9B"/>
<stop offset="1" stop-color="#0A7D60"/>
</linearGradient>
<linearGradient id="paint14_linear_2385_90235" x1="216.97" y1="225.068" x2="216.97" y2="226.074" gradientUnits="userSpaceOnUse">
<stop stop-color="#28ED9B"/>
<stop offset="1" stop-color="#0A7D60"/>
</linearGradient>
<linearGradient id="paint15_linear_2385_90235" x1="207.329" y1="225.065" x2="207.329" y2="225.149" gradientUnits="userSpaceOnUse">
<stop stop-color="#28ED9B"/>
<stop offset="1" stop-color="#0A7D60"/>
</linearGradient>
<linearGradient id="paint16_linear_2385_90235" x1="196.165" y1="225.199" x2="196.165" y2="237.893" gradientUnits="userSpaceOnUse">
<stop stop-color="#28ED9B"/>
<stop offset="1" stop-color="#0A7D60"/>
</linearGradient>
<linearGradient id="paint17_linear_2385_90235" x1="207.288" y1="225.065" x2="207.288" y2="225.149" gradientUnits="userSpaceOnUse">
<stop stop-color="#28ED9B"/>
<stop offset="1" stop-color="#0A7D60"/>
</linearGradient>
<linearGradient id="paint18_linear_2385_90235" x1="196.144" y1="225.115" x2="196.144" y2="237.893" gradientUnits="userSpaceOnUse">
<stop stop-color="#28ED9B"/>
<stop offset="1" stop-color="#0A7D60"/>
</linearGradient>
<linearGradient id="paint19_linear_2385_90235" x1="195.442" y1="233.693" x2="195.442" y2="233.986" gradientUnits="userSpaceOnUse">
<stop stop-color="#28ED9B"/>
<stop offset="1" stop-color="#0A7D60"/>
</linearGradient>
<linearGradient id="paint20_linear_2385_90235" x1="199.663" y1="170.323" x2="199.663" y2="174.09" gradientUnits="userSpaceOnUse">
<stop stop-color="#28ED9B"/>
<stop offset="1" stop-color="#0A7D60"/>
</linearGradient>
<linearGradient id="paint21_linear_2385_90235" x1="188.53" y1="159.478" x2="188.53" y2="237.444" gradientUnits="userSpaceOnUse">
<stop stop-color="#28ED9B"/>
<stop offset="1" stop-color="#0A7D60"/>
</linearGradient>
<linearGradient id="paint22_linear_2385_90235" x1="188.507" y1="159.478" x2="188.507" y2="237.448" gradientUnits="userSpaceOnUse">
<stop stop-color="#28ED9B"/>
<stop offset="1" stop-color="#0A7D60"/>
</linearGradient>
<linearGradient id="paint23_linear_2385_90235" x1="179.372" y1="164.906" x2="179.372" y2="168.664" gradientUnits="userSpaceOnUse">
<stop stop-color="#28ED9B"/>
<stop offset="1" stop-color="#0A7D60"/>
</linearGradient>
<linearGradient id="paint24_linear_2385_90235" x1="185.277" y1="237.874" x2="185.277" y2="237.963" gradientUnits="userSpaceOnUse">
<stop stop-color="#28ED9B"/>
<stop offset="1" stop-color="#0A7D60"/>
</linearGradient>
<linearGradient id="paint25_linear_2385_90235" x1="185.255" y1="237.874" x2="185.255" y2="237.963" gradientUnits="userSpaceOnUse">
<stop stop-color="#28ED9B"/>
<stop offset="1" stop-color="#0A7D60"/>
</linearGradient>
<linearGradient id="paint26_linear_2385_90235" x1="181.838" y1="234.509" x2="181.838" y2="237.986" gradientUnits="userSpaceOnUse">
<stop stop-color="#28ED9B"/>
<stop offset="1" stop-color="#0A7D60"/>
</linearGradient>
<linearGradient id="paint27_linear_2385_90235" x1="181.551" y1="234.172" x2="181.551" y2="237.943" gradientUnits="userSpaceOnUse">
<stop stop-color="#28ED9B"/>
<stop offset="1" stop-color="#0A7D60"/>
</linearGradient>
<linearGradient id="paint28_linear_2385_90235" x1="173.932" y1="159.483" x2="173.932" y2="237.448" gradientUnits="userSpaceOnUse">
<stop stop-color="#28ED9B"/>
<stop offset="1" stop-color="#0A7D60"/>
</linearGradient>
<linearGradient id="paint29_linear_2385_90235" x1="159.783" y1="215.968" x2="159.783" y2="216.216" gradientUnits="userSpaceOnUse">
<stop stop-color="#28ED9B"/>
<stop offset="1" stop-color="#0A7D60"/>
</linearGradient>
<linearGradient id="paint30_linear_2385_90235" x1="160.871" y1="219.029" x2="160.871" y2="224.484" gradientUnits="userSpaceOnUse">
<stop stop-color="#28ED9B"/>
<stop offset="1" stop-color="#0A7D60"/>
</linearGradient>
<linearGradient id="paint31_linear_2385_90235" x1="138.966" y1="209.347" x2="138.966" y2="217.996" gradientUnits="userSpaceOnUse">
<stop stop-color="#28ED9B"/>
<stop offset="1" stop-color="#0A7D60"/>
</linearGradient>
<linearGradient id="paint32_linear_2385_90235" x1="139.836" y1="209.412" x2="139.836" y2="209.421" gradientUnits="userSpaceOnUse">
<stop stop-color="#28ED9B"/>
<stop offset="1" stop-color="#0A7D60"/>
</linearGradient>
<linearGradient id="paint33_linear_2385_90235" x1="139.683" y1="209.545" x2="139.683" y2="211.284" gradientUnits="userSpaceOnUse">
<stop stop-color="#28ED9B"/>
<stop offset="1" stop-color="#0A7D60"/>
</linearGradient>
<linearGradient id="paint34_linear_2385_90235" x1="157.298" y1="135.327" x2="157.298" y2="146.513" gradientUnits="userSpaceOnUse">
<stop stop-color="#28ED9B"/>
<stop offset="1" stop-color="#0A7D60"/>
</linearGradient>
<linearGradient id="paint35_linear_2385_90235" x1="127.415" y1="147.899" x2="127.415" y2="171.515" gradientUnits="userSpaceOnUse">
<stop stop-color="#28ED9B"/>
<stop offset="1" stop-color="#0A7D60"/>
</linearGradient>
<linearGradient id="paint36_linear_2385_90235" x1="89.0709" y1="281.601" x2="89.0709" y2="306.403" gradientUnits="userSpaceOnUse">
<stop stop-color="#28ED9B"/>
<stop offset="1" stop-color="#0A7D60"/>
</linearGradient>
<linearGradient id="paint37_linear_2385_90235" x1="89.0301" y1="281.566" x2="89.0301" y2="309.459" gradientUnits="userSpaceOnUse">
<stop stop-color="#28ED9B"/>
<stop offset="1" stop-color="#0A7D60"/>
</linearGradient>
<linearGradient id="paint38_linear_2385_90235" x1="57.7603" y1="308.464" x2="57.7603" y2="308.733" gradientUnits="userSpaceOnUse">
<stop stop-color="#28ED9B"/>
<stop offset="1" stop-color="#0A7D60"/>
</linearGradient>
<linearGradient id="paint39_linear_2385_90235" x1="57.5931" y1="308.189" x2="57.5931" y2="308.461" gradientUnits="userSpaceOnUse">
<stop stop-color="#28ED9B"/>
<stop offset="1" stop-color="#0A7D60"/>
</linearGradient>
</defs>
</svg>
